<svg xmlns="http://www.w3.org/2000/svg" width="90.01" height="840" viewBox="0 0 90.01 840"><path fill="#fff" d="M54.31 22.25c0 4.08-.77 7.17-2.3 9.24s-3.86 3.12-7 3.12-5.39-1-6.94-3-2.36-5-2.4-9v-4.95q0-6.13 2.3-9.2t7-3.07q4.67 0 7 3t2.36 8.94Zm-4.75-5.32a12 12 0 0 0-1.09-5.87 3.74 3.74 0 0 0-3.46-1.86 3.73 3.73 0 0 0-3.44 1.8 11.1 11.1 0 0 0-1.15 5.51v6.45a12.37 12.37 0 0 0 1.11 5.94 3.75 3.75 0 0 0 3.48 1.92 3.67 3.67 0 0 0 3.4-1.82 11.6 11.6 0 0 0 1.15-5.65ZM25.77 60.12l1.55-14.34h15.27v4.1H31.26l-.78 6.8a8.72 8.72 0 0 1 4.45-1.13 7.92 7.92 0 0 1 6.32 2.59 10.35 10.35 0 0 1 2.26 7 9.49 9.49 0 0 1-2.5 6.86 9.16 9.16 0 0 1-6.86 2.57 9.54 9.54 0 0 1-6.47-2.22 8 8 0 0 1-2.79-5.85h4.59a5.07 5.07 0 0 0 1.53 3.22 4.52 4.52 0 0 0 3.16 1.1 4.08 4.08 0 0 0 3.41-1.56A6.76 6.76 0 0 0 38.76 65a6 6 0 0 0-1.35-4.11 4.7 4.7 0 0 0-3.71-1.51 6.14 6.14 0 0 0-2.19.34 6.15 6.15 0 0 0-1.95 1.33Zm39.81 2.13c0 4.08-.77 7.17-2.3 9.24s-3.86 3.12-7 3.12-5.39-1-6.94-3-2.36-5-2.4-9v-4.95q0-6.13 2.3-9.2t7-3.07q4.66 0 7 3t2.36 8.94Zm-4.75-5.32a12 12 0 0 0-1.09-5.87 4.19 4.19 0 0 0-6.9-.09 11.1 11.1 0 0 0-1.15 5.51v6.45a12.37 12.37 0 0 0 1.11 5.94 3.75 3.75 0 0 0 3.5 1.95A3.67 3.67 0 0 0 59.68 69a11.6 11.6 0 0 0 1.15-5.65Zm-33.76 57.29h-4.73V91.37l-7 2.38v-4l11.1-4.09h.6Zm25.94-11.97c0 4.08-.76 7.17-2.29 9.24s-3.86 3.12-7 3.12-5.39-1-6.95-3-2.35-5-2.39-9v-4.95q0-6.14 2.29-9.2t7-3.07q4.66 0 7 3t2.34 8.93Zm-4.74-5.32a12 12 0 0 0-1.1-5.87 3.73 3.73 0 0 0-3.47-1.86 3.73 3.73 0 0 0-3.46 1.8 11.1 11.1 0 0 0-1.15 5.51v6.45a12.37 12.37 0 0 0 1.11 5.94 3.74 3.74 0 0 0 3.5 1.95 3.66 3.66 0 0 0 3.37-1.85 11.59 11.59 0 0 0 1.16-5.65Zm27.59 5.32c0 4.08-.77 7.17-2.3 9.24s-3.85 3.12-7 3.12-5.39-1-6.94-3-2.35-5-2.39-9v-4.95q0-6.14 2.29-9.2c1.53-2 3.87-3.07 7-3.07s5.44 1 7 3 2.31 5 2.35 8.94Zm-4.75-5.32a12 12 0 0 0-1.1-5.87 4.18 4.18 0 0 0-6.88-.06 11.08 11.08 0 0 0-1.12 5.48v6.45a12.24 12.24 0 0 0 1.12 5.94 3.73 3.73 0 0 0 3.49 1.95 3.66 3.66 0 0 0 3.39-1.82 11.6 11.6 0 0 0 1.15-5.65Zm-43.52 57.29h-4.73v-22.85l-7 2.38v-4l11.15-4.07h.61Zm7.95-14.1 1.54-14.34h15.28v4.1H41.01l-.78 6.8a8.72 8.72 0 0 1 4.45-1.13 7.93 7.93 0 0 1 6.33 2.59 10.35 10.35 0 0 1 2.25 7 9.45 9.45 0 0 1-2.5 6.9 9.12 9.12 0 0 1-6.85 2.57 9.57 9.57 0 0 1-6.48-2.22 8 8 0 0 1-2.78-5.85h4.59a5.06 5.06 0 0 0 1.48 3.18 4.56 4.56 0 0 0 3.17 1.1 4.09 4.09 0 0 0 3.41-1.56 6.76 6.76 0 0 0 1.23-4.26 6 6 0 0 0-1.35-4.11 4.72 4.72 0 0 0-3.71-1.51 6.14 6.14 0 0 0-2.19.34 6 6 0 0 0-2 1.33Zm39.8 2.13c0 4.08-.76 7.17-2.29 9.24s-3.86 3.12-7 3.12-5.39-1-7-3-2.35-5-2.39-9v-4.92q0-6.14 2.3-9.2c1.52-2.05 3.86-3.07 7-3.07s5.43 1 7 3 2.31 5 2.35 8.94Zm-4.74-5.32a12 12 0 0 0-1.1-5.87 4.18 4.18 0 0 0-6.89-.06 11.1 11.1 0 0 0-1.15 5.51v6.45a12.37 12.37 0 0 0 1.11 5.94 3.74 3.74 0 0 0 3.5 1.95 3.67 3.67 0 0 0 3.38-1.85 11.72 11.72 0 0 0 1.15-5.65Zm-38.11 57.29H13.37V191l9.47-10.34a23.4 23.4 0 0 0 2.92-3.81 6.21 6.21 0 0 0 .87-3.08 4.68 4.68 0 0 0-1.14-3.28 4 4 0 0 0-3.08-1.25 4.55 4.55 0 0 0-3.57 1.41 5.49 5.49 0 0 0-1.27 3.84h-4.75a9.34 9.34 0 0 1 1.19-4.71 8.19 8.19 0 0 1 3.38-3.24 10.77 10.77 0 0 1 5.07-1.15 9.59 9.59 0 0 1 6.55 2.08 7.21 7.21 0 0 1 2.4 5.75 9.81 9.81 0 0 1-1.2 4.47 25.67 25.67 0 0 1-3.94 5.3l-6.95 7.44h13.2Zm21.33-11.97c0 4.08-.76 7.17-2.29 9.24s-3.86 3.12-7 3.12-5.39-1-6.95-3-2.35-5-2.39-9v-4.92q0-6.14 2.29-9.2t7-3.07q4.66 0 7 3t2.35 8.94Zm-4.74-5.32a12 12 0 0 0-1.1-5.87 3.73 3.73 0 0 0-3.47-1.86 3.73 3.73 0 0 0-3.42 1.8 11.1 11.1 0 0 0-1.15 5.51v6.45a12.37 12.37 0 0 0 1.07 5.91 3.74 3.74 0 0 0 3.5 1.95 3.67 3.67 0 0 0 3.42-1.82 11.72 11.72 0 0 0 1.15-5.65Zm27.63 5.32c0 4.08-.77 7.17-2.3 9.24s-3.85 3.12-7 3.12-5.39-1-6.94-3-2.36-5-2.39-9v-4.92q0-6.14 2.29-9.2c1.53-2.05 3.87-3.07 7-3.07s5.44 1 7 3 2.31 5 2.35 8.94Zm-4.7-5.32a12 12 0 0 0-1.09-5.87 4.19 4.19 0 0 0-6.91-.06 11.21 11.21 0 0 0-1.15 5.51v6.45a12.24 12.24 0 0 0 1.12 5.94 3.73 3.73 0 0 0 3.49 1.95 3.66 3.66 0 0 0 3.34-1.85 11.6 11.6 0 0 0 1.2-5.64Zm-39.35 57.29H13.54V231l9.47-10.38a23.4 23.4 0 0 0 2.92-3.81 6.21 6.21 0 0 0 .87-3.08 4.68 4.68 0 0 0-1.14-3.28 4 4 0 0 0-3.08-1.25 4.54 4.54 0 0 0-3.57 1.41 5.49 5.49 0 0 0-1.27 3.84h-4.73a9.24 9.24 0 0 1 1.18-4.67 8.19 8.19 0 0 1 3.38-3.24 10.77 10.77 0 0 1 5.07-1.15 9.59 9.59 0 0 1 6.53 2.08 7.21 7.21 0 0 1 2.4 5.75 9.83 9.83 0 0 1-1.21 4.47 25.57 25.57 0 0 1-3.95 5.31l-6.95 7.44h13.2Zm4.08-14.1 1.54-14.34h15.27v4.1H42.23l-.79 6.8a8.75 8.75 0 0 1 4.46-1.13 7.93 7.93 0 0 1 6.32 2.59 10.35 10.35 0 0 1 2.25 7 9.45 9.45 0 0 1-2.46 6.86 9.13 9.13 0 0 1-6.85 2.57 9.55 9.55 0 0 1-6.48-2.22 8 8 0 0 1-2.78-5.85h4.59a5 5 0 0 0 1.48 3.18 4.55 4.55 0 0 0 3.17 1.1 4.1 4.1 0 0 0 3.41-1.56 6.76 6.76 0 0 0 1.18-4.22 6 6 0 0 0-1.35-4.11 4.72 4.72 0 0 0-3.71-1.51 6.14 6.14 0 0 0-2.19.34 6 6 0 0 0-1.95 1.33Zm39.8 2.13c0 4.08-.76 7.17-2.29 9.24s-3.86 3.12-7 3.12-5.38-1-6.94-3-2.35-5-2.39-9v-4.92q0-6.14 2.29-9.2c1.53-2.05 3.87-3.07 7-3.07s5.44 1 7 3 2.31 5 2.35 8.94Zm-4.74-5.32a12 12 0 0 0-1.1-5.87 4.18 4.18 0 0 0-6.89-.06 11.08 11.08 0 0 0-1.16 5.51v6.45a12.35 12.35 0 0 0 1.12 5.94 3.74 3.74 0 0 0 3.49 1.95 3.66 3.66 0 0 0 3.38-1.85 11.59 11.59 0 0 0 1.16-5.65Zm-53.16 40.9h2.89a5.17 5.17 0 0 0 3.48-1.13 4.05 4.05 0 0 0 1.28-3.22 4.41 4.41 0 0 0-1.07-3.16 4.27 4.27 0 0 0-3.21-1.12 4.55 4.55 0 0 0-3.14 1.1 3.7 3.7 0 0 0-1.23 2.88h-4.8a7.23 7.23 0 0 1 1.16-4 7.82 7.82 0 0 1 3.25-2.8 10.51 10.51 0 0 1 4.65-1 9.76 9.76 0 0 1 6.69 2.14 7.52 7.52 0 0 1 2.42 5.96 6 6 0 0 1-1.22 3.6 7.56 7.56 0 0 1-3.15 2.55 6.91 6.91 0 0 1 3.56 2.52 6.84 6.84 0 0 1 1.22 4.1 7.63 7.63 0 0 1-2.62 6.09 10.2 10.2 0 0 1-6.91 2.27 10.14 10.14 0 0 1-6.72-2.19 7.22 7.22 0 0 1-2.61-5.82h4.75a4 4 0 0 0 1.26 3 4.78 4.78 0 0 0 3.44 1.22 5 5 0 0 0 3.48-1.17 5.18 5.18 0 0 0-.06-6.86 5.73 5.73 0 0 0-3.95-1.21h-2.84Zm35.37 4.42c0 4.08-.77 7.17-2.3 9.24s-3.85 3.12-7 3.12-5.39-1-6.94-3-2.35-5-2.39-9v-4.92q0-6.14 2.29-9.2t7-3.07q4.68 0 7 3t2.34 8.9Zm-4.75-5.32a12 12 0 0 0-1.09-5.87 3.74 3.74 0 0 0-3.48-1.86 3.73 3.73 0 0 0-3.39 1.8 11.21 11.21 0 0 0-1.15 5.51v6.45a12.24 12.24 0 0 0 1.12 5.94 3.73 3.73 0 0 0 3.49 1.95 3.66 3.66 0 0 0 3.38-1.85 11.6 11.6 0 0 0 1.15-5.65Zm27.67 5.32c0 4.08-.77 7.17-2.3 9.24s-3.86 3.12-7 3.12-5.39-1-6.94-3-2.36-5-2.4-9v-4.92q0-6.14 2.3-9.2t7-3.07q4.66 0 7 3t2.36 8.94Zm-4.75-5.32a12.17 12.17 0 0 0-1.09-5.87 4.19 4.19 0 0 0-6.9-.09 11.1 11.1 0 0 0-1.18 5.51v6.45a12.37 12.37 0 0 0 1.11 5.94 3.74 3.74 0 0 0 3.5 1.95 3.67 3.67 0 0 0 3.39-1.82 11.6 11.6 0 0 0 1.15-5.65Zm-53.17 40.9h2.89a5.16 5.16 0 0 0 3.46-1.13 4 4 0 0 0 1.28-3.22 4.41 4.41 0 0 0-1.06-3.16 4.29 4.29 0 0 0-3.25-1.12 4.56 4.56 0 0 0-3.15 1.1 3.7 3.7 0 0 0-1.17 2.88h-4.79a7.16 7.16 0 0 1 1.17-4 7.73 7.73 0 0 1 3.24-2.8 10.59 10.59 0 0 1 4.66-1 9.76 9.76 0 0 1 6.72 2.15 7.52 7.52 0 0 1 2.43 6 6.08 6.08 0 0 1-1.22 3.6 7.66 7.66 0 0 1-3.21 2.5 6.6 6.6 0 0 1 4.79 6.62 7.64 7.64 0 0 1-2.63 6.09 10.19 10.19 0 0 1-6.9 2.27 10.1 10.1 0 0 1-6.72-2.19 7.2 7.2 0 0 1-2.62-5.82h4.75a4 4 0 0 0 1.26 3 4.78 4.78 0 0 0 3.39 1.17 4.91 4.91 0 0 0 3.47-1.17 5.18 5.18 0 0 0-.06-6.86 5.7 5.7 0 0 0-3.94-1.21h-2.79Zm17.73 2.29 1.54-14.34h15.27v4.1H42.23l-.79 6.8a8.75 8.75 0 0 1 4.46-1.13 7.93 7.93 0 0 1 6.32 2.59 10.35 10.35 0 0 1 2.25 7 9.45 9.45 0 0 1-2.46 6.86 9.13 9.13 0 0 1-6.85 2.57 9.55 9.55 0 0 1-6.48-2.22 8 8 0 0 1-2.78-5.85h4.59a5 5 0 0 0 1.48 3.18 4.55 4.55 0 0 0 3.17 1.1 4.1 4.1 0 0 0 3.41-1.56 6.76 6.76 0 0 0 1.18-4.22 6 6 0 0 0-1.35-4.11 4.72 4.72 0 0 0-3.71-1.51 6.14 6.14 0 0 0-2.19.34 6 6 0 0 0-1.95 1.33Zm39.8 2.13c0 4.08-.76 7.17-2.29 9.24s-3.86 3.12-7 3.12-5.38-1-6.94-3-2.35-5-2.39-9v-4.92q0-6.14 2.29-9.2c1.53-2 3.87-3.07 7-3.07s5.44 1 7 3 2.31 5 2.35 8.94Zm-4.74-5.32a12 12 0 0 0-1.1-5.87 4.18 4.18 0 0 0-6.89-.06 11.08 11.08 0 0 0-1.16 5.51v6.45a12.35 12.35 0 0 0 1.12 5.94 3.74 3.74 0 0 0 3.49 1.95 3.66 3.66 0 0 0 3.38-1.85 11.59 11.59 0 0 0 1.16-5.65Zm-42.79 47.15h3.53v3.81h-3.53v6.33h-4.79v-6.33H11.94L11.8 345l12.27-19.22h4.94Zm-12.19 0h7.44v-11.87l-.35.62Zm37.46-1.83c0 4.08-.77 7.17-2.3 9.24s-3.85 3.12-7 3.12-5.39-1-6.94-3-2.36-5-2.39-9v-4.92q0-6.14 2.29-9.2t7-3.07c3.11 0 5.44 1 7 3s2.31 5 2.35 8.94Zm-4.75-5.32a12 12 0 0 0-1.09-5.87 3.74 3.74 0 0 0-3.43-1.86 3.73 3.73 0 0 0-3.47 1.8 11.21 11.21 0 0 0-1.15 5.51v6.45a12.24 12.24 0 0 0 1.12 5.94 3.73 3.73 0 0 0 3.5 1.92 3.66 3.66 0 0 0 3.37-1.82 11.6 11.6 0 0 0 1.15-5.65Zm27.64 5.32c0 4.08-.77 7.17-2.3 9.24s-3.86 3.12-7 3.12-5.39-1-6.95-3-2.35-5-2.39-9v-4.92q0-6.14 2.3-9.2t7-3.07q4.66 0 7 3t2.36 8.94Zm-4.75-5.32a12.17 12.17 0 0 0-1.09-5.87 4.19 4.19 0 0 0-6.9-.09 11.1 11.1 0 0 0-1.15 5.51v6.45a12.37 12.37 0 0 0 1.11 5.94 3.74 3.74 0 0 0 3.5 1.95 3.67 3.67 0 0 0 3.38-1.82 11.6 11.6 0 0 0 1.15-5.65Zm-43.16 47.15h3.53v3.81h-3.53v6.33h-4.75v-6.33H12.23l-.14-2.89 12.27-19.22h4.9Zm-12.19 0h7.44v-11.87l-.35.62Zm20-3.96 1.54-14.34h15.28v4.1H42.56l-.78 6.8a8.72 8.72 0 0 1 4.45-1.13 7.92 7.92 0 0 1 6.32 2.59 10.35 10.35 0 0 1 2.26 7 9.49 9.49 0 0 1-2.5 6.9 9.16 9.16 0 0 1-6.86 2.57 9.54 9.54 0 0 1-6.44-2.22 8 8 0 0 1-2.79-5.85h4.59a5 5 0 0 0 1.49 3.18 4.52 4.52 0 0 0 3.16 1.1 4.09 4.09 0 0 0 3.41-1.56 6.76 6.76 0 0 0 1.19-4.26 6 6 0 0 0-1.35-4.11 4.7 4.7 0 0 0-3.7-1.51 6.14 6.14 0 0 0-2.19.34 6 6 0 0 0-1.95 1.33Zm39.81 2.13c0 4.08-.77 7.17-2.3 9.24s-3.86 3.12-7 3.12-5.39-1-7-3-2.35-5-2.39-9v-4.92q0-6.14 2.3-9.2t7-3.07q4.67 0 7 3t2.36 8.94Zm-4.75-5.32a12.17 12.17 0 0 0-1.12-5.87 4.19 4.19 0 0 0-6.9-.09 11.1 11.1 0 0 0-1.1 5.51v6.45a12.37 12.37 0 0 0 1.11 5.94 3.74 3.74 0 0 0 3.5 1.95 3.67 3.67 0 0 0 3.39-1.82 11.6 11.6 0 0 0 1.15-5.65Zm-57.8 43.19 1.54-14.34h15.28v4.1H19.82l-.78 6.8a8.72 8.72 0 0 1 4.45-1.13 7.93 7.93 0 0 1 6.32 2.59 10.35 10.35 0 0 1 2.25 7 9.45 9.45 0 0 1-2.5 6.9 9.12 9.12 0 0 1-6.85 2.57 9.57 9.57 0 0 1-6.48-2.22 8 8 0 0 1-2.78-5.85h4.56a5.06 5.06 0 0 0 1.48 3.18 4.56 4.56 0 0 0 3.17 1.1 4.09 4.09 0 0 0 3.41-1.56 6.76 6.76 0 0 0 1.25-4.26 6 6 0 0 0-1.31-4.11 4.72 4.72 0 0 0-3.71-1.51 6.14 6.14 0 0 0-2.19.34 6 6 0 0 0-1.95 1.33Zm39.8 2.13c0 4.08-.76 7.17-2.29 9.24s-3.86 3.12-7 3.12-5.39-1-7-3-2.35-5-2.39-9v-4.92q0-6.14 2.29-9.2t7-3.07q4.66 0 7 3t2.35 8.94Zm-4.74-5.32a12 12 0 0 0-1.1-5.87 3.72 3.72 0 0 0-3.47-1.86 3.73 3.73 0 0 0-3.42 1.8 11.1 11.1 0 0 0-1.15 5.51v6.45a12.37 12.37 0 0 0 1.11 5.94 3.74 3.74 0 0 0 3.5 1.95 3.65 3.65 0 0 0 3.37-1.85 11.59 11.59 0 0 0 1.16-5.65Zm27.62 5.32c0 4.08-.77 7.17-2.3 9.24s-3.85 3.12-7 3.12-5.39-1-6.94-3-2.35-5-2.39-9v-4.92q0-6.14 2.29-9.2t7-3.07c3.11 0 5.44 1 7 3s2.31 5 2.35 8.94Zm-4.75-5.32a12 12 0 0 0-1.09-5.87 4.18 4.18 0 0 0-6.89-.09 11.08 11.08 0 0 0-1.16 5.51v6.45a12.24 12.24 0 0 0 1.12 5.94 3.73 3.73 0 0 0 3.49 1.95 3.66 3.66 0 0 0 3.39-1.82 11.6 11.6 0 0 0 1.15-5.65Zm-57.63 43.19 1.54-14.34h15.28v4.1H20.12l-.78 6.8a8.69 8.69 0 0 1 4.45-1.13 7.93 7.93 0 0 1 6.32 2.59 10.35 10.35 0 0 1 2.25 7 9.45 9.45 0 0 1-2.5 6.9 9.12 9.12 0 0 1-6.85 2.57 9.55 9.55 0 0 1-6.48-2.22 8 8 0 0 1-2.78-5.85h4.59a5.06 5.06 0 0 0 1.48 3.18 4.56 4.56 0 0 0 3.17 1.1 4.09 4.09 0 0 0 3.41-1.56 6.76 6.76 0 0 0 1.22-4.26 6 6 0 0 0-1.35-4.11 4.72 4.72 0 0 0-3.71-1.51 6.14 6.14 0 0 0-2.19.34 6 6 0 0 0-1.95 1.33Zm22.28 0 1.55-14.34h15.27v4.1H42.4l-.78 6.8a8.75 8.75 0 0 1 4.46-1.13 7.91 7.91 0 0 1 6.31 2.59 10.3 10.3 0 0 1 2.26 7 9.45 9.45 0 0 1-2.5 6.9 9.14 9.14 0 0 1-6.86 2.57 9.54 9.54 0 0 1-6.47-2.22 8 8 0 0 1-2.81-5.85h4.59a5 5 0 0 0 1.48 3.18 4.54 4.54 0 0 0 3.16 1.1 4.08 4.08 0 0 0 3.41-1.56A6.7 6.7 0 0 0 49.9 465a6 6 0 0 0-1.34-4.11 4.72 4.72 0 0 0-3.72-1.51 5.22 5.22 0 0 0-4.14 1.67Zm39.81 2.13c0 4.08-.77 7.17-2.3 9.24s-3.85 3.12-7 3.12-5.39-1-6.94-3-2.36-5-2.39-9v-4.92q0-6.14 2.29-9.2t7-3.07c3.11 0 5.44 1 7 3s2.31 5 2.35 8.94Zm-4.71-5.32a12 12 0 0 0-1.09-5.87 4.19 4.19 0 0 0-6.91-.06 11.21 11.21 0 0 0-1.15 5.51v6.45a12.24 12.24 0 0 0 1.12 5.94 3.73 3.73 0 0 0 3.49 1.95 3.66 3.66 0 0 0 3.35-1.85 11.6 11.6 0 0 0 1.19-5.64Zm-44.16 28.71v3.93h-.59a9.43 9.43 0 0 0-6.37 2.19 9.15 9.15 0 0 0-2.83 6 7.72 7.72 0 0 1 5.84-2.4 7.29 7.29 0 0 1 5.95 2.66 10.45 10.45 0 0 1 2.16 6.88 9.77 9.77 0 0 1-2.55 7 8.81 8.81 0 0 1-6.69 2.69 8.6 8.6 0 0 1-6.91-3.15 12.37 12.37 0 0 1-2.64-8.24v-1.6q0-7.49 3.64-11.72t10.48-4.24Zm-5.1 13.58a5 5 0 0 0-2.86.88 5.11 5.11 0 0 0-1.88 2.34v1.45a8.57 8.57 0 0 0 1.33 5 4.06 4.06 0 0 0 3.44 1.86 4 4 0 0 0 3.34-1.58 6.6 6.6 0 0 0 1.2-4.17 6.7 6.7 0 0 0-1.25-4.2 4 4 0 0 0-3.32-1.58Zm31.36 3.03c0 4.08-.76 7.17-2.29 9.24s-3.86 3.12-7 3.12-5.38-1-6.94-3-2.35-5-2.39-9v-4.92q0-6.14 2.29-9.2c1.53-2 3.87-3.07 7-3.07s5.44 1 7 3 2.31 5 2.35 8.94Zm-4.75-5.32a12 12 0 0 0-1.09-5.87 3.74 3.74 0 0 0-3.48-1.86 3.72 3.72 0 0 0-3.41 1.8 11.08 11.08 0 0 0-1.16 5.51v6.45a12.24 12.24 0 0 0 1.12 5.94 3.73 3.73 0 0 0 3.49 1.95 3.66 3.66 0 0 0 3.38-1.85 11.49 11.49 0 0 0 1.15-5.65Zm27.65 5.32c0 4.08-.77 7.17-2.3 9.24s-3.86 3.12-7 3.12-5.39-1-6.94-3-2.36-5-2.4-9v-4.92q0-6.14 2.3-9.2t7-3.07q4.67 0 7 3t2.34 8.9Zm-4.75-5.32a12 12 0 0 0-1.09-5.87 4.19 4.19 0 0 0-6.9-.09 11.1 11.1 0 0 0-1.15 5.51v6.45a12.37 12.37 0 0 0 1.11 5.94 3.75 3.75 0 0 0 3.5 1.95A3.67 3.67 0 0 0 71.1 509a11.6 11.6 0 0 0 1.15-5.65Zm-44.13 28.71v3.93h-.58a9.43 9.43 0 0 0-6.37 2.19 9.15 9.15 0 0 0-2.83 6 7.71 7.71 0 0 1 5.84-2.4 7.3 7.3 0 0 1 5.95 2.66 10.45 10.45 0 0 1 2.17 6.85 9.77 9.77 0 0 1-2.54 7 8.81 8.81 0 0 1-6.69 2.69 8.6 8.6 0 0 1-6.91-3.15 12.37 12.37 0 0 1-2.64-8.24v-1.57q0-7.49 3.64-11.72t10.48-4.24Zm-5.12 13.58a5 5 0 0 0-2.86.88 5.11 5.11 0 0 0-1.91 2.34v1.45a8.5 8.5 0 0 0 1.33 5 4.21 4.21 0 0 0 6.78.28 6.6 6.6 0 0 0 1.26-4.17 6.7 6.7 0 0 0-1.25-4.2 4 4 0 0 0-3.35-1.58Zm13.9.9 1.54-14.34h15.27v4.1H42.39l-.78 6.8a8.75 8.75 0 0 1 4.46-1.13 7.91 7.91 0 0 1 6.31 2.59 10.3 10.3 0 0 1 2.26 7 9.45 9.45 0 0 1-2.5 6.9 9.14 9.14 0 0 1-6.86 2.57 9.54 9.54 0 0 1-6.47-2.22 8 8 0 0 1-2.8-5.85h4.59a5 5 0 0 0 1.48 3.18 4.54 4.54 0 0 0 3.16 1.1 4.08 4.08 0 0 0 3.41-1.56 6.7 6.7 0 0 0 1.24-4.26 6 6 0 0 0-1.34-4.11 4.72 4.72 0 0 0-3.71-1.51 5.23 5.23 0 0 0-4.15 1.67Zm39.8 2.13c0 4.08-.77 7.17-2.3 9.24s-3.85 3.12-7 3.12-5.39-1-6.94-3-2.36-5-2.39-9v-4.92q0-6.13 2.29-9.2c1.53-2.05 3.87-3.07 7-3.07s5.44 1 7 3 2.31 5 2.35 8.94Zm-4.7-5.32a12 12 0 0 0-1.09-5.87 4.19 4.19 0 0 0-6.91-.06 11.21 11.21 0 0 0-1.15 5.51v6.45a12.24 12.24 0 0 0 1.12 5.94 3.73 3.73 0 0 0 3.49 2 3.66 3.66 0 0 0 3.34-1.9 11.6 11.6 0 0 0 1.2-5.64Zm-39.55 31.49-11.37 25.8h-5l11.35-24.63H12.75v-3.81h19.71Zm21.2 13.83c0 4.08-.76 7.17-2.29 9.24s-3.86 3.12-7 3.12-5.38-1-6.94-3-2.35-5-2.39-9v-4.92q0-6.13 2.29-9.2c1.53-2.05 3.87-3.07 7-3.07s5.44 1 7 3 2.31 5 2.35 8.94Zm-4.74-5.32a12 12 0 0 0-1.1-5.87 3.74 3.74 0 0 0-3.48-1.86 3.72 3.72 0 0 0-3.41 1.8 11.08 11.08 0 0 0-1.16 5.51v6.45a12.35 12.35 0 0 0 1.12 5.94 3.73 3.73 0 0 0 3.49 2 3.66 3.66 0 0 0 3.38-1.9 11.59 11.59 0 0 0 1.16-5.65Zm27.63 5.32c0 4.08-.77 7.17-2.3 9.24s-3.85 3.12-7 3.12-5.39-1-6.94-3-2.36-5-2.4-9v-4.92q0-6.13 2.3-9.2t7-3.07q4.66 0 7 3t2.36 8.94Zm-4.75-5.32a12 12 0 0 0-1.09-5.87 4.19 4.19 0 0 0-6.9-.09 11.1 11.1 0 0 0-1.15 5.51v6.45a12.37 12.37 0 0 0 1.11 5.94 3.75 3.75 0 0 0 3.5 2 3.67 3.67 0 0 0 3.38-1.87 11.6 11.6 0 0 0 1.15-5.65Zm-38.96 31.49-11.37 25.8h-5l11.35-24.63H13.13v-3.81h19.71Zm3.52 11.7 1.54-14.34h15.28v4.1H41.85l-.78 6.8a8.72 8.72 0 0 1 4.45-1.13 7.92 7.92 0 0 1 6.32 2.59 10.35 10.35 0 0 1 2.26 7 9.49 9.49 0 0 1-2.5 6.9 9.16 9.16 0 0 1-6.86 2.57 9.54 9.54 0 0 1-6.47-2.22 8 8 0 0 1-2.79-5.85h4.59a5 5 0 0 0 1.49 3.18 4.52 4.52 0 0 0 3.16 1.1 4.09 4.09 0 0 0 3.41-1.56 6.76 6.76 0 0 0 1.22-4.26 6 6 0 0 0-1.34-4.11 4.7 4.7 0 0 0-3.71-1.51 6.14 6.14 0 0 0-2.19.34 6 6 0 0 0-2 1.33Zm39.81 2.13c0 4.08-.77 7.17-2.3 9.24s-3.86 3.12-7 3.12-5.39-1-6.95-3-2.35-5-2.39-9v-4.92q0-6.13 2.3-9.2t7-3.07q4.66 0 7 3t2.36 8.94Zm-4.75-5.32a12.17 12.17 0 0 0-1.09-5.87 4.19 4.19 0 0 0-6.9-.09 11.1 11.1 0 0 0-1.15 5.51v6.45a12.37 12.37 0 0 0 1.11 5.94 3.74 3.74 0 0 0 3.5 2 3.67 3.67 0 0 0 3.38-1.87 11.6 11.6 0 0 0 1.15-5.65Zm-40.41 36.35a6.64 6.64 0 0 1-1.08 3.72 7.47 7.47 0 0 1-2.92 2.57 8.09 8.09 0 0 1 3.42 2.83 7.15 7.15 0 0 1 1.2 4.06 7.46 7.46 0 0 1-2.53 5.95 10 10 0 0 1-6.76 2.2 10 10 0 0 1-6.79-2.21 7.45 7.45 0 0 1-2.54-5.94 7.21 7.21 0 0 1 1.21-4.1 7.78 7.78 0 0 1 3.4-2.79 7.38 7.38 0 0 1-2.9-2.57 6.64 6.64 0 0 1-1.06-3.72 7.4 7.4 0 0 1 2.35-5.76 9 9 0 0 1 6.33-2.13 9.1 9.1 0 0 1 6.35 2.13 7.4 7.4 0 0 1 2.32 5.76Zm-4.12 13a4.69 4.69 0 0 0-1.26-3.41 4.45 4.45 0 0 0-3.33-1.3 4.37 4.37 0 0 0-3.29 1.24 4.71 4.71 0 0 0-1.24 3.42 4.55 4.55 0 0 0 1.24 3.34 4.49 4.49 0 0 0 3.37 1.25 4.5 4.5 0 0 0 3.35-1.21 4.59 4.59 0 0 0 1.15-3.38Zm-.61-12.77a4.44 4.44 0 0 0-1.07-3.06 3.69 3.69 0 0 0-2.89-1.2 3.71 3.71 0 0 0-2.87 1.14 5.07 5.07 0 0 0 0 6.22 3.72 3.72 0 0 0 2.88 1.15 3.72 3.72 0 0 0 2.88-1.15 4.39 4.39 0 0 0 1.06-3.15Zm27.82 8.74c0 4.08-.76 7.17-2.29 9.24s-3.86 3.12-7 3.12-5.39-1-7-3-2.35-5-2.39-9v-4.92q0-6.13 2.29-9.2t7-3.07q4.66 0 7 3t2.35 8.94Zm-4.74-5.32a12 12 0 0 0-1.1-5.87 3.72 3.72 0 0 0-3.47-1.86 3.73 3.73 0 0 0-3.42 1.8 11.1 11.1 0 0 0-1.15 5.51v6.45a12.37 12.37 0 0 0 1.11 5.94 3.74 3.74 0 0 0 3.5 2 3.66 3.66 0 0 0 3.37-1.9 11.59 11.59 0 0 0 1.16-5.65Zm27.65 5.32c0 4.08-.77 7.17-2.3 9.24s-3.85 3.12-7 3.12-5.39-1-6.94-3-2.35-5-2.39-9v-4.92q0-6.13 2.29-9.2t7-3.07c3.11 0 5.44 1 7 3s2.31 5 2.35 8.94Zm-4.75-5.32a12 12 0 0 0-1.09-5.87 4.18 4.18 0 0 0-6.89-.09 11.08 11.08 0 0 0-1.16 5.51v6.45a12.24 12.24 0 0 0 1.12 5.94 3.73 3.73 0 0 0 3.49 2 3.66 3.66 0 0 0 3.36-1.87 11.6 11.6 0 0 0 1.15-5.65Zm-40.87 36.35a6.57 6.57 0 0 1-1.08 3.72 7.4 7.4 0 0 1-2.93 2.57 8.06 8.06 0 0 1 3.43 2.83 7.15 7.15 0 0 1 1.2 4.06 7.47 7.47 0 0 1-2.54 5.95 9.93 9.93 0 0 1-6.76 2.2 10 10 0 0 1-6.78-2.21 7.45 7.45 0 0 1-2.55-5.94 7.21 7.21 0 0 1 1.21-4.1 7.78 7.78 0 0 1 3.4-2.79 7.31 7.31 0 0 1-2.9-2.57 6.64 6.64 0 0 1-1.08-3.72 7.38 7.38 0 0 1 2.35-5.76 9 9 0 0 1 6.32-2.13 9.08 9.08 0 0 1 6.33 2.13 7.41 7.41 0 0 1 2.38 5.76Zm-4.13 13a4.69 4.69 0 0 0-1.25-3.46 4.45 4.45 0 0 0-3.33-1.3 4.38 4.38 0 0 0-3.31 1.29 4.76 4.76 0 0 0-1.24 3.42 4.59 4.59 0 0 0 1.22 3.34 4.52 4.52 0 0 0 3.37 1.25 4.48 4.48 0 0 0 3.35-1.21 4.59 4.59 0 0 0 1.19-3.38Zm-.6-12.77a4.4 4.4 0 0 0-1.08-3.06 3.66 3.66 0 0 0-2.89-1.2 3.73 3.73 0 0 0-2.87 1.14 5.11 5.11 0 0 0 0 6.22 3.72 3.72 0 0 0 2.88 1.15 3.72 3.72 0 0 0 2.88-1.15 4.39 4.39 0 0 0 1.08-3.15Zm10.14 6.61 1.54-14.34h15.28v4.1H42.29l-.78 6.8a8.72 8.72 0 0 1 4.5-1.13 7.93 7.93 0 0 1 6.32 2.59 10.35 10.35 0 0 1 2.25 7 9.45 9.45 0 0 1-2.57 6.86 9.12 9.12 0 0 1-6.85 2.57 9.57 9.57 0 0 1-6.48-2.22 8 8 0 0 1-2.78-5.85h4.61a5.06 5.06 0 0 0 1.5 3.22 4.56 4.56 0 0 0 3.17 1.1 4.09 4.09 0 0 0 3.41-1.56 6.76 6.76 0 0 0 1.2-4.26 6 6 0 0 0-1.35-4.11 4.72 4.72 0 0 0-3.71-1.51 6.14 6.14 0 0 0-2.19.34 6 6 0 0 0-2 1.33Zm39.8 2.13c0 4.08-.76 7.17-2.29 9.24s-3.86 3.12-7 3.12-5.39-1-6.95-3-2.35-5-2.39-9v-4.92q0-6.13 2.3-9.2c1.52-2.05 3.86-3.07 7-3.07s5.43 1 7 3 2.31 5 2.35 8.94Zm-4.74-5.32a12 12 0 0 0-1.1-5.87 4.18 4.18 0 0 0-6.89-.09 11.1 11.1 0 0 0-1.15 5.51v6.45a12.37 12.37 0 0 0 1.11 5.94 3.74 3.74 0 0 0 3.5 2 3.67 3.67 0 0 0 3.38-1.87 11.72 11.72 0 0 0 1.15-5.65Zm-45.32 45.39a7.43 7.43 0 0 1-5.53 2.52 7.43 7.43 0 0 1-6-2.62 10.3 10.3 0 0 1-2.23-6.91 11.3 11.3 0 0 1 1.14-5.1 8.39 8.39 0 0 1 3.22-3.55 9.1 9.1 0 0 1 4.87-1.27 8.23 8.23 0 0 1 6.82 3.2 13.52 13.52 0 0 1 2.52 8.58v1.33q0 7.69-3.48 11.73t-10.37 4.11h-.57v-3.93h.69a9.69 9.69 0 0 0 6.44-2q2.21-1.98 2.48-6.09Zm-4.53-1.19a4.79 4.79 0 0 0 2.68-.82 5.34 5.34 0 0 0 1.93-2.26v-1.86a8.91 8.91 0 0 0-1.29-5.06 3.89 3.89 0 0 0-3.34-1.91 3.83 3.83 0 0 0-3.27 1.69 7.12 7.12 0 0 0-1.22 4.27 7 7 0 0 0 1.23 4.31 3.88 3.88 0 0 0 3.28 1.64Zm32.1 1.12c0 4.08-.77 7.17-2.3 9.24s-3.86 3.12-7 3.12-5.39-1-6.94-3-2.36-5-2.4-9v-4.92q0-6.13 2.3-9.2t7-3.07q4.66 0 7 3t2.36 8.94Zm-4.75-5.32a12 12 0 0 0-1.09-5.87 3.74 3.74 0 0 0-3.48-1.86 3.73 3.73 0 0 0-3.42 1.8 11.1 11.1 0 0 0-1.15 5.51v6.45a12.37 12.37 0 0 0 1.11 5.94 3.75 3.75 0 0 0 3.5 2 3.67 3.67 0 0 0 3.38-1.9 11.6 11.6 0 0 0 1.15-5.65Zm27.65 5.32c0 4.08-.76 7.17-2.29 9.24s-3.86 3.12-7 3.12-5.39-1-6.95-3-2.35-5-2.39-9v-4.92c0-4.09.76-7.16 2.3-9.2s3.86-3.07 7-3.07 5.43 1 7 3 2.31 5 2.35 8.94Zm-4.74-5.32a12 12 0 0 0-1.1-5.87 4.18 4.18 0 0 0-6.89-.09 11.1 11.1 0 0 0-1.15 5.51v6.45a12.37 12.37 0 0 0 1.11 5.94 3.74 3.74 0 0 0 3.5 2 3.65 3.65 0 0 0 3.35-1.87 11.59 11.59 0 0 0 1.16-5.65Zm-45.09 45.39a7.45 7.45 0 0 1-5.57 2.52 7.41 7.41 0 0 1-6-2.62 10.3 10.3 0 0 1-2.23-6.91 11.43 11.43 0 0 1 1.13-5.1 8.52 8.52 0 0 1 3.22-3.55 9.14 9.14 0 0 1 4.85-1.27 8.22 8.22 0 0 1 6.81 3.2 13.52 13.52 0 0 1 2.52 8.58v1.33q0 7.69-3.47 11.73t-10.37 4.11h-.57v-3.93h.68a9.73 9.73 0 0 0 6.45-2q2.28-1.98 2.55-6.09Zm-4.57-1.19a4.74 4.74 0 0 0 2.67-.82 5.37 5.37 0 0 0 1.94-2.26v-1.86a8.91 8.91 0 0 0-1.29-5.06 3.89 3.89 0 0 0-3.34-1.91 3.82 3.82 0 0 0-3.27 1.69 8.12 8.12 0 0 0 0 8.58 3.88 3.88 0 0 0 3.29 1.64Zm13.94-1.01 1.55-14.34h15.27v4.1H42.01l-.78 6.8a8.74 8.74 0 0 1 4.45-1.13 7.92 7.92 0 0 1 6.33 2.59 10.3 10.3 0 0 1 2.26 7 9.49 9.49 0 0 1-2.5 6.9 9.14 9.14 0 0 1-6.86 2.57 9.54 9.54 0 0 1-6.47-2.22 8 8 0 0 1-2.79-5.85h4.59a5.07 5.07 0 0 0 1.49 3.18 4.54 4.54 0 0 0 3.16 1.1 4.08 4.08 0 0 0 3.41-1.56 6.76 6.76 0 0 0 1.24-4.26 6 6 0 0 0-1.35-4.11 4.69 4.69 0 0 0-3.71-1.51 6 6 0 0 0-2.18.34 6.17 6.17 0 0 0-2 1.33Zm39.81 2.13c0 4.08-.77 7.17-2.3 9.24s-3.85 3.12-7 3.12-5.39-1-6.94-3-2.36-5-2.4-9v-4.92q0-6.13 2.3-9.2t7-3.07q4.66 0 7 3t2.36 8.94Zm-4.75-5.32a12 12 0 0 0-1.09-5.87 4.19 4.19 0 0 0-6.9-.09 11.1 11.1 0 0 0-1.15 5.51v6.45a12.37 12.37 0 0 0 1.11 5.94 3.75 3.75 0 0 0 3.5 2 3.67 3.67 0 0 0 3.38-1.87 11.6 11.6 0 0 0 1.15-5.65Zm-55.98 57.29H10.9v-22.85l-7 2.38v-4l11.11-4.07h.61Zm25.9-11.97c0 4.08-.77 7.17-2.3 9.24s-3.85 3.12-7 3.12-5.39-1-6.94-3-2.35-5-2.39-9v-4.92q0-6.13 2.29-9.2t7-3.07c3.11 0 5.44 1 7 3s2.31 5 2.35 8.94Zm-4.75-5.32a12 12 0 0 0-1.09-5.87 3.74 3.74 0 0 0-3.48-1.86 3.71 3.71 0 0 0-3.41 1.8 11.08 11.08 0 0 0-1.16 5.51v6.45a12.24 12.24 0 0 0 1.12 5.94 3.73 3.73 0 0 0 3.49 2 3.66 3.66 0 0 0 3.38-1.9 11.6 11.6 0 0 0 1.15-5.65Zm27.64 5.32c0 4.08-.77 7.17-2.3 9.24s-3.86 3.12-7 3.12-5.39-1-6.94-3-2.36-5-2.4-9v-4.92q0-6.13 2.3-9.2t7-3.07q4.66 0 7 3t2.36 8.94Zm-4.75-5.32a12 12 0 0 0-1.09-5.87 4.19 4.19 0 0 0-6.9-.09 11.1 11.1 0 0 0-1.15 5.51v6.45a12.37 12.37 0 0 0 1.11 5.94 3.75 3.75 0 0 0 3.5 2 3.67 3.67 0 0 0 3.38-1.87 11.6 11.6 0 0 0 1.15-5.65Zm27.63 5.32c0 4.08-.76 7.17-2.29 9.24s-3.86 3.12-7 3.12-5.39-1-7-3-2.35-5-2.39-9v-4.92q0-6.13 2.29-9.2t7-3.07q4.67 0 7 3t2.35 8.94Zm-4.74-5.32a12 12 0 0 0-1.1-5.87 4.18 4.18 0 0 0-6.89-.09 11.1 11.1 0 0 0-1.15 5.51v6.45a12.37 12.37 0 0 0 1.11 5.94 3.74 3.74 0 0 0 3.5 2A3.65 3.65 0 0 0 81.4 829a11.59 11.59 0 0 0 1.16-5.65Z" style="isolation:isolate"/><path fill="none" d="M.01 0h90v40h-90zm0 40h90v40h-90zm0 40h90v40h-90zm0 40h90v40h-90zm0 40h90v40h-90zm0 40h90v40h-90zM0 240h90v40H0zm.01 40h90v40h-90zm0 40h90v40h-90zm0 40h90v40h-90zm0 40h90v40h-90zm0 40h90v40h-90zm0 40h90v40h-90zM0 520h90v40H0zm.01 40h90v40h-90zm0 40h90v40h-90zm0 40h90v40h-90zm0 40h90v40h-90zm0 40h90v40h-90zm0 40h90v40h-90zM0 800h90v40H0z"/></svg>