<svg xmlns="http://www.w3.org/2000/svg" xmlns:xlink="http://www.w3.org/1999/xlink" width="30" height="30" viewBox="0 0 30 30"><defs><linearGradient id="a" x1="15" y1="316" x2="15" y2="346" gradientTransform="translate(0 -316)" gradientUnits="userSpaceOnUse"><stop offset="0" stop-color="#00b2ff"/><stop offset="1" stop-color="#006aff"/></linearGradient></defs><path d="M23.73,10.22a.71.71,0,0,0-.68,0l-4.73,3.59a.86.86,0,0,1-.54.18.9.9,0,0,1-.54-.18L13.73,11.2a2.34,2.34,0,0,0-.83-.39,2.09,2.09,0,0,0-.93,0,2.43,2.43,0,0,0-.85.35,2.12,2.12,0,0,0-.64.66H10.4L6,18.8a.72.72,0,0,0,1,.95l4.73-3.59A.9.9,0,0,1,12.3,16a.86.86,0,0,1,.54.18l3.51,2.63a2.34,2.34,0,0,0,.83.39A2.26,2.26,0,0,0,19,18.85a2.12,2.12,0,0,0,.64-.66l4.41-7A.72.72,0,0,0,23.73,10.22Z" transform="translate(0)" style="fill:#fff"/><path d="M15,0C6.55,0,0,6.19,0,14.55A14.25,14.25,0,0,0,4.71,25.31,1.24,1.24,0,0,1,5,25.7a1.09,1.09,0,0,1,.09.47l.09,2.67a1.33,1.33,0,0,0,.15.55,1.18,1.18,0,0,0,.41.42,1.21,1.21,0,0,0,.55.19,1.23,1.23,0,0,0,.57-.1l3-1.32a1.22,1.22,0,0,1,.8-.06A16.27,16.27,0,0,0,15,29.1c8.45,0,15-6.19,15-14.55S23.45,0,15,0Zm9.05,11.19-4.41,7a2.12,2.12,0,0,1-.64.66,2.26,2.26,0,0,1-1.82.35,2.34,2.34,0,0,1-.83-.39l-3.51-2.63A.86.86,0,0,0,12.3,16a.9.9,0,0,0-.57.16L7,19.75a.72.72,0,0,1-1-.95l4.4-7h.08a2.12,2.12,0,0,1,.64-.66,2.43,2.43,0,0,1,.85-.35,2.09,2.09,0,0,1,.93,0,2.34,2.34,0,0,1,.83.39l3.51,2.63a.9.9,0,0,0,.54.18.86.86,0,0,0,.54-.18l4.73-3.59a.72.72,0,0,1,1,.95Z" transform="translate(0)" style="fill:url(#a)"/></svg>