<svg xmlns="http://www.w3.org/2000/svg" xmlns:xlink="http://www.w3.org/1999/xlink" width="30" height="30" viewBox="0 0 30 30"><linearGradient id="a" y1="15" x2="30" y2="15" gradientUnits="userSpaceOnUse"><stop offset="0" stop-color="#2aabee"/><stop offset="1" stop-color="#229ed9"/></linearGradient></defs><path d="M21.13,9c-.56,0-1.43.34-5.59,2.07q-2.19.91-8.75,3.77c-.71.28-1.08.56-1.12.83,0,.46.52.64,1.3.88l.33.11a10.27,10.27,0,0,0,2.33.55,2.9,2.9,0,0,0,1.62-.6c4.09-2.76,6.2-4.16,6.33-4.18a.34.34,0,0,1,.31,0,.32.32,0,0,1,.07.27,42.82,42.82,0,0,1-3.46,3.41c-.36.33-.62.57-.67.63l-.35.35c-.72.68-1.25,1.2,0,2,.61.4,1.1.73,1.59,1.07l1.75,1.18c.18.11.34.23.51.35a2.83,2.83,0,0,0,1.87.77c.4,0,.81-.41,1-1.53.5-2.66,1.48-8.42,1.7-10.79a2,2,0,0,0,0-.59.67.67,0,0,0-.22-.41A1,1,0,0,0,21.13,9Z" style="fill:#fff"/><path d="M15,0A15,15,0,1,0,30,15,15,15,0,0,0,15,0Zm6.9,10.14c-.22,2.37-1.2,8.13-1.7,10.79-.19,1.12-.6,1.53-1,1.53a2.83,2.83,0,0,1-1.87-.77c-.17-.12-.33-.24-.51-.35l-1.75-1.18c-.49-.34-1-.67-1.59-1.07-1.25-.8-.72-1.32,0-2l.35-.35c.05-.06.31-.3.67-.63A42.82,42.82,0,0,0,18,12.7a.32.32,0,0,0-.07-.27.34.34,0,0,0-.31,0c-.13,0-2.24,1.42-6.33,4.18a2.9,2.9,0,0,1-1.62.6,10.27,10.27,0,0,1-2.33-.55L7,16.55c-.78-.24-1.3-.42-1.3-.88,0-.27.41-.55,1.12-.83q6.55-2.86,8.75-3.77C19.7,9.34,20.57,9,21.13,9a1,1,0,0,1,.55.14.67.67,0,0,1,.22.41A2,2,0,0,1,21.9,10.14Z" style="fill:url(#a)"/></svg>