<svg xmlns="http://www.w3.org/2000/svg" xmlns:xlink="http://www.w3.org/1999/xlink" width="32" height="32" viewBox="0 0 32 32"><defs><linearGradient id="a" x1="15" y1="3.96" x2="15" y2="33.96" gradientTransform="matrix(1, 0, 0, -1, 0, 34)" gradientUnits="userSpaceOnUse"><stop offset="0" stop-color="#40ec60"/><stop offset="1" stop-color="#18c83d"/></linearGradient><linearGradient id="b" x1="15.05" y1="11.95" x2="15.05" y2="25.96" xlink:href="#a"/></defs><rect width="32" height="32" style="fill:none"/><path d="M15.06,27.27a12.43,12.43,0,0,1-6.32-1.73l-.46-.27L3.59,26.5l1.25-4.56-.29-.47a12.26,12.26,0,0,1-1.9-6.58A12.42,12.42,0,0,1,23.84,6.17a12.21,12.21,0,0,1,2.69,4,12,12,0,0,1,.94,4.73A12.4,12.4,0,0,1,15.06,27.27Z" style="fill:#fff"/><path d="M28.86,9.22A14.83,14.83,0,0,0,25.62,4.4h0A14.91,14.91,0,0,0,2.11,22.34L0,30,7.92,28a15,15,0,0,0,7.14,1.81h0A14.92,14.92,0,0,0,30,14.91,14.64,14.64,0,0,0,28.86,9.22Zm-13.8,18a12.43,12.43,0,0,1-6.32-1.73l-.46-.27L3.59,26.5l1.25-4.56-.29-.47a12.26,12.26,0,0,1-1.9-6.58A12.42,12.42,0,0,1,23.84,6.17a12.21,12.21,0,0,1,2.69,4,12,12,0,0,1,.94,4.73A12.4,12.4,0,0,1,15.06,27.27Z" style="fill:url(#a)"/><path d="M21.87,18c-.38-.19-2.21-1.09-2.55-1.22s-.6-.18-.84.19-1,1.21-1.18,1.45-.44.28-.81.1a10.22,10.22,0,0,1-3-1.85,11,11,0,0,1-2.08-2.57c-.21-.37,0-.57.17-.76l.56-.65a2.43,2.43,0,0,0,.37-.62.68.68,0,0,0,0-.65c-.09-.18-.84-2-1.15-2.75S10.72,8,10.49,8H9.77a1.63,1.63,0,0,0-.54.12,1.37,1.37,0,0,0-.45.34,4.12,4.12,0,0,0-1.3,3.1A7.19,7.19,0,0,0,9,15.44,16.54,16.54,0,0,0,15.37,21c.7.3,1.41.56,2.13.79a5.19,5.19,0,0,0,2.35.15,3.89,3.89,0,0,0,2.52-1.77,3,3,0,0,0,.21-1.77C22.49,18.29,22.24,18.2,21.87,18Z" style="fill:url(#b)"/></svg>