<svg xmlns="http://www.w3.org/2000/svg" width="26" height="26" viewBox="0 0 26 26"><title>right-arrow-icon</title><path d="M0,13A13,13,0,1,0,3.81,3.81,13,13,0,0,0,0,13ZM12.17,7.76l5,4.5a1,1,0,0,1,.24.33,1.06,1.06,0,0,1,0,.82,1.27,1.27,0,0,1-.24.33l-5,4.5a1.17,1.17,0,0,1-.34.2.84.84,0,0,1-.38.06,1.12,1.12,0,0,1-.38-.1.72.72,0,0,1-.31-.23.85.85,0,0,1-.2-.34.73.73,0,0,1-.06-.38.8.8,0,0,1,.1-.38.65.65,0,0,1,.23-.31L15,13,10.83,9.24a.76.76,0,0,1-.23-.31.86.86,0,0,1-.1-.38.71.71,0,0,1,.06-.38.73.73,0,0,1,.2-.34.65.65,0,0,1,.31-.23.8.8,0,0,1,.38-.1.73.73,0,0,1,.38.06A.85.85,0,0,1,12.17,7.76Z" transform="translate(0 0)"/></svg>