<svg xmlns="http://www.w3.org/2000/svg" viewBox="0 0 192 192"><defs/><path d="M103 160.65v.06l-.21-.11a132.69 132.69 0 005.42-30.31 4.34 4.34 0 00-2.21-4.19 62.68 62.68 0 00-12.13-1.62c.29.06.59.11.88.18 3.89.89 4.24 3.35 3.77 4.41a.66.66 0 01.5.59.68.68 0 01-.63.63h-.29c.92 9-4.66 6.63-9.76 14.27-2.6 3.85-1 14.27 5.84 17.4 1.23.53 4.22 1 8.27 1.1a8.68 8.68 0 01.86-2.28zM118 147.29a86.44 86.44 0 01-2 12.79l-.6.25c1.59.63 3.12 1.27 4.88 1.86a117.59 117.59 0 00-2.28-14.9z" fill="none"/><path d="M89.59 109.55v.1l-.73.74c10.2 2 17.88 3.91 27.61 6.55 5.21 1.46 5.31 2.19 7.4 7.09a140.81 140.81 0 019.78 34.73l3 .45.22-.1a.74.74 0 01.59-.28 23.92 23.92 0 008.24-6.36c2.65-3.18 5.14-10.78 4.64-19.5a219.73 219.73 0 00-6.61-25.09c-1.4-4.28-2.46-5.44-.14-6.56l-.71-2.8a13.14 13.14 0 01-4.17-2.52 3.55 3.55 0 01-.46 0l.52.2c-.32 0-.73-.11-1.15-.11-1.77-.42-1.25-.83-2.92.11a1.87 1.87 0 00-.52.2l.24-.26c-8.28 4.54-14 9.15-22.53 11.62a8.83 8.83 0 01-3-2.69l-1.68.4c-2.55-1.42-5.41-8.9-7.67-16.26l-.46.21c-.4-1.12-.77-2.2-1.12-3.24-4.39 6.4-8.33 12.7-8.5 20.43a25.93 25.93 0 00.13 2.94zM153.36 165.33c-6.79 5.06-11.93 7.7-24.07 7.77-15.94.11-35.53.11-49 .32l-10.38 2.06a17.58 17.58 0 01-1.39 2.43c8.71-.13 17.94-.18 27.5-.12 24.54.15 46.91.92 63.86 2.07a18.34 18.34 0 01-4.79-12.38v-.59c-1.35.11-1.91.11-1.73-1.56z" fill="none"/><path d="M115.35 160.33c-4.16 1.78-7.69 2.12-12 .45a8.68 8.68 0 00-.86 2.28 101.82 101.82 0 0013.6-.48c1.37-.13 2.77-.24 4.18-.34v-.05a61.85 61.85 0 01-4.92-1.86z" fill="#b83c49"/><path d="M108.14 130.29a132.69 132.69 0 01-5.42 30.31l.21.11v-.06c3-4.63 8.3-18.54 6.43-32.45.73.21 1.25.84 1.87.94a13.7 13.7 0 01-1.62-1.75c1.82.86 3.12 1.94 3.6 3.31a131.27 131.27 0 015.94 22.71c.1-5.62-1.56-12.39-5.42-25.31.73-.21 1.57.21 2.4.1-1.25-.21-2.5-1-3.65-1.35 1.36-.11 2.82.21 4.17.1-18.16-4.25-30.42-3.66-48.38-3.39a17.15 17.15 0 003.17.37c8.17.3 15.86-.73 22.35.55A62.68 62.68 0 01106 126.1a4.34 4.34 0 012.14 4.19z" fill="#3c3c3b"/><path d="M25.52 141.85a7.29 7.29 0 01.35-1.49 6.32 6.32 0 00-2.53 3.78 3.69 3.69 0 001.53 4.09v-.75a24.91 24.91 0 01.65-5.63z" fill="#ffe26b"/><path d="M26.31 147.83a38.85 38.85 0 015.95-8.41c-.77-.15-1.1-.14-1.45.15a8.12 8.12 0 00-.91 1.14 28.53 28.53 0 00-3.59 7.12z" fill="#158e30"/><path d="M159.91 179.86c-16.95-1.15-39.32-1.92-63.86-2.07-9.56-.06-18.79 0-27.5.12a18.44 18.44 0 01-29.76.89C15.29 179.91.06 181.81 0 184c-.1 3.75 42.82 7 95.84 7.29s95.95-2.5 96.06-6.25c0-.94-2.66-1.84-7.52-2.68a18.4 18.4 0 01-24.47-2.54zm-131.16 5.43H13.23c-1.56-2.6-1.56-4.58.11-4.58s4.28 1.79 6.42 4.19c-.26-2.38.76-4 2.64-4a6.65 6.65 0 014 1.79 4.24 4.24 0 013.22-1.17c2.7 0 6 1.56 8.75 3.75zm108.56.31c-.21-1.14.2-1.87 1.25-1.87a7.51 7.51 0 014 1.87zm25 0a.31.31 0 010-.1h-19.17c-.1-2.19 1.35-3.75 4.06-3.75a11.86 11.86 0 015 1.38 3.09 3.09 0 012.78-1.38c2.29 0 5 1.56 7.28 3.74-.16-1.08.26-1.76 1.26-1.76a7.51 7.51 0 014 1.87z" fill="#ececec"/><path d="M129.29 173.1c12.14-.07 17.28-2.71 24.07-7.77 0-.33.1-.71.2-1.18a22.43 22.43 0 012.29-5.88v-.05a31.59 31.59 0 01-12.38 10.4c-5.21 2.5-7 2.3-12.5 2.3-9.49 0-35.07-.06-59.48-.12a18.09 18.09 0 01-1.53 4.68l10.38-2.06c13.42-.21 33.01-.21 48.95-.32zM26.57 170.83q-2.67.71-5.32 1.44c.11.83.31 1.67.42 2.5 4.51-1.23 9.11-2.36 13.63-3.48 0-.15 0-.3-.08-.45z" fill="#3c3c3b"/><path d="M53.34 185.92a18.39 18.39 0 0015.21-8 17.58 17.58 0 001.39-2.43 18.09 18.09 0 001.53-4.68h-6.22a12.39 12.39 0 01-23.82 0h-6.21c0 .15 0 .3.08.45a18.45 18.45 0 0018 14.63z" fill="#57564a"/><path d="M53.34 177.79a10.33 10.33 0 01-9.75-7h-2.16a12.39 12.39 0 0023.82 0H63.1a10.34 10.34 0 01-9.76 7z" fill="#777567"/><path d="M53.34 177.79a10.34 10.34 0 009.76-7h-3.74a6.57 6.57 0 01-1.13 1.5 7 7 0 01-9.79 0 6.66 6.66 0 01-1.11-1.48h-3.74a10.33 10.33 0 009.75 6.98z" fill="#a3a291"/><path d="M53.44 174a6.28 6.28 0 004.69-2 6.89 6.89 0 001-1.29h-1.46a5.46 5.46 0 01-8.65 0h-1.3a6 6 0 001 1.27 6.46 6.46 0 004.72 2.02z" fill="#a3a291"/><path d="M53.34 174.25a6.93 6.93 0 004.89-2 6.57 6.57 0 001.13-1.5h-.21a6.89 6.89 0 01-1 1.29 6.28 6.28 0 01-4.69 2 6.46 6.46 0 01-4.69-2 6 6 0 01-1-1.27h-.39a6.66 6.66 0 001.11 1.48 6.93 6.93 0 004.85 2z" fill="#3d3e3e"/><path d="M53.34 172.9a5.52 5.52 0 004.33-2.13h-8.65a5.52 5.52 0 004.32 2.13z" fill="#777567"/><path d="M35.22 170.84h36.24c24.41.06 50 .12 59.48.12 5.52 0 7.29.2 12.5-2.3a31.59 31.59 0 0012.38-10.4l.34-.52-.32.57a22.43 22.43 0 00-2.29 5.88c-.1.47-.16.85-.2 1.18-.18 1.64.38 1.63 1.79 1.56a14.59 14.59 0 012.86.07 6.9 6.9 0 003.17-.56 14.91 14.91 0 002.23-1.11c1.11-.65 2.25-1.45 3.45-2.28.77-.54 1.56-1.09 2.38-1.64q.94-.65 1.95-1.26l1.49-.86.82-.43a24.3 24.3 0 013.05-1.3 19.45 19.45 0 013.28-.83q.58-.09 1.2-.15c2.74-.23 5.78.44 7.74.54 1.62.08 2.51-.23 1.85-1.79-2.06-4.8-11.75-9.5-21.39-7.71-.62.11-1.23.25-1.85.42-4 1.13-7.54 4.23-10 7.83.46-.81.9-1.65 1.3-2.52 4.07-8.54 2.61-17.09-.83-28.23a108.65 108.65 0 00-9.27-22.3c-1.77-3-3-1.25-2.09.94a110.81 110.81 0 016.52 23.61c2 11.77 1.77 19.27-2.3 26.77A45.06 45.06 0 01147 160a24.84 24.84 0 01-3.46 3.79c-3.62 3.19-8 4.88-14.18 5-2 0-4.84.07-8.25.11-9.76.1-24.41.19-39.63.28h-3.24c-.73-16.79-3.56-25.7-13.26-27.82-8.13-1.66-22.71.94-34 8.86 8.55-9.79 24.59-13.44 34.59-10.94 10.35 2.49 15.08 11.65 15.85 29l38.77-1.26c.08-.83 0-1.19.33-1.28 0-.47 0-1 .09-1.46a89.58 89.58 0 01-14.1-1.12c2.92 0 6.15-.21 9.59-.52 1-.1 2.44-.15 4.1-.23v-.22c-1.41.1-2.81.21-4.18.34a101.82 101.82 0 01-13.6.48c-4-.14-7-.57-8.27-1.1-6.88-3.13-8.44-13.55-5.84-17.4 5.1-7.64 10.68-5.23 9.76-14.27H42.43a82.29 82.29 0 00-10.17 9.13 38.85 38.85 0 00-5.95 8.41 28.53 28.53 0 013.59-7.12 8.12 8.12 0 01.91-1.14c-3.42-.6-4.47-.35-4.94.79a7.29 7.29 0 00-.35 1.49 24.91 24.91 0 00-.62 5.63v.75c0 .6 0 1 .7 1.11-2.36 5.07-3.79 10.89-5.57 18.87-.62 2.81.63 2.6 3.34 2.6h3.23zm40-1.69h-4.79c-.11-15.74-.21-25.42-14.69-26.36 16.77-2.19 19.89 12.5 19.48 26.36zm-26.36-22.4a10.61 10.61 0 017 4.79 11.08 11.08 0 01-11.56 16.88 7.08 7.08 0 01-1.36-.42 10.69 10.69 0 008.23-1.56 11.06 11.06 0 003.23-15.32 11.57 11.57 0 00-5.62-4.37zm-10.73 3.43a10.39 10.39 0 017.08-2.91 10 10 0 017.09 17.08 10.4 10.4 0 01-7.09 2.92 10 10 0 01-7.08-2.92 10.36 10.36 0 01-2.92-7.08 10 10 0 012.92-7.09zm44.69-10.93v.83h-7.39v-.83zm-7.39-.84v-.83h7.39v.83zm7.39 2.4v.83h-7.39v-.83zm0 1.56v.94h-7.39v-.94zm-51.36.42c.63-1.36 2.71-3.55 4.9-5.63C43 131 52 131.54 61.78 131.74c3 .11 30-1.14 30 .94 0 3.54-39.27-.31-48.65 2.61-4.48 1.45-7.4 4-10.83 7.5-.42.52-1.67 1.87-.84 0z" fill="#6cb52d"/><path d="M144.18 76.11c-1-.31-1.35-3.12-.73-6.35.54-2.69 1.62-4.83 2.57-5.18a.88.88 0 00-.28-.13c-1.14-.32-2.6 2.08-3.43 5.41-.63 3.34-.32 6.25.93 6.67a2.18 2.18 0 001.85-.59 1.23 1.23 0 01-.91.17z" fill="#e5e8f0"/><path d="M136.91 159.12l-.22.1h.12l.08-.09zM120.33 163.21c0-.25 0-.5-.07-.75-1.66.08-3.06.13-4.1.23-3.44.31-6.67.52-9.59.52a89.58 89.58 0 0014.1 1.12 9.22 9.22 0 01.18-1.13z" fill="#158e30"/><path d="M134.39 92.68c2.6-.73 2.29-.94 4.06-2.92 1.36-1.56 2.09-2.19 3-2.4a3.36 3.36 0 011.12.06 27.53 27.53 0 013.23-1.14l-.18-.06a4.79 4.79 0 00-2.5-.52c-1 .1-2 .73-3.75 2.29-2.4 2-2.08 2.19-5 2.81-6.77 1.41-14 2.66-20.12 4.65l.85 3.37c5.64-2.6 12.73-4.27 19.29-6.14zM107.2 105.39l1.68-.4c-3.34-4.3-6.42-12.15-8.14-16.43l-1.21.57c2.26 7.36 5.12 14.87 7.67 16.26z" fill="#d7b78f"/><path d="M110.43 58.58c-1.46.05-3.15 0-4.9-.07-1 0-2.08-.12-3.09-.2L100.31 60a35 35 0 002.94 2.68zM116 44.44h.43zM114.8 60.59a14.34 14.34 0 00-4.8 3 13.55 13.55 0 014.7-2.9l1.93.09-.09-.07c-.64-.03-1.22-.07-1.74-.12zM127.72 42.67l.66-.39v-1.69l-10.51 2.76zM130.27 56.74zM128.44 49.46a1.32 1.32 0 01-1.34.4c-1-.21-1-3.12-1.15-5.1l-9.82.14c1.52 5.89 2.33 9.58-.2 12a7.21 7.21 0 002.21 2.78l9.48 1.9a11.79 11.79 0 01-3.23-.11 77.88 77.88 0 00-4.13-.45l.21.11c1.14.11 2.4.25 3.82.45 4.34.64 5.5-.6 5.81-2.09 0 .11 0 .21-.09.32-.1-3.13-.31-1.77-2.81-3a4.26 4.26 0 003.13-.32c0 .1 0 .21-.06.31a1.53 1.53 0 01.16-.51c1-1.78.42-1 .21-4.17 2.71-1.88 2.92-2.19.63-4.27a10.77 10.77 0 01-1-1c-.2 1.45-.71 2.63-1.83 2.61zm-4.78 4.36c-.42-1.15.62-1.35 1.46 0-.63-.94-1.46-1.35-1.46 0zm7.29.94a2.72 2.72 0 01-.52 1.35 4.57 4.57 0 01-6-2.6 5.41 5.41 0 006.57 1.25zm1.36-4.38c-1.77 1.67-2.61 1.25-2.5.42.1-.42 1.45.1 2.5-.42zm-2.19-.21c-.73-.2-1.25.42-.63 1.15-.83-.42-.41-1.46.63-1.15z" fill="#fdd5a5"/><path d="M117 43.41l.84-.06 10.51-2.76v-1.22zM127.1 49.86a1.32 1.32 0 001.34-.4 1.53 1.53 0 01-.3 0c-1-.21-1-3.13-1-5H116.01l.12.43 9.82-.14c.11 1.99.11 4.9 1.15 5.11z" fill="#d7b78f"/><path d="M146.27 100.39c.42-.16.85-.29 1.28-.42a29.1 29.1 0 01-4.63-1.44l.71 2.8a18.69 18.69 0 012.64-.94z" fill="#3c3c3b"/><path d="M156.43 100.19c3.57-2.64 4.83-11 1.72-14.62.85 3.43.03 11.43-1.72 14.62z" fill="#ffe26b"/><path d="M147.49 89.26a2.14 2.14 0 011.07 2.06c-.83 4.58-4.51 5.89-6.18 4a2.06 2.06 0 01-1.17-.82l-.15.25c0-.11-.06-.2-.09-.3a2.64 2.64 0 01-2.26 1.55 13.14 13.14 0 004.21 2.58 29.1 29.1 0 004.63 1.44c-.43.13-.86.26-1.28.42a18.69 18.69 0 00-2.64.94c-2.32 1.12-1.26 2.28.14 6.56a219.73 219.73 0 016.61 25.06c.5 8.72-2 16.32-4.64 19.5a23.92 23.92 0 01-8.24 6.36h.12c.21 0 .31.21.1.31l-.17.2.72.1.08-.09a.81.81 0 01.73-.31c.21 0 .31.21.1.31l-.16.19.87.1.44-.5a.79.79 0 01.73-.31c.21 0 .31.21.1.31l-.51.58a49.44 49.44 0 005 .26c.52 0 1 0 1.39.06a45.06 45.06 0 003.71-5.9c4.07-7.5 4.28-15 2.3-26.77a110.81 110.81 0 00-6.57-23.65c-.93-2.19.32-4 2.09-.94a108.65 108.65 0 019.27 22.3c3.44 11.14 4.9 19.69.83 28.23-.4.87-.84 1.71-1.3 2.52 2.51-3.6 6-6.7 10-7.83.62-.17 1.23-.31 1.85-.42-1.69-18.78-7-29.12-18.47-47 .65.09 1.31.17 2 .23a5.84 5.84 0 01.67-2.16 23 23 0 001.15-12.19 3.36 3.36 0 01-.17-1.58 47 47 0 00-5.93.79c-.29 1.03-.63 2.24-.98 3.56z" fill="#158e30"/><path d="M143.87 87.68a15.66 15.66 0 012.26.8l.67-2.46-1 .26a27.53 27.53 0 00-3.23 1.14c.43.06.81.16 1.3.26z" fill="#158e30"/><path d="M114.8 60.59c.52 0 1.1.09 1.74.13a7.25 7.25 0 01-2.18-2.72h-.08a11.38 11.38 0 01-3.85.59l-7.18 4.05a17 17 0 005.18 2.87c.55-.69 1-1.3 1.57-1.9a14.34 14.34 0 014.8-3.02zM124.39 61.42a11.79 11.79 0 003.23.11l-9.48-1.9a11.83 11.83 0 002.12 1.37c1.22.07 2.58.21 4.13.42z" fill="#d7b78f"/><path d="M154.6 86.43a23 23 0 01-1.15 12.19 5.84 5.84 0 00-.67 2.16.46.46 0 00.46.44c.32 0 1.36.31 1.57.31.6 0 1.14-.48 1.62-1.34C158.18 97 159 89 158.15 85.57c-.22-.94-.57-1.52-1.05-1.54-.21 0-1.36.21-1.56.21-.7.05-1 .27-1.11.61a3.36 3.36 0 00.17 1.58z" fill="#6cb52d"/><path d="M156.17 157.7l-.34.52v.05c.17-.19.23-.38.34-.57zM75.43 137.58h7.4v.83h-7.4zM75.43 139.25h7.4v.83h-7.4zM75.43 140.81h7.4v.83h-7.4zM75.43 142.37h7.4v.94h-7.4z" fill="#158e30"/><path d="M118.14 59.63a7.21 7.21 0 01-2.21-2.78 7.13 7.13 0 01-1.57 1.1 7.25 7.25 0 002.18 2.77l.09.07a13.62 13.62 0 001.4 1 5.16 5.16 0 002.5-.63h-.06l-.21-.11a11.83 11.83 0 01-2.12-1.42z" fill="#6f5b6f"/><path d="M26.37 182.71a6.65 6.65 0 00-4-1.79c-1.88 0-2.9 1.6-2.64 4-2.14-2.4-4.84-4.19-6.42-4.19s-1.67 2-.11 4.58h25.14c-2.71-2.19-6.05-3.75-8.75-3.75a4.24 4.24 0 00-3.22 1.15zM137.31 185.6h5.21a7.51 7.51 0 00-4-1.87c-1.01 0-1.42.73-1.21 1.87zM162.3 185.49c-2.29-2.18-5-3.74-7.28-3.74a3.09 3.09 0 00-2.78 1.38 11.86 11.86 0 00-5-1.38c-2.71 0-4.16 1.56-4.06 3.75h19.12a.31.31 0 000 .1h5.21a7.51 7.51 0 00-4-1.87c-.95 0-1.37.68-1.21 1.76z" fill="#fff"/><path d="M117.83 43.35l-.84.06-1.14.41.16.62h11.09c0 1.88 0 4.8 1 5a1.53 1.53 0 00.3 0c1.12 0 1.63-1.16 1.82-2.72 0-.27.05-.55.07-.84 1.14 1 .83-4.48.83-5.31l-2.78 1.69-.66.39z" fill="#3c3c3b"/><path d="M124.39 53.51a4.57 4.57 0 006 2.6 2.72 2.72 0 00.52-1.35 5.41 5.41 0 01-6.52-1.25z" fill="#b83c49"/><path d="M96.26 54.34a7.56 7.56 0 001.87.47c15.59-.19 15.4 2.76 15.07-9.38l-.27-1.09-.31-1.15a1.43 1.43 0 011-1.77l2.89-1 13.54-5.84C127.68 26 116.28 22 107.82 25c-9.37 3.34-12.29 7.92-13.44 14.8-.83 4.89-.83 7.29 0 10.62.43 1.72.64 3 1 3.86a1.86 1.86 0 01.88.06zM96 38c.83-5.31 6.15-9.79 13.44-12.29 3.12-1.25 11.35-.73.52 2.81-3.75 1.25-6.88 4.48-5.31 9.07C109 50.28 94.18 48.82 96 38z" fill="#6cb52d"/><path d="M120.22 167.37v-.3l-38.77 1.26v.89c15.22-.09 29.87-.18 39.63-.28a1.47 1.47 0 01-.86-1.57z" fill="#3c3c3b"/><path d="M140.65 159.72l-1.78 2a.81.81 0 01-.73.31c-.21 0-.31-.21-.1-.31l1.85-2.11-.87-.1-2.13 2.49a.83.83 0 01-.73.31c-.21 0-.31-.21-.1-.31l2.21-2.52-.72-.1-2.12 2.41a.79.79 0 01-.73.31c-.21 0-.31-.21-.1-.31l2.21-2.52h-.12l-3-.45v.06c-4 3.85-6.92 4.25-12.81 4.37a9.22 9.22 0 00-.18 1.13c-.06.49-.08 1-.09 1.46a4.31 4.31 0 011.41.12c6 .88 14.66 0 21.58-2.08A24.84 24.84 0 00147 160c-.42 0-.87-.06-1.39-.06a49.44 49.44 0 01-4.96-.22z" fill="#b83c49"/><path d="M122 165.91a4.31 4.31 0 00-1.41-.12c-.29.09-.25.45-.33 1.28v.3a1.47 1.47 0 00.92 1.57c3.41 0 6.22-.07 8.25-.11 6.13-.12 10.56-1.81 14.18-5-6.96 2.06-15.61 2.96-21.61 2.08zM136.91 159.12l-.08.09-2.21 2.52c-.21.1-.11.31.1.31a.79.79 0 00.73-.31l2.12-2.41.17-.2c.21-.1.11-.31-.1-.31h-.12a.74.74 0 00-.61.31zM136.06 162c-.21.1-.11.31.1.31a.83.83 0 00.73-.31l2.13-2.42.16-.19c.21-.1.11-.31-.1-.31a.81.81 0 00-.73.31l-.08.09zM138 161.75c-.21.1-.11.31.1.31a.81.81 0 00.73-.31l1.78-2 .51-.58c.21-.1.11-.31-.1-.31a.79.79 0 00-.73.31l-.44.5z" fill="#fff"/><path d="M65.63 139.35c-10-2.5-26 1.15-34.59 10.94 11.26-7.92 25.84-10.52 34-8.86 9.7 2.12 12.53 11 13.26 27.82h3.24v-.89C80.71 151 76 141.84 65.63 139.35z" fill="#158e30"/><path d="M120.85 163.2c5.89-.12 8.76-.52 12.81-4.37v-.06a140.81 140.81 0 00-9.79-34.77c-2.09-4.9-2.19-5.63-7.4-7.09a382.44 382.44 0 00-27.61-6.55l-1.45 1.45c-5 5.12-12.7 11.58-23.52 10.46a45.59 45.59 0 004.41 1.26c18-.27 30.22-.86 48.38 3.39-1.35.11-2.81-.21-4.17-.1 1.15.31 2.4 1.14 3.65 1.35-.83.11-1.67-.31-2.4-.1 3.86 12.92 5.52 19.69 5.42 25.31a131.27 131.27 0 00-5.94-22.71c-.48-1.37-1.78-2.45-3.6-3.31a13.7 13.7 0 001.62 1.75c-.62-.1-1.14-.73-1.87-.94 1.87 13.91-3.4 27.82-6.43 32.45l.35.13c4.35 1.67 7.88 1.33 12-.45l.6-.25a86.44 86.44 0 002-12.79 117.59 117.59 0 012.28 14.9v.27c0 .25 0 .5.07.75z" fill="#6f5b6f"/><path d="M89.45 106.53a24.06 24.06 0 00.14 3 25.93 25.93 0 01-.14-3z" fill="#e5e8f0"/><path d="M63.89 122.3c10.82 1.12 18.49-5.34 23.52-10.46-.52-5.93 4.26-5.31-5.42-8.12 6.67.31 10.83.21 1-1.46 7.17 1 8.88-8.77 12.8-14.69C93.43 79.1 93.15 73 94.7 69.69c-.39 3.3.64 8.57 3.25 16.41.35 1 .72 2.12 1.12 3.24l.46-.21 1.21-.57 10.49-5 1.07-.51c-2.15-6.37-3.06-11-4.36-14.06-1.19-2.76-2.71-4.16-5.81-4.23a16.77 16.77 0 00-2.43-5.25c2.6 2.6 5 4.88 9.24 6.24v-.09l-.54-.2a17 17 0 01-5.18-2.87 35 35 0 01-2.91-2.59l-.51-.5C72.09 67 59.9 97.24 62.07 121.77zm15.6-48.89C69.8 88.2 68.34 90.59 63.76 104.76c4.06-17.19 5.31-17.5 15.73-31.35z" fill="#e5e8f0"/><path d="M98.47 129.07c.47-1.06.12-3.52-3.77-4.41-.29-.07-.59-.12-.88-.18-6.49-1.28-14.18-.25-22.35-.55a17.15 17.15 0 01-3.17-.37 45.59 45.59 0 01-4.41-1.26l-1.82-.53c-3.35-.89-8-1.69-16.55-1.49a5 5 0 00-4.89 5 3.73 3.73 0 002.06 3.72h55.65a.28.28 0 01.13.07z" fill="#a65c45"/><path d="M98.34 130.29a.68.68 0 00.63-.63.66.66 0 00-.5-.59.28.28 0 00-.13 0H41.15a.59.59 0 00-.62.62.68.68 0 00.62.63h57.19z" fill="#3c3c3b"/><path d="M129.81 50.8c-.11.83.73 1.25 2.5-.42-1.05.52-2.4 0-2.5.42z" fill="#d7b78f"/><path d="M129.49 51.32c-.62-.73-.1-1.35.63-1.15-1.04-.31-1.46.73-.63 1.15zM125.12 53.82c-.84-1.35-1.88-1.15-1.46 0 0-1.35.83-.94 1.46 0zM127.2 56.74c2.5 1.25 2.71-.11 2.81 3 0-.11.06-.21.09-.32a15.46 15.46 0 00.17-2.67c0-.1 0-.21.06-.31a4.26 4.26 0 01-3.13.3z" fill="#d7b78f"/><path d="M104.6 37.57c-1.57-4.59 1.56-7.82 5.31-9.07 10.83-3.54 2.6-4.06-.52-2.81C102.1 28.19 96.78 32.67 96 38c-1.82 10.82 13 12.28 8.6-.43z" fill="#9dc970"/><path d="M98.13 54.81c1.85.3 4.65.54 7.4.68 3.44.21 6.57.21 7.3-.21 2.44-1.27 1.76-4.3.37-9.85.33 12.14.52 9.19-15.07 9.38zM116.55 40.4l13.57-4.81.22-.07-.22-1z" fill="#158e30"/><path d="M110.43 58.58a11.38 11.38 0 003.85-.59h.08a7.13 7.13 0 001.57-1.1c2.53-2.37 1.72-6.06.2-12l-.12-.43-.16-.62 1.14-.41 11.34-4 2.73-1a1.39 1.39 0 00.93-1.87 1.46 1.46 0 00-1.65-1l-.22.07-13.57 4.77-2.89 1a1.43 1.43 0 00-1 1.77l.31 1.15.27 1.09c1.39 5.55 2.07 8.58-.37 9.85-.73.42-3.86.42-7.3.21a75.6 75.6 0 01-7.4-.68 7.56 7.56 0 01-1.87-.47 1.86 1.86 0 00-.89-.1 1.4 1.4 0 00-1.09.83 1.5 1.5 0 00.73 2 31.48 31.48 0 007.43 1.26c1 .08 2 .15 3.09.2 1.71.09 3.43.12 4.86.07z" fill="#3d701c"/><path d="M88.86 110.4l.73-.74v-.1a24.06 24.06 0 01-.14-3c.17-7.73 4.11-14 8.5-20.43-2.61-7.87-3.64-13.13-3.25-16.44-1.55 3.31-1.27 9.41 1.13 17.88-3.92 5.92-5.63 15.68-12.8 14.69 9.79 1.67 5.63 1.77-1 1.46 9.68 2.81 4.9 2.19 5.42 8.12.43-.46.93-.97 1.41-1.44zM99.7 59.55a16.77 16.77 0 012.43 5.25c3.1.07 4.62 1.47 5.81 4.23a33.78 33.78 0 001-3.23c-4.25-1.37-6.64-3.65-9.24-6.25zM63.76 104.76c4.58-14.17 6-16.56 15.73-31.35-10.42 13.85-11.67 14.16-15.73 31.35z" fill="#c7cad1"/><path d="M134.7 96.12c1.67-.94 1.15-.53 2.92-.11.42 0 .83.11 1.15.11l-.52-.2a3.67 3.67 0 01-.63-.12c-1.77-.41-1.25-.83-2.92.11l-.28.15-.24.26a1.87 1.87 0 01.52-.2z" fill="#d7b78f"/><path d="M32.3 142.79c3.43-3.55 6.35-6 10.83-7.5 9.38-2.92 48.65.93 48.65-2.61 0-2.08-27-.83-30-.94-9.8-.2-18.75-.72-25.42 5.42-2.19 2.08-4.27 4.27-4.9 5.63-.83 1.87.42.52.84 0z" fill="#9dc970"/><path d="M44.07 42.94a1.42 1.42 0 000-2.83H0v2.83zM36.21 115.81a1.41 1.41 0 00-1.41-1.42H0v2.83h34.8a1.41 1.41 0 001.41-1.41zM58.61 67.68a1.41 1.41 0 00-1.42-1.42H9.06a1.42 1.42 0 000 2.83h48.13a1.41 1.41 0 001.42-1.41zM70.7 60.8a1.43 1.43 0 00-1.42-1.42H0v2.84h69.28a1.43 1.43 0 001.42-1.42zM49.55 108.2a1.43 1.43 0 00-1.42-1.42H4.06a1.42 1.42 0 000 2.84h44.07a1.43 1.43 0 001.42-1.42zM54.69 50.55a1.42 1.42 0 000-2.84H20a1.42 1.42 0 000 2.84z" fill="#d4edfc"/><path d="M38.13 164.35a10 10 0 007.08 2.92 10.4 10.4 0 007.09-2.92 10 10 0 00-7.09-17.08 10.39 10.39 0 00-7.08 2.91 10 10 0 00-2.92 7.09 10.36 10.36 0 002.92 7.08zm5-12.5a.68.68 0 01.63.63.85.85 0 01-.21.52v6.56a1.7 1.7 0 00.52 1.15 1.68 1.68 0 001.14.52h.32a1.68 1.68 0 001.14-.52 1.66 1.66 0 00.52-1.15V153c-.2-.11-.2-.32-.2-.52-.21-.32.1-.63.41-.63a.68.68 0 01.63.63.85.85 0 01-.21.52v6.56a2.45 2.45 0 01-.73 1.67 2.49 2.49 0 01-1.67.73h-.31a2.5 2.5 0 01-2.4-2.4V153c-.2-.11-.2-.32-.2-.52a.67.67 0 01.62-.63zm-1.35 0a.67.67 0 01.62.63.8.8 0 01-.21.52v6.66a2.85 2.85 0 002.92 2.92h.63a2.84 2.84 0 002.91-2.92V153c-.21-.11-.21-.32-.21-.52-.2-.32 0-.63.42-.63a.68.68 0 01.63.63.85.85 0 01-.21.52v6.66a3.92 3.92 0 01-1 2.61 3.75 3.75 0 01-2.61 1H45a3.92 3.92 0 01-2.61-1 3.73 3.73 0 01-1-2.61V153c-.21-.11-.21-.32-.21-.52a.67.67 0 01.6-.63zm-1.67 0a.67.67 0 01.62.63.84.84 0 01-.2.52v6.77a4.64 4.64 0 001.25 3 4.42 4.42 0 003 1.25h.94a4.66 4.66 0 003-1.25 4.44 4.44 0 001.25-3V153c-.21-.11-.21-.32-.21-.52a.63.63 0 111.25 0c-.21.2-.31.41-.42.52v6.77a5 5 0 01-5 5h-.94a5 5 0 01-5-5V153c-.21-.11-.21-.32-.21-.52a.68.68 0 01.67-.63z" fill="#9dc970"/><path d="M41.36 153v6.66a3.73 3.73 0 001 2.61 3.92 3.92 0 002.61 1h.62a3.75 3.75 0 002.61-1 3.92 3.92 0 001-2.61V153a.85.85 0 00.21-.52.68.68 0 00-.63-.63c-.42 0-.62.31-.42.63 0 .2 0 .41.21.52v6.66a2.84 2.84 0 01-2.91 2.92h-.63a2.85 2.85 0 01-2.92-2.92V153a.8.8 0 00.21-.52.63.63 0 10-1.25 0c.08.2.08.41.29.52z" fill="#6cb52d"/><path d="M39.69 153v6.77a5 5 0 005 5h.94a5 5 0 005-5V153c.11-.11.21-.32.42-.52a.63.63 0 10-1.25 0c0 .2 0 .41.21.52v6.77a4.44 4.44 0 01-1.25 3 4.66 4.66 0 01-3 1.25h-.96a4.42 4.42 0 01-3-1.25 4.64 4.64 0 01-1.25-3V153a.84.84 0 00.2-.52.67.67 0 00-.62-.63.68.68 0 00-.63.63c-.02.2-.02.41.19.52z" fill="#6cb52d"/><path d="M42.71 153v6.56a2.5 2.5 0 002.4 2.4h.31a2.49 2.49 0 001.67-.73 2.45 2.45 0 00.73-1.67V153a.85.85 0 00.21-.52.68.68 0 00-.63-.63c-.31 0-.62.31-.41.63 0 .2 0 .41.2.52v6.56a1.66 1.66 0 01-.52 1.15 1.68 1.68 0 01-1.14.52h-.32a1.68 1.68 0 01-1.14-.52 1.7 1.7 0 01-.52-1.15V153a.85.85 0 00.21-.52.68.68 0 00-.63-.63.67.67 0 00-.62.63c0 .2 0 .41.2.52z" fill="#6cb52d"/><path d="M146.06 72a.74.74 0 01-.52-.94.73.73 0 01.93-.52 14.59 14.59 0 011.69.49c.57-3.08-.66-6.12-1.68-6.43a.73.73 0 00-.46 0c-1 .35-2 2.49-2.57 5.18-.62 3.23-.31 6 .73 6.35a1.23 1.23 0 00.91-.17 6.5 6.5 0 002.66-3.46 10.31 10.31 0 00-1.69-.5z" fill="#3c3c3b"/><path d="M146.13 88.48a6.7 6.7 0 011.36.78c.35-1.32.69-2.53 1-3.62s.64-2.15.89-3.07c.52-1.87.94-3.33 1.25-4.58 1.08-4.32.68-5.92-2.48-7a14.59 14.59 0 00-1.69-.49.73.73 0 00-.93.52.74.74 0 00.52.94 10.31 10.31 0 011.69.53c1.89.82 2.1 2.1 1.43 5.2-.31 1.25-.73 2.71-1.25 4.48-.37 1.16-.74 2.46-1.13 3.86l-.66 2.45z" fill="#6f5b6f"/><path d="M100.74 88.56c1.72 4.28 4.8 12.13 8.14 16.43a8.83 8.83 0 003 2.69c8.55-2.47 14.25-7.08 22.53-11.62l.28-.15c1.67-.94 1.15-.52 2.92-.11a3.67 3.67 0 00.63.12 3.55 3.55 0 00.46 0 2.64 2.64 0 002.3-1.46c-.74-2.42-.77-2.86 1-3.66a3.24 3.24 0 011.45-.21A13.41 13.41 0 01147 92c-1.77.73-1.57 2.19-2.3 3.23a7.89 7.89 0 01-.65-.24 2 2 0 01-1.22.45 1.68 1.68 0 01-.45-.06c1.67 1.88 5.35.57 6.18-4a2.14 2.14 0 00-1.07-2.06 6.7 6.7 0 00-1.36-.78 15.66 15.66 0 00-2.26-.8c-.49-.1-.91-.2-1.28-.26a3.36 3.36 0 00-1.12-.06c-.93.21-1.66.84-3 2.4-1.77 2-1.46 2.19-4.06 2.92-6.56 1.87-13.65 3.54-19.27 6.14l-.85-3.37c-1-3.94-2.06-7.93-3-11.85z" fill="#fdd5a5"/><path d="M141.21 94.51a2.36 2.36 0 01-.47-1.41 2.15 2.15 0 012.09-2.3 2.22 2.22 0 012.08 2.3 2.36 2.36 0 01-.86 1.84c.24.1.46.18.65.24.73-1 .53-2.5 2.3-3.23a13.41 13.41 0 00-3.55-1.36 3.24 3.24 0 00-1.45.21c-1.8.8-1.77 1.24-1 3.66 0 .1.05.19.09.3.02-.07.07-.17.12-.25z" fill="#d7b78f"/><path d="M144.91 93.1a2.22 2.22 0 00-2.08-2.3 2.15 2.15 0 00-2.09 2.3 2.36 2.36 0 00.47 1.41 2.06 2.06 0 001.17.82 1.68 1.68 0 00.45.06 2 2 0 001.22-.45 2.36 2.36 0 00.86-1.84z" fill="#3c3c3b"/><path d="M181.06 156.54q-.62.06-1.2.15a12.4 12.4 0 11-18.7 10.68c0-.32 0-.65.05-1a6.9 6.9 0 01-3.21.63 14.59 14.59 0 00-2.89-.07v.59a18.44 18.44 0 1033.68-10.4c-1.95-.12-4.99-.81-7.73-.58z" fill="#57564a"/><path d="M183.88 167.48a10.32 10.32 0 01-20.63 0 9.81 9.81 0 01.19-2.19 14.91 14.91 0 01-2.23 1.11c0 .32-.05.65-.05 1a12.4 12.4 0 1018.7-10.68 19.45 19.45 0 00-3.28.83 10.4 10.4 0 017.3 9.93z" fill="#777567"/><path d="M173.56 177.79a10.37 10.37 0 003-20.27 24.3 24.3 0 00-3.05 1.3l.56 1.7a6.91 6.91 0 014.37 2 6.88 6.88 0 01-4.9 11.77 7 7 0 01-4.9-2 6.76 6.76 0 01-2-4.9 6.92 6.92 0 011-3.63v-.08l-.34.17-.42-.82c-1.2.83-2.34 1.63-3.45 2.28a9.81 9.81 0 00-.19 2.19 10.33 10.33 0 0010.32 10.29z" fill="#a3a291"/><path d="M171.88 162.11l-.36-1.09a6 6 0 00-2 1l.24.53-.17.08.26.57a5.31 5.31 0 012.03-1.09zM171.46 160.82l-.24-.71q-1 .62-1.95 1.26l.19.44a6.8 6.8 0 012-.99z" fill="#a3a291"/><path d="M179.08 167.37a5.52 5.52 0 11-11 0 5.5 5.5 0 01.37-2l-.6-1.34a6.39 6.39 0 00-.92 3.33 6.27 6.27 0 002 4.69 6.46 6.46 0 004.69 2 6.28 6.28 0 004.69-2 6.45 6.45 0 002-4.69 6.61 6.61 0 00-2-4.68 6.4 6.4 0 00-4.09-1.95l.39 1.21a5.55 5.55 0 014.47 5.43z" fill="#a3a291"/><path d="M168 167.37a5.52 5.52 0 106.51-5.42l.33 1a2.11 2.11 0 011.6.85l.1.21a2 2 0 01.25 1.38 1.78 1.78 0 01-.77 1.85l-3.85 2.5a1.83 1.83 0 01-2.5-.52l-.06-.11a2 2 0 01-.26-.31l-.1-.21a2 2 0 01-.18-1.65l-.7-1.59a5.5 5.5 0 00-.37 2.02z" fill="#777567"/><path d="M170.84 165.33l1.73-1.15-.69-2.07a5.31 5.31 0 00-2 1.12z" fill="#777567"/><path d="M172.21 169.77l3.85-2.5a1.78 1.78 0 00.77-1.85 1.75 1.75 0 01-.77 1.23l-4.06 2.7a2 2 0 01-2.35-.21l.06.11a1.83 1.83 0 002.5.52zM171.52 161l.36 1.09.69 2.07 1.3-.87.11-.06-1.27-4-1.49.86.24.71zM168.41 165.38l.7 1.59a1.68 1.68 0 01.7-.95l1-.69-.94-2.1-.26-.57-2 1v.08l.13.3z" fill="#3c3c3b"/><path d="M167.65 163.66l2-1 .17-.08-.24-.53a6 6 0 012-1l-.06-.2a6.8 6.8 0 00-2 1l-.19-.44c-.82.55-1.61 1.1-2.38 1.64l.42.82z" fill="#3d3e3e"/><path d="M174 163.25l-.11.06-1.3.87-1.73 1.15-1 .69a1.68 1.68 0 00-.7.95 2 2 0 00.18 1.65l.1.21a2 2 0 00.26.31 2 2 0 002.35.21l4.06-2.7a1.75 1.75 0 00.77-1.23 2 2 0 00-.25-1.38l-.1-.21a2.11 2.11 0 00-1.6-.85l-.33-1-.39-1.21a6.4 6.4 0 014.09 1.95 6.61 6.61 0 012 4.68 6.45 6.45 0 01-2 4.69 6.28 6.28 0 01-4.69 2 6.46 6.46 0 01-4.69-2 6.27 6.27 0 01-2-4.69 6.39 6.39 0 01.92-3.33l-.13-.3a6.92 6.92 0 00-1 3.63 6.76 6.76 0 002 4.9 7 7 0 004.9 2 6.92 6.92 0 004.9-11.77 6.91 6.91 0 00-4.37-2l-.56-1.7-.82.43z" fill="#3d3e3e"/><path d="M70.43 169.15h4.79c.41-13.86-2.71-28.55-19.48-26.36 14.48.94 14.58 10.62 14.69 26.36z" fill="#9dc970"/><path d="M54.38 151.12a11.06 11.06 0 01-3.23 15.32 10.69 10.69 0 01-8.23 1.56 7.08 7.08 0 001.36.42 11.07 11.07 0 0011.56-16.88 10.61 10.61 0 00-7-4.79h-.1a11.57 11.57 0 015.64 4.37z" fill="#158e30"/><path fill="none" d="M0 0h192v192H0z"/></svg>