<svg xmlns="http://www.w3.org/2000/svg" viewBox="0 0 192 192"><defs/><path d="M131.5 48a21.89 21.89 0 01-4-12.72v-.44l4.28-4.32-4.93-4.18a24.58 24.58 0 002.33 22.43z" fill="none"/><path d="M133.06 35.23a16.47 16.47 0 01.37-3.32l-.08-.07-3.78 3.82a19.76 19.76 0 004.05 11.6l3.61-1.17a16.19 16.19 0 01-4.17-10.86zM135.7 26.46a16.3 16.3 0 014.78-4.83l8.17-8.25h.44a21.77 21.77 0 0121.63 21.84l2.33-.76a23.93 23.93 0 00-45.35-10.18l5.52 4.72z" fill="none"/><path d="M165 59h-34.32a35.48 35.48 0 013.93-7.5 23.26 23.26 0 01-1.71-1.73l-4.59 1.49-.45-.63a26.1 26.1 0 01-4.86-15.4 26.59 26.59 0 012.11-10.38l-5.26-4.46a34.51 34.51 0 00-3.42 14.84 32.87 32.87 0 0032.66 33 32.22 32.22 0 0019.52-6.5L165.33 59z" fill="none"/><path d="M137.21 48.32l-2.1.68c.25.26.53.5.8.75.42-.5.85-.99 1.3-1.43zM168.39 38.2l-2.55.82a18.79 18.79 0 011.62 2.85 20.34 20.34 0 00.93-3.67zM149.52 15.49l-3.89 3.94a15.17 15.17 0 013.46-.4 16.13 16.13 0 0116 16.2 15.94 15.94 0 01-.12 1.84l3.6-1.16v-.68a19.67 19.67 0 00-19.05-19.74zM148 172.51c-1.75.07-3.5.13-5.19.13-12.55.36-25 .59-37.38.63l-12.31.11q-13.35 0-26.68-.32l.12-.11-5.07-.13v.14l-2.69-.11c-1.1 0-2.26-.08-3.45-.16a21.23 21.23 0 01-3.63 6.25c13.41-.44 28.75-.65 45-.55 20.89.13 40.2.71 55.89 1.61-.48-.51-1-1-1.39-1.61a20.86 20.86 0 01-3.22-5.88z" fill="none"/><path d="M25.4 106.18C31.71 104.93 39.46 94 45.57 84c1.44-2.39 2.87-4.68 4.11-6.76-7.82.61-15.8 1.41-24.07 2.37-6.93.84-.52 1.78 2.27 2-5 8-5.27 15.15-8.69 24l-.41 1.17a22.15 22.15 0 006.62-.6zm-.93-8.67c2.38-7 3.2-11.08 7.13-14.11 1.35-1.15 10.86-2.19 11.48-1 0 3.24-12.72 20.58-17.47 21.11-3.42.27-2.61-1.82-1.14-6zM123.34 110.6l-6.59-.55 1 1.16 5.83.48a5.55 5.55 0 01-.24-1.09z" fill="#777567"/><path d="M61.49 106.39c6 .62 12 1.17 18.13 1.7 0-.37-.07-.73-.09-1.09l-10.07-.82-.94-24.87c10 0 23.89-1.15 33.62.52s17 6.48 25.33 12.34c5.55 3.83 5.94 5.8 5.73 10.18l.27.06a6 6 0 013.83 2.19c3.11 3.66.75 5-2.61 6.08 2.53.23 5.07.46 7.57.71 3 .28 6.31.67 9.73 1.12-6.84-8.64-15.07-14.88-24.1-21.28-5.28-3.66-10.76-7.32-16.86-9.72-6.31-2.51-8.79-3.24-18.1-3.66-11.27-.52-26.37-.73-31.33 2.09-6.11 3.45-9.73 9.72-11.6 17.87-1.56 6.54-.41 13.14 2.11 19.48a53.54 53.54 0 01-1.69-5.16 15.54 15.54 0 0011.07-7.74zm5.28-24.45c.2 8 .31 16.09.51 24.14-2-.31-3.93-.21-5.89-.52-2.17-3.77-4.45-5.75-8.59-8.26 2.28-6.9 5.9-14.63 13.97-15.36zm-16.24 23.41v-.1-.59c0-2.08.28-4.23 1.47-4.77.61-.32 1.46-.23 2.66.54.72.53 1.44 1 2.17 1.68 3.62 3.45 3.83 5.43-.73 8.25-.72.42-1.55.84-2.27 1.26a3.9 3.9 0 01-1.74.44l-.12.08c-.91-.1-1.28-.86-1.43-2v-.19a1.64 1.64 0 010-.23c-.14-1.22-.01-2.83-.01-4.37zM186.06 130.83a17.48 17.48 0 011.91 4.82c.11.47.19.94.26 1.41.06.12.1.26.15.39-.08-.6-.17-1.19-.31-1.8a17.81 17.81 0 00-2.13-5.24l.17.43zM95.49 75.8h-6 5.2c.31-.02.53 0 .8 0z" fill="#777567"/><path d="M81.25 101.06c1.44-1.46 7.23-.73 9.2-1 2.37-.39 4.08.94 6.62 3.16a22.44 22.44 0 012.26-.66.31.31 0 000-.1 11.67 11.67 0 000-2.43c-3.45-1.92-4.81-4.23-6-7.29s-.76-10.5 4.34-10.1a7.39 7.39 0 01.94-.45 11.39 11.39 0 012.07-.52c.41.1.93.1 1.34.2a46.5 46.5 0 017.86 2.2c1.91 1.46 1.6 2.66 0 3.4a5 5 0 01-.14 2.11c.87.68.56.65 0 .35a4.49 4.49 0 00.16 1.56 7.26 7.26 0 01.3 2.78c.11 0 .19 0 .22.14a1.55 1.55 0 01-.71 1.07 2.29 2.29 0 00-.43 1.34c.1 2.09.21 3.86-1.45 4.6a5.32 5.32 0 01-1.19.34l.15.65a9.76 9.76 0 014.56 2.25 78.6 78.6 0 015.41 5.43l6.59.55c-.28-2.48.69-5.36 1.34-5.78 2.41-1.41 5.69-1.06 8.52-.47.21-4.38-.18-6.35-5.73-10.18-8.37-5.86-15.61-10.56-25.33-12.34s-23.58-.52-33.62-.52l.94 24.87 10.07.82c-.12-2.54.46-4.64 1.71-5.98zm5.17-1.36c-4 .63-5.07-.52-6.31-3.44-1.14-2.41 7.44-7 9.93-1.47s.41 4.29-3.62 4.91z" fill="#d4edfc"/><path d="M92.62 105.45a18.84 18.84 0 014.45-2.27c-2.54-2.22-4.25-3.55-6.62-3.16-2 .31-7.76-.42-9.2 1-1.25 1.38-1.83 3.48-1.72 5.98 0 .36 0 .72.09 1.09l8.95.76a32.85 32.85 0 014.05-3.4zM80.11 96.26c1.24 2.92 2.27 4.07 6.31 3.44s6.1.63 3.62-4.91-11.04-.94-9.93 1.47z" fill="#57564a"/><path d="M116.75 110.05a78.6 78.6 0 00-5.41-5.43 9.76 9.76 0 00-4.56-2.25l.06.23c1 .64 1.54 1.48 1.09 2.33a4.32 4.32 0 00-.61.06 1.57 1.57 0 01-.43.5 4.64 4.64 0 002 .38c-8.07 2-12.21-1.15-11.17-2.51.53-.17 1.06-.31 1.6-.45v-.39a22.44 22.44 0 00-2.26.66 18.84 18.84 0 00-4.45 2.27 32.85 32.85 0 00-4.05 3.4c9.71.8 19.48 1.56 29.17 2.36l-.98-1.16z" fill="#f07f3c"/><path d="M107.32 105a4.32 4.32 0 01.61-.06c.45-.85-.05-1.69-1.09-2.33l.26 1a1.36 1.36 0 01.22 1.39zM99.29 102.91c-.54.14-1.07.28-1.6.45-1 1.36 3.1 4.49 11.17 2.51a4.64 4.64 0 01-2-.38c-1.86 1.51-7.71 1.06-7.57-2.58z" fill="#a65c45"/><path d="M97.72 96.09a3.82 3.82 0 01-3-2.13c-.52-1.15-.41-2.51.41-2.72a1.92 1.92 0 011.18.17 11 11 0 001.93 1.82c0-3.66 3.72-3.77 4.75-7.11.11 1.78.11 1.57-1 2.82 4-.42 4.65-1.67 5.38-2.3-.21 1-.83 1.15-1.24 1.57a10.64 10.64 0 003.83-.78c1.59-.74 1.9-1.94 0-3.4a46.5 46.5 0 00-7.86-2.2c-.41-.1-.93-.1-1.34-.2a11.39 11.39 0 00-2.07.52 7.39 7.39 0 00-.94.45c-5.1-.4-5.4 7.16-4.34 10.1s2.53 5.37 6 7.29c0-.45-.09-.92-.15-1.39a10.6 10.6 0 01-1.54-2.51z" fill="#3c3c3b"/><path d="M99.58 99.1a5.94 5.94 0 004.83 3.32 5.71 5.71 0 001.35-.1 1.14 1.14 0 00.82-.32l-.06-.25a7.89 7.89 0 01-6.94-2.65z" fill="#d7b78f"/><path d="M107.82 101.38c1.66-.74 1.55-2.51 1.45-4.6a2.29 2.29 0 01.43-1.34 2.55 2.55 0 01-2.09.61 1.9 1.9 0 002.18-1.47c0-.31-.42-.21-.73-.31-1.34-.84-1.55-.94-2.07-2.93.52 1 .52 1.78 2.18 2.72a2.12 2.12 0 001 .17 7.26 7.26 0 00-.3-2.78 4.49 4.49 0 01-.16-1.56 8.47 8.47 0 01-.87-.53c-.52-.21-.93.52-.93.21s.72-.84 1.45-.32l.38.29a5 5 0 00.14-2.11 10.64 10.64 0 01-3.83.78c.41-.42 1-.52 1.24-1.57-.73.63-1.35 1.88-5.38 2.3 1.14-1.25 1.14-1 1-2.82-1 3.34-4.75 3.45-4.75 7.11a11 11 0 01-1.93-1.82 1.92 1.92 0 00-1.18-.17c-.82.21-.93 1.57-.41 2.72a3.82 3.82 0 003 2.13 10.6 10.6 0 001.45 2.51l.15 1.39a11.67 11.67 0 010 2.43.31.31 0 010 .1v.39c-.14 3.64 5.75 4 7.6 2.58a1.57 1.57 0 00.43-.5 1.36 1.36 0 00-.22-1.42l-.26-1-.06-.23-.15-.65a5.32 5.32 0 001.24-.31zm1.24-11.19c.21 0 .31.32.31.74s-.2.73-.31.73-.31-.32-.31-.73.11-.74.31-.74zm-.41 7.81c-.52 1.57-4.65 1.26-4.86-1.36 1.55 2.36 4.03 2.54 4.86 1.36zm-4.14-6.69c0-.52.11-.94.42-.94s.41.42.41.94-.21.94-.41.94-.42-.38-.42-.91zm-.51-2.06c.93-.62 2 0 2 .42s-.83-.52-1.55-.31c-1.45.73-3.04 1.25-.45-.11zM95.1 94c-.41-1-.41-2.09.11-2.2s1.34.42 2 1.46a2.15 2.15 0 00-1.76-1c-.55.02-.55.86-.35 1.74zm11.48 8a1.14 1.14 0 01-.82.32 5.71 5.71 0 01-1.35.1 5.94 5.94 0 01-4.83-3.32 7.89 7.89 0 006.94 2.65z" fill="#fdd5a5"/><path d="M103.79 96.67c.21 2.62 4.34 2.93 4.86 1.36-.83 1.15-3.31.97-4.86-1.36z" fill="#b03028"/><path d="M107 91.34c.52 2 .73 2.09 2.07 2.93.31.1.73 0 .73.31a1.9 1.9 0 01-2.18 1.47 2.55 2.55 0 002.09-.61 1.55 1.55 0 00.71-1.07c0-.09-.11-.12-.22-.14a2.12 2.12 0 01-1-.17c-1.69-.94-1.69-1.67-2.2-2.72zM95.41 92.18a2.15 2.15 0 011.76 1c-.62-1-1.45-1.56-2-1.46s-.52 1.15-.11 2.2c-.16-.8-.16-1.64.35-1.74z" fill="#d7b78f"/><path d="M109.06 91.66c.11 0 .31-.32.31-.73s-.1-.74-.31-.74-.41.32-.31.74.11.73.31.73zM107.93 89.57c0 .31.41-.42.93-.21a8.47 8.47 0 00.87.53c.59.3.9.33 0-.35l-.38-.29c-.7-.52-1.42-.1-1.42.32zM104.41 89.36c.72-.21 1.55.73 1.55.31s-1-1-2-.42c-2.55 1.36-.96.84.45.11z" fill="#3c3c3b"/><path d="M179.77 182.31a20.56 20.56 0 01-27.12-2.31c-15.69-.9-35-1.48-55.89-1.61-16.29-.1-31.63.11-45 .55a20.56 20.56 0 01-30.13 1.64c-12.63 1.09-20.22 2.5-20.22 4.08-.11 3.76 42.5 7 95.14 7.32s95.25-2.51 95.35-6.27c.03-1.22-4.38-2.38-12.13-3.4zM9.16 186.23c-.2-1.15.21-1.88 1.24-1.88a7.33 7.33 0 013.93 1.88zm5.79-.11c-.1-2.19 1.35-3.76 4-3.76s6 1.57 8.69 3.76zm110.56.11c-.21-1.15.2-1.88 1.24-1.88a7.39 7.39 0 013.93 1.88zm24.3-.31H134.5c-1.55-2.62-1.55-4.6.11-4.6s4.16 1.74 6.28 4.1c-.14-2.33.78-3.89 2.61-3.89a6.61 6.61 0 014 1.85 4.1 4.1 0 013.23-1.23c2.69 0 6 1.57 8.69 3.76h-9.62z" fill="#ececec"/><path d="M25.61 103.47c4.75-.53 17.47-17.87 17.47-21.11-.62-1.15-10.13-.11-11.48 1-3.93 3-4.75 7.11-7.13 14.11-1.47 4.22-2.28 6.31 1.14 6z" fill="#d4edfc"/><path d="M12.16 165.22c.31-15.15 10.66-24.45 23.79-24.45 11.81 0 21.7 8.49 24.79 20.29 1.6 1.17 5.35 2.11 8.33 2.61-3.06-.86-5.32-2-6.44-3.46-8.27-22.21-25.23-23.72-45.5-25.92v-.94c0-.14 0-.27-.05-.41a2.85 2.85 0 01-.06.52 16.28 16.28 0 01-1.86 7.31 31.2 31.2 0 00-3.72 10.35A56.57 56.57 0 0010.2 160c-.21 2.61.2 4.91 2.69 5.54h.24-.14a7.29 7.29 0 01-.83-.32zm23-26.54c-11.06 0-19.75 6.9-22.75 17.56.68-10.35 12.78-19.65 22.71-17.56z" fill="#6cb52d"/><path d="M61.39 105.56c2 .31 3.93.21 5.89.52-.2-8-.31-16.09-.51-24.14-8.07.73-11.69 8.46-14 15.36 4.17 2.51 6.45 4.49 8.62 8.26z" fill="#d4edfc"/><path d="M35.12 138.68c-9.93-2.09-22 7.21-22.75 17.56 3-10.66 11.69-17.56 22.75-17.56z" fill="#9dc970"/><path d="M136.37 94.37c11.37 7.95 23.26 16.93 26.06 17.25l1.75.1 1.8 1.36h.17c-.62-.42-1.24-.94-1.86-1.46-14.38-11.39-31.44-24.77-46.64-31.35-1.45-.42-2.8-.94-4.24-1.47h-.06c1.21.41 2.41.84 3.57 1.31-1.45.37 8.79 6.89 19.45 14.26z" fill="#d4edfc"/><path d="M51.57 139.34a4.53 4.53 0 000-9.05 4.58 4.58 0 00-3.28 1.39 4.24 4.24 0 00-1.2 3.12 4.56 4.56 0 004.48 4.54zm0-8.78a4.26 4.26 0 11-4.22 4.26 4.24 4.24 0 014.22-4.26z" fill="#3c3c3b"/><path d="M51.57 138.51a3.69 3.69 0 10-3.65-3.69 3.67 3.67 0 003.65 3.69z" fill="#3c3c3b"/><path d="M17.13 134.29c20.27 2.2 37.23 3.66 45.5 25.92 1.12 1.47 3.38 2.6 6.44 3.46 12.79 3.61 39.8 2.64 58.4 3.23 6.68.2 13.45.49 15.09-4.4-1.06-.08-2.12-.15-3.2-.2-17.06-1.05-45.5-2.93-59.87-9.2-5.28-2.3-9.93-6.16-15.83-14.1a121.5 121.5 0 01-8.79-13.48 63.73 63.73 0 01-2.75-6.23C49.6 113 48.45 106.35 50 99.81c1.86-8.15 5.48-14.42 11.59-17.87 5-2.82 20.06-2.61 31.33-2.09 9.31.42 11.79 1.15 18.1 3.66 6.1 2.4 11.58 6.06 16.86 9.72 9 6.4 17.26 12.64 24.1 21.28 9.3 1.23 19 2.94 21.81 4.32-2.47-1.81-5-3.64-7.82-5.75l-1.8-1.36-1.75-.1c-2.8-.32-14.69-9.3-26.06-17.25-10.66-7.41-20.9-13.89-19.45-14.21-1.16-.47-2.36-.9-3.57-1.31a58.68 58.68 0 00-17.86-3h-6c-12.13 0-23.66.38-35.34 1.2l-4.45.32A425.28 425.28 0 0045.57 84c-6.11 10-13.86 20.93-20.17 22.18a22.15 22.15 0 01-6.62.65h-.21a40.69 40.69 0 00-2.17 9.12h1a1.42 1.42 0 011.41 1.43v4a1.43 1.43 0 01-1.41 1.43h-1.21c.13 3.17.5 6.46.89 10.17 0 .14 0 .27.05.41zm34.44-4.56a5.09 5.09 0 010 10.17 5.12 5.12 0 01-5-5.08 4.76 4.76 0 011.36-3.53 5.12 5.12 0 013.64-1.56zM39.05 109a12.29 12.29 0 017.65 5.33 12.69 12.69 0 011.66 9.2 12.83 12.83 0 01-5.28 7.73 12.35 12.35 0 01-9.1 1.68 9.17 9.17 0 01-1.55-.42 12.64 12.64 0 009-1.78A12.41 12.41 0 0046.7 123a11.74 11.74 0 00-1.65-9.2A11.61 11.61 0 0039 109zm-11.69 3.77a10.66 10.66 0 0115.31 0 10.91 10.91 0 010 15.46 10.66 10.66 0 01-15.31 0 10.94 10.94 0 010-15.46zm-9.61 2.4l-1.14-.1a32.5 32.5 0 011.14-5.33l.72.1a1 1 0 01.83 1.16l-.42 3.34a1 1 0 01-1.13.83zm-1.45 9.09l.72-.1a1.17 1.17 0 011.35.94l.51 4a1.18 1.18 0 01-.93 1.36l-1 .1q-.5-3.31-.65-6.3z" fill="#3c3c3b"/><path d="M187.76 170.13zM188 170.14zM189.41 170.11zM152 114.51c-3.42-.45-6.78-.84-9.73-1.12-2.5-.25-5-.48-7.57-.71l-.29.09c-2.79.83-5.07 1.77-7.55 1.56a3.45 3.45 0 01-3.28-2.64l-5.83-.48c-9.69-.8-19.46-1.56-29.17-2.36l-8.95-.76c-6.1-.53-12.16-1.08-18.13-1.7a15.54 15.54 0 01-11.06 7.74 53.54 53.54 0 001.69 5.16 63.73 63.73 0 002.75 6.23A121.5 121.5 0 0063.66 139c5.9 7.94 10.55 11.8 15.83 14.1 14.37 6.27 42.81 8.15 59.87 9.2 1.08 0 2.14.12 3.2.2h.09c2-12.14 11.27-22.62 25.88-21.63 21.56 1.46 22.85 20.79 22.44 28.88 1.24-.67.9-2.33.83-6-.11-6.06-.11-10.76-2.38-17.76 0-.1 0-.2-.08-.3v.3a4.91 4.91 0 01-1.13-9.09v.15c-.07-.47-.15-.94-.26-1.41a17.48 17.48 0 00-1.91-4.82c-10.21-3.76-17.22-7.83-17.33-9.5s2.59-2.71 6.42-1.46l.2.11c-.51-.39-1-.77-1.55-1.15-2.78-1.37-12.49-3.08-21.78-4.31zm-45.61 7.35c44.15 3.86 43.84 5.43-.31 1.57-46.86-4.08-46.55-5.65.3-1.57zm25.33 37.2c-4.13-.42-8.27-.52-12.41-.63A151.92 151.92 0 0195 155.3c-4-.84-8-1.78-12-2.51zm4.76 1.25c4.45-22.15 26.58-34.27 45.61-21.94-19.15-10.87-40.35 1.04-45.62 21.94zm10.65-27.48h2.79a1.38 1.38 0 011.35 1.36v.42a1.37 1.37 0 01-1.35 1.35h-2.79a1.37 1.37 0 01-1.34-1.35v-.42a1.25 1.25 0 011.33-1.36zm36.4-.21l-39.53-3.4c-.41 7.1-2.13 14.71-4.42 19.7 2.09-8 3.22-13.47 3.53-19.78L56 121.65c10.86.83 21.72 1.46 32.47 2.09 18.39 1.16 36.48 2.66 54.65 4.51a104.24 104.24 0 00-.35-11.72 33.48 33.48 0 011.23 11.82c2.68.27 5.36.53 8.05.82 10.48 1.26 20.95 2.41 31.47 3.45z" fill="#6cb52d"/><path d="M137.3 106.6a6 6 0 00-3.83-2.19l-.27-.06c-2.83-.59-6.11-.94-8.52.47-.65.42-1.62 3.3-1.34 5.78a5.55 5.55 0 00.23 1.09 3.45 3.45 0 003.28 2.64c2.48.21 4.76-.73 7.55-1.56l.29-.09c3.36-1.04 5.72-2.42 2.61-6.08z" fill="#57564a"/><path d="M50.55 110.18v-.19.19zM53.12 99.81c2.46 2.17 4.3 9.38-1 12.25a3.9 3.9 0 001.74-.44c.72-.42 1.55-.84 2.27-1.26 4.56-2.82 4.35-4.8.73-8.25-.73-.63-1.45-1.15-2.17-1.68-1.2-.77-2.05-.86-2.66-.54a1.69 1.69 0 011.09-.08zM50.53 105.45v-.1c0 1.54-.13 3.15 0 4.41-.12-1.23 0-2.76 0-4.31zM50.54 104.81z" fill="#6cb52d"/><path d="M50.51 109.76a1.64 1.64 0 000 .23v.19c.15 1.1.52 1.86 1.43 2l.12-.08c5.32-2.87 3.48-10.08 1-12.25a1.69 1.69 0 00-1.11.08c-1.19.54-1.43 2.69-1.47 4.77v.79c.05 1.51-.07 3.04.03 4.27z" fill="#158e30"/><path d="M106.07 123.43c44.15 3.86 44.46 2.29.31-1.57-46.85-4.08-47.16-2.51-.31 1.57z" fill="#9dc970"/><path d="M93.14 173.38l12.31-.11c9.34-.08 18.68-.2 28-.42-3.72-1.15-14.37-2.19-31.85-2.3-21.62-.1-33.36 1.09-35 2.4l-.12.11q13.31.32 26.66.32z" fill="#a3a291"/><path d="M136.47 160.31c5.27-20.9 26.47-32.81 45.61-21.94-19.03-12.37-41.16-.21-45.61 21.94z" fill="#9dc970"/><path d="M144 128.35a33.48 33.48 0 00-1.26-11.82 104.24 104.24 0 01.35 11.72 1420.33 1420.33 0 00-54.65-4.51c-10.75-.63-21.61-1.26-32.47-2.09l87.09 7.49c-.31 6.31-1.44 11.82-3.53 19.78 2.29-5 4-12.6 4.42-19.7l39.53 3.4c-10.54-1-21-2.19-31.43-3.45-2.65-.29-5.33-.55-8.05-.82z" fill="#158e30"/><path d="M183.83 152.37a20.59 20.59 0 00-29.16-3.45 21.13 21.13 0 00-6.67 23.59 20.86 20.86 0 003.24 5.88c.44.57.91 1.1 1.39 1.61a20.56 20.56 0 0027.12 2.31c.21-.16.44-.3.65-.47a21 21 0 007.34-11.71 21 21 0 00-3.91-17.76zm-6.62 25.39a15.49 15.49 0 01-21.82-2.61A15.87 15.87 0 01158 153.1a15.48 15.48 0 0121.82 2.62 15.86 15.86 0 01-2.61 22.04z" fill="#57564a"/><path d="M179.8 155.72a15.48 15.48 0 00-21.8-2.62 15.87 15.87 0 00-2.59 22.05 15.49 15.49 0 0021.82 2.61 15.86 15.86 0 002.57-22.04zm-1.14.83a14.12 14.12 0 012.6 5.5c-8.85-1-8.68-.64-7.42-9.35a14.1 14.1 0 014.82 3.85zm-5.48 14.94c.93 1.15 1.45 2.3 1.14 2.51s-1.24-.52-2.17-1.67-1.45-2.3-1.14-2.51 1.24.52 2.17 1.67zm-11-11.91c-.93-1.15-1.45-2.3-1.14-2.51s1.24.53 2.17 1.68 1.45 2.29 1.14 2.5-1.2-.52-2.13-1.67zm1.24 4.81a.8.8 0 01-.83-.63.71.71 0 01.62-.83c.42-.11.73.2.83.62s-.17.73-.58.84zm2.48-1a2.63 2.63 0 013.73.42 2.68 2.68 0 01-.42 3.76 2.62 2.62 0 01-3.72-.41 2.69 2.69 0 01.45-3.82zm.52-3a.78.78 0 011 .11.8.8 0 01-.1 1 .79.79 0 01-1-.1.8.8 0 01.14-1.09zm4.86-2.09c-.52 1.47-1.24 2.41-1.55 2.3s-.1-1.36.41-2.71 1.24-2.41 1.55-2.3.15 1.27-.37 2.63zm-.83 4.18a.63.63 0 01.93-.41.79.79 0 01.42.94.77.77 0 01-.93.41.79.79 0 01-.38-1.02zm-5.89 6.06c-.1.42-.52.53-.93.42a.73.73 0 01.52-1.36.8.8 0 01.45.86zm-4.86-2.4c1.45-.21 2.58-.1 2.69.21s-1 .84-2.48 1-2.69.11-2.69-.2 1.07-.88 2.52-1.09zm8 3.34a.74.74 0 01.93 1.15.79.79 0 01-1-.1.81.81 0 01.07-1.13zm-3.51 3.45c.51-1.36 1.24-2.4 1.55-2.3s.1 1.36-.42 2.72-1.24 2.4-1.55 2.3-.1-1.44.42-2.8zm11.19 4.37a14 14 0 01-11.73 1.71c5.18-7.19 4.84-7.29 11.73-1.79zm-4.37-10c-.1-.42.21-.73.62-.84a.9.9 0 01.83.63c.1.42-.21.73-.62.84s-.73-.3-.84-.72zm2.07-2.4c0-.32 1-.84 2.48-1.05s2.69-.1 2.69.21-1 .84-2.48 1.05-2.69.01-2.69-.3zm-1.52-13c-5.19 7.11-4.85 7.24-11.7 1.77a14 14 0 0111.7-1.86zM158 155.1c3.58 8.08 3.77 7.8-4.36 11.12A14.28 14.28 0 01158 155.1zm-1.32 19.11a14.22 14.22 0 01-2.66-5.49c8.79 1 8.64.65 7.38 9.3a14.09 14.09 0 01-4.76-3.81zm20.62 1.51c-3.61-8.15-3.82-7.85 4.36-11.19a14.4 14.4 0 01-4.4 11.19z" fill="#777567"/><path d="M154 168.72a13.92 13.92 0 007.38 9.3c1.24-8.65 1.39-8.33-7.38-9.3zM175.38 177.22c-6.89-5.5-6.55-5.4-11.73 1.71a14 14 0 0011.73-1.71zM181.62 164.53c-8.18 3.34-8 3-4.36 11.19a14.4 14.4 0 004.36-11.19zM153.6 166.22c8.13-3.32 7.94-3 4.36-11.12a14.28 14.28 0 00-4.36 11.12zM181.26 162.05a13.57 13.57 0 00-7.42-9.35c-1.26 8.71-1.43 8.37 7.42 9.35zM171.56 151.81a14 14 0 00-11.7 1.77c6.85 5.47 6.51 5.34 11.7-1.77zM171 169.82c-.31.21.21 1.36 1.14 2.51s1.86 1.88 2.17 1.67-.21-1.36-1.14-2.51-1.85-1.88-2.17-1.67zM163.77 175.57c.31.1 1-.94 1.55-2.3s.73-2.61.42-2.72-1 .94-1.55 2.3-.73 2.62-.42 2.72zM169.25 167.52a2.68 2.68 0 00.42-3.76 2.63 2.63 0 00-3.73-.42 2.69 2.69 0 00-.41 3.77 2.62 2.62 0 003.72.41zM178.25 164c0-.31-1.24-.42-2.69-.21s-2.48.73-2.48 1.05 1.24.42 2.69.21 2.48-.77 2.48-1.05zM170.18 157.81c-.51 1.35-.72 2.61-.41 2.71s1-.83 1.55-2.3.73-2.61.41-2.71-1.03.94-1.55 2.3zM164.39 161.25c.31-.21-.2-1.35-1.14-2.5s-1.86-1.89-2.17-1.68.21 1.36 1.14 2.51 1.86 1.88 2.17 1.67zM160 167.31c1.44-.2 2.48-.73 2.48-1s-1.24-.42-2.69-.21-2.48.73-2.48 1.05 1.19.37 2.69.16zM167.39 161.46a.8.8 0 00.1-1 .78.78 0 00-1-.11.8.8 0 00-.1 1.05.79.79 0 001 .06zM163.25 162.93a.71.71 0 00-.62.83.8.8 0 00.83.63c.41-.11.72-.42.62-.84s-.41-.73-.83-.62zM163.26 167.94a.78.78 0 00.41.94c.41.11.83 0 .93-.42a.8.8 0 00-.41-.94.78.78 0 00-.93.42zM167.6 170.45a.79.79 0 001 .1.74.74 0 10-1-.1zM172.46 167a.9.9 0 00-.83-.63c-.41.11-.72.42-.62.84s.41.73.83.63.72-.42.62-.84zM171.84 162.93a.79.79 0 00-.42-.94.63.63 0 00-.93.41.79.79 0 00.42.94.77.77 0 00.93-.41z" fill="#3c3c3b"/><path d="M188.18 136.91a4.91 4.91 0 001.13 9.09v-.3a2.45 2.45 0 000-.27v-.66c-.78 1.51-3.09-1.94-3.09-3.58s1.32-4.23 2.32-3l-.26-.74c-.09-.24-.09-.27-.15-.39s.07-.06.05-.15zM168.73 121.33c.11 1.67 7.12 5.74 17.33 9.5h.05l-.17-.43-.25-.6c-.17.08-.52 0-1.13-.22-7.86-3.14-14-6.58-14.07-7.94-.15-2.23 3.71-1.85 6.56-.76-.56-.33-1.12-.63-1.7-.91l-.2-.11c-3.83-1.24-6.52-.2-6.42 1.47z" fill="#3d3e3e"/><path d="M170.49 121.65c.11 1.36 6.21 4.8 14.07 7.94.61.24 1 .3 1.13.22.48-.22-.54-1.51-1.24-2.52a27.09 27.09 0 00-5.17-5.22 8.86 8.86 0 00-2.23-1.18c-2.85-1.09-6.71-1.47-6.56.76z" fill="#e5e8f0"/><path d="M33.47 144.53a21 21 0 0121.88 28.16c1.19.08 2.35.14 3.45.16l2.69.11v-.14l5.07.13c1.68-1.31 13.42-2.5 35-2.4 17.48.11 28.13 1.15 31.85 2.3-9.34.22-18.68.34-28 .42 12.4 0 24.83-.27 37.38-.63 1.69 0 3.44-.06 5.19-.13a21.13 21.13 0 016.65-23.59 20.59 20.59 0 0129.16 3.45 21 21 0 013.93 17.76h1.87a3.29 3.29 0 001.39-.29c1.37-.62 1-2.28.93-6.05-.1-6.06-.21-10.76-2.38-17.76l-.16-.57a2.45 2.45 0 010 .27c0 .1 0 .2.08.3 2.27 7 2.27 11.7 2.38 17.76.07 3.67.41 5.33-.83 6 .41-8.09-.88-27.42-22.44-28.88-14.61-1-23.87 9.49-25.88 21.63h-.09c-1.64 4.89-8.41 4.6-15.09 4.4-18.6-.59-45.61.38-58.4-3.23-3-.5-6.73-1.44-8.33-2.61-3.09-11.8-13-20.29-24.79-20.29-13.13 0-23.48 9.3-23.79 24.45a7.29 7.29 0 00.83.32h.14l2 .47a21 21 0 0118.31-21.52zm155.85 25.59z" fill="#777567"/><path d="M38.33 186.23a20.68 20.68 0 0013.39-7.29 21.23 21.23 0 003.63-6.25 21 21 0 00-21.88-28.16A21 21 0 0015.15 166c0 .6 0 1.2.12 1.8a21 21 0 006.32 12.74 20.59 20.59 0 0016.74 5.69zm-17.79-18.92A15.53 15.53 0 1137.81 181a15.58 15.58 0 01-17.27-13.69z" fill="#57564a"/><path d="M37.81 181a15.68 15.68 0 10-17.27-13.69A15.69 15.69 0 0037.81 181zm-.21-1.46c.42-.1.73-.1 1.14-.21 1.34-9.07.83-8.88 9.67-7.32a14 14 0 01-10.81 7.53zm-8.48-9.72c1.14-.83 2.28-1.25 2.48-1s-.6 1.18-1.75 2.05-2.28 1.36-2.49 1 .64-1.21 1.76-2.05zm-2.89-8.46c.1-.31 1.34-.11 2.69.42s2.27 1.35 2.17 1.67-1.35.1-2.69-.42-2.28-1.36-2.17-1.67zm6.31.1a.78.78 0 01.93-.42.8.8 0 01.41 1 .72.72 0 11-1.34-.53zm3.1-4c.21 1.47.1 2.72-.31 2.72s-.73-1.15-.93-2.61 0-2.72.31-2.72.72 1.15.93 2.64zm8.89 1.78c.21.31-.62 1.25-1.76 2.09s-2.27 1.36-2.48 1 .62-1.25 1.76-2.09 2.28-1.24 2.48-.97zm-12.82 7.21a.67.67 0 01-.83-1 .64.64 0 01.93.11.66.66 0 01-.1.92zm3.93-3.76a2.63 2.63 0 11-2.28 2.92 2.51 2.51 0 012.28-2.89zm3.2 5.74a.81.81 0 01.42.95.77.77 0 01-.93.41.73.73 0 01.51-1.36zm1.16-4.04a.58.58 0 01.93.1.66.66 0 01-.1.94.65.65 0 01-.93-.1.66.66 0 01.1-.94zm.93 3.45c.1-.32 1.35-.11 2.69.42s2.28 1.35 2.17 1.67-1.34.1-2.69-.42-2.4-1.36-2.19-1.67zm-2.48-6.69a.73.73 0 11-1.45.21c0-.42.31-.84.62-.84a.78.78 0 01.81.63zm-5.07 8.57a.8.8 0 01.62-.84.78.78 0 01.83.63c.1.42-.31.73-.62.83a.79.79 0 01-.85-.62zm3.19 1.28c.31 0 .72 1.15.93 2.61s0 2.72-.31 2.72-.72-1.15-.93-2.61-.1-2.64.31-2.72zm12.43-.3l.08-.21zm.9-6.94a14.11 14.11 0 01-.63 6.16c-7.22-5.62-7.23-5.12-1.47-12.08a14.32 14.32 0 012.11 5.92zM46.48 156c-8.45 3.44-8 3.75-11.14-4.78A14 14 0 0146.48 156zm-12.19-4.7c-.41.1-.72.1-1.13.21-1.35 9.08-.83 8.88-9.7 7.32a14 14 0 0110.83-7.5zM22 167.1a14.27 14.27 0 011-7.1 9.61 9.61 0 00-.35 1c7.22 5.63 7.24 5.13 1.48 12.09A14.32 14.32 0 0122 167.1zm3.43 7.73c8.45-3.44 8-3.74 11.14 4.79a13.93 13.93 0 01-11.15-4.79z" fill="#777567"/><path d="M22.61 160.94a9.61 9.61 0 01.35-1A14.35 14.35 0 0024.09 173c5.76-6.93 5.74-6.43-1.48-12.06zM25.42 174.83a13.93 13.93 0 0011.14 4.79c-3.09-8.53-2.69-8.23-11.14-4.79zM38.74 179.33c-.41.11-.72.11-1.14.21A14 14 0 0048.41 172c-8.84-1.55-8.33-1.74-9.67 7.33zM49.09 170.49l-.08.21zM33.16 151.54c.41-.11.72-.11 1.13-.21a14 14 0 00-10.83 7.53c8.87 1.56 8.35 1.76 9.7-7.32zM49.28 169.92a14.11 14.11 0 00.63-6.16 14.32 14.32 0 00-2.1-5.92c-5.76 6.96-5.75 6.46 1.47 12.08zM46.48 156a14 14 0 00-11.14-4.78c3.09 8.56 2.66 8.25 11.14 4.78zM36.26 167.94a2.63 2.63 0 10-2.9-2.3 2.53 2.53 0 002.9 2.3zM37.19 176.3c.31 0 .52-1.25.31-2.72s-.62-2.61-.93-2.61-.52 1.26-.31 2.72.62 2.61.93 2.61zM42.05 160.31c-1.14.84-2 1.78-1.76 2.09s1.35-.21 2.48-1 2-1.78 1.76-2.09-1.34.17-2.48 1zM34.4 157.6c.2 1.46.62 2.61.93 2.61s.52-1.25.31-2.72-.62-2.61-.93-2.61-.52 1.25-.31 2.72zM31.09 163.45c.1-.32-.83-1-2.17-1.67s-2.59-.73-2.69-.42.83 1 2.17 1.67 2.6.73 2.69.42zM27.36 171.91c.21.32 1.35-.21 2.49-1s2-1.78 1.75-2.09-1.34.21-2.48 1-1.96 1.78-1.76 2.09zM37 161.36a.73.73 0 101.45-.21.78.78 0 00-.83-.63c-.33 0-.62.42-.62.84zM33 162.4a.77.77 0 00.93-.41.8.8 0 00-.41-1 .78.78 0 00-.93.42.77.77 0 00.41.99zM30.88 165.43a.67.67 0 10.93.11.64.64 0 00-.93-.11zM34.19 170.34c.31-.1.72-.41.62-.83a.78.78 0 00-.83-.63.8.8 0 00-.62.84.79.79 0 00.83.62zM37.91 168.88a.79.79 0 00.42.94.77.77 0 00.93-.41.81.81 0 00-.42-.95.79.79 0 00-.93.42zM40.81 165.43a.66.66 0 00.1-.94.58.58 0 00-.93-.1.66.66 0 00-.1.94.65.65 0 00.93.1zM45.77 169.93c.11-.32-.83-1.05-2.17-1.67s-2.59-.74-2.69-.42.83 1 2.17 1.67 2.59.73 2.69.42z" fill="#3c3c3b"/><path d="M17.44 122.77a1.43 1.43 0 001.41-1.43v-4a1.42 1.42 0 00-1.41-1.43h-1.18v.24a31.42 31.42 0 00-.26 6.35v.27h1.41z" fill="#ffe26b"/><path d="M19.3 111a1 1 0 00-.83-1.15l-.72-.1a32.5 32.5 0 00-1.14 5.33l1.14.1a1 1 0 001.13-.84z" fill="#b83c49"/><path d="M147.12 136h2.79a1.37 1.37 0 001.35-1.35v-.42a1.38 1.38 0 00-1.35-1.36h-2.79a1.25 1.25 0 00-1.34 1.36v.42a1.37 1.37 0 001.34 1.35zm-1.34-1.67a1.24 1.24 0 011.24-1.15h2.48a1.19 1.19 0 011.24 1.15v.32a1.19 1.19 0 01-1.24 1.15H147a1.18 1.18 0 01-1.24-1.15z" fill="#3d3e3e"/><path d="M147 135.76h2.48a1.19 1.19 0 001.24-1.15v-.32a1.19 1.19 0 00-1.24-1.15H147a1.24 1.24 0 00-1.24 1.15v.32a1.18 1.18 0 001.24 1.15z" fill="#ffe26b"/><path d="M186.32 141.19c0 1.64 2.31 5.09 3.09 3.58a6.9 6.9 0 00.11-3.48 6.6 6.6 0 00-.88-3.1c-1-1.19-2.32 1.24-2.32 3z" fill="#e5e8f0"/><path d="M9.16 186.23h5.17a7.33 7.33 0 00-3.93-1.88c-1.03 0-1.4.73-1.24 1.88zM15 186.12h12.68c-2.69-2.19-6-3.76-8.69-3.76s-4.14 1.57-3.99 3.76zM150.74 182.15a4.1 4.1 0 00-3.23 1.23 6.61 6.61 0 00-4-1.85c-1.83 0-2.75 1.56-2.61 3.89-2.12-2.36-4.74-4.1-6.28-4.1s-1.66 2-.11 4.6h24.93c-2.7-2.2-6.01-3.77-8.7-3.77zM125.51 186.23h5.17a7.39 7.39 0 00-3.93-1.88c-1.04 0-1.45.73-1.24 1.88z" fill="#fff"/><path d="M30.74 67.94a1.41 1.41 0 00-1.41-1.41H5.85a1.41 1.41 0 000 2.82h23.48a1.41 1.41 0 001.41-1.41zM2.34 107.18a1.41 1.41 0 000 2.82h10.24a1.41 1.41 0 000-2.82zM1.41 43.12h43.74a1.41 1.41 0 000-2.82H1.41a1.41 1.41 0 000 2.82zM10.88 116.21a1.41 1.41 0 00-1.41-1.4H1.41a1.41 1.41 0 100 2.81h8.06a1.41 1.41 0 001.41-1.41zM1.41 62.45h33.81a1.41 1.41 0 100-2.82H1.41a1.41 1.41 0 000 2.82z" fill="#d4edfc"/><path d="M95 155.3a151.92 151.92 0 0024.3 3.13c4.14.11 8.28.21 12.41.63L83 152.79c4 .73 8 1.67 12 2.51z" fill="#158e30"/><path d="M149.09 2.11a32.87 32.87 0 0132.65 33h2.12A35 35 0 00149.09 0a34.64 34.64 0 00-15.26 3.56l.93 1.89a32.62 32.62 0 0114.33-3.34z" fill="#fff482"/><path d="M149.09 70.35A34.29 34.29 0 00171 62.59l1-.8-3.41-2.79h-3.26l3.28 2.79a32.22 32.22 0 01-19.52 6.5 32.87 32.87 0 01-32.66-33 34.51 34.51 0 013.42-14.84l5.26 4.46A26.59 26.59 0 00123 35.23a26.1 26.1 0 004.86 15.35l.45.63 4.59-1.49a23.26 23.26 0 001.71 1.73c.42-.6.86-1.16 1.3-1.7-.27-.25-.55-.49-.8-.75l2.1-.68c2.54-2.55 5.37-4 8.26-4a10.06 10.06 0 017.59 3.85c1.92-7.28 5-12 8.44-12 1.57 0 3 1 4.34 2.85l2.55-.82a20.34 20.34 0 01-.93 3.67c.39.87.76 1.82 1.11 2.84a21.74 21.74 0 002-7.23l4.6-1.48v-.77a26 26 0 00-49.12-12.35l-6.86-5.82-.61 1.16a36.68 36.68 0 00-4.26 17 35 35 0 0034.77 35.13zm-15.47-23.09a19.76 19.76 0 01-4.05-11.6l3.78-3.82.08.07a16.47 16.47 0 00-.37 3.32 16.19 16.19 0 004.17 10.86zm35-11.35L165 37.07a15.94 15.94 0 00.12-1.84 16.13 16.13 0 00-16-16.2 15.17 15.17 0 00-3.46.4l3.89-3.94a19.67 19.67 0 0119.09 19.74c-.03.23-.03.45-.04.68zM149.09 11a24.12 24.12 0 0124 23.46l-2.33.76a21.77 21.77 0 00-21.63-21.84h-.44l-8.17 8.25a16.3 16.3 0 00-4.78 4.83L133.22 29l-5.52-4.68A24 24 0 01149.09 11zM126.8 26.29l4.93 4.18-4.28 4.32v.44a21.89 21.89 0 004 12.72l-2.37.77a24.58 24.58 0 01-2.33-22.43z" fill="#fff482"/><path d="M165.84 39c-1.3-1.82-2.77-2.85-4.34-2.85-3.46 0-6.52 4.72-8.44 12a10.06 10.06 0 00-7.59-3.85c-2.89 0-5.72 1.45-8.26 4a25.12 25.12 0 00-2.6 3.13 35.48 35.48 0 00-3.93 7.5h53.67v-.11h7.55c0-6.58-1.55-11.18-4.45-11.18-1.26 0-2.58.88-3.86 2.41-1-4.87-3.06-7.84-5.86-7.84-2.56 0-5.39 2.5-8 6.66a41.17 41.17 0 00-1.15-4.18c-.35-1-.72-2-1.11-2.84a18.79 18.79 0 00-1.63-2.85z" fill="#d4edfc"/><path d="M35 131.47a10.7 10.7 0 007.65-3.24 10.91 10.91 0 000-15.46 10.66 10.66 0 00-15.31 0 10.94 10.94 0 000 15.46 10.74 10.74 0 007.66 3.24zm-2.28-16.82a.71.71 0 01.73.73.58.58 0 01-.31.52v7.21a1.77 1.77 0 00.51 1.26 1.73 1.73 0 001.25.52h.41a1.71 1.71 0 001.24-.52 1.77 1.77 0 00.52-1.26v-7.21a.56.56 0 01-.31-.52.58.58 0 01.62-.73.71.71 0 01.72.73.56.56 0 01-.31.52v7.21a2.56 2.56 0 01-.72 1.78 2.69 2.69 0 01-1.76.73h-.52a2.5 2.5 0 01-1.76-.73 2.76 2.76 0 01-.72-1.78v-7.21a.56.56 0 01-.31-.52.71.71 0 01.74-.73zm-1.55 0a.71.71 0 01.73.73.58.58 0 01-.31.52v7.32a3.28 3.28 0 00.93 2.3 3 3 0 002.27.93h.73a3.21 3.21 0 002.27-.93 3.1 3.1 0 00.93-2.3v-7.32a.56.56 0 01-.31-.52.57.57 0 01.52-.73.71.71 0 01.72.73.56.56 0 01-.31.52v7.32a3.85 3.85 0 01-1.12 2.78 4 4 0 01-2.79 1.15h-.72a3.79 3.79 0 01-2.79-1.15 4 4 0 01-1.14-2.82v-7.28a.56.56 0 01-.31-.52.71.71 0 01.72-.73zm-1.55 0a.71.71 0 01.72.73.56.56 0 01-.31.52v7.52a4.58 4.58 0 001.35 3.24A4.49 4.49 0 0034.6 128h.94a4.49 4.49 0 003.2-1.36 4.58 4.58 0 001.35-3.24v-7.5a.56.56 0 01-.31-.52.72.72 0 111.44 0 .56.56 0 01-.31.52v7.52a5.85 5.85 0 01-1.55 3.87 5.34 5.34 0 01-3.82 1.57h-.94a5.74 5.74 0 01-3.82-1.57 5.47 5.47 0 01-1.55-3.87v-7.52a.56.56 0 01-.31-.52.71.71 0 01.72-.73z" fill="#a3a291"/><path d="M29.23 115.9v7.52a5.47 5.47 0 001.55 3.87 5.74 5.74 0 003.82 1.57h.94a5.34 5.34 0 003.82-1.57 5.85 5.85 0 001.55-3.87v-7.52a.56.56 0 00.31-.52.72.72 0 10-1.44 0 .56.56 0 00.31.52v7.52a4.58 4.58 0 01-1.35 3.24 4.49 4.49 0 01-3.2 1.36h-.94a4.49 4.49 0 01-3.2-1.36 4.58 4.58 0 01-1.35-3.24v-7.52a.56.56 0 00.31-.52.72.72 0 10-1.44 0 .56.56 0 00.31.52z" fill="#777567"/><path d="M30.78 115.9v7.32a4 4 0 001.14 2.78 3.79 3.79 0 002.79 1.15h.72a4 4 0 002.79-1.15 3.85 3.85 0 001.14-2.82v-7.28a.56.56 0 00.31-.52.71.71 0 00-.72-.73.57.57 0 00-.52.73.56.56 0 00.31.52v7.32a3.1 3.1 0 01-.93 2.3 3.21 3.21 0 01-2.27.93h-.73a3 3 0 01-2.27-.93 3.28 3.28 0 01-.93-2.3v-7.32a.58.58 0 00.31-.52.73.73 0 10-1.45 0 .56.56 0 00.31.52z" fill="#777567"/><path d="M32.33 115.9v7.21a2.76 2.76 0 00.72 1.78 2.5 2.5 0 001.76.73h.52a2.69 2.69 0 001.76-.73 2.56 2.56 0 00.72-1.78v-7.21a.56.56 0 00.31-.52.71.71 0 00-.72-.73.58.58 0 00-.62.73.56.56 0 00.31.52v7.21a1.77 1.77 0 01-.52 1.26 1.71 1.71 0 01-1.24.52h-.41a1.73 1.73 0 01-1.25-.52 1.77 1.77 0 01-.51-1.26v-7.21a.58.58 0 00.31-.52.73.73 0 10-1.45 0 .56.56 0 00.31.52z" fill="#777567"/><path d="M45.05 113.81A11.74 11.74 0 0146.7 123a12.41 12.41 0 01-5.27 7.73 12.64 12.64 0 01-9 1.78 9.17 9.17 0 001.55.42 12.35 12.35 0 009.1-1.68 12.83 12.83 0 005.28-7.73 12.69 12.69 0 00-1.66-9.2 12.29 12.29 0 00-7.65-5.32H39a11.61 11.61 0 016.05 4.81z" fill="#6f6c60"/><path d="M51.57 139.07a4.26 4.26 0 10-4.22-4.25 4.24 4.24 0 004.22 4.25zm0-7.94a3.69 3.69 0 11-3.65 3.69 3.66 3.66 0 013.65-3.69z" fill="#57564a"/><path d="M46.53 134.82a5.12 5.12 0 005 5.08 5.09 5.09 0 000-10.17 5.12 5.12 0 00-3.68 1.56 4.76 4.76 0 00-1.32 3.53zm5-4.53a4.53 4.53 0 010 9.05 4.56 4.56 0 01-4.48-4.54 4.24 4.24 0 011.2-3.12 4.58 4.58 0 013.32-1.39z" fill="#57564a"/><path d="M18 130.43a1.18 1.18 0 00.93-1.36l-.51-4a1.17 1.17 0 00-1.35-.94l-.72.1q.15 3 .62 6.27z" fill="#b83c49"/><ellipse cx="104.93" cy="91.34" rx=".41" ry=".94" fill="#3c3c3b"/></svg>