<svg width="803" height="502" viewBox="0 0 803 502" fill="none" xmlns="http://www.w3.org/2000/svg">
<path d="M698.387 497.453C631.53 505.437 562.657 502.089 421.948 493.744C342.94 489.056 184.036 496.834 104.731 497.453C46.8831 497.916 0 456.861 0 406.689V253.802V94.1164C0 43.944 47.0017 0.365186 104.672 3.35286C158.253 6.08298 237.142 16.9519 319.291 10.3069C417.029 2.42565 602.606 -4.27086 698.328 3.35286C755.88 7.9374 803 43.9955 803 94.1164V406.741C803.059 456.861 755.643 490.653 698.387 497.453Z" fill="white"/>
<path opacity="0.8" d="M425.348 450.794C592.876 450.794 728.684 431.378 728.684 407.428C728.684 383.478 592.876 364.062 425.348 364.062C257.82 364.062 122.012 383.478 122.012 407.428C122.012 431.378 257.82 450.794 425.348 450.794Z" fill="#CBBADD"/>
<path d="M278.887 421.746L278.681 421.386C278.681 421.386 281.104 419.789 281.413 417.935C281.516 417.317 281.361 416.699 280.949 416.132C280.64 415.72 280.279 415.566 279.866 415.566C277.804 415.617 274.814 419.841 274.763 419.892L274.196 420.665L274.35 419.738C274.35 419.686 275.02 415.926 273.68 414.793C273.268 414.433 272.701 414.381 271.927 414.639C271.154 414.896 270.587 415.411 270.329 416.081C269.453 418.141 271.051 421.437 271.051 421.489L270.69 421.695C270.638 421.54 268.989 418.193 269.968 415.978C270.329 415.154 270.948 414.587 271.824 414.278C272.701 413.969 273.422 414.072 273.989 414.484C275.072 415.411 275.02 417.729 274.917 419.017C275.897 417.781 278.114 415.205 279.866 415.154C280.433 415.154 280.897 415.411 281.31 415.926C281.774 416.596 281.98 417.317 281.825 418.038C281.465 420.047 278.99 421.695 278.887 421.746Z" fill="#341B3F"/>
<path d="M421.687 382.552C421.687 382.552 411.428 372.097 414.933 366.123C418.49 360.149 424.419 378.947 424.419 378.947C424.419 378.947 421.326 356.749 427.718 356.389C434.111 356.028 427.718 378.947 427.718 378.947C427.718 378.947 430.09 373.591 432.409 373.282C434.729 372.973 434.059 377.814 429.935 382.604H421.687V382.552Z" fill="#CBBADD"/>
<path d="M422.461 382.81C422.409 382.759 419.471 379.771 417.099 375.96C413.8 370.758 413.027 366.638 414.779 363.702C415.45 362.621 416.223 362.106 417.099 362.209C418.852 362.415 420.966 365.196 423.286 370.501C424.007 372.097 424.626 373.746 425.141 375.085C424.574 369.265 423.904 357.728 427.1 353.814C427.771 352.99 428.647 352.526 429.627 352.423C430.555 352.372 431.379 352.732 431.946 353.453C434.833 357.007 432.204 369.574 430.812 375.445C431.895 373.746 433.39 371.788 434.937 371.582C435.658 371.479 436.225 371.737 436.586 372.355C437.514 374.055 436.225 378.432 432.462 382.759L431.895 382.244C435.607 377.969 436.638 373.952 435.916 372.716C435.761 372.406 435.452 372.252 435.04 372.355C433.029 372.664 430.709 376.939 429.987 378.587L429.266 378.329C429.266 378.278 430.709 373.231 431.637 367.668C432.874 360.406 432.771 355.668 431.379 353.917C430.967 353.402 430.4 353.144 429.678 353.196C428.905 353.247 428.235 353.608 427.719 354.277C423.698 359.222 426.276 378.175 426.276 378.381L425.554 378.535C424.214 374.312 420.089 363.29 417.048 362.981C416.481 362.93 415.965 363.29 415.45 364.114C411.635 370.552 422.925 382.192 423.028 382.295L422.461 382.81Z" fill="#341B3F"/>
<path d="M363.586 86.7189C366.576 90.4786 368.689 90.6331 370.185 89.4486C371.68 88.264 371.937 86.2039 368.947 82.4441C363.483 75.5942 358.121 74.4097 358.121 74.4097C358.121 74.4097 358.018 79.766 363.586 86.7189Z" fill="#CBBADD"/>
<path d="M352.655 115.921C354.305 120.453 356.212 121.277 357.965 120.659C359.718 120.041 360.698 118.136 359.048 113.603C356.058 105.363 351.418 102.53 351.418 102.53C351.418 102.53 349.614 107.526 352.655 115.921Z" fill="#CBBADD"/>
<path d="M325.438 192.455L326.314 192.712C326.365 192.558 330.335 179.012 342.089 161.398C352.967 145.175 372.969 122.101 406.324 104.333L405.911 103.509C372.402 121.329 352.296 144.557 341.367 160.883C329.459 178.6 325.489 192.3 325.438 192.455Z" fill="#CBBADD"/>
<path d="M370.237 128.385L371.113 128.179C364.36 95.7834 386.527 68.0233 386.734 67.7658L386.012 67.1992C385.806 67.4567 363.432 95.5774 370.237 128.385Z" fill="#CBBADD"/>
<path d="M388.332 119.475C396.993 122.771 405.19 120.917 405.293 120.917L405.087 120.041C404.984 120.041 394.467 122.41 384.878 116.848L384.414 117.621C385.703 118.342 387.043 118.96 388.332 119.475Z" fill="#CBBADD"/>
<path d="M334.201 173.811C352.451 178.498 369.876 175.408 386.012 164.54C386.579 164.18 387.094 163.819 387.249 163.768C387.249 163.768 387.197 163.768 387.146 163.768L387.197 162.841C386.94 162.841 386.682 162.995 385.548 163.768C369.618 174.429 352.451 177.519 334.459 172.884L334.201 173.811Z" fill="#CBBADD"/>
<path d="M362.453 174.068L363.381 174.171C364.618 161.862 378.331 148.317 378.486 148.162L377.867 147.493C377.816 147.544 374.31 150.995 370.702 155.939C367.248 160.574 363.123 167.476 362.453 174.068Z" fill="#CBBADD"/>
<path d="M408.694 99.8007C402.611 102.118 401.374 104.282 402.044 106.033C402.714 107.784 405.086 108.505 411.117 106.187C422.15 101.912 426.274 96.6591 426.274 96.6591C426.274 96.6591 419.933 95.4745 408.694 99.8007Z" fill="#CBBADD"/>
<path d="M404.056 117.312C397.561 117.724 395.756 119.372 395.86 121.226C395.963 123.132 398.025 124.522 404.469 124.11C416.274 123.389 421.791 119.578 421.791 119.578C421.791 119.578 416.017 116.539 404.056 117.312Z" fill="#CBBADD"/>
<path d="M376.94 144.454C373.331 147.647 373.28 149.758 374.569 151.149C375.806 152.54 377.92 152.746 381.528 149.552C388.075 143.681 388.952 138.325 388.952 138.325C388.952 138.325 383.59 138.531 376.94 144.454Z" fill="#CBBADD"/>
<path d="M384.826 102.581C382.145 106.547 382.609 108.607 384.155 109.689C385.702 110.77 387.816 110.41 390.496 106.444C395.394 99.1822 394.982 93.7744 394.982 93.7744C394.982 93.7744 389.826 95.2165 384.826 102.581Z" fill="#CBBADD"/>
<path d="M352.916 165.261C351.472 169.845 352.452 171.699 354.256 172.265C356.06 172.832 357.968 171.956 359.411 167.372C362.092 159.029 360.133 153.93 360.133 153.93C360.133 153.93 355.648 156.814 352.916 165.261Z" fill="#CBBADD"/>
<path d="M382.455 162.325C378.279 164.694 377.763 166.754 378.691 168.351C379.619 169.999 381.63 170.617 385.805 168.248C393.435 163.922 395.446 158.875 395.446 158.875C395.446 158.875 390.239 157.947 382.455 162.325Z" fill="#CBBADD"/>
<path d="M385.547 63.0792C381.887 68.4355 382.041 70.9076 383.588 71.9377C385.135 73.0193 387.506 72.2982 391.166 66.8904C397.868 57.1563 398.281 50.4609 398.281 50.4609C398.281 50.4609 392.352 53.1391 385.547 63.0792Z" fill="#CBBADD"/>
<path opacity="0.8" d="M244.192 315.495C244.192 315.495 151.964 197.605 120.878 223.82C89.7915 250.035 200.166 289.177 225.942 324.302L244.192 315.495Z" fill="#CBBADD"/>
<path opacity="0.8" d="M205.578 297.109C205.578 297.109 105.618 213.571 78.3462 243.958C51.0748 274.344 160.831 283.769 188.927 309.109L205.578 297.109Z" fill="#DCCEEF"/>
<path d="M196.351 303.907C177.225 286.036 150.469 273.366 131.394 265.898C110.721 257.76 94.3793 253.846 94.2246 253.795L94.4824 252.765C94.637 252.816 111.082 256.782 131.807 264.919C150.984 272.439 177.843 285.16 197.072 303.135L196.351 303.907Z" fill="#EDE6F4"/>
<path opacity="0.8" d="M156.809 377.557C178.409 373.179 188.204 404.493 208.258 389.145C228.312 373.745 225.838 373.127 240.943 378.175C240.943 378.175 249.294 385.746 258.935 383.428C296.929 374.157 322.345 300.92 272.957 288.25C269.4 287.323 265.173 288.25 260.584 289.435C235.736 295.976 233.158 309.779 202.897 290.413C172.584 271.048 164.902 321.161 148.715 326.569C132.527 331.976 116.752 333.315 111.803 355.153C106.906 376.99 135.208 381.883 156.809 377.557Z" fill="#E4D9F4"/>
<path d="M278.319 331.1L278.577 329.658C277.958 329.555 214.497 318.688 111.082 361.023L111.649 362.362C214.6 320.233 277.649 330.997 278.319 331.1Z" fill="#EDE6F4"/>
<path d="M197.331 319.461C205.527 301.435 203.672 290.722 203.568 290.31L202.125 290.568C202.125 290.671 203.929 301.28 195.99 318.843L197.331 319.461Z" fill="#EDE6F4"/>
<path d="M201.248 334.808C202.124 326.465 197.536 316.988 187.999 307.409C180.885 300.25 173.358 295.46 173.306 295.409L172.533 296.645C172.843 296.851 201.764 315.495 199.805 334.654L201.248 334.808Z" fill="#EDE6F4"/>
<path d="M173.306 344.286C174.337 342.225 174.801 340.989 174.852 340.938L173.512 340.423C173.409 340.68 163.15 367.05 135.775 378.072L136.291 379.411C158.304 370.501 169.491 351.908 173.306 344.286Z" fill="#EDE6F4"/>
<path d="M173.461 380.749C176.606 371.17 175.369 363.547 173.77 358.809C172.018 353.659 169.543 350.826 169.44 350.723L168.357 351.702C168.461 351.805 177.895 362.775 172.069 380.337L173.461 380.749Z" fill="#EDE6F4"/>
<g opacity="0.6">
<path opacity="0.8" d="M394.52 258.224C394.52 258.224 455.197 44.1262 512.73 62.7703C570.263 81.4144 440.247 197.245 424.575 260.13L394.52 258.224Z" fill="#CBBADD"/>
</g>
<g opacity="0.6">
<path opacity="0.8" d="M437.516 246.996C437.516 246.996 511.803 118.651 552.839 140.488C593.875 162.377 480.201 215.27 459.993 253.331L437.516 246.996Z" fill="#CBBADD"/>
</g>
<path d="M450.043 250.653C463.498 224.129 487.161 200.129 504.637 184.678C523.557 167.939 539.538 157.33 539.693 157.227L539.023 156.248C538.868 156.351 522.835 167.012 503.864 183.802C486.336 199.305 462.57 223.408 449.012 250.138L450.043 250.653Z" fill="#EDE6F4"/>
<path d="M369.723 366.895V322.757H280.589V366.895C280.589 378.381 272.959 387.651 263.525 387.651H259.916V393.368H390.344V387.651H386.736C377.353 387.651 369.723 378.381 369.723 366.895Z" fill="#250B33"/>
<path d="M389.674 393.368H260.689C259.091 393.368 257.854 392.08 257.854 390.535C257.854 388.939 259.142 387.703 260.689 387.703H389.674C391.272 387.703 392.509 388.99 392.509 390.535C392.509 392.08 391.22 393.368 389.674 393.368Z" fill="#341B3F"/>
<path d="M476.952 349.848L175.575 346.397C169.131 346.345 163.924 341.092 163.924 334.654V150.84C163.924 144.402 169.079 139.149 175.523 139.097L473.034 134.565C479.53 134.462 484.84 139.612 484.994 146.102L488.861 337.899C489.015 344.491 483.602 349.951 476.952 349.848Z" fill="#341B3F"/>
<path d="M467.26 313.435H181.4C178.203 313.435 175.574 310.86 175.574 307.615V158.875C175.574 155.681 178.152 153.055 181.4 153.055H467.26C470.456 153.055 473.085 155.63 473.085 158.875V307.615C473.085 310.808 470.456 313.435 467.26 313.435Z" fill="#7C4EFF"/>
<path d="M563.715 343.564L619.134 343.667L682.235 345.213L682.39 349.951L621.351 347.324C615.216 347.53 610.422 353.144 610.68 359.839C610.886 366.535 616.093 371.84 622.228 371.634L683.111 369.522L683.215 373.024L564.54 378.277C556.601 378.535 549.899 370.552 549.59 361.848C549.28 353.144 555.776 343.822 563.715 343.564Z" fill="#341B3F"/>
<path d="M605.267 359.942C604.958 351.238 611.195 343.925 619.135 343.667L682.235 345.213L682.39 349.951L621.351 347.324C615.217 347.53 610.422 353.144 610.68 359.839C610.886 366.535 616.093 371.84 622.228 371.634L683.112 369.522L683.215 375.187H620.269C612.278 375.496 605.576 368.646 605.267 359.942Z" fill="#341B3F"/>
<path d="M621.352 347.376L682.39 350.003C676.874 350.878 675.224 356.492 674.451 359.479C672.905 365.505 677.493 369.007 683.06 369.522V369.625L622.177 371.737C616.042 371.943 610.886 366.69 610.629 359.943C610.474 353.196 615.217 347.582 621.352 347.376Z" fill="white"/>
<path d="M659.214 362.283L622.722 363.098L622.729 363.407L659.221 362.592L659.214 362.283Z" fill="#341B3F"/>
<path d="M609.133 369.728C609.287 369.728 609.494 369.676 609.597 369.522C609.751 369.316 609.7 369.007 609.442 368.852C609.39 368.852 605.472 366.483 604.802 359.839C604.184 353.247 609.494 350.723 609.545 350.723C609.803 350.62 609.906 350.311 609.751 350.105C609.597 349.899 609.287 349.796 609.03 349.899C608.772 350.002 603.049 352.732 603.72 359.942C604.39 367.05 608.617 369.522 608.823 369.625C608.926 369.728 609.03 369.728 609.133 369.728Z" fill="white"/>
<path d="M636.73 358.716L636.726 359.025L663.943 359.448L663.947 359.139L636.73 358.716Z" fill="#341B3F"/>
<path d="M592.585 368.389C592.533 368.337 586.244 360.818 592.017 352.526C592.121 352.371 592.275 352.32 592.43 352.268L601.709 351.959C601.916 351.959 602.122 352.062 602.225 352.217C602.328 352.371 602.328 352.629 602.225 352.784C602.173 352.835 599.647 356.749 600.575 360.509C601.555 364.423 603.256 367.359 603.256 367.359C603.359 367.513 603.359 367.719 603.256 367.874C603.153 368.028 602.998 368.131 602.792 368.131L593.049 368.492C592.842 368.595 592.688 368.492 592.585 368.389ZM599.493 360.818C598.719 357.676 600.008 354.586 600.781 353.093L592.791 353.35C588.203 360.2 592.378 366.277 593.255 367.462L601.864 367.153C601.297 366.02 600.214 363.702 599.493 360.818Z" fill="white"/>
<path d="M683.989 313.796L627.229 312.663L562.994 315.187L562.891 320.028L625.012 316.423C631.25 316.526 636.199 322.191 636.096 329.041C635.941 335.891 630.786 341.35 624.548 341.196L562.53 339.96L562.479 343.513L683.37 345.934C691.464 346.089 698.217 339.033 698.372 330.174C698.526 321.264 692.134 313.951 683.989 313.796Z" fill="#FF6D4C"/>
<path d="M641.612 328.989C641.767 320.131 635.374 312.766 627.229 312.611L562.994 315.135L562.891 319.976L625.012 316.371C631.25 316.474 636.199 322.139 636.096 328.989C635.941 335.839 630.786 341.298 624.548 341.144L562.53 339.908L562.479 343.462L626.61 344.801C634.755 344.955 641.457 337.899 641.612 328.989Z" fill="#FF6D4C"/>
<path d="M625.064 316.422L562.943 319.976C568.562 320.8 570.315 326.465 571.14 329.504C572.789 335.633 568.201 339.238 562.53 339.856V339.959L624.548 341.195C630.786 341.298 635.993 335.891 636.096 329.041C636.251 322.191 631.301 316.525 625.064 316.422Z" fill="white"/>
<path d="M571.384 332.341L571.377 332.702L621.425 333.707L621.432 333.347L571.384 332.341Z" fill="#341B3F"/>
<path d="M640.168 339.393C640.271 339.393 640.375 339.341 640.426 339.29C640.581 339.187 644.396 336.508 644.911 329.041C645.427 321.521 640.168 318.74 639.962 318.585C639.704 318.482 639.395 318.534 639.292 318.791C639.189 319.049 639.24 319.306 639.498 319.461C639.704 319.564 644.396 322.088 643.932 328.938C643.468 335.89 639.911 338.414 639.859 338.414C639.653 338.569 639.55 338.878 639.704 339.084C639.859 339.341 640.014 339.393 640.168 339.393Z" fill="#341B3F"/>
<path d="M609.513 328.186L571.074 329.358L571.085 329.719L609.524 328.547L609.513 328.186Z" fill="#341B3F"/>
<path d="M653.006 336.714L650.48 336.663C649.294 336.663 648.263 336.096 647.593 335.118C646.923 334.191 646.768 333.006 647.129 331.924C647.387 331.152 647.644 330.328 647.799 329.555C648.057 328.525 648.005 327.444 647.748 326.259C647.49 325.178 647.748 324.096 648.469 323.22C649.191 322.345 650.222 321.881 651.356 321.881L653.367 321.933C654.656 321.984 655.841 322.654 656.46 323.787C658.934 328.474 657.388 332.697 656.305 334.809C655.687 335.993 654.449 336.714 653.109 336.714C653.057 336.714 653.057 336.714 653.006 336.714ZM651.356 322.86C650.531 322.86 649.81 323.169 649.294 323.838C648.779 324.456 648.572 325.281 648.779 326.053C649.088 327.392 649.088 328.68 648.83 329.813C648.624 330.637 648.418 331.461 648.108 332.285C647.851 333.058 647.954 333.933 648.469 334.603C648.933 335.272 649.707 335.684 650.583 335.736L653.109 335.787C654.089 335.787 655.016 335.272 655.48 334.397C656.512 332.439 657.903 328.577 655.635 324.302C655.223 323.478 654.346 322.963 653.418 322.963L651.356 322.86Z" fill="#341B3F"/>
<path d="M683.988 375.342L627.228 374.209L562.993 376.733L562.89 381.574L625.011 377.969C631.249 378.072 636.198 383.737 636.095 390.587C635.94 397.437 630.785 402.896 624.547 402.742L562.529 401.506L562.478 405.059L683.369 407.48C691.463 407.634 698.216 400.579 698.371 391.72C698.525 382.81 692.133 375.497 683.988 375.342Z" fill="#7C4EFF"/>
<path d="M641.611 390.587C641.766 381.728 635.373 374.363 627.228 374.209L562.993 376.733L562.89 381.574L625.011 377.969C631.249 378.072 636.198 383.737 636.095 390.587C635.94 397.437 630.785 402.896 624.547 402.742L562.529 401.506L562.478 405.059L626.661 406.347C634.754 406.501 641.456 399.445 641.611 390.587Z" fill="#7C4EFF"/>
<path d="M625.063 377.969L562.942 381.522C568.561 382.346 570.314 388.012 571.139 391.051C572.788 397.179 568.2 400.785 562.529 401.403V401.506L624.547 402.742C630.785 402.845 635.992 397.437 636.095 390.587C636.25 383.737 631.301 378.123 625.063 377.969Z" fill="white"/>
<path d="M571.416 393.907L571.409 394.268L621.457 395.273L621.464 394.912L571.416 393.907Z" fill="#341B3F"/>
<path d="M640.167 400.991C640.271 400.991 640.374 400.939 640.425 400.888C640.58 400.785 644.395 398.107 644.91 390.639C645.426 383.119 640.167 380.338 639.961 380.184C639.703 380.081 639.394 380.132 639.291 380.39C639.188 380.647 639.239 380.905 639.497 381.059C639.703 381.162 644.395 383.686 643.931 390.536C643.467 397.489 639.91 400.012 639.858 400.012C639.652 400.167 639.549 400.476 639.703 400.682C639.858 400.888 640.013 400.991 640.167 400.991Z" fill="#341B3F"/>
<path d="M609.511 389.732L571.072 390.902L571.083 391.263L609.522 390.092L609.511 389.732Z" fill="#341B3F"/>
<path d="M653.005 398.312L650.479 398.261C649.293 398.261 648.262 397.694 647.592 396.716C646.922 395.789 646.767 394.604 647.128 393.523C647.386 392.75 647.643 391.926 647.798 391.153C648.056 390.123 648.004 389.042 647.747 387.857C647.489 386.776 647.747 385.694 648.468 384.819C649.19 383.943 650.221 383.479 651.355 383.479L653.366 383.531C654.655 383.583 655.84 384.252 656.459 385.385C658.934 390.072 657.387 394.295 656.304 396.407C655.686 397.591 654.448 398.312 653.108 398.312C653.057 398.312 653.056 398.312 653.005 398.312ZM651.355 384.458C650.53 384.458 649.809 384.767 649.293 385.437C648.778 386.055 648.571 386.879 648.778 387.651C649.087 388.99 649.087 390.278 648.829 391.411C648.623 392.235 648.417 393.059 648.107 393.883C647.85 394.656 647.953 395.531 648.468 396.201C648.932 396.87 649.706 397.282 650.582 397.334L653.108 397.385C654.088 397.385 655.015 396.87 655.479 395.995C656.511 394.038 657.902 390.175 655.634 385.9C655.222 385.076 654.345 384.561 653.417 384.561L651.355 384.458Z" fill="#341B3F"/>
<path d="M570.469 219.339C570.469 219.339 550.931 244.524 552.271 264.044C553.611 283.512 576.707 267.958 576.707 267.958L578.718 221.811L570.469 219.339Z" fill="#FFA0A3"/>
<path d="M543.715 393.78C543.715 393.78 543.869 399.497 540.106 401.351C536.343 403.153 525.156 405.265 529.589 408.716C532.115 410.673 543.354 408.716 546.602 408.561C549.798 408.407 552.891 409.591 555.16 407.325C557.634 404.801 554.386 393.265 554.386 393.265C554.386 393.265 551.705 394.861 549.231 394.913C545.571 394.964 543.715 393.78 543.715 393.78Z" fill="#341B3F"/>
<path d="M508.863 393.728C508.863 393.728 509.018 399.445 505.254 401.299C501.491 403.102 490.304 405.214 494.738 408.664C497.264 410.621 508.502 408.664 511.75 408.51C514.946 408.355 518.04 409.54 520.308 407.274C522.782 404.75 519.535 393.213 519.535 393.213C519.535 393.213 516.854 394.81 514.379 394.861C510.719 394.913 508.863 393.728 508.863 393.728Z" fill="#341B3F"/>
<path d="M504.687 384.252C507.523 346.758 508.193 321.418 520.05 305.143C533.041 287.323 567.943 274.756 581.398 273.984C603.308 272.696 613.67 275.941 613.67 275.941C630.115 310.139 604.339 314.671 585.264 315.598C584.646 315.65 584.027 315.65 583.357 315.701C571.809 316.422 551.291 319.358 543.507 330.843C537.372 339.908 533.093 352.68 531.289 385.539C530.928 391.823 525.669 396.716 519.328 396.561C519.328 396.561 503.656 397.746 504.687 384.252Z" fill="#50B82D"/>
<path d="M535.824 386.209C535.463 348.56 534.277 329.401 545.567 312.714C552.836 302.002 563.766 293.916 578.046 288.662C588.253 284.903 600.213 282.636 613.669 281.864C635.579 280.576 645.425 277.95 645.425 277.95C663.159 321.727 598.254 312.405 581.345 331.049C573.973 339.187 564.848 354.638 563.044 387.497C562.683 393.78 557.425 398.673 551.084 398.518C551.135 398.518 535.979 399.96 535.824 386.209Z" fill="#50B82D"/>
<path d="M535.93 349.23H535.672C535.672 349.024 536.806 326.62 540.569 318.791C545.312 308.851 559.128 298.499 573.408 294.173L573.46 294.43C559.231 298.757 545.518 309.057 540.776 318.946C537.064 326.723 535.93 349.024 535.93 349.23Z" fill="#250B33"/>
<path d="M629.858 208.421C629.858 208.421 620.527 192.506 599.03 197.399C577.532 202.292 568.768 224.232 567.222 276.92C567.222 276.92 587.121 276.199 639.447 293.504C645.633 295.564 654.707 293.916 651.562 283.409C645.633 263.787 639.911 224.696 629.858 208.421Z" fill="#7C4EFF"/>
<path d="M653.52 213.107L631.404 217.279C631.404 217.279 592.74 228.713 581.914 228.816C571.088 228.919 566.603 220.987 566.603 220.987C566.603 220.987 575.315 206.154 593.616 199.201C595.317 198.532 597.122 197.965 599.029 197.45C602.174 196.626 605.422 195.854 608.67 195.854C645.169 195.39 653.52 213.107 653.52 213.107Z" fill="#7C4EFF"/>
<path d="M653.52 213.107C653.984 214.858 649.344 217.743 643.158 219.597C636.972 221.451 631.558 221.502 631.094 219.803C630.631 218.052 635.27 215.167 641.457 213.313C647.643 211.408 653.056 211.356 653.52 213.107Z" fill="#341B3F"/>
<path d="M608.618 195.803C606.247 196.009 603.978 194.927 602.638 192.97L598.462 186.841L597.276 185.038L590.162 174.532L593.255 186.223L595.111 193.227L595.627 195.236C596.039 196.884 595.163 198.532 593.616 199.15H593.565C592.946 200.747 592.276 203.888 596.142 204.352C600.73 204.867 606.968 200.232 608.618 195.803C608.67 195.803 608.618 195.803 608.618 195.803Z" fill="#FFA0A3"/>
<path d="M603.205 170.051C603.205 170.051 603.102 172.059 605.009 175.871C607.741 181.381 601.555 185.09 599.544 183.751C599.287 183.596 597.688 173.604 597.688 173.604L599.596 171.956L603.205 170.051Z" fill="#341B3F"/>
<path d="M598.463 186.583C598.463 186.635 598.463 186.738 598.463 186.789C598.927 190.652 595.163 193.227 595.163 193.227H595.112L593.256 186.223C594.442 185.553 596.091 184.729 597.225 185.038C597.896 185.193 598.308 185.656 598.463 186.583Z" fill="#341B3F"/>
<path d="M578.872 178.652C577.428 171.081 581.243 163.973 587.378 162.789C593.513 161.604 599.699 166.806 601.142 174.377C602.586 181.948 598.771 189.055 592.636 190.24C586.45 191.424 580.315 186.223 578.872 178.652Z" fill="#FFA0A3"/>
<path d="M583.614 166.806C584.027 167.166 583.614 174.583 597.018 173.759C610.422 172.935 599.544 158.565 589.801 160.059C575.727 162.171 575.933 173.81 577.892 176.9C579.851 180.042 583.614 166.806 583.614 166.806Z" fill="#341B3F"/>
<path d="M602.121 154.291C602.121 154.291 596.966 159.338 602.224 162.171C607.431 165.003 620.216 164.282 618 171.132C615.783 178.034 614.597 187.819 620.938 187.819C627.279 187.819 631.042 186.635 634.445 191.013C637.847 195.39 648.364 190.291 646.354 184.678C644.343 179.064 652.901 172.162 647.797 167.63C642.693 163.098 631.867 160.368 628.052 153.879C624.238 147.492 606.297 150.428 602.121 154.291Z" fill="#341B3F"/>
<path d="M595.11 171.802C595.11 171.802 601.554 176.437 600.781 182.515C600.781 182.515 603.256 178.549 603.049 177.262C602.895 175.974 601.194 171.596 601.194 171.596L595.11 171.802Z" fill="#341B3F"/>
<path d="M600.06 176.128C599.029 177.57 597.276 178.034 596.194 177.158C595.06 176.283 595.008 174.377 596.039 172.935C597.07 171.493 598.823 171.029 599.906 171.905C601.04 172.78 601.091 174.686 600.06 176.128Z" fill="#FFA0A3"/>
<path d="M634.188 191.116C632.539 184.935 628.879 184.626 625.012 184.369C623.466 184.266 621.867 184.111 620.372 183.648C619.651 183.442 619.135 183.03 618.877 182.463C618.207 181.073 618.98 178.858 619.908 176.334C621.249 172.626 622.795 168.403 620.527 165.158C616.145 158.823 609.495 158.566 609.392 158.566C605.525 158.823 603.515 158.36 603.257 157.227C602.999 156.094 604.855 154.806 605.525 154.548C610.938 152.643 617.228 151.87 626.301 159.081C633.467 164.746 632.951 167.939 632.333 171.957C632.178 172.832 632.075 173.759 631.972 174.789C631.92 175.562 632.075 176.18 632.487 176.592C633.364 177.519 635.323 177.467 637.179 177.467C639.602 177.416 642.128 177.416 642.849 179.373C643.365 180.867 642.798 182.669 642.179 184.42C641.561 186.223 640.994 187.871 641.715 189.056C642.179 189.828 643.159 190.343 644.705 190.601L644.602 191.064C642.901 190.755 641.818 190.189 641.303 189.262C640.478 187.922 641.097 186.12 641.715 184.214C642.282 182.566 642.849 180.815 642.385 179.476C641.818 177.828 639.55 177.879 637.179 177.931C635.168 177.931 633.157 177.982 632.126 176.901C631.662 176.386 631.456 175.665 631.508 174.738C631.559 173.708 631.714 172.781 631.869 171.905C632.487 168.042 632.951 164.952 625.992 159.493C617.073 152.437 610.938 153.209 605.68 155.064C605.061 155.27 603.566 156.403 603.721 157.175C603.824 157.587 604.494 158.463 609.392 158.154C609.495 158.154 616.351 158.463 620.888 164.952C623.311 168.403 621.661 172.935 620.372 176.54C619.496 179.012 618.723 181.124 619.341 182.309C619.548 182.772 619.96 183.081 620.579 183.236C622.022 183.699 623.62 183.802 625.115 183.957C629.136 184.266 632.951 184.575 634.704 191.064L634.188 191.116Z" fill="white"/>
<path d="M594.749 169.69C590.573 169.69 587.893 166.806 587.893 166.806L588.202 166.497C588.253 166.549 591.398 169.948 596.193 169.124L596.244 169.536C595.729 169.639 595.265 169.69 594.749 169.69Z" fill="white"/>
<path d="M582.997 187.047C582.172 187.304 581.244 187.253 580.316 186.892C578.821 186.326 577.48 184.987 576.656 183.236C575.057 179.991 575.625 176.334 577.893 174.995C578.872 174.429 580.058 174.377 581.244 174.841C582.739 175.407 584.079 176.746 584.904 178.497C586.502 181.742 585.935 185.399 583.667 186.738C583.461 186.841 583.254 186.944 582.997 187.047ZM578.666 174.995C578.46 175.047 578.254 175.15 578.048 175.253C575.882 176.489 575.418 179.991 576.913 183.081C577.738 184.729 579.027 186.017 580.419 186.532C581.502 186.944 582.636 186.892 583.564 186.377C585.729 185.141 586.193 181.639 584.698 178.549C583.873 176.901 582.584 175.613 581.192 175.098C580.316 174.841 579.439 174.789 578.666 174.995Z" fill="#6F4975"/>
<path d="M593.204 183.287C592.328 183.442 591.4 183.287 590.524 182.824C589.08 182.103 587.894 180.609 587.224 178.806C585.987 175.407 587.018 171.802 589.544 170.772C590.627 170.308 591.812 170.411 592.998 170.978C594.442 171.699 595.627 173.193 596.298 174.995C597.535 178.394 596.504 182 593.978 183.03C593.668 183.184 593.462 183.236 593.204 183.287ZM590.266 170.875C590.008 170.926 589.802 170.978 589.596 171.081C587.276 172.059 586.296 175.51 587.43 178.703C588.049 180.454 589.183 181.845 590.575 182.566C591.658 183.133 592.792 183.184 593.772 182.772C596.091 181.794 597.071 178.343 595.937 175.15C595.318 173.399 594.184 172.008 592.792 171.287C591.967 170.875 591.091 170.72 590.266 170.875Z" fill="#6F4975"/>
<path d="M584.442 180.609C584.39 180.609 584.338 180.609 584.338 180.557C584.287 180.506 584.287 180.403 584.338 180.351C584.39 180.3 585.627 179.012 588.205 178.909C588.257 178.909 588.36 178.961 588.36 179.064C588.36 179.115 588.308 179.218 588.205 179.218C585.73 179.321 584.545 180.557 584.493 180.557C584.493 180.609 584.442 180.609 584.442 180.609Z" fill="#6F4975"/>
<path d="M585.573 186.583C585.573 186.583 589.388 185.965 592.945 183.905C592.945 183.905 593.976 187.613 589.904 188.643C587.532 189.21 585.573 186.583 585.573 186.583Z" fill="#DB6B49"/>
<path d="M585.573 186.583C585.573 186.583 586.656 187.15 588.769 186.738C590.935 186.326 592.945 183.854 592.945 183.854C592.945 183.854 588.563 186.017 585.573 186.583Z" fill="white"/>
<path d="M588.976 176.849C588.873 176.849 588.822 176.798 588.77 176.746C588.719 176.643 588.719 176.489 588.873 176.386C588.925 176.334 590.471 175.15 592.276 176.489C592.379 176.592 592.43 176.746 592.327 176.849C592.224 176.952 592.121 176.952 591.966 176.901C590.678 176.334 589.183 176.746 589.131 176.798C589.079 176.849 589.028 176.849 588.976 176.849Z" fill="#250B33"/>
<path d="M591.503 179.27C591.658 179.888 591.4 180.455 590.936 180.558C590.524 180.661 590.06 180.249 589.905 179.63C589.751 179.012 590.008 178.446 590.472 178.343C590.885 178.24 591.349 178.652 591.503 179.27Z" fill="#250B33"/>
<path d="M580.162 179.888C580.11 179.888 580.007 179.888 579.955 179.836C579.852 179.733 579.801 179.579 579.904 179.476C579.955 179.424 580.935 177.725 583.1 178.291C583.255 178.343 583.306 178.446 583.306 178.6C583.255 178.755 583.152 178.806 582.997 178.806C581.554 178.806 580.368 179.733 580.316 179.785C580.265 179.836 580.213 179.888 580.162 179.888Z" fill="#250B33"/>
<path d="M583.408 181.175C583.769 181.69 583.769 182.309 583.408 182.566C583.047 182.824 582.48 182.618 582.119 182.103C581.758 181.587 581.758 180.969 582.119 180.712C582.48 180.454 583.047 180.66 583.408 181.175Z" fill="#250B33"/>
<path d="M646.096 259.821C638.157 271.306 628.311 277.641 607.329 281.452L606.504 268.061C632.023 258.688 634.858 228.301 633.518 220.575C633.414 219.854 633.672 219.133 634.291 218.67C636.25 217.176 641.302 214.137 650.324 213.983C651.149 213.983 651.819 214.498 652.025 215.27C655.891 229.434 655.479 246.224 646.096 259.821Z" fill="#FFA0A3"/>
<g opacity="0.3">
<path opacity="0.3" d="M638.005 263.838C637.644 263.838 637.334 263.786 637.025 263.632C635.375 262.91 634.808 260.541 635.736 258.327C636.252 257.039 637.231 256.061 638.314 255.597C639.036 255.288 639.809 255.288 640.428 255.546C642.077 256.267 642.644 258.636 641.716 260.85C641.201 262.138 640.221 263.116 639.139 263.58C638.726 263.735 638.365 263.838 638.005 263.838ZM639.397 256.112C639.139 256.112 638.829 256.164 638.52 256.267C637.644 256.627 636.819 257.503 636.355 258.584C635.582 260.438 635.994 262.395 637.283 262.962C637.747 263.168 638.314 263.168 638.881 262.91C639.757 262.55 640.582 261.674 641.046 260.593C641.82 258.739 641.407 256.782 640.118 256.215C639.912 256.164 639.654 256.112 639.397 256.112Z" fill="#FF8383"/>
</g>
<path d="M606.556 268.01C606.556 268.01 594.131 267.289 590.935 269.967C587.739 272.645 585.625 278.465 587.997 277.229C590.317 275.993 592.894 273.624 592.894 273.624C592.894 273.624 587.687 278.98 589.44 279.649C591.244 280.319 595.73 275.632 595.73 275.632C595.73 275.632 590.007 282.534 591.915 282.637C593.822 282.74 598.101 277.486 598.101 277.486C598.101 277.486 593.049 284.13 595.266 284.182C597.482 284.233 599.39 278.671 601.194 279.34C602.998 280.01 608.102 283.924 610.577 279.186L606.556 268.01Z" fill="#FFA0A3"/>
<path d="M592.997 273.675L592.739 273.521C592.791 273.469 594.028 271.718 595.368 271.718H595.42V272.027C594.234 272.027 592.997 273.675 592.997 273.675Z" fill="#FF8383"/>
<path d="M595.834 275.684L595.576 275.53C595.628 275.478 596.813 273.727 598.721 273.418L598.772 273.727C597.02 274.036 595.834 275.684 595.834 275.684Z" fill="#FF8383"/>
<path d="M598.205 277.538L597.947 277.384C597.999 277.281 599.494 275.22 600.937 275.375L600.886 275.684C599.648 275.529 598.205 277.487 598.205 277.538Z" fill="#FF8383"/>
<path d="M593.154 287.117H551.912C551.035 287.117 550.262 286.55 550.004 285.778L541.446 260.232C541.034 258.945 541.962 257.605 543.354 257.605H582.998C584.802 257.605 586.4 258.739 586.967 260.438L595.061 284.49C595.474 285.778 594.546 287.117 593.154 287.117Z" fill="#341B3F"/>
<path d="M590.576 287.117H549.333C548.457 287.117 547.684 286.551 547.426 285.778L538.868 260.233C538.456 258.945 539.384 257.606 540.776 257.606H580.42C582.224 257.606 583.822 258.739 584.389 260.439L592.483 284.491C592.895 285.778 591.967 287.117 590.576 287.117Z" fill="#341B3F"/>
<path d="M561.705 271.512C561.705 270.533 562.839 270.121 563.819 270.121C564.798 270.121 566.396 271.203 566.396 272.542C566.396 273.984 565.262 274.19 564.283 274.19C563.252 274.241 561.705 272.748 561.705 271.512Z" fill="white"/>
<path d="M605.732 283.512H549.333V287.117H606.917C607.588 287.117 608.155 286.55 608.155 285.881C608.155 284.593 607.072 283.512 605.732 283.512Z" fill="#341B3F"/>
<path d="M587.636 270.481C587.636 270.43 585.574 262.807 584.285 260.49C582.997 258.172 581.398 257.709 581.398 257.709L581.45 257.451C581.502 257.451 583.151 257.966 584.492 260.387C585.832 262.756 587.791 270.121 587.894 270.481H587.636Z" fill="#50B82D"/>
<path d="M593.72 283.615C592.173 283.615 591.812 282.945 591.812 282.894L588.564 273.263L588.822 273.16L592.019 282.739C592.019 282.739 592.379 283.306 593.72 283.306V283.615Z" fill="#50B82D"/>
<path d="M193.824 165.261V302.98C193.824 305.916 196.196 308.285 199.134 308.285H457.413C460.352 308.285 462.723 305.916 462.723 302.98V165.261C462.723 162.325 460.352 159.956 457.413 159.956H199.134C196.196 159.956 193.824 162.325 193.824 165.261Z" fill="white"/>
<path d="M193.824 291.34V295.718C193.824 298.396 195.989 300.559 198.67 300.559H353.328C353.689 300.456 353.999 300.353 354.359 300.25C343.327 289.589 322.139 272.799 293.218 267.134C291.104 266.722 288.939 266.361 286.722 266.052C284.763 265.795 282.804 265.589 280.794 265.434C280.691 265.434 280.588 265.434 280.484 265.434C274.35 265.022 268.163 265.228 262.08 265.846C260.843 265.949 259.606 266.104 258.42 266.258C256.615 266.516 254.863 266.773 253.11 267.031C224.137 271.717 205.578 281.452 193.824 291.34Z" fill="#341B3F"/>
<path d="M260.842 273.159C257.543 268.112 262.286 267.7 263.781 262.601L268.369 246.841L269.709 242.258L277.597 215.27L279.144 241.949L280.071 257.966L280.381 263.013C280.587 266.464 281.515 266.928 284.144 269.863C285.175 271.048 289.145 275.889 284.093 278.31C279.556 280.524 265.018 279.597 260.842 273.159Z" fill="#FFA0A3"/>
<path d="M262.389 240.764C262.389 240.764 236.097 231.596 240.015 212.025C243.933 192.454 263.987 229.742 263.987 229.742L265.07 239.991L262.389 240.764Z" fill="#341B3F"/>
<path d="M268.318 246.378C268.318 246.532 268.369 246.687 268.421 246.79C270.174 255.236 280.02 257.966 280.02 257.966L280.072 257.914L279.144 241.897C276.154 241.227 271.978 240.712 269.71 242.206C268.575 242.978 267.957 244.266 268.318 246.378Z" fill="#341B3F"/>
<path d="M302.91 219.287C300.848 203.733 288.733 192.505 275.845 194.205C262.957 195.904 254.141 209.862 256.204 225.416C258.266 240.97 270.381 252.197 283.269 250.498C296.157 248.798 304.972 234.841 302.91 219.287Z" fill="#FFA0A3"/>
<path d="M259.192 221.708C259.192 221.708 266.977 223.253 270.224 217.485C273.524 211.716 275.483 206.772 288.938 207.287C302.393 207.802 313.323 199.922 312.755 192.712C312.188 185.553 304.816 183.183 298.063 186.634C291.309 190.085 297.96 182.514 290.227 178.239C282.494 173.913 273.318 186.119 265.842 185.604C258.367 185.141 235.581 192.042 239.963 212.025L259.192 221.708Z" fill="#341B3F"/>
<path d="M256.256 227.424C258.627 228.918 261.669 228.454 263.061 226.291C264.401 224.18 263.576 221.192 261.205 219.699C258.833 218.205 255.792 218.669 254.4 220.832C253.059 222.944 253.884 225.879 256.256 227.424Z" fill="#FFA0A3"/>
<path d="M295.279 196.574C294.248 196.574 293.063 196.471 291.774 196.317C288.681 195.905 286 195.029 286 195.029L286.103 194.72C286.206 194.772 296.62 198.016 300.486 194.926C302.342 193.433 302.497 192.197 302.033 191.476C301.466 190.651 299.816 190.342 298.115 191.373C294.764 193.278 292.393 192.969 292.289 192.969L292.341 192.66C292.341 192.66 294.712 192.969 297.96 191.115C299.868 190.033 301.62 190.342 302.291 191.321C302.858 192.145 302.703 193.587 300.692 195.184C299.455 196.111 297.651 196.574 295.279 196.574Z" fill="white"/>
<path d="M252.491 191.785L252.285 191.527C255.121 189.518 258.575 189.724 262.544 189.93C264.503 190.033 266.565 190.136 268.782 190.033C275.535 189.673 280.845 183.287 280.949 182.875L281.258 182.978C281.052 183.647 275.484 189.982 268.782 190.342C266.565 190.445 264.503 190.342 262.544 190.239C258.626 190.033 255.275 189.827 252.491 191.785Z" fill="white"/>
<path d="M244.706 208.368C244.448 208.368 244.139 208.214 243.984 207.39V207.338V207.287C244.036 207.081 244.912 202.497 246.82 202.755C247.077 202.806 247.438 202.961 247.387 203.733C247.387 205.33 245.789 208.317 244.706 208.368C244.758 208.368 244.758 208.368 244.706 208.368ZM244.345 207.39C244.397 207.699 244.5 208.059 244.758 208.059C245.531 208.008 247.077 205.227 247.129 203.785C247.129 203.167 246.923 203.167 246.82 203.115C245.479 202.961 244.603 206.102 244.345 207.39Z" fill="white"/>
<path d="M283.989 221.141C284.093 221.09 284.196 220.935 284.196 220.781C284.196 220.523 284.041 220.265 283.783 220.265C283.629 220.265 280.071 219.596 278.267 223.407C278.164 223.665 278.267 223.922 278.473 224.025C278.731 224.128 278.937 224.025 279.092 223.819C280.742 221.759 283.525 221.193 283.68 221.193C283.835 221.244 283.938 221.193 283.989 221.141Z" fill="#250B33"/>
<path d="M281.928 227.27C282.237 228.352 283.113 229.073 283.938 228.867C284.711 228.661 285.124 227.579 284.814 226.497C284.505 225.416 283.629 224.695 282.804 224.901C282.031 225.107 281.618 226.188 281.928 227.27Z" fill="#250B33"/>
<path d="M301.672 219.751C301.775 219.751 301.878 219.648 301.93 219.493C302.033 219.287 301.93 218.978 301.724 218.824C301.621 218.772 299.146 216.712 296.878 219.39C296.723 219.545 296.723 219.854 296.878 220.06C297.032 220.266 297.239 220.266 297.393 220.111C299.146 218.927 301.363 219.596 301.414 219.648C301.517 219.751 301.569 219.751 301.672 219.751Z" fill="#250B33"/>
<path d="M297.291 224.644C297.136 225.777 297.704 226.755 298.528 226.858C299.353 226.961 300.126 226.137 300.281 225.004C300.436 223.871 299.869 222.892 299.044 222.789C298.219 222.686 297.446 223.51 297.291 224.644Z" fill="#250B33"/>
<path d="M284.712 242.31C282.804 242.31 280.742 241.795 278.68 240.301C278.525 240.198 278.474 239.992 278.629 239.838C278.732 239.683 278.938 239.632 279.093 239.786C285.33 244.318 291.62 239.374 291.929 239.168C292.084 239.065 292.29 239.065 292.393 239.219C292.496 239.374 292.496 239.58 292.342 239.683C292.238 239.735 288.939 242.31 284.712 242.31Z" fill="#250B33"/>
<path d="M278.422 241.691C278.268 241.691 278.113 241.588 278.113 241.382C278.01 240.506 278.371 239.528 279.195 238.395C279.195 238.343 279.247 238.343 279.247 238.343C279.35 238.189 279.556 238.137 279.711 238.24C279.866 238.343 279.917 238.549 279.814 238.704C279.814 238.704 279.763 238.755 279.763 238.807C278.886 239.991 278.783 240.815 278.835 241.33C278.783 241.485 278.628 241.691 278.422 241.691Z" fill="#250B33"/>
<path d="M303.785 238.755C303.012 238.755 302.29 238.601 301.517 238.343C296.207 236.386 292.599 227.991 293.475 219.596C293.99 214.446 296.156 210.223 299.146 208.317C300.95 207.184 302.961 206.978 304.92 207.699C310.23 209.656 313.838 218.051 312.962 226.446C312.446 231.596 310.281 235.82 307.291 237.725C306.157 238.395 304.971 238.755 303.785 238.755ZM302.651 208.265C301.62 208.265 300.641 208.574 299.661 209.141C296.877 210.892 294.918 214.806 294.454 219.648C293.63 227.631 296.929 235.562 301.826 237.365C303.476 237.983 305.177 237.777 306.724 236.85C309.508 235.099 311.467 231.184 311.931 226.343C312.756 218.36 309.456 210.429 304.559 208.626C303.94 208.368 303.27 208.265 302.651 208.265Z" fill="#7C4EFF"/>
<g opacity="0.3">
<path opacity="0.3" d="M267.184 219.699C267.029 227.733 271.566 235.407 277.288 236.798C283.01 238.188 287.753 232.832 287.908 224.798C288.062 216.763 283.526 209.089 277.803 207.699C272.081 206.308 267.338 211.664 267.184 219.699Z" fill="white"/>
</g>
<g opacity="0.3">
<path opacity="0.3" d="M293.371 220.266C293.217 228.352 297.289 236.18 302.496 237.828C307.652 239.476 311.982 234.275 312.137 226.189C312.291 218.103 308.219 210.274 303.012 208.626C297.857 206.978 293.526 212.18 293.371 220.266Z" fill="white"/>
</g>
<path d="M279.506 237.159C278.836 237.159 278.166 237.056 277.496 236.901C271.206 235.408 266.257 227.219 266.463 218.618C266.566 213.622 268.371 209.399 271.361 207.081C273.423 205.485 275.897 204.97 278.423 205.536C284.713 207.03 289.662 215.219 289.456 223.82C289.353 228.815 287.548 233.039 284.558 235.356C283.012 236.541 281.31 237.159 279.506 237.159ZM267.443 218.618C267.237 226.755 271.876 234.532 277.702 235.923C279.919 236.438 282.084 235.974 283.94 234.584C286.672 232.472 288.373 228.455 288.476 223.82C288.682 215.682 284.043 207.905 278.217 206.515C276.001 206 273.835 206.463 271.979 207.854C269.247 209.965 267.546 213.983 267.443 218.618Z" fill="#7C4EFF"/>
<path d="M287.289 223.098C286.929 223.098 286.568 222.892 286.413 222.532C286.207 222.068 286.413 221.502 286.929 221.296C291.671 219.287 295.125 221.09 295.229 221.141C295.692 221.399 295.847 221.965 295.589 222.377C295.332 222.841 294.816 222.995 294.352 222.738C294.249 222.686 291.465 221.296 287.599 222.944C287.547 223.098 287.392 223.098 287.289 223.098Z" fill="#7C4EFF"/>
<path d="M239.86 212.231C235.684 210.12 236.767 205.536 236.767 205.484L237.282 205.587C237.231 205.742 236.303 209.811 240.118 211.716L239.86 212.231Z" fill="#341B3F"/>
<path d="M237.127 217.845L236.715 217.587C236.818 217.433 238.88 214.24 241.303 213.725L241.406 214.24C239.189 214.652 237.127 217.793 237.127 217.845Z" fill="#341B3F"/>
<g opacity="0.5">
<path opacity="0.5" d="M346.783 238.91H419.111C421.173 238.91 422.875 237.211 422.875 235.151V193.433C422.875 191.373 421.173 189.673 419.111 189.673H346.783C344.721 189.673 343.02 191.373 343.02 193.433V235.151C343.02 237.211 344.721 238.91 346.783 238.91Z" fill="#7C4EFF"/>
</g>
<path d="M362.814 225.365H435.143C437.205 225.365 438.906 223.665 438.906 221.605V179.888C438.906 177.828 437.205 176.128 435.143 176.128H362.814C360.752 176.128 359.051 177.828 359.051 179.888V221.605C359.051 223.665 360.752 225.365 362.814 225.365Z" fill="#7C4EFF"/>
<path d="M398.591 249.211C396.117 246.533 383.59 246.79 373.898 248.85C373.898 248.335 373.898 247.769 373.846 247.202C372.815 235.254 370.444 218.773 364.412 219.751C360.288 220.421 361.525 260.181 361.525 260.181C361.473 261.263 361.473 262.396 361.473 263.58C356.731 256.318 346.523 249.88 344.306 253.177C341.883 256.782 350.287 265.692 354.101 274.756C357.865 283.821 364.103 295.718 364.154 300.147H404.468C404.262 288.044 401.633 252.559 398.591 249.211Z" fill="#FF8383"/>
<path d="M376.115 237.88C373.949 238.241 371.784 237.571 370.753 249.726C370.238 255.803 369.825 274.911 375.547 273.933C381.27 272.954 383.229 251.323 383.229 251.323C383.229 251.323 383.126 276.147 388.126 273.572C393.127 270.997 395.034 251.323 395.034 251.323C395.034 251.323 393.539 275.529 399.262 272.387C404.984 269.246 406.737 256.37 406.273 250.808C405.654 243.906 400.602 243.494 395.241 243.134C395.241 243.134 389.931 239.838 386.374 240.456C384.982 240.713 380.342 237.159 376.115 237.88Z" fill="#FFA0A3"/>
<path d="M193.824 295.1V302.98C193.824 305.916 196.196 308.285 199.134 308.285H457.413C460.352 308.285 462.723 305.916 462.723 302.98V297.727C431.431 297.263 254.914 295.667 193.824 295.1Z" fill="#7C4EFF"/>
<path d="M213.373 300.682L213.361 302.742L445.813 304.04L445.824 301.979L213.373 300.682Z" fill="white"/>
<path d="M329.098 301.332L329.355 303.392L445.813 304.062L445.865 302.002L329.098 301.332Z" fill="#FF6D4C"/>
<path d="M333.068 302.362C333.068 300.457 331.522 298.912 329.614 298.912C327.707 298.912 326.16 300.457 326.16 302.362C326.16 304.268 327.707 305.813 329.614 305.813C331.522 305.813 333.068 304.268 333.068 302.362Z" fill="#FF6D4C"/>
<path d="M453.493 167.836C453.493 166.445 452.359 165.261 450.916 165.261C449.524 165.261 448.338 166.394 448.338 167.836C448.338 169.226 449.472 170.411 450.916 170.411C452.359 170.36 453.493 169.226 453.493 167.836Z" fill="#FF6D4C"/>
<path d="M444.214 167.836C444.214 166.445 443.08 165.261 441.636 165.261C440.244 165.261 439.059 166.394 439.059 167.836C439.059 169.226 440.193 170.411 441.636 170.411C443.08 170.36 444.214 169.226 444.214 167.836Z" fill="#341B3F"/>
<path d="M434.729 167.836C434.729 166.445 433.595 165.261 432.152 165.261C430.76 165.261 429.574 166.394 429.574 167.836C429.574 169.226 430.708 170.411 432.152 170.411C433.595 170.36 434.729 169.226 434.729 167.836Z" fill="#7C4EFF"/>
<path d="M401.633 192.66H366.578C365.804 192.66 364.619 191.836 364.515 191.115C364.309 189.57 365.804 189.106 366.578 189.106L401.633 189.879C402.407 189.879 403.025 190.497 403.025 191.27C403.025 191.991 402.407 192.66 401.633 192.66Z" fill="white"/>
<path d="M392.508 186.068H366.061C365.494 186.068 364.566 185.398 364.514 184.832C364.36 183.596 365.494 183.235 366.061 183.235L392.508 183.853C393.075 183.853 393.59 184.368 393.59 184.986C393.59 185.553 393.126 186.068 392.508 186.068Z" fill="white"/>
<path d="M392.508 199.253H366.061C365.494 199.253 364.566 198.584 364.514 198.017C364.36 196.781 365.494 196.42 366.061 196.42L392.508 197.038C393.075 197.038 393.59 197.553 393.59 198.172C393.59 198.79 393.126 199.253 392.508 199.253Z" fill="white"/>
<path d="M396.737 212.18H428.288C428.958 212.18 430.04 211.459 430.143 210.79C430.35 209.399 429.009 208.987 428.288 208.987L396.737 209.708C396.067 209.708 395.5 210.275 395.5 210.944C395.5 211.614 396.067 212.18 396.737 212.18Z" fill="white"/>
<path d="M404.932 218.155H428.749C429.265 218.155 430.09 217.588 430.141 217.022C430.296 215.889 429.265 215.58 428.749 215.58L404.932 216.146C404.416 216.146 404.004 216.61 404.004 217.176C404.004 217.691 404.416 218.155 404.932 218.155Z" fill="white"/>
<path d="M428.904 202.446L410.706 203.425C409.263 203.528 408.077 202.292 408.129 200.85L409.263 183.854C409.366 182.514 410.5 181.536 411.84 181.587L428.44 182.514C429.678 182.566 430.709 183.596 430.709 184.832L431.224 199.922C431.276 201.262 430.245 202.343 428.904 202.446Z" fill="white"/>
<path d="M389.879 217.949L382.043 218.361C381.425 218.412 380.909 217.897 380.961 217.228L381.425 209.914C381.476 209.348 381.94 208.936 382.507 208.936L389.621 209.348C390.137 209.399 390.601 209.811 390.601 210.326L390.807 216.816C390.859 217.434 390.446 217.897 389.879 217.949Z" fill="white"/>
<path d="M376.012 217.949L368.176 218.361C367.557 218.412 367.042 217.897 367.093 217.228L367.557 209.914C367.609 209.348 368.073 208.936 368.64 208.936L375.754 209.348C376.27 209.399 376.734 209.811 376.734 210.326L376.94 216.816C376.992 217.434 376.579 217.897 376.012 217.949Z" fill="white"/>
<g opacity="0.5">
<path opacity="0.5" d="M427.564 287.58H450.144C452.722 287.58 454.836 285.469 454.836 282.894V251.94C454.836 249.365 452.722 247.253 450.144 247.253H427.564C424.987 247.253 422.873 249.365 422.873 251.94V282.894C422.873 285.469 424.987 287.58 427.564 287.58Z" fill="#7C4EFF"/>
</g>
<path d="M428.904 260.902H448.546C448.958 260.902 449.628 260.439 449.68 260.027C449.783 259.151 448.958 258.894 448.546 258.894L428.904 259.306C428.492 259.306 428.131 259.666 428.131 260.078C428.131 260.542 428.492 260.902 428.904 260.902Z" fill="white"/>
<path d="M434.007 257.245H448.854C449.164 257.245 449.679 256.885 449.731 256.524C449.834 255.803 449.164 255.597 448.854 255.597L434.007 255.958C433.698 255.958 433.389 256.267 433.389 256.576C433.389 256.936 433.698 257.245 434.007 257.245Z" fill="white"/>
<path d="M434.007 264.61H448.854C449.164 264.61 449.679 264.249 449.731 263.889C449.834 263.168 449.164 262.962 448.854 262.962L434.007 263.322C433.698 263.322 433.389 263.631 433.389 263.94C433.389 264.352 433.698 264.61 434.007 264.61Z" fill="white"/>
<path d="M428.904 275.735H448.546C448.958 275.735 449.628 275.271 449.68 274.859C449.783 273.984 448.958 273.726 448.546 273.726L428.904 274.138C428.492 274.138 428.131 274.499 428.131 274.911C428.131 275.374 428.492 275.735 428.904 275.735Z" fill="white"/>
<path d="M434.007 272.027H448.854C449.164 272.027 449.679 271.666 449.731 271.305C449.834 270.584 449.164 270.378 448.854 270.378L434.007 270.739C433.698 270.739 433.389 271.048 433.389 271.357C433.389 271.718 433.698 272.027 434.007 272.027Z" fill="white"/>
<path d="M434.007 279.443H448.854C449.164 279.443 449.679 279.082 449.731 278.722C449.834 278.001 449.164 277.795 448.854 277.795L434.007 278.155C433.698 278.155 433.389 278.464 433.389 278.773C433.389 279.134 433.698 279.443 434.007 279.443Z" fill="white"/>
<path d="M669.039 418.914C669.039 418.914 659.141 408.819 662.543 403.102C665.945 397.385 671.668 415.411 671.668 415.411C671.668 415.411 668.678 394.038 674.864 393.677C681.05 393.317 674.864 415.411 674.864 415.411C674.864 415.411 677.133 410.261 679.401 409.952C681.618 409.643 680.999 414.33 677.029 418.914H669.039Z" fill="#CBBADD"/>
<path d="M669.709 419.171C669.657 419.119 666.873 416.235 664.553 412.578C661.409 407.583 660.635 403.617 662.337 400.784C662.955 399.754 663.728 399.239 664.553 399.342C666.254 399.548 668.265 402.226 670.533 407.325C671.204 408.87 671.822 410.467 672.286 411.754C672.132 409.952 671.925 407.583 671.874 405.059C671.668 398.003 672.441 393.368 674.194 391.256C674.864 390.432 675.689 390.02 676.617 389.917C677.545 389.866 678.266 390.175 678.833 390.896C681.617 394.346 679.091 406.45 677.699 412.115C678.73 410.467 680.174 408.613 681.669 408.407C682.391 408.304 682.958 408.561 683.267 409.128C684.143 410.776 682.906 414.948 679.297 419.171L678.73 418.707C682.287 414.587 683.267 410.724 682.597 409.488C682.442 409.179 682.184 409.076 681.772 409.128C679.864 409.385 677.648 413.557 676.926 415.102L676.256 414.845C676.256 414.793 677.596 409.952 678.524 404.595C679.71 397.643 679.607 393.059 678.266 391.359C677.854 390.844 677.287 390.587 676.617 390.638C675.895 390.69 675.276 391.05 674.709 391.668C670.843 396.407 673.317 414.69 673.317 414.845L672.595 414.999C671.307 410.93 667.337 400.321 664.399 400.012C663.832 399.96 663.368 400.321 662.852 401.093C659.192 407.274 670.069 418.501 670.173 418.604L669.709 419.171Z" fill="#341B3F"/>
<path d="M485.305 419.326C485.305 419.326 489.223 420.047 489.069 420.871C488.811 422.261 485.254 422.364 485.254 422.364L485.305 419.326Z" fill="white"/>
<path d="M221.819 417.574C221.664 417.574 221.458 417.574 221.303 417.523C220.118 417.214 219.396 416.029 219.654 414.845L221.87 405.78C221.87 405.729 221.922 405.677 221.922 405.626C222.798 402.896 225.428 401.093 228.315 401.248L306.623 405.368C307.86 405.42 308.788 406.501 308.737 407.686C308.685 408.922 307.603 409.849 306.417 409.797L228.108 405.677C227.283 405.626 226.51 406.141 226.201 406.913L223.984 415.875C223.726 416.905 222.85 417.574 221.819 417.574Z" fill="#341B3F"/>
<path d="M462.57 432.408L213.416 427.412C211.044 427.36 209.137 425.403 209.189 423.034L209.292 417.214C209.343 414.845 211.251 412.939 213.571 412.939L462.364 411.549L462.57 432.408Z" fill="#50B82D"/>
<path d="M209.291 416.699L193.722 417.523C192.433 417.574 191.402 418.656 191.402 419.943V421.025C191.402 422.364 192.485 423.497 193.825 423.497L209.24 423.703L209.291 416.699Z" fill="#341B3F"/>
<path d="M249.09 412.63C249.09 412.63 246.512 419.016 248.884 428.184L264.762 428.545C264.762 428.545 260.741 419.944 264.968 412.476L249.09 412.63Z" fill="#341B3F"/>
<path d="M485.305 419.326L485.253 422.107C485.253 422.879 484.789 423.6 484.068 423.909L465.766 431.841C463.086 433.025 459.941 432.201 458.188 429.884C456.899 428.184 455.92 425.66 456.281 422.107C456.693 417.523 457.827 414.896 459.065 413.3C460.353 411.652 462.57 411.034 464.581 411.652L484.532 418.141C484.944 418.347 485.305 418.811 485.305 419.326Z" fill="#341B3F"/>
<path d="M240.48 424.476L213.982 424.116C213.776 424.116 213.621 423.961 213.621 423.755C213.621 423.549 213.776 423.395 213.982 423.395L240.48 423.755C240.686 423.755 240.841 423.91 240.841 424.116C240.841 424.322 240.686 424.476 240.48 424.476Z" fill="#341B3F"/>
<path d="M449.063 427.205L269.918 424.836C269.711 424.836 269.557 424.682 269.557 424.476C269.557 424.27 269.711 424.115 269.918 424.115L449.063 426.484C449.269 426.484 449.424 426.639 449.424 426.845C449.424 427.051 449.269 427.205 449.063 427.205Z" fill="#341B3F"/>
<path d="M146.19 408.973C146.19 408.973 136.446 399.033 139.797 393.368C143.148 387.702 148.819 405.522 148.819 405.522C148.819 405.522 145.88 384.458 151.964 384.097C158.047 383.737 151.964 405.522 151.964 405.522C151.964 405.522 154.232 400.424 156.397 400.115C158.614 399.806 157.995 404.441 154.026 408.973H146.19Z" fill="#CBBADD"/>
<path d="M146.912 409.179C146.448 408.716 135.725 397.643 139.591 391.05C140.21 390.02 140.931 389.557 141.808 389.608C143.509 389.814 145.468 392.441 147.685 397.488C148.355 399.033 148.974 400.578 149.438 401.814C148.922 396.303 148.252 385.333 151.294 381.625C151.964 380.801 152.737 380.389 153.665 380.338C154.593 380.286 155.315 380.595 155.882 381.316C158.614 384.715 156.14 396.612 154.799 402.226C155.83 400.578 157.222 398.776 158.717 398.57C159.387 398.467 159.954 398.724 160.264 399.291C161.14 400.939 159.903 405.059 156.346 409.179L155.83 408.716C159.336 404.647 160.315 400.836 159.645 399.651C159.49 399.342 159.233 399.239 158.82 399.291C156.913 399.548 154.748 403.668 154.026 405.213L153.356 404.956C153.356 404.904 154.696 400.115 155.572 394.861C156.758 388.011 156.655 383.479 155.315 381.831C154.902 381.316 154.387 381.11 153.717 381.11C152.995 381.162 152.376 381.471 151.809 382.14C147.994 386.827 150.417 404.801 150.469 405.007L149.799 405.162C148.51 401.145 144.592 390.69 141.705 390.381C141.138 390.329 140.674 390.69 140.21 391.462C136.601 397.591 147.324 408.613 147.427 408.716L146.912 409.179Z" fill="#341B3F"/>
<path d="M515.669 440.957C515.669 440.957 508.194 433.335 510.771 429.008C513.349 424.682 517.679 438.33 517.679 438.33C517.679 438.33 515.411 422.158 520.102 421.901C524.793 421.643 520.102 438.33 520.102 438.33C520.102 438.33 521.855 434.416 523.505 434.21C525.206 433.953 524.69 437.506 521.7 441.009H515.669V440.957Z" fill="#CBBADD"/>
<path d="M516.234 441.163C515.873 440.802 507.625 432.304 510.615 427.257C511.079 426.484 511.646 426.072 512.316 426.175C513.605 426.33 515.1 428.339 516.801 432.201C517.316 433.386 517.78 434.57 518.141 435.549C517.729 431.326 517.265 422.879 519.585 420.047C520.1 419.428 520.719 419.119 521.441 419.068C522.111 419.016 522.678 419.274 523.142 419.789C525.255 422.364 523.348 431.532 522.317 435.806C523.09 434.57 524.173 433.128 525.307 432.974C525.823 432.922 526.287 433.077 526.493 433.54C527.163 434.776 526.235 437.97 523.503 441.111L523.09 440.751C525.771 437.661 526.544 434.725 526.029 433.798C525.926 433.54 525.719 433.489 525.41 433.54C523.967 433.746 522.265 436.888 521.75 438.073L521.234 437.867C521.234 437.815 522.265 434.158 522.936 430.09C523.812 424.836 523.76 421.334 522.729 420.098C522.42 419.686 522.008 419.532 521.492 419.583C520.925 419.635 520.461 419.892 520.049 420.356C517.11 423.961 518.966 437.764 519.018 437.918L518.502 438.021C517.523 434.931 514.533 426.948 512.316 426.69C511.903 426.639 511.543 426.896 511.182 427.514C508.398 432.201 516.646 440.648 516.698 440.751L516.234 441.163Z" fill="#341B3F"/>
<path d="M566.242 114.428C566.242 109.432 570.315 105.363 575.315 105.363C580.316 105.363 584.389 109.432 584.389 114.428C584.389 119.424 580.316 123.492 575.315 123.492C570.315 123.492 566.242 119.424 566.242 114.428Z" fill="#50B82D"/>
<path d="M558.767 106.444C557.942 106.444 557.118 106.238 556.344 105.723C554.282 104.384 553.664 101.603 555.004 99.5429C559.489 92.6415 567.067 88.4697 575.316 88.4697C582.997 88.4697 590.318 92.1779 594.854 98.4098C596.298 100.418 595.885 103.2 593.875 104.642C591.864 106.084 589.08 105.672 587.637 103.663C584.75 99.7489 580.162 97.3798 575.264 97.3798C570.057 97.3798 565.263 100.006 562.428 104.333C561.654 105.723 560.211 106.444 558.767 106.444Z" fill="#50B82D"/>
<path d="M545.518 97.3285C544.693 97.3285 543.869 97.071 543.095 96.6075C541.033 95.2684 540.415 92.4872 541.755 90.4271C549.23 78.8904 561.86 72.0405 575.573 72.0405C588.41 72.0405 600.577 78.2209 608.155 88.573C609.598 90.5816 609.186 93.3628 607.175 94.8049C605.165 96.2469 602.381 95.8349 600.937 93.8263C595.06 85.7403 585.575 80.9505 575.573 80.9505C564.902 80.9505 555.056 86.3069 549.23 95.2684C548.405 96.6075 546.962 97.3285 545.518 97.3285Z" fill="#50B82D"/>
</svg>
