<svg width="116" height="68" viewBox="0 0 116 68" fill="none" xmlns="http://www.w3.org/2000/svg">
<path d="M116 34.2321L95.8164 46.9858C95.8164 46.9858 98.6004 40.7212 98.6004 34.2321C98.6004 27.7431 95.8164 21.4785 95.8164 21.4785L116 34.2321Z" fill="#252525"/>
<path d="M30.1591 34C30.1591 51.6731 44.4931 66 62.1751 66C79.857 66 94.1911 51.6731 94.1911 34C94.1911 16.3269 79.857 2 62.1751 2C44.4931 2 30.1591 16.3269 30.1591 34ZM30.1591 34H4.87109" stroke="#252525" stroke-width="3.712"/>
<path d="M84.9115 34C84.9115 46.5505 74.7322 56.7247 62.1755 56.7247C49.6187 56.7247 39.4395 46.5505 39.4395 34C39.4395 21.4496 49.6187 11.2754 62.1755 11.2754C74.7322 11.2754 84.9115 21.4496 84.9115 34Z" stroke="white" stroke-width="6.96"/>
<ellipse cx="62.1758" cy="34.0002" rx="17.168" ry="17.1594" fill="#252525"/>
<ellipse cx="4.64" cy="34" rx="4.64" ry="4.63768" fill="#252525"/>
<path d="M9.28 22.8691C9.28 25.4304 7.2026 27.5068 4.64 27.5068C2.0774 27.5068 0 25.4304 0 22.8691C0 20.3078 2.0774 18.2314 4.64 18.2314C7.2026 18.2314 9.28 20.3078 9.28 22.8691Z" fill="white"/>
<path d="M5.10352 22.8691H42.6875" stroke="white" stroke-width="3.712"/>
<path d="M9.28 45.1308C9.28 47.6922 7.2026 49.7685 4.64 49.7685C2.0774 49.7685 0 47.6922 0 45.1308C0 42.5695 2.0774 40.4932 4.64 40.4932C7.2026 40.4932 9.28 42.5695 9.28 45.1308Z" fill="white"/>
<path d="M5.10352 45.1309H42.6875" stroke="white" stroke-width="3.712"/>
</svg>
