<?xml version="1.0" standalone="no"?>
<!DOCTYPE svg PUBLIC "-//W3C//DTD SVG 20010904//EN"
 "http://www.w3.org/TR/2001/REC-SVG-20010904/DTD/svg10.dtd">
<svg version="1.0" xmlns="http://www.w3.org/2000/svg"
 width="250.000000pt" height="250.000000pt" viewBox="0 0 250.000000 250.000000"
 preserveAspectRatio="xMidYMid meet">
<metadata>
Created by potrace 1.14, written by Peter Selinger 2001-2017
</metadata>
<g transform="translate(0.000000,250.000000) scale(0.100000,-0.100000)"
fill="#000000" stroke="none">
<path d="M93 2484 c-17 -7 -44 -30 -60 -50 l-28 -37 -3 -1128 c-2 -886 0
-1135 10 -1164 8 -22 29 -51 51 -69 l39 -31 1132 -3 c1258 -3 1178 -7 1233 65
l28 36 3 1134 c3 1272 8 1177 -71 1234 l-40 29 -1131 -1 c-945 0 -1136 -3
-1163 -15z"/>
</g>
</svg>
