<svg xmlns="http://www.w3.org/2000/svg" width="92" height="92" viewBox="0 0 92 92"><path d="M21.78 70.22a34.25 34.25 0 1148.44-48.44 36.7 36.7 0 012.36 2.62L92 43.56V8a8 8 0 00-8-8H8a8 8 0 00-8 8v76a8 8 0 008 8h35.39L24.3 72.51a39.37 39.37 0 01-2.52-2.29z" fill="#50b82d"/><path d="M92 43.56L72.58 24.4a34.15 34.15 0 014.06 36.94 15.92 15.92 0 01.58 4.22 16.18 16.18 0 01-24.29 14 34.18 34.18 0 01-28.63-7.05L43.39 92H84a8 8 0 008-8V43.56z" fill="#158e30"/><path d="M61 49.36a16.11 16.11 0 017.81 2 24.42 24.42 0 00.66-4.86h-3.19v-1.66h3.21A25.09 25.09 0 0068 37.48l-2.91 1.2-.65-1.54 2.87-1.2a24.53 24.53 0 00-4.19-6.2L61 31.88l-1.2-1.2 2.14-2.14a24.12 24.12 0 00-6.21-4.11l-1.15 2.74-1.58-.64 1.15-2.74a22.85 22.85 0 00-7.27-1.41v2.91h-1.65v-3A24 24 0 0038 23.66l1.11 2.7-1.58.64-1.11-2.7a23.13 23.13 0 00-6.21 4.11l2.1 2.1L31 31.66l-2.09-2.09a24 24 0 00-4.2 6.12l2.79 1.15-.65 1.54-2.78-1.15a23 23 0 00-1.54 7.31h3.08v1.67h-3.1a22 22 0 001.37 7.36l2.95-1.24.64 1.54-2.95 1.24a25 25 0 004.11 6.34l2.31-2.31 1.2 1.19-2.53 2.53-1 1a2 2 0 01-.26-.3 1.47 1.47 0 01-.13-.17 25.48 25.48 0 01-5.47-8.18 24.6 24.6 0 01-1.93-9.63 25.26 25.26 0 017.4-17.8 25.27 25.27 0 018.18-5.47 26.7 26.7 0 019.6-1.73 25.16 25.16 0 019.63 1.93A24.7 24.7 0 0163.8 28a25.51 25.51 0 015.48 8.18 25 25 0 011 16.16 16.49 16.49 0 014.31 4.5A30.63 30.63 0 1015.36 46 30.69 30.69 0 0046 76.6c1 0 2.06-.06 3.06-.16A16.17 16.17 0 0161 49.36zM38.65 46a7.2 7.2 0 012.09-5.15 7.36 7.36 0 0112.15 2.61l4 2.58-4 2.6A7.35 7.35 0 0138.65 46z" fill="#252525"/><path d="M49.09 46a3.1 3.1 0 00-5.32-2.17 2.93 2.93 0 00-.86 2.14 3.09 3.09 0 106.18 0z" fill="#252525"/><path d="M46 11.72a34.25 34.25 0 00-24.22 58.5c.8.8 1.64 1.57 2.52 2.29a34.18 34.18 0 0028.63 7.06 16.46 16.46 0 01-3.87-3.13c-1 .1-2 .16-3.06.16a30.68 30.68 0 1128.64-19.78 16.11 16.11 0 012 4.52 34.15 34.15 0 00-4.06-36.94 36.7 36.7 0 00-2.36-2.62A34.09 34.09 0 0046 11.72z" fill="#fff"/><path d="M69.28 36.16A25.51 25.51 0 0063.8 28a24.7 24.7 0 00-8.17-5.47A25.16 25.16 0 0046 20.58a26.7 26.7 0 00-9.58 1.76 25.27 25.27 0 00-8.18 5.47 25.07 25.07 0 00-5.47 27.43 25.48 25.48 0 005.47 8.18 1.47 1.47 0 00.13.17 2 2 0 00.26.3l1-1 2.53-2.53-1.2-1.19-2.31 2.31a25 25 0 01-4.11-6.34l2.95-1.24-.64-1.54-2.95 1.24a22 22 0 01-1.37-7.36h3.12v-1.7h-3.1a23 23 0 011.54-7.31l2.78 1.15.65-1.54-2.79-1.15a24 24 0 014.2-6.12L31 31.66l1.29-1.15-2.1-2.1a23.13 23.13 0 016.21-4.11l1.13 2.7 1.54-.64-1.07-2.7a24 24 0 017.27-1.41v3h1.63v-2.87a22.85 22.85 0 017.27 1.41L53 26.53l1.54.64 1.15-2.74a24.12 24.12 0 016.21 4.11l-2.14 2.14 1.2 1.2 2.14-2.14a24.53 24.53 0 014.19 6.2l-2.87 1.2.65 1.54 2.93-1.2a25.09 25.09 0 011.49 7.36h-3.21v1.67h3.21a24.42 24.42 0 01-.66 4.86 16.52 16.52 0 011.5 1 25 25 0 00-1-16.16z" fill="#fff"/><path d="M61 53a12.56 12.56 0 1012.58 12.56A12.63 12.63 0 0061 53zm-3 19.74l-5.15-6.24a1.94 1.94 0 113-2.48l3.55 4.27 6.68-9.75a1.94 1.94 0 113.21 2.18l-8.13 11.9a1.78 1.78 0 01-.34.38 2 2 0 01-2.75-.26z" fill="#158e30"/><path d="M74.64 56.82a16.59 16.59 0 00-5.81-5.45 16.11 16.11 0 00-7.81-2 16.17 16.17 0 00-12 27.08 16.46 16.46 0 003.87 3.13 16.18 16.18 0 0024.29-14 15.92 15.92 0 00-.58-4.22 16.11 16.11 0 00-1.96-4.54zm-1.06 8.74A12.56 12.56 0 1161 53a12.57 12.57 0 0112.58 12.56z" fill="#fff"/><path d="M60.81 73a1.78 1.78 0 00.34-.38l8.13-11.9a1.94 1.94 0 10-3.21-2.18l-6.68 9.75L55.84 64a1.94 1.94 0 10-3 2.48l5.22 6.24a2 2 0 002.75.28zM52.85 48.6l4-2.6-4-2.58a7.36 7.36 0 00-12.15-2.61A7.2 7.2 0 0038.65 46a7.35 7.35 0 0014.2 2.64zm-9.94-2.67a2.93 2.93 0 01.86-2.14 3.11 3.11 0 11-.86 2.14z" fill="#fff"/></svg>