<svg xmlns="http://www.w3.org/2000/svg" width="32" height="31" viewBox="0 0 32 31"><path d="M29,8H3A1,1,0,0,0,2,9V24a1,1,0,0,0,1,1H29a1,1,0,0,0,1-1V9A1,1,0,0,0,29,8Z" transform="translate(0 0)" style="fill:none"/><path d="M29,6H18.14l3.63-4.36A1,1,0,0,0,21.64.23a1,1,0,0,0-1.41.13L16,5.44,11.77.36A1,1,0,0,0,10.36.23a1,1,0,0,0-.13,1.41L13.86,6H3A3,3,0,0,0,0,9V24a3,3,0,0,0,3,3H15v2H8a1,1,0,0,0,0,2H24a1,1,0,0,0,0-2H17V27H29a3,3,0,0,0,3-3V9A3,3,0,0,0,29,6Zm0,19H3a1,1,0,0,1-1-1V9A1,1,0,0,1,3,8H29a1,1,0,0,1,1,1V24A1,1,0,0,1,29,25Z" transform="translate(0 0)" style="fill:#252525"/><rect x="4" y="10" width="6" height="13" rx="1" ry="1" style="fill:#50b82d"/><rect x="12" y="10" width="4" height="13" rx="1" ry="1" style="fill:#50b82d"/><rect x="18" y="10" width="4" height="13" rx="1" ry="1" style="fill:#50b82d"/><rect x="24" y="10" width="4" height="13" rx="1" ry="1" style="fill:#50b82d"/></svg>