<svg xmlns="http://www.w3.org/2000/svg" width="30" height="30.96" viewBox="0 0 30 30.96"><path d="M25,4.57c-.68-.6-3.5-2.37-9.5-2.37H14.31c-2.16,0-6.79.32-9.36,2.59C3,6.66,2.36,9.41,2.29,12.76s-.44,9.78,5.84,11.49v5.18c0,.28,0,.53.21.53a.48.48,0,0,0,.46-.2C9.81,28.78,13,25,13,25a27.25,27.25,0,0,0,8.1-.65c.87-.29,5.56-.69,6.35-7C28.29,10.84,27.15,6.41,25,4.57ZM22.13,19.71a6.08,6.08,0,0,1-1.22,1.49,2.48,2.48,0,0,1-1.45.61,1.89,1.89,0,0,1-.53-.08,20.62,20.62,0,0,1-3.42-1.55,20.17,20.17,0,0,1-4.18-3v-.05A20.09,20.09,0,0,1,8.27,13,17.33,17.33,0,0,1,6.7,9.69,1.67,1.67,0,0,1,6.64,9a2.26,2.26,0,0,1,.6-1.18A6,6,0,0,1,8.77,6.59a1.24,1.24,0,0,1,.8-.16h.06a1.18,1.18,0,0,1,.67.39,18.32,18.32,0,0,1,2,2.78,1.25,1.25,0,0,1-.22,1.61l-.74.58a1,1,0,0,0-.33.83,7.65,7.65,0,0,0,5,4.92,1.09,1.09,0,0,0,.86-.32l.59-.73a1.32,1.32,0,0,1,1.64-.22,17.88,17.88,0,0,1,2.83,2A1.08,1.08,0,0,1,22.13,19.71Zm-6-9.24a.4.4,0,0,1,0-.8h.22a2.66,2.66,0,0,1,2.53,2.79.38.38,0,0,1,0,.15.32.32,0,0,1-.08.14l-.13.09a.2.2,0,0,1-.15,0,.43.43,0,0,1-.28-.11.35.35,0,0,1-.11-.26v-.2A1.89,1.89,0,0,0,16.1,10.47Zm1.25-1.71a5.12,5.12,0,0,0-1.89-.4h-.12A.39.39,0,0,1,15,7.91a.39.39,0,0,1,.44-.32l.11,0a5.74,5.74,0,0,1,4,1.73A5.27,5.27,0,0,1,21,13.15h0a.39.39,0,0,1-.4.38h0a.38.38,0,0,1-.4-.38,4.26,4.26,0,0,0-.25-1.77A4.33,4.33,0,0,0,19,9.85,5,5,0,0,0,17.35,8.76Zm5.56,5.5a.4.4,0,0,1-.67-.28,7.43,7.43,0,0,0-2.13-5.63A7.45,7.45,0,0,0,17.67,6.8a7.58,7.58,0,0,0-2.87-.5.38.38,0,0,1-.38-.39.38.38,0,0,1,0-.15.28.28,0,0,1,.08-.12.3.3,0,0,1,.13-.09h.12a8.22,8.22,0,0,1,5.87,2.28,8.41,8.41,0,0,1,1.83,2.83A8,8,0,0,1,23,14,.36.36,0,0,1,22.91,14.26Z" transform="translate(0)" style="fill:#fff"/><path d="M19.07,16.27a1.32,1.32,0,0,0-1.64.22l-.59.73a1.09,1.09,0,0,1-.86.32,7.65,7.65,0,0,1-5-4.92,1,1,0,0,1,.33-.83l.74-.58A1.25,1.25,0,0,0,12.3,9.6a18.32,18.32,0,0,0-2-2.78,1.18,1.18,0,0,0-.67-.39H9.57a1.24,1.24,0,0,0-.8.16A6,6,0,0,0,7.24,7.81,2.26,2.26,0,0,0,6.64,9a1.67,1.67,0,0,0,.06.7A17.33,17.33,0,0,0,8.27,13a20.09,20.09,0,0,0,3.06,4.1v.05a20.17,20.17,0,0,0,4.18,3,20.62,20.62,0,0,0,3.42,1.55,1.89,1.89,0,0,0,.53.08,2.48,2.48,0,0,0,1.45-.61,6.08,6.08,0,0,0,1.22-1.49,1.08,1.08,0,0,0-.23-1.44A17.88,17.88,0,0,0,19.07,16.27Z" transform="translate(0)" style="fill:#7360f2"/><path d="M19.93,11.39a4.26,4.26,0,0,1,.25,1.77.38.38,0,0,0,.4.38h0a.39.39,0,0,0,.4-.38h0A5.27,5.27,0,0,0,19.57,9.3a5.74,5.74,0,0,0-4-1.73l-.11,0a.39.39,0,0,0-.44.32.39.39,0,0,0,.32.45h.12a5.12,5.12,0,0,1,1.89.4A5,5,0,0,1,19,9.85,4.33,4.33,0,0,1,19.93,11.39Z" transform="translate(0)" style="fill:#7360f2"/><path d="M18.21,12.72a.43.43,0,0,0,.28.11.19.19,0,0,0,.15,0l.13-.09a.32.32,0,0,0,.08-.14.38.38,0,0,0,0-.15,2.66,2.66,0,0,0-2.53-2.79H16.1a.4.4,0,0,0,0,.8,1.89,1.89,0,0,1,2,1.79v.2A.35.35,0,0,0,18.21,12.72Z" transform="translate(0)" style="fill:#7360f2"/><path d="M26.6,3.06c-.79-.71-4-3-11-3H14.25l0-.06c-2.54,0-8,.44-11,3.19C.92,5.38.13,8.64,0,12.67s-.15,11.55,7.25,13.6v3.12s0,1.25.8,1.51c1,.32,1.63-.64,2.62-1.68l1.84-2a29.39,29.39,0,0,0,9.39-.68c1-.33,6.82-1.05,7.77-8.59C30.68,10.18,29.21,5.27,26.6,3.06Zm.86,14.27c-.79,6.3-5.48,6.7-6.35,7A27.25,27.25,0,0,1,13,25s-3.2,3.81-4.21,4.79a.48.48,0,0,1-.46.2c-.17,0-.22-.25-.21-.53V24.25c-6.28-1.71-5.91-8.13-5.84-11.49S3,6.66,5,4.79c2.57-2.27,7.2-2.58,9.36-2.59h1.15c6,0,8.82,1.77,9.5,2.37C27.15,6.41,28.29,10.84,27.46,17.33Z" transform="translate(0)" style="fill:#7360f2"/><path d="M20.62,7.84a8.22,8.22,0,0,0-5.87-2.28h-.12a.3.3,0,0,0-.13.09.28.28,0,0,0-.08.12.38.38,0,0,0,0,.15.38.38,0,0,0,.38.39,7.58,7.58,0,0,1,2.87.5,7.45,7.45,0,0,1,2.44,1.55A7.43,7.43,0,0,1,22.24,14a.4.4,0,0,0,.67.28A.36.36,0,0,0,23,14a8,8,0,0,0-.54-3.31A8.41,8.41,0,0,0,20.62,7.84Z" transform="translate(0)" style="fill:#7360f2"/></svg>