<svg xmlns="http://www.w3.org/2000/svg" xmlns:xlink="http://www.w3.org/1999/xlink" style="display:none"><symbol id="archive"><path d="M19.5 0h-18A1.5 1.5 0 000 1.5v2.25a1.5 1.5 0 001.5 1.5v8.25A1.5 1.5 0 003 15h15a1.5 1.5 0 001.5-1.5V5.25a1.5 1.5 0 001.5-1.5V1.5A1.5 1.5 0 0019.5 0zm-6.75 9h-4.5a.75.75 0 010-1.5h4.5a.75.75 0 010 1.5zm6.75-5.25h-18V1.5h18v2.25z"/></symbol><symbol id="arrow-down"><g fill="currentColor"><path d="M6 7a1 1 0 01-.71-.29l-5-5A1 1 0 011.71.29L6 4.59l4.29-4.3a1 1 0 111.42 1.42l-5 5A1 1 0 016 7z"/></g></symbol><symbol id="baby"><path d="M10.38 0a6 6 0 00-1.14 3.07.76.76 0 00.22.54.76.76 0 00.55.23.74.74 0 00.54-.23.77.77 0 00.22-.54.81.81 0 01.23-.55.77.77 0 01.54-.22.75.75 0 01.77.77 2.31 2.31 0 01-.67 1.63 2.31 2.31 0 01-3.27 0 2.31 2.31 0 01-.67-1.63 7.07 7.07 0 01.82-3A10 10 0 1010.38 0zm-5 10a1.19 1.19 0 01.72-1.08 1.19 1.19 0 01.67-.06 1.09 1.09 0 01.59.31 1.27 1.27 0 01.32.59A1.18 1.18 0 017.19 11a1.14 1.14 0 01-.64.19 1.18 1.18 0 01-.82-.33 1.15 1.15 0 01-.34-.86zM13 14.48a5.42 5.42 0 01-5.95 0 .73.73 0 01-.21-.22.66.66 0 01-.14-.26.76.76 0 010-.3.7.7 0 01.12-.28.74.74 0 01.48-.33.76.76 0 01.3 0 .7.7 0 01.28.12 3.85 3.85 0 004.25 0 .7.7 0 01.28-.12.76.76 0 01.3 0 .66.66 0 01.27.12.73.73 0 01.22.21.86.86 0 01.11.28.76.76 0 010 .3.66.66 0 01-.12.27.63.63 0 01-.19.21zm.49-3.34a1.15 1.15 0 01-.65-.19 1.26 1.26 0 01-.42-.52 1.18 1.18 0 01-.07-.67 1.27 1.27 0 01.32-.59 1.13 1.13 0 01.59-.31 1.18 1.18 0 01.67.06 1.19 1.19 0 01.69 1.08 1.15 1.15 0 01-.34.82 1.18 1.18 0 01-.81.32z"/></symbol><symbol id="battery"><path d="M37.97 3.68h-4.34V0h-8.25v3.68H15.01V0H6.75v3.68H2.03C.91 3.68 0 4.6 0 5.74v24.2C0 31.08.91 32 2.03 32h35.93c1.12 0 2.03-.92 2.03-2.06V5.74c0-1.14-.91-2.06-2.03-2.06zM37 29.06H3V6.99h34v22.07z" fill="#19ab01"/></symbol><symbol id="bookmark"><path d="M12.44 0H1.56a1.51 1.51 0 00-1.1.46A1.51 1.51 0 000 1.56v17.66a.8.8 0 00.11.4.78.78 0 00.29.28.79.79 0 00.4.1.69.69 0 00.39-.12L7 16.25l5.81 3.63a.69.69 0 00.39.12.79.79 0 00.4-.1.78.78 0 00.29-.28.8.8 0 00.11-.4V1.56a1.51 1.51 0 00-.46-1.1 1.51 1.51 0 00-1.1-.46zm-5 14.67a.76.76 0 00-.82 0l-5 3.15V15L7 11.57 12.44 15v2.84z"/></symbol><symbol id="carret-down-round" viewBox="0 0 26 26"><path d="M13 0a13 13 0 109.19 3.81A13 13 0 0013 0zm5.24 12.17l-4.5 5a1 1 0 01-.33.24 1 1 0 01-.82 0 1 1 0 01-.33-.24l-4.5-5a.9.9 0 01-.2-.34.82.82 0 01-.06-.38 1 1 0 01.1-.38.79.79 0 01.23-.31.9.9 0 01.34-.2.82.82 0 01.38-.06 1 1 0 01.38.1.79.79 0 01.31.23L13 15l3.76-4.17a.79.79 0 01.31-.23 1 1 0 01.38-.1.82.82 0 01.38.06.9.9 0 01.34.2.79.79 0 01.23.31 1 1 0 01.1.38.82.82 0 01-.06.38.9.9 0 01-.2.34z"/></symbol><symbol id="carret-down" viewBox="0 0 11 7"><path d="M10.87.88l-5 5.93a.54.54 0 01-.82 0L.13.88A.53.53 0 01.54 0h9.92a.53.53 0 01.41.88z"/></symbol><symbol id="carret-left"><path d="M19.75 10A9.75 9.75 0 1010 19.75 9.762 9.762 0 0019.75 10zm-9.127 3.932l-3.75-3.375a.75.75 0 010-1.114l3.75-3.375a.75.75 0 111.004 1.114L8.497 10l3.13 2.818a.75.75 0 11-1.004 1.114z"/></symbol><symbol id="carret-right"><path d="M1.11 8a1.08 1.08 0 01-.78-.33 1.16 1.16 0 010-1.62l2-2-2-2a1.16 1.16 0 010-1.72 1.1 1.1 0 011.57 0l2.77 2.86a1.16 1.16 0 010 1.62L1.9 7.67a1.11 1.11 0 01-.79.33z"/></symbol><symbol id="cart" viewBox="0 0 29 26"><path d="M12.12 24a2 2 0 01-2.41 2 2 2 0 01-1-.55 2 2 0 01-.44-2.18 2.09 2.09 0 01.73-.93 2 2 0 012.55.25 2 2 0 01.57 1.41zm11.11-2a2 2 0 10.77 3.85A2 2 0 0025.25 24a2 2 0 00-.59-1.41 2 2 0 00-1.43-.59zM28.8 5.4a1 1 0 00-.36-.3A1.14 1.14 0 0028 5H6.1l-1-3.55a2 2 0 00-.73-1A2 2 0 003.13 0H1a1 1 0 00-.7.29 1 1 0 000 1.42A1 1 0 001 2h2.13l1.23 4.26L7.7 17.82a3 3 0 001.09 1.57 3.09 3.09 0 001.82.61h12.11a3.09 3.09 0 001.82-.61 3 3 0 001.09-1.57L29 6.27a1 1 0 000-.45 1 1 0 00-.2-.42z"/></symbol><symbol id="chats" viewBox="0 0 26 25"><path d="M26 8a2 2 0 00-2-2h-4V2a2 2 0 00-.59-1.41A2 2 0 0018 0H2A2 2 0 00.59.59 2 2 0 000 2v16a1 1 0 00.15.53 1 1 0 00.42.37 1 1 0 00.55.09 1 1 0 00.51-.21L6 15.24V19a2 2 0 002 2h11.7l4.67 3.78a1 1 0 00.51.21 1 1 0 00.55-.09 1 1 0 00.42-.37A1 1 0 0026 24zm-5.32 11.22a1 1 0 00-.63-.22H8v-4h10a2 2 0 002-2V8h4v13.91z"/></symbol><symbol id="check-round"><path d="M13 0a13 13 0 1013 13A13 13 0 0013 0zm6.42 10.4a1 1 0 01-.23.32l-7.33 7a1 1 0 01-.69.28 1 1 0 01-.69-.28l-3.67-3.5a.87.87 0 01-.22-.32.85.85 0 01-.09-.38 1 1 0 01.07-.38.89.89 0 01.21-.33 1 1 0 01.32-.23 1 1 0 01.76 0 1 1 0 01.33.21l3 2.84 6.64-6.34a1 1 0 01.33-.21 1 1 0 01.76 0 1 1 0 01.32.23.89.89 0 01.21.33 1 1 0 010 .76z"/></symbol><symbol id="close" viewBox="0 0 18 18"><path d="M6.77 9L0 15.77 2.23 18 9 11.23 15.77 18 18 15.77 11.23 9 18 2.23 15.77 0 9 6.77 2.23 0 0 2.23z"/></symbol><symbol id="dash"><path d="M1.75 0h10.5A1.64 1.64 0 0114 1.5 1.64 1.64 0 0112.25 3H1.75A1.64 1.64 0 010 1.5 1.64 1.64 0 011.75 0z"/></symbol><symbol id="envelope" viewBox="0 0 26 20"><path d="M26 1V.88a.13.13 0 000-.06.09.09 0 000-.05V.72H.69v.05c0 .05 0 0 0 0A.09.09 0 000 .78a.13.13 0 000 .1V18a2 2 0 00.59 1.41A2 2 0 002 20h22a2 2 0 002-2V1zM2 3.27L9.34 10 2 16.73zM3.57 18l7.25-6.64 1.5 1.38a1 1 0 001.36 0l1.5-1.38L22.43 18zm13.09-8L24 3.27v13.46z"/></symbol><symbol id="facebook" viewBox="0 0 14 29"><path d="M9 9.43v-3a1.28 1.28 0 011.36-1.45h3.46V0H9C3.76 0 3.76 3.77 3.76 6.09v3.34H0v5.07h3.76V29H9V14.5h4.4l.6-5.07z"/></symbol><symbol id="instagram" viewBox="0 0 30 30"><path d="M15 2.7c4 0 4.48 0 6.06.09a8.3 8.3 0 012.79.52 4.58 4.58 0 011.72 1.12 4.58 4.58 0 011.12 1.72 8.3 8.3 0 01.52 2.79c.07 1.58.09 2.05.09 6.06s0 4.48-.09 6.06a8.3 8.3 0 01-.52 2.79 5 5 0 01-2.84 2.84 8.3 8.3 0 01-2.79.52c-1.58.07-2 .09-6.06.09s-4.48 0-6.06-.09a8.3 8.3 0 01-2.79-.52 4.58 4.58 0 01-1.72-1.12 4.58 4.58 0 01-1.12-1.72 8.3 8.3 0 01-.52-2.79C2.72 19.48 2.7 19 2.7 15s0-4.48.09-6.06a8.3 8.3 0 01.52-2.79 4.58 4.58 0 011.12-1.72 4.58 4.58 0 011.72-1.12 8.3 8.3 0 012.79-.52C10.52 2.72 11 2.7 15 2.7zM15 0c-4.07 0-4.58 0-6.18.09a11 11 0 00-3.65.7 7.17 7.17 0 00-2.65 1.73A7.17 7.17 0 00.79 5.17a11 11 0 00-.7 3.65C0 10.42 0 10.93 0 15s0 4.58.09 6.18a11 11 0 00.7 3.65 7.17 7.17 0 001.73 2.65 7.17 7.17 0 002.65 1.73 11 11 0 003.65.7c1.6.07 2.11.09 6.18.09s4.58 0 6.18-.09a11 11 0 003.65-.7 7.7 7.7 0 004.38-4.38 11 11 0 00.7-3.65c.09-1.6.09-2.11.09-6.18s0-4.58-.09-6.18a11 11 0 00-.7-3.65 7.17 7.17 0 00-1.73-2.65A7.17 7.17 0 0024.83.79a11 11 0 00-3.65-.7C19.58 0 19.07 0 15 0zm0 7.3a7.68 7.68 0 105.45 2.25A7.69 7.69 0 0015 7.3zM15 20a5 5 0 01-4.62-3.09A4.93 4.93 0 0110.1 14a5 5 0 013.9-3.9 4.93 4.93 0 012.89.28A5 5 0 0115 20zm9.81-13A1.8 1.8 0 1123 5.19 1.8 1.8 0 0124.81 7z"/></symbol><symbol id="map-pin" viewBox="0 0 22 28"><path d="M20 26h-6.18a32.85 32.85 0 002.93-3C20.19 19 22 14.89 22 11a11 11 0 10-22 0c0 3.92 1.81 8.08 5.25 12a32.85 32.85 0 002.93 3H2a1 1 0 00-.71.29 1 1 0 000 1.42A1 1 0 002 28h18a1 1 0 100-2zM11 7a4 4 0 012.22.67 4.07 4.07 0 011.48 1.8 4 4 0 01-5.23 5.23 4.07 4.07 0 01-1.8-1.48 4 4 0 01-.37-3.75A4 4 0 019.47 7.3 4 4 0 0111 7z"/></symbol><symbol id="mobile-device"><path d="M11.67 0H2.33A2.39 2.39 0 00.68.66 2.23 2.23 0 000 2.25v16.5a2.23 2.23 0 00.68 1.59 2.39 2.39 0 001.65.66h9.34a2.39 2.39 0 001.65-.66 2.23 2.23 0 00.68-1.59V2.25a2.23 2.23 0 00-.68-1.59A2.39 2.39 0 0011.67 0zM2.33 1.5h9.34a.82.82 0 01.55.22.75.75 0 01.22.53V3H1.56v-.75a.75.75 0 01.22-.53.82.82 0 01.55-.22zm9.34 18H2.33a.82.82 0 01-.55-.22.75.75 0 01-.22-.53V18h10.88v.75a.75.75 0 01-.22.53.82.82 0 01-.55.22z"/></symbol><symbol id="pause"><path d="M16 1.5v15a1.49 1.49 0 01-.43 1.06 1.42 1.42 0 01-1 .44h-3.3a1.46 1.46 0 01-1-.44 1.52 1.52 0 01-.42-1.06v-15a1.52 1.52 0 01.39-1.06 1.46 1.46 0 011-.44h3.28a1.42 1.42 0 011 .44A1.49 1.49 0 0116 1.5zM4.73 0H1.45a1.42 1.42 0 00-1 .44A1.49 1.49 0 000 1.5v15a1.49 1.49 0 00.43 1.06 1.42 1.42 0 001 .44h3.3a1.46 1.46 0 001-.44 1.52 1.52 0 00.42-1.06v-15A1.52 1.52 0 005.76.44 1.46 1.46 0 004.73 0z"/></symbol><symbol id="payment-card" viewBox="0 0 28 20"><path d="M26 0H2A2 2 0 00.59.59 2 2 0 000 2v16a2 2 0 00.59 1.41A2 2 0 002 20h24a2 2 0 002-2V2a2 2 0 00-.59-1.41A2 2 0 0026 0zM15 16h-2a1 1 0 110-2h2a1 1 0 110 2zm8 0h-4a1 1 0 110-2h4a1 1 0 110 2zM2 5.11V2h24v3.11z"/></symbol><symbol id="phone" viewBox="0 0 25 25"><path d="M24.73 17.63a2 2 0 00-.94-.84l-5.87-2.51a1.92 1.92 0 00-1-.16 2.08 2.08 0 00-.93.33l-3.13 2.09a9.53 9.53 0 01-4.41-4.39L10.56 9a2 2 0 00.17-1.89l-2.52-5.9a2 2 0 00-.84-.94A2 2 0 006.13 0 7 7 0 000 7a18.05 18.05 0 0018 18 7 7 0 007-6.13 2 2 0 00-.27-1.24zM15.7 2.93a9 9 0 016.37 6.38 1 1 0 00.47.6 1 1 0 00.76.1 1 1 0 00.6-.46 1 1 0 00.1-.76A11.08 11.08 0 0016.21 1a1 1 0 00-.76.11 1 1 0 00-.46.6 1 1 0 00.71 1.23zM14.66 6.8a5 5 0 013.54 3.54 1 1 0 001.94-.51 7 7 0 00-5-5 1 1 0 00-.76.1 1 1 0 00-.47.61 1 1 0 00.1.75 1 1 0 00.65.51z"/></symbol><symbol id="question-outline" viewBox="0 0 20 20"><path d="M10.42 13.77a1.08 1.08 0 00-.31-.07.92.92 0 00-.33 0 1.1 1.1 0 00-.56.3 1.19 1.19 0 00-.31.57 1.08 1.08 0 00.07.64 1.05 1.05 0 00.41.5 1.09 1.09 0 00.61.18 1.08 1.08 0 00.78-.32 1.11 1.11 0 00.33-.78 1.12 1.12 0 00-.69-1zM12.07 5.56a3.33 3.33 0 00-1.7-.7 2.36 2.36 0 00-.46 0 3.27 3.27 0 00-2.72 1.53 3.34 3.34 0 00-.51 1.77.74.74 0 00.22.52.7.7 0 00.52.21.73.73 0 00.52-.21.74.74 0 00.22-.52 1.78 1.78 0 01.31-1 1.87 1.87 0 01.82-.68 2 2 0 01.53-.13 1.64 1.64 0 01.54 0 1.76 1.76 0 01.94.5 1.83 1.83 0 01.4 2 1.83 1.83 0 01-.67.83A1.91 1.91 0 0110 10a.73.73 0 00-.52.22.71.71 0 00-.22.52v.74a.74.74 0 00.22.52.72.72 0 00.52.21.72.72 0 00.52-.21.74.74 0 00.22-.52v-.09a3.26 3.26 0 001.61-.89 3.31 3.31 0 00.89-1.6 3.39 3.39 0 00-.1-1.84 3.35 3.35 0 00-1.07-1.5z"/><path d="M10 0a10 10 0 1010 10A10 10 0 0010 0zm0 18.5a8.5 8.5 0 118.5-8.5 8.51 8.51 0 01-8.5 8.5z"/></symbol><symbol id="question"><path d="M10 0a10 10 0 107.07 2.93A10 10 0 0010 0zm0 16.15a1.12 1.12 0 01-.64-.15 1.21 1.21 0 01-.43-.52 1.16 1.16 0 011.51-1.51 1.21 1.21 0 01.52.43 1.12 1.12 0 01.19.64A1.13 1.13 0 0110 16.15zm.77-4.7v.09a.77.77 0 01-1.54 0v-.77A.79.79 0 0110 10a1.94 1.94 0 001.07-.32 2 2 0 00.71-.87 2 2 0 00.11-1.11 2 2 0 00-1.51-1.51 2 2 0 00-1.12.11 1.92 1.92 0 00-.86.7 1.94 1.94 0 00-.32 1.07.79.79 0 01-.77.77.76.76 0 01-.55-.23.77.77 0 01-.22-.54A3.47 3.47 0 018.5 5a3.52 3.52 0 011.89-.32 3.46 3.46 0 01.38 6.81z"/></symbol><symbol id="quotes"><path d="M1.38 14H5.5l2.75-5.6V0H0v8.4h4.12zm13.75 0h4.12L22 8.4V0h-8.25v8.4h4.12z"/></symbol><symbol id="rewind"><path d="M15 .75v16.5a.75.75 0 01-1.5 0v-6.91L2.28 17.19a1.45 1.45 0 01-.75.22 1.43 1.43 0 01-.76-.19 1.41 1.41 0 01-.56-.55 1.45 1.45 0 01-.21-.76V2.09a1.45 1.45 0 01.21-.76A1.41 1.41 0 01.77.78a1.43 1.43 0 01.76-.19 1.45 1.45 0 01.75.22L13.5 7.66V.75a.75.75 0 011.5 0z"/></symbol><symbol id="smart" viewBox="0 0 18 29.33"><path d="M2.91 0A3 3 0 000 3.17v23a3 3 0 002.91 3.17h12.18A3 3 0 0018 26.17v-23A3 3 0 0015.09 0zm7.91 1.59H7.18a1.14 1.14 0 00-1.09 1.19 1.15 1.15 0 001.09 1.19h3.64a1.15 1.15 0 001.09-1.19 1.14 1.14 0 00-1.09-1.19zm-6.91 4h10.18a1.53 1.53 0 011.46 1.59V22.2a1.53 1.53 0 01-1.46 1.59H3.91a1.53 1.53 0 01-1.46-1.59V7.14a1.53 1.53 0 011.46-1.59zM9 27.75a1.19 1.19 0 10-1.09-1.19A1.14 1.14 0 009 27.75z" fill-rule="evenodd"/></symbol><symbol id="star" viewBox="0 0 28 27"><path d="M27.9 10.18a2.1 2.1 0 00-.69-1 2 2 0 00-1.13-.43l-7.42-.52L15.9 1.3a2 2 0 00-.75-.94A2 2 0 0014 0a2.06 2.06 0 00-1.15.36 2 2 0 00-.75.94l-2.79 7-7.39.48a2 2 0 00-1.13.43 2 2 0 00-.68 1 2.06 2.06 0 000 1.23 2.15 2.15 0 00.67 1l5.68 4.8-1.72 6.64a2.34 2.34 0 00.06 1.36 2.3 2.3 0 00.82 1.08 2.21 2.21 0 001.24.43 2.28 2.28 0 001.27-.35L14 22.69l6.3 4a2 2 0 001.15.32 2 2 0 001.13-.39 2.06 2.06 0 00.79-2.21l-1.77-7.27 5.65-4.7a2.08 2.08 0 00.67-1 2.06 2.06 0 00-.02-1.26z"/></symbol><symbol id="telegram" viewBox="0 0 30 30"><path d="M30 15A15 15 0 1115 0a15 15 0 0115 15zm-14.46-3.93q-2.19.91-8.75 3.77c-.71.28-1.08.56-1.12.83 0 .46.52.64 1.3.88l.33.11a10.4 10.4 0 002.33.55 2.86 2.86 0 001.62-.6c4.09-2.76 6.2-4.16 6.33-4.18a.34.34 0 01.31 0 .31.31 0 01.07.27 43.25 43.25 0 01-3.46 3.41c-.36.33-.62.57-.67.63l-.35.35c-.72.68-1.25 1.2 0 2 .61.4 1.1.73 1.59 1.07l1.75 1.18c.18.11.34.23.51.35a2.82 2.82 0 001.87.77c.4 0 .81-.41 1-1.53.5-2.66 1.48-8.42 1.7-10.79a2.33 2.33 0 000-.59.67.67 0 00-.22-.41 1 1 0 00-.55-.14c-.56 0-1.43.34-5.59 2.07z"/></symbol><symbol id="tg-sale" viewBox="0 0 32 32"><path d="M26.61 12a6.14 6.14 0 00-4.1-1.76v-1a6.54 6.54 0 00-7.15-6.48 6.87 6.87 0 00-5.87 6.65v.78A6.14 6.14 0 005.39 12a5.82 5.82 0 00-1.11 4.69l.93 7.43c.28 2.6 1.34 5.26 7.07 5.26h7.44c5.73 0 6.79-2.66 7.07-5.25l.93-7.45A5.81 5.81 0 0026.61 12zM11.35 9.41a5 5 0 014.2-4.86 4.64 4.64 0 015.1 4.62v.94h-9.3zM16 24.77a5.05 5.05 0 115.05-5.05A5 5 0 0116 24.77z"/><path d="M16.35 17.11a1 1 0 00-1 1v1.44l-1.19.71a1 1 0 101 1.7l1.66-1a1 1 0 00.48-.85v-2a1 1 0 00-.95-1z"/></symbol><symbol id="tiktok" viewBox="0 0 26 28"><path d="M22.76 6l-.59-.32a8.88 8.88 0 01-1.52-1.21A6.39 6.39 0 0119 1.17 4.16 4.16 0 0118.88 0h-5.15v19.43a3.87 3.87 0 01-.66 1.87 4.33 4.33 0 01-1.54 1.37 4.59 4.59 0 01-2.13.52A4.22 4.22 0 015 19.16a4.22 4.22 0 014.35-4.08 4.67 4.67 0 011.34.19v-4.89a10.31 10.31 0 00-3.91.28 9.88 9.88 0 00-3.46 1.73 9.73 9.73 0 00-2.21 2.54A8.52 8.52 0 000 19a8.72 8.72 0 00.55 3.19A9 9 0 002 24.56a10.23 10.23 0 002.23 2A10.22 10.22 0 009.46 28a9.85 9.85 0 003.9-.81A9.69 9.69 0 0016.53 25a9.12 9.12 0 001.73-2.68 9.33 9.33 0 00.62-3.06v-9.9l.9.55a12.38 12.38 0 003.07 1.19 19 19 0 003.15.4V6.72A7 7 0 0122.76 6z"/></symbol><symbol id="trash" viewBox="0 0 24 26"><path d="M23 4H1a1 1 0 000 2h1v18a2 2 0 002 2h16a2 2 0 002-2V6h1a1 1 0 000-2zm-3 20H4V6h16zM7 2h10a1 1 0 000-2H7a1 1 0 000 2z"/></symbol><symbol id="tv"><path d="M13.73 17.38H7.27a.82.82 0 00-.81.81.8.8 0 00.24.57.82.82 0 00.57.24h6.46a.82.82 0 00.57-.24.8.8 0 00.24-.57.82.82 0 00-.81-.81zM18.58 0H2.42A2.42 2.42 0 000 2.43v11.32a2.42 2.42 0 002.42 2.43h16.16A2.42 2.42 0 0021 13.75V2.43A2.42 2.42 0 0018.58 0zM3.63 12.14a1.22 1.22 0 111.22-1.22 1.22 1.22 0 01-1.22 1.22zm0-5.67a1.21 1.21 0 111.22-1.21 1.21 1.21 0 01-1.22 1.21zm8.08 5.67H6.87a.41.41 0 01-.41-.41.4.4 0 01.41-.4h4.84a.41.41 0 01.41.4.42.42 0 01-.41.41zm5.66-1.62H6.87a.41.41 0 110-.81h10.5a.41.41 0 010 .81zM6.46 6.07a.41.41 0 01.41-.41h4.84a.41.41 0 110 .81H6.87a.4.4 0 01-.41-.4zm10.91-1.22H6.87a.4.4 0 110-.8h10.5a.4.4 0 010 .8z"/></symbol><symbol id="user-profile" viewBox="0 0 26 26"><circle cx="13" cy="12" r="5.5"/><path d="M22.19 3.81A13 13 0 1026 13a13 13 0 00-3.81-9.19zm-1 16.49a10 10 0 00-3-2.87 7.49 7.49 0 01-10.34 0 10 10 0 00-3 2.87 10.94 10.94 0 01-2.65-5.64A11 11 0 017 3.76a11 11 0 0116 4.73 11.07 11.07 0 01.83 6.17 10.94 10.94 0 01-2.61 5.64z"/></symbol><symbol id="viber" viewBox="0 0 32 32"><path fill="none" d="M0 0h32v32H0z"/><path d="M27.75 3.12c-.8-.74-4-3.07-11.16-3.1h-1.38C12.63 0 7.11.46 4 3.29 1.72 5.57.92 8.93.83 13.09S.66 25 8.16 27.14v3.23s-.05 1.3.81 1.56c1 .33 1.65-.66 2.65-1.73l1.86-2.11a28.79 28.79 0 009.52-.7c1.05-.33 6.92-1.08 7.87-8.87.99-8.04-.47-13.11-3.12-15.4zm.87 14.81c-.8 6.51-5.56 6.92-6.44 7.21a27 27 0 01-8.2.69s-3.25 3.92-4.27 4.93a.51.51 0 01-.47.2c-.17 0-.22-.25-.21-.54v-5.36c-6.37-1.76-6-8.4-5.92-11.87S3.87 6.88 5.8 5c2.61-2.36 7.3-2.68 9.48-2.69h1.17c6.05 0 9 1.84 9.63 2.45 2.23 1.89 3.38 6.46 2.54 13.17z"/><path d="M23.57 11a8.41 8.41 0 00-1.86-2.92 8.21 8.21 0 00-5.94-2.35.41.41 0 00-.16 0 .38.38 0 00-.13.09.41.41 0 00-.08.18.42.42 0 000 .15.41.41 0 00.41.4 7.46 7.46 0 015.37 2.12 7.78 7.78 0 012.19 5.79.4.4 0 00.4.4.39.39 0 00.4-.39 8.53 8.53 0 00-.6-3.47zM20.32 17a1.3 1.3 0 00-1.66.23l-.6.75a1.08 1.08 0 01-.86.33 7.84 7.84 0 01-5.27-5.28 1.06 1.06 0 01.33-.86l.75-.61a1.33 1.33 0 00.23-1.67 18 18 0 00-2.06-2.86 1.08 1.08 0 00-.67-.4 1.27 1.27 0 00-.81.16 6.2 6.2 0 00-1.57 1.28 2.44 2.44 0 00-.62 1.26 1.6 1.6 0 00.07.72 17.83 17.83 0 001.61 3.46 20.06 20.06 0 003.09 4.23h.05A20.84 20.84 0 0016.71 21a19.72 19.72 0 003.47 1.6 1.71 1.71 0 00.53.08 2.42 2.42 0 001.47-.63 5.91 5.91 0 001.24-1.53 1.12 1.12 0 00-.24-1.49A18 18 0 0020.32 17z"/><path d="M20.94 11.76a4.61 4.61 0 01.25 1.84.44.44 0 00.12.28.43.43 0 00.28.11.47.47 0 00.28-.12.4.4 0 00.12-.29 5.54 5.54 0 00-1.43-4 5.83 5.83 0 00-4.07-1.78h-.05a.4.4 0 000 .8 5.09 5.09 0 011.92.41A5.18 5.18 0 0120 10.17a4.68 4.68 0 01.94 1.59z"/><path d="M17.09 10.81a1.94 1.94 0 012 2.11.4.4 0 00.12.27.36.36 0 00.28.12.42.42 0 00.16 0 .29.29 0 00.12-.1.3.3 0 00.09-.13.88.88 0 000-.16A2.73 2.73 0 0017.13 10a.41.41 0 00-.04.81z"/></symbol><symbol id="youtube" viewBox="0 0 32 32"><path d="M29.29 8.69a3 3 0 00-1.81-2C23.19 5 16.38 5 16 5S8.81 5 4.52 6.64a3 3 0 00-1.81 2.05A29.48 29.48 0 002 16a29.48 29.48 0 00.71 7.31 3 3 0 001.81 2.05C8.62 27 15.05 27 15.92 27h.16c.87 0 7.3-.05 11.4-1.64a3 3 0 001.81-2.05A30 30 0 0030 16a30 30 0 00-.71-7.31zm-9 7.73l-6 4a.5.5 0 01-.26.08.58.58 0 01-.26-.06.55.55 0 01-.19-.18.48.48 0 01-.08-.26v-8a.48.48 0 01.07-.26.55.55 0 01.19-.18.58.58 0 01.24-.06.5.5 0 01.26.08l6 4a.55.55 0 01.16.18.51.51 0 010 .48.55.55 0 01-.14.18z"/></symbol></svg>