<svg xmlns="http://www.w3.org/2000/svg" xmlns:xlink="http://www.w3.org/1999/xlink" style="display:none"><symbol id="archive"><path d="M19.5 0h-18A1.5 1.5 0 0 0 0 1.5v2.25a1.5 1.5 0 0 0 1.5 1.5v8.25A1.5 1.5 0 0 0 3 15h15a1.5 1.5 0 0 0 1.5-1.5V5.25a1.5 1.5 0 0 0 1.5-1.5V1.5A1.5 1.5 0 0 0 19.5 0zm-6.75 9h-4.5a.75.75 0 0 1 0-1.5h4.5a.75.75 0 0 1 0 1.5zm6.75-5.25h-18V1.5h18v2.25z"/></symbol><symbol id="baby"><path d="M10.38 0a6 6 0 0 0-1.14 3.07.76.76 0 0 0 .22.54.76.76 0 0 0 .55.23.74.74 0 0 0 .54-.23.77.77 0 0 0 .22-.54.81.81 0 0 1 .23-.55.77.77 0 0 1 .54-.22.75.75 0 0 1 .77.77 2.31 2.31 0 0 1-.67 1.63 2.31 2.31 0 0 1-3.27 0 2.31 2.31 0 0 1-.67-1.63 7.07 7.07 0 0 1 .82-3A10 10 0 1 0 10.38 0zm-5 10a1.19 1.19 0 0 1 .72-1.08 1.19 1.19 0 0 1 .67-.06 1.09 1.09 0 0 1 .59.31 1.27 1.27 0 0 1 .32.59A1.18 1.18 0 0 1 7.19 11a1.14 1.14 0 0 1-.64.19 1.18 1.18 0 0 1-.82-.33 1.15 1.15 0 0 1-.34-.86zM13 14.48a5.42 5.42 0 0 1-5.95 0 .73.73 0 0 1-.21-.22.66.66 0 0 1-.14-.26.76.76 0 0 1 0-.3.7.7 0 0 1 .12-.28.74.74 0 0 1 .48-.33.76.76 0 0 1 .3 0 .7.7 0 0 1 .28.12 3.85 3.85 0 0 0 4.25 0 .7.7 0 0 1 .28-.12.76.76 0 0 1 .3 0 .66.66 0 0 1 .27.12.73.73 0 0 1 .22.21.86.86 0 0 1 .11.28.76.76 0 0 1 0 .3.66.66 0 0 1-.12.27.63.63 0 0 1-.19.21zm.49-3.34a1.15 1.15 0 0 1-.65-.19 1.26 1.26 0 0 1-.42-.52 1.18 1.18 0 0 1-.07-.67 1.27 1.27 0 0 1 .32-.59 1.13 1.13 0 0 1 .59-.31 1.18 1.18 0 0 1 .67.06 1.19 1.19 0 0 1 .69 1.08 1.15 1.15 0 0 1-.34.82 1.18 1.18 0 0 1-.81.32z"/></symbol><symbol id="bookmark"><path d="M12.44 0H1.56a1.51 1.51 0 0 0-1.1.46A1.51 1.51 0 0 0 0 1.56v17.66a.8.8 0 0 0 .11.4.78.78 0 0 0 .29.28.79.79 0 0 0 .4.1.69.69 0 0 0 .39-.12L7 16.25l5.81 3.63a.69.69 0 0 0 .39.12.79.79 0 0 0 .4-.1.78.78 0 0 0 .29-.28.8.8 0 0 0 .11-.4V1.56a1.51 1.51 0 0 0-.46-1.1 1.51 1.51 0 0 0-1.1-.46zm-5 14.67a.76.76 0 0 0-.82 0l-5 3.15V15L7 11.57 12.44 15v2.84z"/></symbol><symbol id="carret-down-round" viewBox="0 0 26 26"><path d="M13 0a13 13 0 1 0 9.19 3.81A13 13 0 0 0 13 0zm5.24 12.17-4.5 5a1 1 0 0 1-.33.24 1 1 0 0 1-.82 0 1 1 0 0 1-.33-.24l-4.5-5a.9.9 0 0 1-.2-.34.82.82 0 0 1-.06-.38 1 1 0 0 1 .1-.38.79.79 0 0 1 .23-.31.9.9 0 0 1 .34-.2.82.82 0 0 1 .38-.06 1 1 0 0 1 .38.1.79.79 0 0 1 .31.23L13 15l3.76-4.17a.79.79 0 0 1 .31-.23 1 1 0 0 1 .38-.1.82.82 0 0 1 .38.06.9.9 0 0 1 .34.2.79.79 0 0 1 .23.31 1 1 0 0 1 .1.38.82.82 0 0 1-.06.38.9.9 0 0 1-.2.34z"/></symbol><symbol id="carret-down" viewBox="0 0 11 7"><path d="m10.87.88-5 5.93a.54.54 0 0 1-.82 0L.13.88A.53.53 0 0 1 .54 0h9.92a.53.53 0 0 1 .41.88z"/></symbol><symbol id="cart" viewBox="0 0 29 26"><path d="M12.12 24a2 2 0 0 1-2.41 2 2 2 0 0 1-1-.55 2 2 0 0 1-.44-2.18 2.09 2.09 0 0 1 .73-.93 2 2 0 0 1 2.55.25 2 2 0 0 1 .57 1.41zm11.11-2a2 2 0 1 0 .77 3.85A2 2 0 0 0 25.25 24a2 2 0 0 0-.59-1.41 2 2 0 0 0-1.43-.59zM28.8 5.4a1 1 0 0 0-.36-.3A1.14 1.14 0 0 0 28 5H6.1l-1-3.55a2 2 0 0 0-.73-1A2 2 0 0 0 3.13 0H1a1 1 0 0 0-.7.29 1 1 0 0 0 0 1.42A1 1 0 0 0 1 2h2.13l1.23 4.26L7.7 17.82a3 3 0 0 0 1.09 1.57 3.09 3.09 0 0 0 1.82.61h12.11a3.09 3.09 0 0 0 1.82-.61 3 3 0 0 0 1.09-1.57L29 6.27a1 1 0 0 0 0-.45 1 1 0 0 0-.2-.42z"/></symbol><symbol id="envelope" viewBox="0 0 26 20"><path d="M26 1V.88a.13.13 0 0 0 0-.06.09.09 0 0 0 0-.05V.72H.69v.05c0 .05 0 0 0 0A.09.09 0 0 0 0 .78a.13.13 0 0 0 0 .1V18a2 2 0 0 0 .59 1.41A2 2 0 0 0 2 20h22a2 2 0 0 0 2-2V1zM2 3.27 9.34 10 2 16.73zM3.57 18l7.25-6.64 1.5 1.38a1 1 0 0 0 1.36 0l1.5-1.38L22.43 18zm13.09-8L24 3.27v13.46z"/></symbol><symbol id="facebook" viewBox="0 0 14 29"><path d="M9 9.43v-3a1.28 1.28 0 0 1 1.36-1.45h3.46V0H9C3.76 0 3.76 3.77 3.76 6.09v3.34H0v5.07h3.76V29H9V14.5h4.4l.6-5.07z"/></symbol><symbol id="instagram" viewBox="0 0 30 30"><path d="M15 2.7c4 0 4.48 0 6.06.09a8.3 8.3 0 0 1 2.79.52 4.58 4.58 0 0 1 1.72 1.12 4.58 4.58 0 0 1 1.12 1.72 8.3 8.3 0 0 1 .52 2.79c.07 1.58.09 2.05.09 6.06s0 4.48-.09 6.06a8.3 8.3 0 0 1-.52 2.79 5 5 0 0 1-2.84 2.84 8.3 8.3 0 0 1-2.79.52c-1.58.07-2 .09-6.06.09s-4.48 0-6.06-.09a8.3 8.3 0 0 1-2.79-.52 4.58 4.58 0 0 1-1.72-1.12 4.58 4.58 0 0 1-1.12-1.72 8.3 8.3 0 0 1-.52-2.79C2.72 19.48 2.7 19 2.7 15s0-4.48.09-6.06a8.3 8.3 0 0 1 .52-2.79 4.58 4.58 0 0 1 1.12-1.72 4.58 4.58 0 0 1 1.72-1.12 8.3 8.3 0 0 1 2.79-.52C10.52 2.72 11 2.7 15 2.7zM15 0c-4.07 0-4.58 0-6.18.09a11 11 0 0 0-3.65.7 7.17 7.17 0 0 0-2.65 1.73A7.17 7.17 0 0 0 .79 5.17a11 11 0 0 0-.7 3.65C0 10.42 0 10.93 0 15s0 4.58.09 6.18a11 11 0 0 0 .7 3.65 7.17 7.17 0 0 0 1.73 2.65 7.17 7.17 0 0 0 2.65 1.73 11 11 0 0 0 3.65.7c1.6.07 2.11.09 6.18.09s4.58 0 6.18-.09a11 11 0 0 0 3.65-.7 7.7 7.7 0 0 0 4.38-4.38 11 11 0 0 0 .7-3.65c.09-1.6.09-2.11.09-6.18s0-4.58-.09-6.18a11 11 0 0 0-.7-3.65 7.17 7.17 0 0 0-1.73-2.65A7.17 7.17 0 0 0 24.83.79a11 11 0 0 0-3.65-.7C19.58 0 19.07 0 15 0zm0 7.3a7.68 7.68 0 1 0 5.45 2.25A7.69 7.69 0 0 0 15 7.3zM15 20a5 5 0 0 1-4.62-3.09A4.93 4.93 0 0 1 10.1 14a5 5 0 0 1 3.9-3.9 4.93 4.93 0 0 1 2.89.28A5 5 0 0 1 15 20zm9.81-13A1.8 1.8 0 1 1 23 5.19 1.8 1.8 0 0 1 24.81 7z"/></symbol><symbol id="map-pin" viewBox="0 0 22 28"><path d="M20 26h-6.18a32.85 32.85 0 0 0 2.93-3C20.19 19 22 14.89 22 11a11 11 0 1 0-22 0c0 3.92 1.81 8.08 5.25 12a32.85 32.85 0 0 0 2.93 3H2a1 1 0 0 0-.71.29 1 1 0 0 0 0 1.42A1 1 0 0 0 2 28h18a1 1 0 1 0 0-2zM11 7a4 4 0 0 1 2.22.67 4.07 4.07 0 0 1 1.48 1.8 4 4 0 0 1-5.23 5.23 4.07 4.07 0 0 1-1.8-1.48 4 4 0 0 1-.37-3.75A4 4 0 0 1 9.47 7.3 4 4 0 0 1 11 7z"/></symbol><symbol id="mobile-device"><path d="M11.67 0H2.33A2.39 2.39 0 0 0 .68.66 2.23 2.23 0 0 0 0 2.25v16.5a2.23 2.23 0 0 0 .68 1.59 2.39 2.39 0 0 0 1.65.66h9.34a2.39 2.39 0 0 0 1.65-.66 2.23 2.23 0 0 0 .68-1.59V2.25a2.23 2.23 0 0 0-.68-1.59A2.39 2.39 0 0 0 11.67 0zM2.33 1.5h9.34a.82.82 0 0 1 .55.22.75.75 0 0 1 .22.53V3H1.56v-.75a.75.75 0 0 1 .22-.53.82.82 0 0 1 .55-.22zm9.34 18H2.33a.82.82 0 0 1-.55-.22.75.75 0 0 1-.22-.53V18h10.88v.75a.75.75 0 0 1-.22.53.82.82 0 0 1-.55.22z"/></symbol><symbol id="pause"><path d="M16 1.5v15a1.49 1.49 0 0 1-.43 1.06 1.42 1.42 0 0 1-1 .44h-3.3a1.46 1.46 0 0 1-1-.44 1.52 1.52 0 0 1-.42-1.06v-15a1.52 1.52 0 0 1 .39-1.06 1.46 1.46 0 0 1 1-.44h3.28a1.42 1.42 0 0 1 1 .44A1.49 1.49 0 0 1 16 1.5zM4.73 0H1.45a1.42 1.42 0 0 0-1 .44A1.49 1.49 0 0 0 0 1.5v15a1.49 1.49 0 0 0 .43 1.06 1.42 1.42 0 0 0 1 .44h3.3a1.46 1.46 0 0 0 1-.44 1.52 1.52 0 0 0 .42-1.06v-15A1.52 1.52 0 0 0 5.76.44 1.46 1.46 0 0 0 4.73 0z"/></symbol><symbol id="payment-card" viewBox="0 0 28 20"><path d="M26 0H2A2 2 0 0 0 .59.59 2 2 0 0 0 0 2v16a2 2 0 0 0 .59 1.41A2 2 0 0 0 2 20h24a2 2 0 0 0 2-2V2a2 2 0 0 0-.59-1.41A2 2 0 0 0 26 0zM15 16h-2a1 1 0 1 1 0-2h2a1 1 0 1 1 0 2zm8 0h-4a1 1 0 1 1 0-2h4a1 1 0 1 1 0 2zM2 5.11V2h24v3.11z"/></symbol><symbol id="phone" viewBox="0 0 25 25"><path d="M24.73 17.63a2 2 0 0 0-.94-.84l-5.87-2.51a1.92 1.92 0 0 0-1-.16 2.08 2.08 0 0 0-.93.33l-3.13 2.09a9.53 9.53 0 0 1-4.41-4.39L10.56 9a2 2 0 0 0 .17-1.89l-2.52-5.9a2 2 0 0 0-.84-.94A2 2 0 0 0 6.13 0 7 7 0 0 0 0 7a18.05 18.05 0 0 0 18 18 7 7 0 0 0 7-6.13 2 2 0 0 0-.27-1.24zM15.7 2.93a9 9 0 0 1 6.37 6.38 1 1 0 0 0 .47.6 1 1 0 0 0 .76.1 1 1 0 0 0 .6-.46 1 1 0 0 0 .1-.76A11.08 11.08 0 0 0 16.21 1a1 1 0 0 0-.76.11 1 1 0 0 0-.46.6 1 1 0 0 0 .71 1.23zM14.66 6.8a5 5 0 0 1 3.54 3.54 1 1 0 0 0 1.94-.51 7 7 0 0 0-5-5 1 1 0 0 0-.76.1 1 1 0 0 0-.47.61 1 1 0 0 0 .1.75 1 1 0 0 0 .65.51z"/></symbol><symbol id="play"><path d="M15 .75v16.5a.75.75 0 0 1-1.5 0v-6.91L2.28 17.19a1.45 1.45 0 0 1-.75.22 1.43 1.43 0 0 1-.76-.19 1.41 1.41 0 0 1-.56-.55 1.45 1.45 0 0 1-.21-.76V2.09a1.45 1.45 0 0 1 .21-.76A1.41 1.41 0 0 1 .77.78a1.43 1.43 0 0 1 .76-.19 1.45 1.45 0 0 1 .75.22L13.5 7.66V.75a.75.75 0 0 1 1.5 0z"/></symbol><symbol id="star" viewBox="0 0 28 27"><path d="M27.9 10.18a2.1 2.1 0 0 0-.69-1 2 2 0 0 0-1.13-.43l-7.42-.52L15.9 1.3a2 2 0 0 0-.75-.94A2 2 0 0 0 14 0a2.06 2.06 0 0 0-1.15.36 2 2 0 0 0-.75.94l-2.79 7-7.39.48a2 2 0 0 0-1.13.43 2 2 0 0 0-.68 1 2.06 2.06 0 0 0 0 1.23 2.15 2.15 0 0 0 .67 1l5.68 4.8-1.72 6.64a2.34 2.34 0 0 0 .06 1.36 2.3 2.3 0 0 0 .82 1.08 2.21 2.21 0 0 0 1.24.43 2.28 2.28 0 0 0 1.27-.35L14 22.69l6.3 4a2 2 0 0 0 1.15.32 2 2 0 0 0 1.13-.39 2.06 2.06 0 0 0 .79-2.21l-1.77-7.27 5.65-4.7a2.08 2.08 0 0 0 .67-1 2.06 2.06 0 0 0-.02-1.26z"/></symbol><symbol id="telegram" viewBox="0 0 30 30"><path d="M30 15A15 15 0 1 1 15 0a15 15 0 0 1 15 15zm-14.46-3.93q-2.19.91-8.75 3.77c-.71.28-1.08.56-1.12.83 0 .46.52.64 1.3.88l.33.11a10.4 10.4 0 0 0 2.33.55 2.86 2.86 0 0 0 1.62-.6c4.09-2.76 6.2-4.16 6.33-4.18a.34.34 0 0 1 .31 0 .31.31 0 0 1 .07.27 43.25 43.25 0 0 1-3.46 3.41c-.36.33-.62.57-.67.63l-.35.35c-.72.68-1.25 1.2 0 2 .61.4 1.1.73 1.59 1.07l1.75 1.18c.18.11.34.23.51.35a2.82 2.82 0 0 0 1.87.77c.4 0 .81-.41 1-1.53.5-2.66 1.48-8.42 1.7-10.79a2.33 2.33 0 0 0 0-.59.67.67 0 0 0-.22-.41 1 1 0 0 0-.55-.14c-.56 0-1.43.34-5.59 2.07z"/></symbol><symbol id="trash" viewBox="0 0 24 26"><path d="M23 4H1a1 1 0 0 0 0 2h1v18a2 2 0 0 0 2 2h16a2 2 0 0 0 2-2V6h1a1 1 0 0 0 0-2zm-3 20H4V6h16zM7 2h10a1 1 0 0 0 0-2H7a1 1 0 0 0 0 2z"/></symbol><symbol id="tv"><path d="M13.73 17.38H7.27a.82.82 0 0 0-.81.81.8.8 0 0 0 .24.57.82.82 0 0 0 .57.24h6.46a.82.82 0 0 0 .57-.24.8.8 0 0 0 .24-.57.82.82 0 0 0-.81-.81zM18.58 0H2.42A2.42 2.42 0 0 0 0 2.43v11.32a2.42 2.42 0 0 0 2.42 2.43h16.16A2.42 2.42 0 0 0 21 13.75V2.43A2.42 2.42 0 0 0 18.58 0zM3.63 12.14a1.22 1.22 0 1 1 1.22-1.22 1.22 1.22 0 0 1-1.22 1.22zm0-5.67a1.21 1.21 0 1 1 1.22-1.21 1.21 1.21 0 0 1-1.22 1.21zm8.08 5.67H6.87a.41.41 0 0 1-.41-.41.4.4 0 0 1 .41-.4h4.84a.41.41 0 0 1 .41.4.42.42 0 0 1-.41.41zm5.66-1.62H6.87a.41.41 0 1 1 0-.81h10.5a.41.41 0 0 1 0 .81zM6.46 6.07a.41.41 0 0 1 .41-.41h4.84a.41.41 0 1 1 0 .81H6.87a.4.4 0 0 1-.41-.4zm10.91-1.22H6.87a.4.4 0 1 1 0-.8h10.5a.4.4 0 0 1 0 .8z"/></symbol><symbol id="user-profile" viewBox="0 0 26 26"><circle cx="13" cy="12" r="5.5"/><path d="M22.19 3.81A13 13 0 1 0 26 13a13 13 0 0 0-3.81-9.19zm-1 16.49a10 10 0 0 0-3-2.87 7.49 7.49 0 0 1-10.34 0 10 10 0 0 0-3 2.87 10.94 10.94 0 0 1-2.65-5.64A11 11 0 0 1 7 3.76a11 11 0 0 1 16 4.73 11.07 11.07 0 0 1 .83 6.17 10.94 10.94 0 0 1-2.61 5.64z"/></symbol></svg>