<svg xmlns="http://www.w3.org/2000/svg" xmlns:xlink="http://www.w3.org/1999/xlink" style="display:none"><symbol id="archive"><path d="M19.5 0h-18A1.5 1.5 0 0 0 0 1.5v2.25a1.5 1.5 0 0 0 1.5 1.5v8.25A1.5 1.5 0 0 0 3 15h15a1.5 1.5 0 0 0 1.5-1.5V5.25a1.5 1.5 0 0 0 1.5-1.5V1.5A1.5 1.5 0 0 0 19.5 0Zm-6.75 9h-4.5a.75.75 0 0 1 0-1.5h4.5a.75.75 0 0 1 0 1.5Zm6.75-5.25h-18V1.5h18v2.25Z"/></symbol><symbol id="arrow-down"><path d="M6 7a1 1 0 0 1-.71-.29l-5-5A1 1 0 0 1 1.71.29L6 4.59l4.29-4.3a1 1 0 1 1 1.42 1.42l-5 5A1 1 0 0 1 6 7Z"/></symbol><symbol id="baby"><path d="M10.38 0a6 6 0 0 0-1.14 3.07.76.76 0 0 0 .22.54.76.76 0 0 0 .55.23.74.74 0 0 0 .54-.23.77.77 0 0 0 .22-.54.81.81 0 0 1 .23-.55.77.77 0 0 1 .54-.22.75.75 0 0 1 .77.77 2.31 2.31 0 0 1-.67 1.63 2.31 2.31 0 0 1-3.27 0 2.31 2.31 0 0 1-.67-1.63 7.07 7.07 0 0 1 .82-3A10 10 0 1 0 10.38 0Zm-5 10a1.19 1.19 0 0 1 .72-1.08 1.19 1.19 0 0 1 .67-.06 1.09 1.09 0 0 1 .59.31 1.27 1.27 0 0 1 .32.59A1.18 1.18 0 0 1 7.19 11a1.14 1.14 0 0 1-.64.19 1.18 1.18 0 0 1-.82-.33 1.15 1.15 0 0 1-.34-.86ZM13 14.48a5.42 5.42 0 0 1-5.95 0 .73.73 0 0 1-.21-.22.66.66 0 0 1-.14-.26.76.76 0 0 1 0-.3.7.7 0 0 1 .12-.28.74.74 0 0 1 .48-.33.76.76 0 0 1 .3 0 .7.7 0 0 1 .28.12 3.85 3.85 0 0 0 4.25 0 .7.7 0 0 1 .28-.12.76.76 0 0 1 .3 0 .66.66 0 0 1 .27.12.73.73 0 0 1 .22.21.86.86 0 0 1 .11.28.76.76 0 0 1 0 .3.66.66 0 0 1-.12.27.63.63 0 0 1-.19.21Zm.49-3.34a1.15 1.15 0 0 1-.65-.19 1.26 1.26 0 0 1-.42-.52 1.18 1.18 0 0 1-.07-.67 1.27 1.27 0 0 1 .32-.59 1.13 1.13 0 0 1 .59-.31 1.18 1.18 0 0 1 .67.06 1.19 1.19 0 0 1 .69 1.08 1.15 1.15 0 0 1-.34.82 1.18 1.18 0 0 1-.81.32Z"/></symbol><symbol id="bookmark"><path d="M12.44 0H1.56a1.51 1.51 0 0 0-1.1.46A1.51 1.51 0 0 0 0 1.56v17.66a.8.8 0 0 0 .11.4.78.78 0 0 0 .29.28.79.79 0 0 0 .4.1.69.69 0 0 0 .39-.12L7 16.25l5.81 3.63a.69.69 0 0 0 .39.12.79.79 0 0 0 .4-.1.78.78 0 0 0 .29-.28.8.8 0 0 0 .11-.4V1.56a1.51 1.51 0 0 0-.46-1.1 1.51 1.51 0 0 0-1.1-.46Zm-5 14.67a.76.76 0 0 0-.82 0l-5 3.15V15L7 11.57 12.44 15v2.84Z"/></symbol><symbol id="carret-down-round" viewBox="0 0 26 26"><path d="M13 0a13 13 0 1 0 9.19 3.81A13 13 0 0 0 13 0Zm5.24 12.17-4.5 5a1 1 0 0 1-.33.24 1 1 0 0 1-.82 0 1 1 0 0 1-.33-.24l-4.5-5a.9.9 0 0 1-.2-.34.82.82 0 0 1-.06-.38 1 1 0 0 1 .1-.38.79.79 0 0 1 .23-.31.9.9 0 0 1 .34-.2.82.82 0 0 1 .38-.06 1 1 0 0 1 .38.1.79.79 0 0 1 .31.23L13 15l3.76-4.17a.79.79 0 0 1 .31-.23 1 1 0 0 1 .38-.1.82.82 0 0 1 .38.06.9.9 0 0 1 .34.2.79.79 0 0 1 .23.31 1 1 0 0 1 .1.38.82.82 0 0 1-.06.38.9.9 0 0 1-.2.34Z"/></symbol><symbol id="carret-down" viewBox="0 0 11 7"><path d="m10.87.88-5 5.93a.54.54 0 0 1-.82 0L.13.88A.53.53 0 0 1 .54 0h9.92a.53.53 0 0 1 .41.88Z"/></symbol><symbol id="carret-left"><path d="M19.75 10A9.75 9.75 0 1 0 10 19.75 9.762 9.762 0 0 0 19.75 10Zm-9.127 3.932-3.75-3.375a.75.75 0 0 1 0-1.114l3.75-3.375a.75.75 0 1 1 1.004 1.114L8.497 10l3.13 2.818a.75.75 0 1 1-1.004 1.114Z"/></symbol><symbol id="carret-right"><path d="M1.11 8a1.08 1.08 0 0 1-.78-.33 1.16 1.16 0 0 1 0-1.62l2-2-2-2a1.16 1.16 0 0 1 0-1.72 1.1 1.1 0 0 1 1.57 0l2.77 2.86a1.16 1.16 0 0 1 0 1.62L1.9 7.67a1.11 1.11 0 0 1-.79.33Z"/></symbol><symbol id="cart" viewBox="0 0 29 26"><path d="M12.12 24a2 2 0 0 1-2.41 2 2 2 0 0 1-1-.55 2 2 0 0 1-.44-2.18 2.09 2.09 0 0 1 .73-.93 2 2 0 0 1 2.55.25 2 2 0 0 1 .57 1.41Zm11.11-2a2 2 0 1 0 .77 3.85A2 2 0 0 0 25.25 24a2 2 0 0 0-.59-1.41 2 2 0 0 0-1.43-.59ZM28.8 5.4a1 1 0 0 0-.36-.3A1.14 1.14 0 0 0 28 5H6.1l-1-3.55a2 2 0 0 0-.73-1A2 2 0 0 0 3.13 0H1a1 1 0 0 0-.7.29 1 1 0 0 0 0 1.42A1 1 0 0 0 1 2h2.13l1.23 4.26L7.7 17.82a3 3 0 0 0 1.09 1.57 3.09 3.09 0 0 0 1.82.61h12.11a3.09 3.09 0 0 0 1.82-.61 3 3 0 0 0 1.09-1.57L29 6.27a1 1 0 0 0 0-.45 1 1 0 0 0-.2-.42Z"/></symbol><symbol id="chats" viewBox="0 0 26 25"><path d="M26 8a2 2 0 0 0-2-2h-4V2a2 2 0 0 0-.59-1.41A2 2 0 0 0 18 0H2A2 2 0 0 0 .59.59 2 2 0 0 0 0 2v16a1 1 0 0 0 .15.53 1 1 0 0 0 .42.37 1 1 0 0 0 .55.09 1 1 0 0 0 .51-.21L6 15.24V19a2 2 0 0 0 2 2h11.7l4.67 3.78a1 1 0 0 0 .51.21 1 1 0 0 0 .55-.09 1 1 0 0 0 .42-.37A1 1 0 0 0 26 24Zm-5.32 11.22a1 1 0 0 0-.63-.22H8v-4h10a2 2 0 0 0 2-2V8h4v13.91Z"/></symbol><symbol id="check-round"><path d="M13 0a13 13 0 1 0 13 13A13 13 0 0 0 13 0Zm6.42 10.4a1 1 0 0 1-.23.32l-7.33 7a1 1 0 0 1-.69.28 1 1 0 0 1-.69-.28l-3.67-3.5a.87.87 0 0 1-.22-.32.85.85 0 0 1-.09-.38 1 1 0 0 1 .07-.38.89.89 0 0 1 .21-.33 1 1 0 0 1 .32-.23 1 1 0 0 1 .76 0 1 1 0 0 1 .33.21l3 2.84 6.64-6.34a1 1 0 0 1 .33-.21 1 1 0 0 1 .76 0 1 1 0 0 1 .32.23.89.89 0 0 1 .21.33 1 1 0 0 1 0 .76Z"/></symbol><symbol id="close" viewBox="0 0 18 18"><path d="M6.77 9 0 15.77 2.23 18 9 11.23 15.77 18 18 15.77 11.23 9 18 2.23 15.77 0 9 6.77 2.23 0 0 2.23Z"/></symbol><symbol id="dash"><path d="M1.75 0h10.5A1.64 1.64 0 0 1 14 1.5 1.64 1.64 0 0 1 12.25 3H1.75A1.64 1.64 0 0 1 0 1.5 1.64 1.64 0 0 1 1.75 0Z"/></symbol><symbol id="envelope" viewBox="0 0 26 20"><path d="M26 1V.88a.13.13 0 0 0 0-.06.09.09 0 0 0 0-.05V.72H.69v.05c0 .05 0 0 0 0A.09.09 0 0 0 0 .78a.13.13 0 0 0 0 .1V18a2 2 0 0 0 .59 1.41A2 2 0 0 0 2 20h22a2 2 0 0 0 2-2V1ZM2 3.27 9.34 10 2 16.73ZM3.57 18l7.25-6.64 1.5 1.38a1 1 0 0 0 1.36 0l1.5-1.38L22.43 18Zm13.09-8L24 3.27v13.46Z"/></symbol><symbol id="facebook" viewBox="0 0 14 29"><path d="M9 9.43v-3a1.28 1.28 0 0 1 1.36-1.45h3.46V0H9C3.76 0 3.76 3.77 3.76 6.09v3.34H0v5.07h3.76V29H9V14.5h4.4l.6-5.07Z"/></symbol><symbol id="instagram" viewBox="0 0 30 30"><path d="M15 2.7c4 0 4.48 0 6.06.09a8.3 8.3 0 0 1 2.79.52 4.58 4.58 0 0 1 1.72 1.12 4.58 4.58 0 0 1 1.12 1.72 8.3 8.3 0 0 1 .52 2.79c.07 1.58.09 2.05.09 6.06s0 4.48-.09 6.06a8.3 8.3 0 0 1-.52 2.79 5 5 0 0 1-2.84 2.84 8.3 8.3 0 0 1-2.79.52c-1.58.07-2 .09-6.06.09s-4.48 0-6.06-.09a8.3 8.3 0 0 1-2.79-.52 4.58 4.58 0 0 1-1.72-1.12 4.58 4.58 0 0 1-1.12-1.72 8.3 8.3 0 0 1-.52-2.79C2.72 19.48 2.7 19 2.7 15s0-4.48.09-6.06a8.3 8.3 0 0 1 .52-2.79 4.58 4.58 0 0 1 1.12-1.72 4.58 4.58 0 0 1 1.72-1.12 8.3 8.3 0 0 1 2.79-.52C10.52 2.72 11 2.7 15 2.7ZM15 0c-4.07 0-4.58 0-6.18.09a11 11 0 0 0-3.65.7 7.17 7.17 0 0 0-2.65 1.73A7.17 7.17 0 0 0 .79 5.17a11 11 0 0 0-.7 3.65C0 10.42 0 10.93 0 15s0 4.58.09 6.18a11 11 0 0 0 .7 3.65 7.17 7.17 0 0 0 1.73 2.65 7.17 7.17 0 0 0 2.65 1.73 11 11 0 0 0 3.65.7c1.6.07 2.11.09 6.18.09s4.58 0 6.18-.09a11 11 0 0 0 3.65-.7 7.7 7.7 0 0 0 4.38-4.38 11 11 0 0 0 .7-3.65c.09-1.6.09-2.11.09-6.18s0-4.58-.09-6.18a11 11 0 0 0-.7-3.65 7.17 7.17 0 0 0-1.73-2.65A7.17 7.17 0 0 0 24.83.79a11 11 0 0 0-3.65-.7C19.58 0 19.07 0 15 0Zm0 7.3a7.68 7.68 0 1 0 5.45 2.25A7.69 7.69 0 0 0 15 7.3ZM15 20a5 5 0 0 1-4.62-3.09A4.93 4.93 0 0 1 10.1 14a5 5 0 0 1 3.9-3.9 4.93 4.93 0 0 1 2.89.28A5 5 0 0 1 15 20Zm9.81-13A1.8 1.8 0 1 1 23 5.19 1.8 1.8 0 0 1 24.81 7Z"/></symbol><symbol id="map-pin" viewBox="0 0 22 28"><path d="M20 26h-6.18a32.85 32.85 0 0 0 2.93-3C20.19 19 22 14.89 22 11a11 11 0 1 0-22 0c0 3.92 1.81 8.08 5.25 12a32.85 32.85 0 0 0 2.93 3H2a1 1 0 0 0-.71.29 1 1 0 0 0 0 1.42A1 1 0 0 0 2 28h18a1 1 0 1 0 0-2ZM11 7a4 4 0 0 1 2.22.67 4.07 4.07 0 0 1 1.48 1.8 4 4 0 0 1-5.23 5.23 4.07 4.07 0 0 1-1.8-1.48 4 4 0 0 1-.37-3.75A4 4 0 0 1 9.47 7.3 4 4 0 0 1 11 7Z"/></symbol><symbol id="mobile-device"><path d="M11.67 0H2.33A2.39 2.39 0 0 0 .68.66 2.23 2.23 0 0 0 0 2.25v16.5a2.23 2.23 0 0 0 .68 1.59 2.39 2.39 0 0 0 1.65.66h9.34a2.39 2.39 0 0 0 1.65-.66 2.23 2.23 0 0 0 .68-1.59V2.25a2.23 2.23 0 0 0-.68-1.59A2.39 2.39 0 0 0 11.67 0ZM2.33 1.5h9.34a.82.82 0 0 1 .55.22.75.75 0 0 1 .22.53V3H1.56v-.75a.75.75 0 0 1 .22-.53.82.82 0 0 1 .55-.22Zm9.34 18H2.33a.82.82 0 0 1-.55-.22.75.75 0 0 1-.22-.53V18h10.88v.75a.75.75 0 0 1-.22.53.82.82 0 0 1-.55.22Z"/></symbol><symbol id="pause"><path d="M16 1.5v15a1.49 1.49 0 0 1-.43 1.06 1.42 1.42 0 0 1-1 .44h-3.3a1.46 1.46 0 0 1-1-.44 1.52 1.52 0 0 1-.42-1.06v-15a1.52 1.52 0 0 1 .39-1.06 1.46 1.46 0 0 1 1-.44h3.28a1.42 1.42 0 0 1 1 .44A1.49 1.49 0 0 1 16 1.5ZM4.73 0H1.45a1.42 1.42 0 0 0-1 .44A1.49 1.49 0 0 0 0 1.5v15a1.49 1.49 0 0 0 .43 1.06 1.42 1.42 0 0 0 1 .44h3.3a1.46 1.46 0 0 0 1-.44 1.52 1.52 0 0 0 .42-1.06v-15A1.52 1.52 0 0 0 5.76.44 1.46 1.46 0 0 0 4.73 0Z"/></symbol><symbol id="payment-card" viewBox="0 0 28 20"><path d="M26 0H2A2 2 0 0 0 .59.59 2 2 0 0 0 0 2v16a2 2 0 0 0 .59 1.41A2 2 0 0 0 2 20h24a2 2 0 0 0 2-2V2a2 2 0 0 0-.59-1.41A2 2 0 0 0 26 0ZM15 16h-2a1 1 0 1 1 0-2h2a1 1 0 1 1 0 2Zm8 0h-4a1 1 0 1 1 0-2h4a1 1 0 1 1 0 2ZM2 5.11V2h24v3.11Z"/></symbol><symbol id="phone" viewBox="0 0 25 25"><path d="M24.73 17.63a2 2 0 0 0-.94-.84l-5.87-2.51a1.92 1.92 0 0 0-1-.16 2.08 2.08 0 0 0-.93.33l-3.13 2.09a9.53 9.53 0 0 1-4.41-4.39L10.56 9a2 2 0 0 0 .17-1.89l-2.52-5.9a2 2 0 0 0-.84-.94A2 2 0 0 0 6.13 0 7 7 0 0 0 0 7a18.05 18.05 0 0 0 18 18 7 7 0 0 0 7-6.13 2 2 0 0 0-.27-1.24ZM15.7 2.93a9 9 0 0 1 6.37 6.38 1 1 0 0 0 .47.6 1 1 0 0 0 .76.1 1 1 0 0 0 .6-.46 1 1 0 0 0 .1-.76A11.08 11.08 0 0 0 16.21 1a1 1 0 0 0-.76.11 1 1 0 0 0-.46.6 1 1 0 0 0 .71 1.23ZM14.66 6.8a5 5 0 0 1 3.54 3.54 1 1 0 0 0 1.94-.51 7 7 0 0 0-5-5 1 1 0 0 0-.76.1 1 1 0 0 0-.47.61 1 1 0 0 0 .1.75 1 1 0 0 0 .65.51Z"/></symbol><symbol id="question-outline" viewBox="0 0 20 20"><path d="M10.42 13.77a1.08 1.08 0 0 0-.31-.07.92.92 0 0 0-.33 0 1.1 1.1 0 0 0-.56.3 1.19 1.19 0 0 0-.31.57 1.08 1.08 0 0 0 .07.64 1.05 1.05 0 0 0 .41.5 1.09 1.09 0 0 0 .61.18 1.08 1.08 0 0 0 .78-.32 1.11 1.11 0 0 0 .33-.78 1.12 1.12 0 0 0-.69-1ZM12.07 5.56a3.33 3.33 0 0 0-1.7-.7 2.36 2.36 0 0 0-.46 0 3.27 3.27 0 0 0-2.72 1.53 3.34 3.34 0 0 0-.51 1.77.74.74 0 0 0 .22.52.7.7 0 0 0 .52.21.73.73 0 0 0 .52-.21.74.74 0 0 0 .22-.52 1.78 1.78 0 0 1 .31-1 1.87 1.87 0 0 1 .82-.68 2 2 0 0 1 .53-.13 1.64 1.64 0 0 1 .54 0 1.76 1.76 0 0 1 .94.5 1.83 1.83 0 0 1 .4 2 1.83 1.83 0 0 1-.67.83A1.91 1.91 0 0 1 10 10a.73.73 0 0 0-.52.22.71.71 0 0 0-.22.52v.74a.74.74 0 0 0 .22.52.72.72 0 0 0 .52.21.72.72 0 0 0 .52-.21.74.74 0 0 0 .22-.52v-.09a3.26 3.26 0 0 0 1.61-.89 3.31 3.31 0 0 0 .89-1.6 3.39 3.39 0 0 0-.1-1.84 3.35 3.35 0 0 0-1.07-1.5Z"/><path d="M10 0a10 10 0 1 0 10 10A10 10 0 0 0 10 0Zm0 18.5a8.5 8.5 0 1 1 8.5-8.5 8.51 8.51 0 0 1-8.5 8.5Z"/></symbol><symbol id="question"><path d="M10 0a10 10 0 1 0 7.07 2.93A10 10 0 0 0 10 0Zm0 16.15a1.12 1.12 0 0 1-.64-.15 1.21 1.21 0 0 1-.43-.52 1.16 1.16 0 0 1 1.51-1.51 1.21 1.21 0 0 1 .52.43 1.12 1.12 0 0 1 .19.64A1.13 1.13 0 0 1 10 16.15Zm.77-4.7v.09a.77.77 0 0 1-1.54 0v-.77A.79.79 0 0 1 10 10a1.94 1.94 0 0 0 1.07-.32 2 2 0 0 0 .71-.87 2 2 0 0 0 .11-1.11 2 2 0 0 0-1.51-1.51 2 2 0 0 0-1.12.11 1.92 1.92 0 0 0-.86.7 1.94 1.94 0 0 0-.32 1.07.79.79 0 0 1-.77.77.76.76 0 0 1-.55-.23.77.77 0 0 1-.22-.54A3.47 3.47 0 0 1 8.5 5a3.52 3.52 0 0 1 1.89-.32 3.46 3.46 0 0 1 .38 6.81Z"/></symbol><symbol id="quotes"><path d="M1.38 14H5.5l2.75-5.6V0H0v8.4h4.12Zm13.75 0h4.12L22 8.4V0h-8.25v8.4h4.12Z"/></symbol><symbol id="rewind"><path d="M15 .75v16.5a.75.75 0 0 1-1.5 0v-6.91L2.28 17.19a1.45 1.45 0 0 1-.75.22 1.43 1.43 0 0 1-.76-.19 1.41 1.41 0 0 1-.56-.55 1.45 1.45 0 0 1-.21-.76V2.09a1.45 1.45 0 0 1 .21-.76A1.41 1.41 0 0 1 .77.78a1.43 1.43 0 0 1 .76-.19 1.45 1.45 0 0 1 .75.22L13.5 7.66V.75a.75.75 0 0 1 1.5 0Z"/></symbol><symbol id="smart" viewBox="0 0 18 29.33"><path d="M2.91 0A3 3 0 0 0 0 3.17v23a3 3 0 0 0 2.91 3.17h12.18A3 3 0 0 0 18 26.17v-23A3 3 0 0 0 15.09 0Zm7.91 1.59H7.18a1.14 1.14 0 0 0-1.09 1.19 1.15 1.15 0 0 0 1.09 1.19h3.64a1.15 1.15 0 0 0 1.09-1.19 1.14 1.14 0 0 0-1.09-1.19Zm-6.91 4h10.18a1.53 1.53 0 0 1 1.46 1.59V22.2a1.53 1.53 0 0 1-1.46 1.59H3.91a1.53 1.53 0 0 1-1.46-1.59V7.14a1.53 1.53 0 0 1 1.46-1.59ZM9 27.75a1.19 1.19 0 1 0-1.09-1.19A1.14 1.14 0 0 0 9 27.75Z" fill-rule="evenodd"/></symbol><symbol id="star" viewBox="0 0 28 27"><path d="M27.9 10.18a2.1 2.1 0 0 0-.69-1 2 2 0 0 0-1.13-.43l-7.42-.52L15.9 1.3a2 2 0 0 0-.75-.94A2 2 0 0 0 14 0a2.06 2.06 0 0 0-1.15.36 2 2 0 0 0-.75.94l-2.79 7-7.39.48a2 2 0 0 0-1.13.43 2 2 0 0 0-.68 1 2.06 2.06 0 0 0 0 1.23 2.15 2.15 0 0 0 .67 1l5.68 4.8-1.72 6.64a2.34 2.34 0 0 0 .06 1.36 2.3 2.3 0 0 0 .82 1.08 2.21 2.21 0 0 0 1.24.43 2.28 2.28 0 0 0 1.27-.35L14 22.69l6.3 4a2 2 0 0 0 1.15.32 2 2 0 0 0 1.13-.39 2.06 2.06 0 0 0 .79-2.21l-1.77-7.27 5.65-4.7a2.08 2.08 0 0 0 .67-1 2.06 2.06 0 0 0-.02-1.26Z"/></symbol><symbol id="telegram" viewBox="0 0 30 30"><path d="M30 15A15 15 0 1 1 15 0a15 15 0 0 1 15 15Zm-14.46-3.93q-2.19.91-8.75 3.77c-.71.28-1.08.56-1.12.83 0 .46.52.64 1.3.88l.33.11a10.4 10.4 0 0 0 2.33.55 2.86 2.86 0 0 0 1.62-.6c4.09-2.76 6.2-4.16 6.33-4.18a.34.34 0 0 1 .31 0 .31.31 0 0 1 .07.27 43.25 43.25 0 0 1-3.46 3.41c-.36.33-.62.57-.67.63l-.35.35c-.72.68-1.25 1.2 0 2 .61.4 1.1.73 1.59 1.07l1.75 1.18c.18.11.34.23.51.35a2.82 2.82 0 0 0 1.87.77c.4 0 .81-.41 1-1.53.5-2.66 1.48-8.42 1.7-10.79a2.33 2.33 0 0 0 0-.59.67.67 0 0 0-.22-.41 1 1 0 0 0-.55-.14c-.56 0-1.43.34-5.59 2.07Z"/></symbol><symbol id="tg-sale" viewBox="0 0 32 32"><path d="M26.61 12a6.14 6.14 0 0 0-4.1-1.76v-1a6.54 6.54 0 0 0-7.15-6.48 6.87 6.87 0 0 0-5.87 6.65v.78A6.14 6.14 0 0 0 5.39 12a5.82 5.82 0 0 0-1.11 4.69l.93 7.43c.28 2.6 1.34 5.26 7.07 5.26h7.44c5.73 0 6.79-2.66 7.07-5.25l.93-7.45A5.81 5.81 0 0 0 26.61 12ZM11.35 9.41a5 5 0 0 1 4.2-4.86 4.64 4.64 0 0 1 5.1 4.62v.94h-9.3ZM16 24.77a5.05 5.05 0 1 1 5.05-5.05A5 5 0 0 1 16 24.77Z"/><path d="M16.35 17.11a1 1 0 0 0-1 1v1.44l-1.19.71a1 1 0 1 0 1 1.7l1.66-1a1 1 0 0 0 .48-.85v-2a1 1 0 0 0-.95-1Z"/></symbol><symbol id="tiktok" viewBox="0 0 26 28"><path d="m22.76 6-.59-.32a8.88 8.88 0 0 1-1.52-1.21A6.39 6.39 0 0 1 19 1.17 4.16 4.16 0 0 1 18.88 0h-5.15v19.43a3.87 3.87 0 0 1-.66 1.87 4.33 4.33 0 0 1-1.54 1.37 4.59 4.59 0 0 1-2.13.52A4.22 4.22 0 0 1 5 19.16a4.22 4.22 0 0 1 4.35-4.08 4.67 4.67 0 0 1 1.34.19v-4.89a10.31 10.31 0 0 0-3.91.28 9.88 9.88 0 0 0-3.46 1.73 9.73 9.73 0 0 0-2.21 2.54A8.52 8.52 0 0 0 0 19a8.72 8.72 0 0 0 .55 3.19A9 9 0 0 0 2 24.56a10.23 10.23 0 0 0 2.23 2A10.22 10.22 0 0 0 9.46 28a9.85 9.85 0 0 0 3.9-.81A9.69 9.69 0 0 0 16.53 25a9.12 9.12 0 0 0 1.73-2.68 9.33 9.33 0 0 0 .62-3.06v-9.9l.9.55a12.38 12.38 0 0 0 3.07 1.19 19 19 0 0 0 3.15.4V6.72A7 7 0 0 1 22.76 6Z"/></symbol><symbol id="trash" viewBox="0 0 24 26"><path d="M23 4H1a1 1 0 0 0 0 2h1v18a2 2 0 0 0 2 2h16a2 2 0 0 0 2-2V6h1a1 1 0 0 0 0-2Zm-3 20H4V6h16ZM7 2h10a1 1 0 0 0 0-2H7a1 1 0 0 0 0 2Z"/></symbol><symbol id="tv"><path d="M13.73 17.38H7.27a.82.82 0 0 0-.81.81.8.8 0 0 0 .24.57.82.82 0 0 0 .57.24h6.46a.82.82 0 0 0 .57-.24.8.8 0 0 0 .24-.57.82.82 0 0 0-.81-.81ZM18.58 0H2.42A2.42 2.42 0 0 0 0 2.43v11.32a2.42 2.42 0 0 0 2.42 2.43h16.16A2.42 2.42 0 0 0 21 13.75V2.43A2.42 2.42 0 0 0 18.58 0ZM3.63 12.14a1.22 1.22 0 1 1 1.22-1.22 1.22 1.22 0 0 1-1.22 1.22Zm0-5.67a1.21 1.21 0 1 1 1.22-1.21 1.21 1.21 0 0 1-1.22 1.21Zm8.08 5.67H6.87a.41.41 0 0 1-.41-.41.4.4 0 0 1 .41-.4h4.84a.41.41 0 0 1 .41.4.42.42 0 0 1-.41.41Zm5.66-1.62H6.87a.41.41 0 1 1 0-.81h10.5a.41.41 0 0 1 0 .81ZM6.46 6.07a.41.41 0 0 1 .41-.41h4.84a.41.41 0 1 1 0 .81H6.87a.4.4 0 0 1-.41-.4Zm10.91-1.22H6.87a.4.4 0 1 1 0-.8h10.5a.4.4 0 0 1 0 .8Z"/></symbol><symbol id="user-profile" viewBox="0 0 26 26"><circle cx="13" cy="12" r="5.5"/><path d="M22.19 3.81A13 13 0 1 0 26 13a13 13 0 0 0-3.81-9.19Zm-1 16.49a10 10 0 0 0-3-2.87 7.49 7.49 0 0 1-10.34 0 10 10 0 0 0-3 2.87 10.94 10.94 0 0 1-2.65-5.64A11 11 0 0 1 7 3.76a11 11 0 0 1 16 4.73 11.07 11.07 0 0 1 .83 6.17 10.94 10.94 0 0 1-2.61 5.64Z"/></symbol><symbol id="viber" viewBox="0 0 32 32"><path fill="none" d="M0 0h32v32H0z"/><path d="M27.75 3.12c-.8-.74-4-3.07-11.16-3.1h-1.38C12.63 0 7.11.46 4 3.29 1.72 5.57.92 8.93.83 13.09S.66 25 8.16 27.14v3.23s-.05 1.3.81 1.56c1 .33 1.65-.66 2.65-1.73l1.86-2.11a28.79 28.79 0 0 0 9.52-.7c1.05-.33 6.92-1.08 7.87-8.87.99-8.04-.47-13.11-3.12-15.4Zm.87 14.81c-.8 6.51-5.56 6.92-6.44 7.21a27 27 0 0 1-8.2.69s-3.25 3.92-4.27 4.93a.51.51 0 0 1-.47.2c-.17 0-.22-.25-.21-.54v-5.36c-6.37-1.76-6-8.4-5.92-11.87S3.87 6.88 5.8 5c2.61-2.36 7.3-2.68 9.48-2.69h1.17c6.05 0 9 1.84 9.63 2.45 2.23 1.89 3.38 6.46 2.54 13.17Z"/><path d="M23.57 11a8.41 8.41 0 0 0-1.86-2.92 8.21 8.21 0 0 0-5.94-2.35.41.41 0 0 0-.16 0 .38.38 0 0 0-.13.09.41.41 0 0 0-.08.18.42.42 0 0 0 0 .15.41.41 0 0 0 .41.4 7.46 7.46 0 0 1 5.37 2.12 7.78 7.78 0 0 1 2.19 5.79.4.4 0 0 0 .4.4.39.39 0 0 0 .4-.39 8.53 8.53 0 0 0-.6-3.47ZM20.32 17a1.3 1.3 0 0 0-1.66.23l-.6.75a1.08 1.08 0 0 1-.86.33 7.84 7.84 0 0 1-5.27-5.28 1.06 1.06 0 0 1 .33-.86l.75-.61a1.33 1.33 0 0 0 .23-1.67 18 18 0 0 0-2.06-2.86 1.08 1.08 0 0 0-.67-.4 1.27 1.27 0 0 0-.81.16 6.2 6.2 0 0 0-1.57 1.28 2.44 2.44 0 0 0-.62 1.26 1.6 1.6 0 0 0 .07.72 17.83 17.83 0 0 0 1.61 3.46 20.06 20.06 0 0 0 3.09 4.23h.05A20.84 20.84 0 0 0 16.71 21a19.72 19.72 0 0 0 3.47 1.6 1.71 1.71 0 0 0 .53.08 2.42 2.42 0 0 0 1.47-.63 5.91 5.91 0 0 0 1.24-1.53 1.12 1.12 0 0 0-.24-1.49A18 18 0 0 0 20.32 17Z"/><path d="M20.94 11.76a4.61 4.61 0 0 1 .25 1.84.44.44 0 0 0 .12.28.43.43 0 0 0 .28.11.47.47 0 0 0 .28-.12.4.4 0 0 0 .12-.29 5.54 5.54 0 0 0-1.43-4 5.83 5.83 0 0 0-4.07-1.78h-.05a.4.4 0 0 0 0 .8 5.09 5.09 0 0 1 1.92.41A5.18 5.18 0 0 1 20 10.17a4.68 4.68 0 0 1 .94 1.59Z"/><path d="M17.09 10.81a1.94 1.94 0 0 1 2 2.11.4.4 0 0 0 .12.27.36.36 0 0 0 .28.12.42.42 0 0 0 .16 0 .29.29 0 0 0 .12-.1.3.3 0 0 0 .09-.13.88.88 0 0 0 0-.16A2.73 2.73 0 0 0 17.13 10a.41.41 0 0 0-.04.81Z"/></symbol><symbol id="youtube" viewBox="0 0 32 32"><path d="M29.29 8.69a3 3 0 0 0-1.81-2C23.19 5 16.38 5 16 5S8.81 5 4.52 6.64a3 3 0 0 0-1.81 2.05A29.48 29.48 0 0 0 2 16a29.48 29.48 0 0 0 .71 7.31 3 3 0 0 0 1.81 2.05C8.62 27 15.05 27 15.92 27h.16c.87 0 7.3-.05 11.4-1.64a3 3 0 0 0 1.81-2.05A30 30 0 0 0 30 16a30 30 0 0 0-.71-7.31Zm-9 7.73-6 4a.5.5 0 0 1-.26.08.58.58 0 0 1-.26-.06.55.55 0 0 1-.19-.18.48.48 0 0 1-.08-.26v-8a.48.48 0 0 1 .07-.26.55.55 0 0 1 .19-.18.58.58 0 0 1 .24-.06.5.5 0 0 1 .26.08l6 4a.55.55 0 0 1 .16.18.51.51 0 0 1 0 .48.55.55 0 0 1-.14.18Z"/></symbol></svg>