<svg xmlns="http://www.w3.org/2000/svg" width="128" height="128" viewBox="0 0 128 128"><path d="M119.11 127.77a11.13 11.13 0 008.89-10.9 11.13 11.13 0 01-8.89 10.9zM119.11 127.77a11 11 0 01-2.24.23 11 11 0 002.24-.23zM116.87 0H11.13A11.13 11.13 0 000 11.13v105.74A11.13 11.13 0 0011.13 128h46.62L29.29 99.48a3.29 3.29 0 01-2.08-3V81.27A3.35 3.35 0 0130.48 78h12.74V66c0-4.1 1.25-9.88 1.25-12.14V38a1.19 1.19 0 011.25-1.25A1.3 1.3 0 0147 38v.12l32.78 32.79V66c0-4.1 1.25-9.88 1.25-12.14V38a1.18 1.18 0 011.25-1.25A1.3 1.3 0 0183.53 38v.32L128 83.45V11.13A11.13 11.13 0 00116.87 0zM71 28.28c-1.07 1.61-2.56-.36-3.57-.89a6.87 6.87 0 00-8.21 1 1.47 1.47 0 01-2 .24c-2.08-1.61 2.21-4.35 5.24-4.77 4.7-.58 9.87 2.45 8.54 4.42zm4.17-4.53c-.71 0-1-.47-1.43-.83A14.33 14.33 0 0066 19.23a15.12 15.12 0 00-8.09 1.19c-3.51 1.61-4.11 3.93-5.72 3.22a1.35 1.35 0 01-.75-1.64c.18-.66.65-.89 1.07-1.25 3-2.44 5.18-3.87 9.64-4.29a17.46 17.46 0 0113.76 4.59c1.01 1.04.95 2.7-.72 2.7zm7.38-5.83a1.39 1.39 0 01-2.26.36c-1.49-1.13-1.13-1.31-3.75-3a23 23 0 00-27.84 2.1c-.66.54-1 1.37-2.08 1.31a1.3 1.3 0 01-1.08-2A22.32 22.32 0 0147.21 15c4.11-3.27 8.4-5.65 14.35-6.07a25.92 25.92 0 0120.06 6.79c.48.47 1.43 1.01.95 2.2z" fill="#50b82d"/><path d="M81.62 15.72a25.92 25.92 0 00-20.06-6.79c-6 .42-10.24 2.8-14.35 6.07a22.32 22.32 0 00-1.67 1.73 1.3 1.3 0 001.08 2c1.13.06 1.42-.77 2.08-1.31a23 23 0 0127.86-2.14c2.62 1.73 2.26 1.91 3.75 3a1.39 1.39 0 002.26-.36c.48-1.19-.47-1.73-.95-2.2z" fill="#fff"/><path d="M62.15 16.49c-4.46.42-6.66 1.85-9.64 4.29-.42.36-.89.59-1.07 1.25a1.35 1.35 0 00.71 1.61c1.61.71 2.21-1.61 5.72-3.22A15.12 15.12 0 0166 19.23a14.33 14.33 0 017.8 3.69c.42.36.72.83 1.43.83 1.67 0 1.73-1.66.72-2.67a17.46 17.46 0 00-13.8-4.59z" fill="#fff"/><path d="M62.51 23.87c-3 .42-7.32 3.16-5.24 4.77a1.47 1.47 0 002-.24 6.87 6.87 0 018.21-1c1 .53 2.5 2.5 3.57.89 1.28-1.98-3.89-5.01-8.54-4.42z" fill="#fff"/><path d="M83.53 53.82c0 2.26 1.25 8 1.25 12.14V78h12.74a3.31 3.31 0 013.27 3.28v15.17a3.3 3.3 0 01-3.27 3.27h-3.06a1.66 1.66 0 01-1.64 1.49h-4.47a1.65 1.65 0 01-1.65-1.49H41.24a1.66 1.66 0 01-1.65 1.49h-4.46a1.65 1.65 0 01-1.65-1.49h-3a3.16 3.16 0 01-1.19-.24L57.75 128h59.12a11 11 0 002.24-.23 11.13 11.13 0 008.89-10.9V83.45L83.53 38.3z" fill="#158e30"/><path d="M48.22 66v12h31.56v-7.09L47 38.1v15.72c0 2.26 1.22 8.04 1.22 12.18z" fill="#158e30"/><path d="M33.48 99.72a1.65 1.65 0 001.65 1.49h4.46a1.66 1.66 0 001.65-1.49H86.7a1.65 1.65 0 001.65 1.49h4.47a1.66 1.66 0 001.64-1.49h3.06a3.3 3.3 0 003.27-3.27V81.27A3.31 3.31 0 0097.52 78H84.78V66c0-4.1-1.25-9.88-1.25-12.14V38a1.3 1.3 0 00-1.25-1.25A1.18 1.18 0 0081 38v15.82c0 2.26-1.25 8-1.25 12.14V78H48.22V66c0-4.1-1.25-9.88-1.25-12.14V38a1.3 1.3 0 00-1.25-1.25A1.19 1.19 0 0044.47 38v15.82c0 2.26-1.25 8-1.25 12.14V78H30.48a3.35 3.35 0 00-3.27 3.28v15.17a3.29 3.29 0 002.08 3 3.16 3.16 0 001.19.24zm6.65-5.89a1.58 1.58 0 01-1.55-1.55 1.55 1.55 0 111.55 1.55zm5.47 0a1.55 1.55 0 010-3.1 1.55 1.55 0 010 3.1zM91.15 86a2.86 2.86 0 11-2.86 2.86A2.82 2.82 0 0191.15 86zm-40 4.76a1.55 1.55 0 11-1.55 1.55 1.5 1.5 0 011.54-1.58zm-16.49 0a1.55 1.55 0 11-1.55 1.55 1.5 1.5 0 011.54-1.58z" fill="#252525"/><path d="M34.65 93.83a1.55 1.55 0 100-3.1 1.5 1.5 0 00-1.55 1.55 1.54 1.54 0 001.55 1.55zM40.13 90.73a1.53 1.53 0 00-1.55 1.55 1.58 1.58 0 001.55 1.55 1.55 1.55 0 000-3.1zM45.6 90.73a1.55 1.55 0 000 3.1 1.55 1.55 0 000-3.1zM51.14 93.83a1.55 1.55 0 000-3.1 1.5 1.5 0 00-1.55 1.55 1.54 1.54 0 001.55 1.55zM91.15 91.68a2.86 2.86 0 100-5.71 2.82 2.82 0 00-2.86 2.86 2.86 2.86 0 002.86 2.85z" fill="#fff"/></svg>