<svg xmlns="http://www.w3.org/2000/svg" width="20" height="20" viewBox="0 0 20 20"><path d="M10.38,0A6,6,0,0,0,9.24,3.07a.76.76,0,0,0,.22.54.76.76,0,0,0,.55.23.74.74,0,0,0,.54-.23.77.77,0,0,0,.22-.54A.81.81,0,0,1,11,2.52a.77.77,0,0,1,.54-.22.75.75,0,0,1,.77.77,2.31,2.31,0,0,1-.67,1.63,2.31,2.31,0,0,1-3.27,0A2.31,2.31,0,0,1,7.7,3.07a7.07,7.07,0,0,1,.82-3A10,10,0,1,0,10.38,0Zm-5,10A1.19,1.19,0,0,1,6.1,8.92a1.19,1.19,0,0,1,.67-.06,1.09,1.09,0,0,1,.59.31,1.27,1.27,0,0,1,.32.59A1.18,1.18,0,0,1,7.19,11a1.14,1.14,0,0,1-.64.19,1.18,1.18,0,0,1-.82-.33A1.15,1.15,0,0,1,5.39,10ZM13,14.48a5.42,5.42,0,0,1-5.95,0,.73.73,0,0,1-.21-.22A.66.66,0,0,1,6.7,14a.76.76,0,0,1,0-.3.7.7,0,0,1,.12-.28.74.74,0,0,1,.48-.33.76.76,0,0,1,.3,0,.7.7,0,0,1,.28.12,3.85,3.85,0,0,0,4.25,0,.7.7,0,0,1,.28-.12.76.76,0,0,1,.3,0,.66.66,0,0,1,.27.12.73.73,0,0,1,.22.21.86.86,0,0,1,.11.28.76.76,0,0,1,0,.3.66.66,0,0,1-.12.27A.63.63,0,0,1,13,14.48Zm.49-3.34a1.15,1.15,0,0,1-.65-.19,1.26,1.26,0,0,1-.42-.52,1.18,1.18,0,0,1-.07-.67,1.27,1.27,0,0,1,.32-.59,1.13,1.13,0,0,1,.59-.31,1.18,1.18,0,0,1,.67.06A1.19,1.19,0,0,1,14.62,10a1.15,1.15,0,0,1-.34.82A1.18,1.18,0,0,1,13.47,11.14Z"/></svg>