<svg xmlns="http://www.w3.org/2000/svg" viewBox="0 0 26 26"><path d="M13,0a13,13,0,1,0,9.19,3.81A13,13,0,0,0,13,0Zm5.24,12.17-4.5,5a1,1,0,0,1-.33.24,1,1,0,0,1-.82,0,1,1,0,0,1-.33-.24l-4.5-5a.9.9,0,0,1-.2-.34.82.82,0,0,1-.06-.38,1,1,0,0,1,.1-.38.79.79,0,0,1,.23-.31.9.9,0,0,1,.34-.2.82.82,0,0,1,.38-.06,1,1,0,0,1,.38.1.79.79,0,0,1,.31.23L13,15l3.76-4.17a.79.79,0,0,1,.31-.23,1,1,0,0,1,.38-.1.82.82,0,0,1,.38.06.9.9,0,0,1,.34.2.79.79,0,0,1,.23.31,1,1,0,0,1,.1.38.82.82,0,0,1-.06.38A.9.9,0,0,1,18.24,12.17Z"/></svg>