<svg width="20" height="20" viewBox="0 0 20 20" xmlns="http://www.w3.org/2000/svg">
<path d="M19.75 10C19.75 8.07164 19.1782 6.18657 18.1068 4.58319C17.0355 2.97982 15.5127 1.73013 13.7312 0.992179C11.9496 0.254225 9.98918 0.0611421 8.09787 0.437348C6.20655 0.813554 4.46927 1.74215 3.10571 3.10571C1.74215 4.46928 0.81355 6.20656 0.437344 8.09787C0.0611383 9.98919 0.254221 11.9496 0.992175 13.7312C1.73013 15.5127 2.97981 17.0355 4.58319 18.1068C6.18657 19.1782 8.07163 19.75 10 19.75C12.5849 19.747 15.0632 18.7188 16.891 16.891C18.7188 15.0632 19.747 12.5849 19.75 10V10ZM10.6233 13.9324L6.87329 10.5574C6.79514 10.4871 6.73265 10.4011 6.68988 10.3051C6.6471 10.2091 6.625 10.1051 6.625 10C6.625 9.89488 6.6471 9.79094 6.68988 9.69492C6.73265 9.59889 6.79514 9.51294 6.87329 9.44263L10.6233 6.06763C10.6965 6.00169 10.7819 5.95081 10.8748 5.91791C10.9676 5.88501 11.0661 5.87072 11.1644 5.87587C11.2628 5.88101 11.3592 5.90549 11.4481 5.9479C11.5371 5.99032 11.6167 6.04983 11.6826 6.12305C11.7486 6.19627 11.7994 6.28175 11.8322 6.37462C11.8651 6.46749 11.8793 6.56593 11.8741 6.6643C11.869 6.76268 11.8444 6.85906 11.802 6.94796C11.7595 7.03685 11.7 7.11651 11.6267 7.18238L8.49634 10L11.6267 12.8176C11.7 12.8835 11.7595 12.9632 11.802 13.0521C11.8444 13.1409 11.869 13.2373 11.8741 13.3357C11.8793 13.4341 11.8651 13.5325 11.8322 13.6254C11.7994 13.7183 11.7486 13.8037 11.6826 13.877C11.6167 13.9502 11.5371 14.0097 11.4481 14.0521C11.3592 14.0945 11.2628 14.119 11.1645 14.1241C11.0661 14.1293 10.9676 14.115 10.8748 14.0821C10.7819 14.0492 10.6965 13.9983 10.6233 13.9324Z"/>
</svg>
