<svg xmlns="http://www.w3.org/2000/svg" viewBox="0 0 29 26"><path d="M12.12,24a2,2,0,0,1-2.41,2,2,2,0,0,1-1-.55,2,2,0,0,1-.44-2.18A2.09,2.09,0,0,1,9,22.34a2,2,0,0,1,2.55.25A2,2,0,0,1,12.12,24Zm11.11-2A2,2,0,1,0,24,25.85,2,2,0,0,0,25.25,24a2,2,0,0,0-.59-1.41A2,2,0,0,0,23.23,22ZM28.8,5.4a1,1,0,0,0-.36-.3A1.14,1.14,0,0,0,28,5H6.1l-1-3.55a2,2,0,0,0-.73-1A2,2,0,0,0,3.13,0H1A1,1,0,0,0,.3.29a1,1,0,0,0,0,1.42A1,1,0,0,0,1,2H3.13L4.36,6.26v0L7.7,17.82a3,3,0,0,0,1.09,1.57,3.09,3.09,0,0,0,1.82.61H22.72a3.09,3.09,0,0,0,1.82-.61,3,3,0,0,0,1.09-1.57L29,6.27a1,1,0,0,0,0-.45A1,1,0,0,0,28.8,5.4Z"/></svg>