<svg xmlns="http://www.w3.org/2000/svg" viewBox="0 0 26 20"><path d="M26,1V.88a.13.13,0,0,0,0-.06v0a.09.09,0,0,0,0-.05s0,0,0,0,0,0,0,0,0,0,0-.05a.08.08,0,0,0,0,0l0,0,0,0a.05.05,0,0,1,0,0l0,0,0,0v0h0s0,0,0,0l0,0,0,0,0,0,0,0,0,0,0,0-.05,0h0l-.05,0h0l0,0H.78l0,0H.69l0,0h0l0,0,0,0,0,0,0,0,0,0,0,0,0,0,0,0h0v0l0,0,0,0a.05.05,0,0,1,0,0l0,0,0,0a.08.08,0,0,0,0,0s0,0,0,.05,0,0,0,0,0,0,0,0A.09.09,0,0,0,0,.78v0A.13.13,0,0,0,0,.88V18a2,2,0,0,0,.59,1.41A2,2,0,0,0,2,20H24a2,2,0,0,0,2-2V1ZM2,3.27,9.34,10,2,16.73ZM3.57,18l7.25-6.64,1.5,1.38a1,1,0,0,0,1.36,0l1.5-1.38L22.43,18Zm13.09-8L24,3.27V16.73Z"/></svg>