<svg xmlns="http://www.w3.org/2000/svg" viewBox="0 0 14 21" width="14" height="21"><path d="M11.67,0H2.33A2.39,2.39,0,0,0,.68.66,2.23,2.23,0,0,0,0,2.25v16.5a2.23,2.23,0,0,0,.68,1.59A2.39,2.39,0,0,0,2.33,21h9.34a2.39,2.39,0,0,0,1.65-.66A2.23,2.23,0,0,0,14,18.75V2.25A2.23,2.23,0,0,0,13.32.66,2.39,2.39,0,0,0,11.67,0ZM2.33,1.5h9.34a.82.82,0,0,1,.55.22.75.75,0,0,1,.22.53V3H1.56V2.25a.75.75,0,0,1,.22-.53A.82.82,0,0,1,2.33,1.5Zm9.34,18H2.33a.82.82,0,0,1-.55-.22.75.75,0,0,1-.22-.53V18H12.44v.75a.75.75,0,0,1-.22.53A.82.82,0,0,1,11.67,19.5Z"/></svg>