<svg xmlns="http://www.w3.org/2000/svg" viewBox="0 0 25 25"><path d="M24.73,17.63a2,2,0,0,0-.94-.84l-5.87-2.51a1.92,1.92,0,0,0-1-.16,2.08,2.08,0,0,0-.93.33l-3.13,2.09a9.53,9.53,0,0,1-4.41-4.39h0L10.56,9a2,2,0,0,0,.17-1.89L8.21,1.21A2,2,0,0,0,7.37.27,2,2,0,0,0,6.13,0,7,7,0,0,0,0,7,18.05,18.05,0,0,0,18,25a7,7,0,0,0,7-6.13A2,2,0,0,0,24.73,17.63Z"/><path d="M15.7,2.93h0a9,9,0,0,1,6.37,6.38,1,1,0,0,0,.47.6,1,1,0,0,0,.76.1,1,1,0,0,0,.6-.46A1,1,0,0,0,24,8.79,11.08,11.08,0,0,0,16.21,1a1,1,0,0,0-.76.11,1,1,0,0,0-.46.6,1,1,0,0,0,.71,1.23Z"/><path d="M14.66,6.8a5,5,0,0,1,3.54,3.54,1,1,0,0,0,1.94-.51,7,7,0,0,0-5-5,1,1,0,0,0-.76.1,1,1,0,0,0-.47.61,1,1,0,0,0,.1.75A1,1,0,0,0,14.66,6.8Z"/></svg>