<svg xmlns="http://www.w3.org/2000/svg" width="20" height="20" viewBox="0 0 20 20"><path d="M10,0a10,10,0,1,0,7.07,2.93A10,10,0,0,0,10,0Zm0,16.15A1.12,1.12,0,0,1,9.36,16a1.21,1.21,0,0,1-.43-.52,1.16,1.16,0,0,1,1.51-1.51,1.21,1.21,0,0,1,.52.43,1.12,1.12,0,0,1,.19.64A1.13,1.13,0,0,1,10,16.15Zm.77-4.7v.09a.77.77,0,0,1-1.54,0v-.77A.79.79,0,0,1,10,10a1.94,1.94,0,0,0,1.07-.32,2,2,0,0,0,.71-.87,2,2,0,0,0,.11-1.11,2,2,0,0,0-1.51-1.51,2,2,0,0,0-1.12.11A1.92,1.92,0,0,0,8.4,7a1.94,1.94,0,0,0-.32,1.07.79.79,0,0,1-.77.77.76.76,0,0,1-.55-.23.77.77,0,0,1-.22-.54A3.47,3.47,0,0,1,8.5,5a3.52,3.52,0,0,1,1.89-.32,3.46,3.46,0,0,1,.38,6.81Z"/></svg>