<svg xmlns="http://www.w3.org/2000/svg" viewBox="0 0 20 20"><path d="M10.42,13.77a1.08,1.08,0,0,0-.31-.07.92.92,0,0,0-.33,0,1.1,1.1,0,0,0-.56.3,1.19,1.19,0,0,0-.31.57,1.08,1.08,0,0,0,.07.64,1.05,1.05,0,0,0,.41.5,1.09,1.09,0,0,0,.61.18h0a1.08,1.08,0,0,0,.78-.32,1.11,1.11,0,0,0,.33-.78,1.12,1.12,0,0,0-.69-1Z"/><path d="M12.07,5.56a3.33,3.33,0,0,0-1.7-.7,2.36,2.36,0,0,0-.46,0A3.27,3.27,0,0,0,7.19,6.39a3.34,3.34,0,0,0-.51,1.77.74.74,0,0,0,.22.52.7.7,0,0,0,.52.21h0a.73.73,0,0,0,.52-.21.74.74,0,0,0,.22-.52,1.78,1.78,0,0,1,.31-1,1.87,1.87,0,0,1,.82-.68,2,2,0,0,1,.53-.13,1.64,1.64,0,0,1,.54,0,1.76,1.76,0,0,1,.94.5,1.83,1.83,0,0,1,.4,2,1.83,1.83,0,0,1-.67.83A1.91,1.91,0,0,1,10,10a.73.73,0,0,0-.52.22.71.71,0,0,0-.22.52v.74a.74.74,0,0,0,.22.52.72.72,0,0,0,.52.21h0a.72.72,0,0,0,.52-.21.74.74,0,0,0,.22-.52v-.09a3.26,3.26,0,0,0,1.61-.89,3.31,3.31,0,0,0,.89-1.6,3.39,3.39,0,0,0-.1-1.84A3.35,3.35,0,0,0,12.07,5.56Z"/><path d="M10,0A10,10,0,1,0,20,10,10,10,0,0,0,10,0Zm0,18.5A8.5,8.5,0,1,1,18.5,10,8.51,8.51,0,0,1,10,18.5Z"/></svg>