<svg xmlns="http://www.w3.org/2000/svg" viewBox="0 0 18 29.33"><path d="M9.91,1.33A3,3,0,0,0,7,4.5v23a3,3,0,0,0,2.91,3.17H22.09A3,3,0,0,0,25,27.5V4.5a3,3,0,0,0-2.91-3.17Zm7.91,1.59H14.18a1.14,1.14,0,0,0-1.09,1.19A1.15,1.15,0,0,0,14.18,5.3h3.64a1.15,1.15,0,0,0,1.09-1.19A1.14,1.14,0,0,0,17.82,2.92Zm-6.91,4H21.09a1.53,1.53,0,0,1,1.46,1.59V23.53a1.53,1.53,0,0,1-1.46,1.59H10.91a1.53,1.53,0,0,1-1.46-1.59V8.47A1.53,1.53,0,0,1,10.91,6.88ZM16,29.08a1.19,1.19,0,1,0-1.09-1.19A1.14,1.14,0,0,0,16,29.08Z" transform="translate(-7 -1.33)" fill-rule="evenodd"/></svg>