<svg xmlns="http://www.w3.org/2000/svg" viewBox="0 0 28 27"><path d="M27.9,10.18a2.1,2.1,0,0,0-.69-1,2,2,0,0,0-1.13-.43l-7.42-.52L15.9,1.3a2,2,0,0,0-.75-.94A2,2,0,0,0,14,0h0a2.06,2.06,0,0,0-1.15.36,2,2,0,0,0-.75.94l-2.79,7-7.39.48a2,2,0,0,0-1.13.43,2,2,0,0,0-.68,1,2.06,2.06,0,0,0,0,1.23,2.15,2.15,0,0,0,.67,1l5.68,4.8L4.74,23.88a2.34,2.34,0,0,0,.06,1.36,2.3,2.3,0,0,0,.82,1.08,2.21,2.21,0,0,0,1.24.43,2.28,2.28,0,0,0,1.27-.35L14,22.69s0,0,0,0l6.3,4a2,2,0,0,0,1.15.32,2,2,0,0,0,1.13-.39,2.06,2.06,0,0,0,.79-2.21L21.6,17.14l5.65-4.7a2.08,2.08,0,0,0,.67-1A2.06,2.06,0,0,0,27.9,10.18Z"/></svg>