<svg xmlns="http://www.w3.org/2000/svg" viewBox="0 0 30 30"><path d="M30,15A15,15,0,1,1,15,0,15,15,0,0,1,30,15ZM15.54,11.07q-2.19.91-8.75,3.77c-.71.28-1.08.56-1.12.83,0,.46.52.64,1.3.88l.33.11a10.4,10.4,0,0,0,2.33.55,2.86,2.86,0,0,0,1.62-.6c4.09-2.76,6.2-4.16,6.33-4.18a.34.34,0,0,1,.31,0,.31.31,0,0,1,.07.27,43.25,43.25,0,0,1-3.46,3.41c-.36.33-.62.57-.67.63l-.35.35c-.72.68-1.25,1.2,0,2,.61.4,1.1.73,1.59,1.07l1.75,1.18c.18.11.34.23.51.35a2.82,2.82,0,0,0,1.87.77c.4,0,.81-.41,1-1.53.5-2.66,1.48-8.42,1.7-10.79a2.33,2.33,0,0,0,0-.59.67.67,0,0,0-.22-.41A1,1,0,0,0,21.13,9C20.57,9,19.7,9.34,15.54,11.07Z"/></svg>