<svg xmlns="http://www.w3.org/2000/svg" viewBox="0 0 32 32"><path d="M26.61,12a6.14,6.14,0,0,0-4.1-1.76v-1a6.54,6.54,0,0,0-7.15-6.48A6.87,6.87,0,0,0,9.49,9.41v.78A6.14,6.14,0,0,0,5.39,12a5.82,5.82,0,0,0-1.11,4.69l.93,7.43c.28,2.6,1.34,5.26,7.07,5.26h7.44c5.73,0,6.79-2.66,7.07-5.25l.93-7.45A5.81,5.81,0,0,0,26.61,12ZM11.35,9.41a5,5,0,0,1,4.2-4.86,4.64,4.64,0,0,1,5.1,4.62v.94h-9.3ZM16,24.77a5.05,5.05,0,1,1,5.05-5.05A5,5,0,0,1,16,24.77Z"/><path d="M16.35,17.11a1,1,0,0,0-1,1v1.44l-1.19.71a1,1,0,1,0,1,1.7l1.66-1a1,1,0,0,0,.48-.85v-2A1,1,0,0,0,16.35,17.11Z"/></svg>
