<svg xmlns="http://www.w3.org/2000/svg" viewBox="0 0 26 28"><path d="m22.76 6-.59-.32a8.88 8.88 0 0 1-1.52-1.21A6.39 6.39 0 0 1 19 1.17 4.16 4.16 0 0 1 18.88 0h-5.15v19.43a3.87 3.87 0 0 1-.66 1.87 4.33 4.33 0 0 1-1.54 1.37 4.59 4.59 0 0 1-2.13.52A4.22 4.22 0 0 1 5 19.16a4.22 4.22 0 0 1 4.35-4.08 4.67 4.67 0 0 1 1.34.19v-4.89a10.31 10.31 0 0 0-3.91.28 9.88 9.88 0 0 0-3.46 1.73 9.73 9.73 0 0 0-2.21 2.54A8.52 8.52 0 0 0 0 19a8.72 8.72 0 0 0 .55 3.19A9 9 0 0 0 2 24.56a10.23 10.23 0 0 0 2.23 2A10.22 10.22 0 0 0 9.46 28a9.85 9.85 0 0 0 3.9-.81A9.69 9.69 0 0 0 16.53 25a9.12 9.12 0 0 0 1.73-2.68 9.33 9.33 0 0 0 .62-3.06v-9.9l.9.55a12.38 12.38 0 0 0 3.07 1.19 19 19 0 0 0 3.15.4V6.72A7 7 0 0 1 22.76 6Z"/></svg>