<svg xmlns="http://www.w3.org/2000/svg" width="21" height="19" viewBox="0 0 21 19"><path d="M13.73,17.38H7.27a.82.82,0,0,0-.81.81.8.8,0,0,0,.24.57.82.82,0,0,0,.57.24h6.46a.82.82,0,0,0,.57-.24.8.8,0,0,0,.24-.57.82.82,0,0,0-.81-.81Z"/><path d="M18.58,0H2.42A2.42,2.42,0,0,0,0,2.43V13.75a2.42,2.42,0,0,0,2.42,2.43H18.58A2.42,2.42,0,0,0,21,13.75V2.43A2.42,2.42,0,0,0,18.58,0ZM3.63,12.14a1.22,1.22,0,1,1,1.22-1.22A1.22,1.22,0,0,1,3.63,12.14Zm0-5.67A1.21,1.21,0,1,1,4.85,5.26,1.21,1.21,0,0,1,3.63,6.47Zm8.08,5.67H6.87a.41.41,0,0,1-.41-.41.4.4,0,0,1,.41-.4h4.84a.41.41,0,0,1,.41.4A.42.42,0,0,1,11.71,12.14Zm5.66-1.62H6.87a.41.41,0,1,1,0-.81h10.5a.41.41,0,0,1,0,.81ZM6.46,6.07a.41.41,0,0,1,.41-.41h4.84a.41.41,0,1,1,0,.81H6.87A.4.4,0,0,1,6.46,6.07ZM17.37,4.85H6.87a.4.4,0,1,1,0-.8h10.5a.4.4,0,0,1,0,.8Z"/></svg>