<svg xmlns="http://www.w3.org/2000/svg" viewBox="0 0 32 32"><rect width="32" height="32" fill="none"/><path d="M27.75,3.12h0c-.8-.74-4-3.07-11.16-3.1,0,0-.53,0-1.38,0h0C12.63,0,7.11.46,4,3.29,1.72,5.57.92,8.93.83,13.09S.66,25,8.16,27.14v3.23s-.05,1.3.81,1.56c1,.33,1.65-.66,2.65-1.73l1.86-2.11a28.79,28.79,0,0,0,9.52-.7c1.05-.33,6.92-1.08,7.87-8.87C31.86,10.48,30.4,5.41,27.75,3.12Zm.87,14.81c-.8,6.51-5.56,6.92-6.44,7.21a27,27,0,0,1-8.2.69s-3.25,3.92-4.27,4.93a.51.51,0,0,1-.47.2c-.17,0-.22-.25-.21-.54l0-5.36c-6.37-1.76-6-8.4-5.92-11.87S3.87,6.88,5.8,5c2.61-2.36,7.3-2.68,9.48-2.69h0c.72,0,1.17,0,1.17,0,6.05,0,9,1.84,9.63,2.45C28.31,6.65,29.46,11.22,28.62,17.93Z"/><path d="M23.57,11a8.41,8.41,0,0,0-1.86-2.92,8.21,8.21,0,0,0-5.94-2.35h0a.41.41,0,0,0-.16,0,.38.38,0,0,0-.13.09A.41.41,0,0,0,15.4,6a.42.42,0,0,0,0,.15.41.41,0,0,0,.41.4,7.46,7.46,0,0,1,5.37,2.12,7.78,7.78,0,0,1,2.19,5.79.4.4,0,0,0,.4.4v0a.39.39,0,0,0,.4-.39A8.53,8.53,0,0,0,23.57,11Z"/><path d="M20.32,17a1.3,1.3,0,0,0-1.66.23l-.6.75a1.08,1.08,0,0,1-.86.33h0a7.84,7.84,0,0,1-5.27-5.28,1.06,1.06,0,0,1,.33-.86l.75-.61a1.33,1.33,0,0,0,.23-1.67,18,18,0,0,0-2.06-2.86,1.08,1.08,0,0,0-.67-.4h0a1.27,1.27,0,0,0-.81.16h0A6.2,6.2,0,0,0,8.13,8.07a2.44,2.44,0,0,0-.62,1.26,1.6,1.6,0,0,0,.07.72l0,0a17.83,17.83,0,0,0,1.61,3.46,20.06,20.06,0,0,0,3.09,4.23l0,0,.05,0,0,0,0,0A20.84,20.84,0,0,0,16.71,21a19.72,19.72,0,0,0,3.47,1.6h0a1.71,1.71,0,0,0,.53.08,2.42,2.42,0,0,0,1.47-.63,5.91,5.91,0,0,0,1.24-1.53h0a1.12,1.12,0,0,0-.24-1.49A18,18,0,0,0,20.32,17Z"/><path d="M20.94,11.76a4.61,4.61,0,0,1,.25,1.84.44.44,0,0,0,.12.28.43.43,0,0,0,.28.11l0,0a.47.47,0,0,0,.28-.12.4.4,0,0,0,.12-.29,5.54,5.54,0,0,0-1.43-4,5.83,5.83,0,0,0-4.07-1.78h-.05a.4.4,0,0,0,0,.8,5.09,5.09,0,0,1,1.92.41A5.18,5.18,0,0,1,20,10.17,4.68,4.68,0,0,1,20.94,11.76Z"/><path d="M17.09,10.81a1.94,1.94,0,0,1,2,2.11.4.4,0,0,0,.12.27.36.36,0,0,0,.28.12h0a.42.42,0,0,0,.16,0,.29.29,0,0,0,.12-.1.3.3,0,0,0,.09-.13.88.88,0,0,0,0-.16A2.73,2.73,0,0,0,17.13,10h0A.41.41,0,0,0,17.09,10.81Z"/></svg>
