<svg id="Layer_1" data-name="Layer 1" xmlns="http://www.w3.org/2000/svg" viewBox="0 0 32 32"><path d="M29.29,8.69a3,3,0,0,0-1.81-2C23.19,5,16.38,5,16,5S8.81,5,4.52,6.64A3,3,0,0,0,2.71,8.69,29.48,29.48,0,0,0,2,16a29.48,29.48,0,0,0,.71,7.31,3,3,0,0,0,1.81,2.05C8.62,27,15.05,27,15.92,27h.16c.87,0,7.3-.05,11.4-1.64a3,3,0,0,0,1.81-2.05A30,30,0,0,0,30,16,30,30,0,0,0,29.29,8.69Zm-9,7.73-6,4a.5.5,0,0,1-.26.08.58.58,0,0,1-.26-.06.55.55,0,0,1-.19-.18A.48.48,0,0,1,13.5,20V12a.48.48,0,0,1,.07-.26.55.55,0,0,1,.19-.18A.58.58,0,0,1,14,11.5a.5.5,0,0,1,.26.08l6,4a.55.55,0,0,1,.16.18.51.51,0,0,1,0,.48A.55.55,0,0,1,20.28,16.42Z"/></svg>