<svg xmlns="http://www.w3.org/2000/svg" width="51.99" height="52" viewBox="0 0 51.99 52"><path d="M39.78,17.3a1.27,1.27,0,0,0-1.18.61,4,4,0,0,0-.4,1.92v2.76a4.33,4.33,0,0,0,.37,2.07,1.3,1.3,0,0,0,1.22.68,1.28,1.28,0,0,0,1.2-.65,4.18,4.18,0,0,0,.38-2V20A4,4,0,0,0,41,18,1.26,1.26,0,0,0,39.78,17.3Z" transform="translate(0)" style="fill:none"/><path d="M21.4,17.3a1.29,1.29,0,0,0-1.18.61,4,4,0,0,0-.4,1.92v2.76a4.46,4.46,0,0,0,.38,2.07,1.31,1.31,0,0,0,1.22.68,1.26,1.26,0,0,0,1.19-.65,4.18,4.18,0,0,0,.38-2V20a4.05,4.05,0,0,0-.39-2A1.24,1.24,0,0,0,21.4,17.3Z" transform="translate(0)" style="fill:none"/><path d="M30.6,25.34a1.28,1.28,0,0,0,1.2-.65,4.18,4.18,0,0,0,.38-2V20a4.05,4.05,0,0,0-.39-2,1.25,1.25,0,0,0-1.2-.65,1.28,1.28,0,0,0-1.18.61,4,4,0,0,0-.4,1.92v2.76a4.46,4.46,0,0,0,.38,2.07A1.29,1.29,0,0,0,30.6,25.34Z" transform="translate(0)" style="fill:none"/><path d="M22.09,34a1.15,1.15,0,0,0-.9.39,1.89,1.89,0,0,0-.33,1.2,1.94,1.94,0,0,0,.33,1.19,1.19,1.19,0,0,0,1.68.15,1.06,1.06,0,0,0,.15-.15,2.18,2.18,0,0,0,.32-1.29A1.76,1.76,0,0,0,23,34.36,1.24,1.24,0,0,0,22.09,34Z" transform="translate(0)" style="fill:none"/><path d="M48.65,35.41A24.59,24.59,0,1,1,50.51,26,24.56,24.56,0,0,1,48.65,35.41Z" transform="translate(0)" style="fill:#fff"/><path d="M50,16a26,26,0,1,0,2,10A26,26,0,0,0,50,16ZM48.63,35.36A24.57,24.57,0,1,1,50.49,26,24.57,24.57,0,0,1,48.63,35.36Z" transform="translate(0)" style="fill:#50b82d"/><path d="M39.78,15.46a3.47,3.47,0,0,0-2.86,1.24,5.76,5.76,0,0,0-1,3.62v2.09a5.6,5.6,0,0,0,1,3.52,3.4,3.4,0,0,0,2.84,1.23,3.43,3.43,0,0,0,2.86-1.25,5.79,5.79,0,0,0,1-3.61V20.2a5.52,5.52,0,0,0-1-3.5A3.45,3.45,0,0,0,39.78,15.46Zm1.59,7.24a4.18,4.18,0,0,1-.38,2,1.28,1.28,0,0,1-1.2.65,1.3,1.3,0,0,1-1.22-.68,4.33,4.33,0,0,1-.37-2.07V19.83a4,4,0,0,1,.4-1.92A1.43,1.43,0,0,1,41,18a4.05,4.05,0,0,1,.39,2Z" transform="translate(0)" style="fill:#252525"/><path d="M21.4,15.46a3.47,3.47,0,0,0-2.85,1.24,5.76,5.76,0,0,0-1,3.62v2.09a5.72,5.72,0,0,0,1,3.52,3.43,3.43,0,0,0,2.85,1.23,3.43,3.43,0,0,0,2.86-1.25,5.73,5.73,0,0,0,1-3.61V20.2a5.4,5.4,0,0,0-1-3.5A3.42,3.42,0,0,0,21.4,15.46ZM23,22.7a4.18,4.18,0,0,1-.38,2,1.26,1.26,0,0,1-1.19.65,1.31,1.31,0,0,1-1.22-.68,4.46,4.46,0,0,1-.38-2.07V19.83a4,4,0,0,1,.4-1.92,1.29,1.29,0,0,1,1.18-.61,1.24,1.24,0,0,1,1.2.65A4,4,0,0,1,23,20Z" transform="translate(0)" style="fill:#252525"/><path d="M30.6,27.16a3.43,3.43,0,0,0,2.86-1.25,5.73,5.73,0,0,0,1-3.61V20.2a5.52,5.52,0,0,0-1-3.5,3.41,3.41,0,0,0-2.84-1.24,3.47,3.47,0,0,0-2.85,1.24,5.76,5.76,0,0,0-1,3.62v2.09a5.6,5.6,0,0,0,1,3.52A3.42,3.42,0,0,0,30.6,27.16ZM29,19.83a4,4,0,0,1,.4-1.92,1.28,1.28,0,0,1,1.18-.61,1.25,1.25,0,0,1,1.2.65,4.05,4.05,0,0,1,.39,2v2.7a4.18,4.18,0,0,1-.38,2,1.42,1.42,0,0,1-2,.45,1.38,1.38,0,0,1-.45-.45,4.43,4.43,0,0,1-.38-2Z" transform="translate(0)" style="fill:#252525"/><polygon points="11.64 27 13.89 27 13.89 15.61 13.65 15.61 8.95 17.3 8.95 19.13 11.64 18.3 11.64 27" style="fill:#252525"/><polygon points="32.37 38.62 33.3 38.62 36.1 30.89 35.17 30.89 32.37 38.62" style="fill:#252525"/><path d="M26.13,30.71a.72.72,0,0,0-.5.18.71.71,0,0,0-.17.46.66.66,0,0,0,.17.44.68.68,0,0,0,.5.18.65.65,0,0,0,.5-.18.66.66,0,0,0,.17-.44.6.6,0,0,0-.17-.46A.72.72,0,0,0,26.13,30.71Z" transform="translate(0)" style="fill:#252525"/><polygon points="27.58 33.66 29.27 33.66 29.27 38.01 30.46 38.01 30.46 33.66 32.17 33.66 32.17 32.72 27.58 32.72 27.58 33.66" style="fill:#252525"/><path d="M38.2,34a1.09,1.09,0,0,1,.89-.42,1,1,0,0,1,.74.29,1.1,1.1,0,0,1,.31.75h1.12a2,2,0,0,0-.63-1.44,2.2,2.2,0,0,0-1.53-.55,2.25,2.25,0,0,0-1.76.73,2.8,2.8,0,0,0-.64,1.94v.12a2.84,2.84,0,0,0,.65,2,2.46,2.46,0,0,0,2.82.47,2,2,0,0,0,.78-.67,1.81,1.81,0,0,0,.31-.93H40.14a.91.91,0,0,1-.31.64,1.17,1.17,0,0,1-.74.26,1.08,1.08,0,0,1-.9-.42,2.29,2.29,0,0,1-.3-1.28V35.3A2.12,2.12,0,0,1,38.2,34Z" transform="translate(0)" style="fill:#252525"/><path d="M22.33,33a2.28,2.28,0,0,0-1.66.73,1.9,1.9,0,0,1,1.65-1.67,3.79,3.79,0,0,0,1.14-.36,1.18,1.18,0,0,0,.49-.5,1.7,1.7,0,0,0,.17-.8h-1a.53.53,0,0,1-.2.42,2.42,2.42,0,0,1-.87.29,2.71,2.71,0,0,0-1.81,1.24,5.27,5.27,0,0,0-.6,2.72v.34a2.75,2.75,0,0,0,.67,2,2.53,2.53,0,0,0,3.52,0,2.58,2.58,0,0,0,.66-1.85h0a2.58,2.58,0,0,0-.61-1.82A2,2,0,0,0,22.33,33ZM23,36.74a1.18,1.18,0,0,1-1.67.15.75.75,0,0,1-.16-.15,2,2,0,0,1-.33-1.19,1.89,1.89,0,0,1,.33-1.2,1.15,1.15,0,0,1,.9-.39,1.2,1.2,0,0,1,.93.4,1.71,1.71,0,0,1,.32,1.09A2.18,2.18,0,0,1,23,36.74Z" transform="translate(0)" style="fill:#252525"/><polygon points="14.85 36.35 12.8 30.89 11.2 30.89 11.2 38.01 12.43 38.01 12.43 35.66 12.3 32.53 14.4 38.01 15.28 38.01 17.38 32.52 17.26 35.66 17.26 38.01 18.49 38.01 18.49 30.89 16.89 30.89 14.85 36.35" style="fill:#252525"/><rect x="25.53" y="32.72" width="1.19" height="5.28" style="fill:#252525"/></svg>