<svg xmlns="http://www.w3.org/2000/svg" width="52" height="52" viewBox="0 0 52 52"><defs/><path d="M22.08 34a1.12 1.12 0 00-.9.39 1.82 1.82 0 00-.33 1.19 1.89 1.89 0 00.33 1.19 1.08 1.08 0 00.91.43 1.1 1.1 0 00.92-.43 2.19 2.19 0 00.32-1.29 1.71 1.71 0 00-.33-1.12 1.16 1.16 0 00-.92-.36zM35.19 25.34a1.26 1.26 0 001.19-.65 4.2 4.2 0 00.39-2V20a4.07 4.07 0 00-.39-2 1.45 1.45 0 00-2.39 0 4 4 0 00-.4 1.92v2.76a4.4 4.4 0 00.41 1.98 1.3 1.3 0 001.19.68zM26 25.34a1.29 1.29 0 001.2-.65 4.34 4.34 0 00.38-2V20a4.07 4.07 0 00-.39-2 1.45 1.45 0 00-2.39 0 3.89 3.89 0 00-.39 1.92v2.76a4.42 4.42 0 00.37 2.07 1.31 1.31 0 001.22.59z" fill="#fff"/><path d="M24.58 1.54l-1.08.09A24.56 24.56 0 001.63 23.47c0 .36-.06.72-.09 1.08v2.85c0 .36.05.71.09 1.07a24.55 24.55 0 0021.84 21.9l1.08.09h1.42a24.5 24.5 0 000-49h-1.25zM13.52 17.3l4.71-1.69h.25V27h-2.26v-8.7l-2.7.83zm5 20.7h-1.27v-2.34l.12-3.14-2.1 5.48h-.88l-2.1-5.47.13 3.13V38h-1.23v-7.11h1.6l2.05 5.45 2-5.45h1.6zm6-2.46a2.59 2.59 0 01-.66 1.85 2.52 2.52 0 01-3.52 0 2.77 2.77 0 01-.67-2v-.34a5.23 5.23 0 01.6-2.71 2.65 2.65 0 011.81-1.24 2.62 2.62 0 00.87-.29.53.53 0 00.2-.42h1a1.69 1.69 0 01-.17.8 1.24 1.24 0 01-.49.5 4 4 0 01-1.14.36 1.88 1.88 0 00-1.65 1.67 2.22 2.22 0 011.62-.72 2 2 0 011.59.67 2.54 2.54 0 01.61 1.81zM26.71 38h-1.19v-5.28h1.19zm-.09-6.21a.68.68 0 01-.5.18.67.67 0 01-.5-.18.68.68 0 010-.9.67.67 0 01.5-.18.68.68 0 01.5.18.68.68 0 010 .9zm5.54 1.87h-1.71V38h-1.19v-4.34h-1.69v-.94h4.59zm1.13 5h-.93l2.8-7.72h.93zm7.33-5.44a2 2 0 01.63 1.44h-1.12a1.11 1.11 0 00-.31-.75 1 1 0 00-.74-.29 1.05 1.05 0 00-.89.42 2.1 2.1 0 00-.31 1.27v.19a2.22 2.22 0 00.3 1.28 1.06 1.06 0 00.9.42 1.09 1.09 0 00.74-.26.88.88 0 00.31-.64h1.12a1.72 1.72 0 01-.31.92 2 2 0 01-.78.68 2.4 2.4 0 01-1.06.25 2.25 2.25 0 01-1.76-.72 2.82 2.82 0 01-.65-2v-.12a2.78 2.78 0 01.64-1.93 2.22 2.22 0 011.76-.73 2.13 2.13 0 011.53.52zm-9.28-12.9a5.7 5.7 0 011-3.62 3.45 3.45 0 012.85-1.23A3.45 3.45 0 0138 16.7a5.55 5.55 0 011 3.5v2.1a5.79 5.79 0 01-1 3.61 3.42 3.42 0 01-2.86 1.25 3.45 3.45 0 01-2.85-1.23 5.61 5.61 0 01-1-3.52zm-2.51-3.62a5.61 5.61 0 011 3.5v2.1a5.79 5.79 0 01-1 3.61A3.41 3.41 0 0126 27.16a3.41 3.41 0 01-2.84-1.23 5.55 5.55 0 01-1-3.52v-2.09a5.76 5.76 0 011-3.62A3.45 3.45 0 0126 15.47a3.45 3.45 0 012.83 1.23z" fill="#fff"/><path d="M26 0v1.5a24.5 24.5 0 010 49V52a26 26 0 000-52zM1.63 28.54a24.53 24.53 0 0021.84 21.83A24.55 24.55 0 011.63 28.54zM23.47 1.63A24.52 24.52 0 001.63 23.47 24.56 24.56 0 0123.47 1.63z" fill="#e7e7e7"/><path d="M24.75 50.47h-.17l-1.08-.09A24.53 24.53 0 011.63 28.54c0-.36-.06-.71-.09-1.07v-.18-1.25-1.25-.17c0-.36.05-.72.09-1.08A24.52 24.52 0 0123.47 1.63l1.08-.09h1.42V0h-1.52l-1.1.13A26 26 0 00.14 23.31c0 .38-.06.75-.08 1.13v3.04c0 .38.05.75.08 1.13a26 26 0 0023.17 23.25l1.13.08h1.52V50.5l-1.21-.03z" fill="#50b82d"/><path d="M22.15 20.32v2.09a5.55 5.55 0 001 3.52A3.41 3.41 0 0026 27.16a3.41 3.41 0 002.86-1.25 5.79 5.79 0 001-3.61v-2.1a5.61 5.61 0 00-1-3.5A3.45 3.45 0 0026 15.47a3.45 3.45 0 00-2.85 1.23 5.76 5.76 0 00-1 3.62zm2.26-.49a3.89 3.89 0 01.39-1.92 1.45 1.45 0 012.39 0 4.07 4.07 0 01.39 2.09v2.7a4.34 4.34 0 01-.38 2 1.29 1.29 0 01-1.2.65 1.31 1.31 0 01-1.22-.68 4.42 4.42 0 01-.37-2.07zM35.19 27.16a3.42 3.42 0 002.86-1.25 5.79 5.79 0 001-3.61v-2.1a5.55 5.55 0 00-1-3.5 3.45 3.45 0 00-2.85-1.23 3.45 3.45 0 00-2.85 1.23 5.7 5.7 0 00-1 3.62v2.09a5.61 5.61 0 001 3.52 3.45 3.45 0 002.84 1.23zm-1.6-7.33a4 4 0 01.4-1.92 1.45 1.45 0 012.39 0 4.07 4.07 0 01.39 2.09v2.7a4.2 4.2 0 01-.39 2 1.26 1.26 0 01-1.19.65 1.3 1.3 0 01-1.19-.69 4.4 4.4 0 01-.38-2.07zM16.22 27h2.26V15.61h-.25l-4.71 1.69v1.83l2.7-.83V27zM32.36 38.61h.93l2.8-7.72h-.93l-2.8 7.72zM27.57 33.66h1.69V38h1.19v-4.34h1.71v-.94h-4.59v.94zM14.84 36.34l-2.05-5.45h-1.6V38h1.23v-2.34l-.13-3.13 2.1 5.47h.88l2.1-5.48-.12 3.14V38h1.23v-7.11h-1.6l-2.04 5.45zM26.12 30.71a.67.67 0 00-.5.18.68.68 0 000 .9.67.67 0 00.5.18.68.68 0 00.5-.18.68.68 0 000-.9.68.68 0 00-.5-.18zM25.52 32.72h1.19V38h-1.19zM22.32 33a2.22 2.22 0 00-1.66.73 1.88 1.88 0 011.65-1.67 4 4 0 001.14-.36 1.24 1.24 0 00.49-.5 1.69 1.69 0 00.17-.8h-1a.53.53 0 01-.2.42 2.62 2.62 0 01-.87.29 2.65 2.65 0 00-1.81 1.24 5.23 5.23 0 00-.6 2.71v.34a2.77 2.77 0 00.67 2 2.52 2.52 0 003.52 0 2.59 2.59 0 00.66-1.85 2.54 2.54 0 00-.61-1.81 2 2 0 00-1.55-.74zm.68 3.73a1.1 1.1 0 01-.92.43 1.08 1.08 0 01-.91-.43 1.89 1.89 0 01-.33-1.19 1.82 1.82 0 01.33-1.19 1.12 1.12 0 01.9-.39 1.16 1.16 0 01.93.4 1.71 1.71 0 01.32 1.08 2.19 2.19 0 01-.32 1.29zM36.69 35.28v.12a2.82 2.82 0 00.65 2 2.25 2.25 0 001.76.72 2.4 2.4 0 001.06-.25 2 2 0 00.78-.68 1.72 1.72 0 00.31-.92h-1.12a.88.88 0 01-.31.64 1.09 1.09 0 01-.74.26 1.06 1.06 0 01-.9-.42 2.22 2.22 0 01-.3-1.28v-.19a2.1 2.1 0 01.31-1.28 1.05 1.05 0 01.89-.42 1 1 0 01.74.29 1.11 1.11 0 01.31.75h1.12a2 2 0 00-.63-1.44 2.13 2.13 0 00-1.53-.55 2.22 2.22 0 00-1.76.73 2.78 2.78 0 00-.64 1.92z" fill="#252525"/></svg>