<svg xmlns="http://www.w3.org/2000/svg" width="52" height="52" viewBox="0 0 52 52"><defs/><path d="M30.59 25.34a1.28 1.28 0 001.2-.65 4.34 4.34 0 00.38-2V20a4.07 4.07 0 00-.39-2 1.27 1.27 0 00-1.2-.65 1.28 1.28 0 00-1.18.61 4 4 0 00-.4 1.92v2.76a4.4 4.4 0 00.38 2.07 1.29 1.29 0 001.21.63zM22.08 34a1.12 1.12 0 00-.9.39 1.82 1.82 0 00-.33 1.19 1.89 1.89 0 00.33 1.19 1.08 1.08 0 00.91.43 1.1 1.1 0 00.92-.43 2.19 2.19 0 00.32-1.29 1.71 1.71 0 00-.33-1.12 1.16 1.16 0 00-.92-.36z" fill="#fff"/><path d="M1.56 27.64l.06.82.06.5.09.7c0 .19.07.38.1.57l.11.62.15.65.12.51.2.73.12.43.25.73c.09.24.08.27.13.41l.26.65c.09.22.11.31.18.46.27.66.58 1.3.9 1.92l.17.32c.3.55.63 1.09 1 1.62l.42.63a18.38 18.38 0 001.51 1.96c.32.38.66.75 1 1.11s.43.44.65.65.73.69 1.11 1l.7.57c.42.33.84.64 1.28.94l.6.41c.53.34 1.08.67 1.64 1l.3.15c.63.33 1.27.64 1.92.91l.5.2.62.23.44.16.7.23.47.13.68.19.55.13.62.14.64.11.55.1.72.09.48.06.82.06H26.02A24.5 24.5 0 101.5 26v1.24zm23 7.9a2.59 2.59 0 01-.66 1.85 2.52 2.52 0 01-3.52 0 2.77 2.77 0 01-.67-2v-.34a5.23 5.23 0 01.6-2.71 2.65 2.65 0 011.81-1.24 2.62 2.62 0 00.87-.29.53.53 0 00.2-.42h1a1.69 1.69 0 01-.17.8 1.24 1.24 0 01-.49.5 4 4 0 01-1.14.36 1.88 1.88 0 00-1.65 1.67 2.22 2.22 0 011.58-.72 2 2 0 011.59.67 2.54 2.54 0 01.61 1.81zM26.71 38h-1.19v-5.28h1.19zm5.45-4.34h-1.71V38h-1.19v-4.34h-1.69v-.94h4.59zm4.53 1.62a2.78 2.78 0 01.64-1.93 2.22 2.22 0 011.76-.73 2.13 2.13 0 011.53.55 2 2 0 01.63 1.44h-1.12a1.11 1.11 0 00-.31-.75 1 1 0 00-.74-.29 1.05 1.05 0 00-.89.42 2.1 2.1 0 00-.31 1.27v.19a2.22 2.22 0 00.3 1.28 1.06 1.06 0 00.9.42 1.09 1.09 0 00.74-.26.88.88 0 00.31-.64h1.12a1.72 1.72 0 01-.31.92 2 2 0 01-.78.68 2.4 2.4 0 01-1.06.25 2.25 2.25 0 01-1.76-.72 2.82 2.82 0 01-.65-2zm-.6-4.39l-2.8 7.72h-.93l2.8-7.72zm-9.35-10.57a5.7 5.7 0 011-3.62 3.45 3.45 0 012.85-1.23 3.41 3.41 0 012.84 1.23 5.55 5.55 0 011 3.5v2.1a5.79 5.79 0 01-1 3.61 3.41 3.41 0 01-2.86 1.25 3.43 3.43 0 01-2.84-1.23 5.61 5.61 0 01-1-3.52zm-1.12 10.57a.67.67 0 01.5-.18.68.68 0 01.5.18.68.68 0 010 .9.68.68 0 01-.5.18.67.67 0 01-.5-.18.68.68 0 010-.9zm-3-9.15a1.73 1.73 0 00-1.35-.51 2 2 0 00-1.3.42l-.22.2-1.8-.44.66-5.78H25v1.88h-4.57L20.15 20a3.64 3.64 0 011.71-.43 3.31 3.31 0 012.55 1 4 4 0 01.92 2.82 4.17 4.17 0 01-.47 2 3.26 3.26 0 01-1.33 1.35 4.17 4.17 0 01-2.05.48 4.41 4.41 0 01-1.91-.42 3.44 3.44 0 01-1.4-1.18 3.18 3.18 0 01-.54-1.72h2.24a1.69 1.69 0 00.49 1.1 1.61 1.61 0 001.12.39 1.41 1.41 0 001.18-.55 2.61 2.61 0 00.41-1.56 2.12 2.12 0 00-.48-1.54zm-11.4 9.15h1.6l2.05 5.45 2-5.45h1.6V38h-1.22v-2.34l.12-3.14-2.1 5.48h-.88l-2.1-5.47.13 3.13V38h-1.23z" fill="#fff"/><path d="M8.68 43.32c.1.11.23.21.34.31l-.65-.65.31.34zM26 0A26 26 0 000 26h1.5A24.5 24.5 0 1126 50.5V52a26 26 0 000-52zM16.62 48.64l.45.17-.5-.2zM3.36 35.38c-.07-.15-.12-.3-.18-.46z" fill="#e7e7e7"/><path d="M24.76 50.47h-.4l-.82-.06-.48-.06-.72-.09-.55-.1-.64-.16-.62-.14-.53-.11-.68-.19-.47-.13-.7-.23-.46-.2-.62-.23-.45-.17h-.05c-.65-.27-1.29-.58-1.92-.91l-.3-.15a21.1 21.1 0 01-1.64-1l-.6-.41c-.44-.3-.86-.61-1.28-.94l-.7-.57q-.57-.49-1.11-1c-.11-.1-.24-.2-.34-.31l-.31-.34a17.27 17.27 0 01-1.58-1.82c-.33-.41-.64-.82-.93-1.25q-.22-.31-.42-.63c-.34-.53-.67-1.07-1-1.62l-.17-.32c-.32-.62-.63-1.26-.9-1.92L3.21 35l-.26-.65-.13-.41-.25-.73-.12-.43-.2-.73-.12-.51-.13-.69c0-.21-.07-.41-.11-.62l-.1-.57-.11-.66-.06-.5-.06-.82v-.4-1.24H0v1.75c0 .15 0 .57.06.86s0 .36.07.54 0 .49.09.74.07.41.11.61l.11.64.16.7.12.54.22.77.13.45.25.78.15.44.27.69.17.44c.06.14 0 0 0 0 .29.7.62 1.37 1 2l.18.34a40.77 40.77 0 001.44 2.39 25.65 25.65 0 001.61 2.08c.35.41.71.8 1.08 1.19.11.11.21.24.33.35l.35.33a23.93 23.93 0 001.94 1.69c.43.34.88.67 1.33 1l.67.44c.56.36 1.13.71 1.72 1l.44.2c.67.35 1.34.68 2 1h.06l.46.18.67.26.44.15.78.25.45.13.77.22.54.12.7.16.63.11.62.11.74.09.54.07c.29 0 .57.05.86.06h1.75V50.5c-.42 0-.84-.01-1.25-.03z" fill="#50b82d"/><path d="M30.59 27.16a3.41 3.41 0 002.86-1.25 5.79 5.79 0 001-3.61v-2.1a5.55 5.55 0 00-1-3.5 3.41 3.41 0 00-2.84-1.23 3.45 3.45 0 00-2.85 1.23 5.7 5.7 0 00-1 3.62v2.09a5.61 5.61 0 001 3.52 3.43 3.43 0 002.83 1.23zM29 19.83a4 4 0 01.4-1.92 1.28 1.28 0 011.18-.61 1.27 1.27 0 011.2.65 4.07 4.07 0 01.39 2.05v2.7a4.34 4.34 0 01-.38 2 1.28 1.28 0 01-1.2.65 1.29 1.29 0 01-1.21-.68 4.4 4.4 0 01-.38-2.08zM21.48 25.34a1.61 1.61 0 01-1.12-.34 1.69 1.69 0 01-.49-1.11h-2.24a3.18 3.18 0 00.54 1.72 3.44 3.44 0 001.4 1.18 4.41 4.41 0 001.91.42 4.17 4.17 0 002.05-.48 3.26 3.26 0 001.33-1.35 4.17 4.17 0 00.47-2 4 4 0 00-.92-2.82 3.31 3.31 0 00-2.55-1 3.64 3.64 0 00-1.71.43l.28-2.44H25v-1.92h-6.42l-.66 5.78 1.8.44.22-.2a2 2 0 011.3-.42 1.73 1.73 0 011.35.51 2.12 2.12 0 01.48 1.49 2.61 2.61 0 01-.41 1.56 1.41 1.41 0 01-1.18.55zM26.12 32a.68.68 0 00.5-.18.68.68 0 000-.9.68.68 0 00-.5-.18.67.67 0 00-.5.18.68.68 0 000 .9.67.67 0 00.5.18zM33.29 38.61l2.8-7.72h-.93l-2.8 7.72h.93zM12.42 35.66l-.13-3.13 2.1 5.47h.88l2.1-5.48-.12 3.14V38h1.23v-7.11h-1.6l-2.04 5.45-2.05-5.45h-1.6V38h1.23v-2.34zM39.1 38.1a2.4 2.4 0 001.06-.25 2 2 0 00.78-.68 1.72 1.72 0 00.31-.92h-1.12a.88.88 0 01-.31.64 1.09 1.09 0 01-.74.26 1.06 1.06 0 01-.9-.42 2.22 2.22 0 01-.3-1.28v-.19a2.1 2.1 0 01.31-1.26 1.05 1.05 0 01.89-.42 1 1 0 01.74.29 1.11 1.11 0 01.31.75h1.12a2 2 0 00-.63-1.44 2.13 2.13 0 00-1.53-.55 2.22 2.22 0 00-1.76.73 2.78 2.78 0 00-.64 1.93v.12a2.82 2.82 0 00.65 2 2.25 2.25 0 001.76.69zM27.57 33.66h1.69V38h1.19v-4.34h1.71v-.94h-4.59v.94zM25.52 32.72h1.19V38h-1.19zM22.32 33a2.22 2.22 0 00-1.66.73 1.88 1.88 0 011.65-1.67 4 4 0 001.14-.36 1.24 1.24 0 00.49-.5 1.69 1.69 0 00.17-.8h-1a.53.53 0 01-.2.42 2.62 2.62 0 01-.87.29 2.65 2.65 0 00-1.81 1.24 5.23 5.23 0 00-.6 2.71v.34a2.77 2.77 0 00.67 2 2.52 2.52 0 003.52 0 2.59 2.59 0 00.66-1.85 2.54 2.54 0 00-.61-1.81 2 2 0 00-1.55-.74zm.68 3.73a1.1 1.1 0 01-.92.43 1.08 1.08 0 01-.91-.43 1.89 1.89 0 01-.33-1.19 1.82 1.82 0 01.33-1.19 1.12 1.12 0 01.9-.39 1.16 1.16 0 01.93.4 1.71 1.71 0 01.32 1.08 2.19 2.19 0 01-.32 1.29z" fill="#252525"/></svg>