<svg xmlns="http://www.w3.org/2000/svg" viewBox="0 0 192 192"><defs/><path d="M134.19 13.75a92.59 92.59 0 00-10.43-1.29l-12.22.95 19.12 7 18.54-.53c-1.97-2.43-7.35-4.66-15.01-6.13zM66.19 19.5l9.41.25-4.1-5.06c-2.18 1.22-4.37 2.85-5.31 4.81zM98.76 28.08l-7-.16a51.92 51.92 0 006.53 1.78zM11.56 38.44v.84c0 .31.11.52.11.83a6.09 6.09 0 001.46 2.81 9.8 9.8 0 002.81 2.19 9 9 0 002.36.82l.36-.94-1.75-6.83L11.6 38c-.01.16-.04.3-.04.44zM115 19.2h1.48c3.67 0 6.62.63 7 1.47h1.44l-13.33-4.9zM123.74 10.33l4.17-.32a123.37 123.37 0 00-21.9-.1l.65.67a109.43 109.43 0 0117.08-.25zM130.81 107.45c-1.93.17-3.9.27-5.9.27h-.11a67 67 0 01-13.12-1.34l6.25 12.62h6.63zM30.15 40.29l-3.24-.72 2.16 2.93a5.11 5.11 0 00.41-.62 6 6 0 00.67-1.59zM123.22 21.14a.64.64 0 01.23.42c0 .63-1.4 1.16-3.51 1.45l5.51 3.55 16.79.39-16-5.86-2.69-.09v.35a1.45 1.45 0 00-.33-.21z" fill="none"/><path d="M95.63 120.85a1.65 1.65 0 01.8-1.58 1.73 1.73 0 01.37-.16h.15a2.09 2.09 0 01.51-.07h17.71l-6.28-13.17a77.12 77.12 0 01-10.79-3.31L86 127.72h33.77l2.72-5h-25a1.87 1.87 0 01-1.86-1.87zM21 30.52a9 9 0 00-2.91.42 20.05 20.05 0 00-2.71 1.15 8 8 0 00-2.81 2.81 7.53 7.53 0 00-.71 1.55l4.82 1-.68-2.66 5.41.16.41-4.41zM28.13 30.32h.1a10.78 10.78 0 013.34 3.54 8.59 8.59 0 011.25 4.48v.5l1.44.06v-.56c0-5-4-9.2-9.44-10.56l-.32.9.3.07a9.12 9.12 0 013.33 1.57z" fill="none"/><path d="M30.42 38.34a6.52 6.52 0 00-.94-3.44 9.18 9.18 0 00-2.6-2.71h-.11a6.08 6.08 0 00-2.6-1.25c-.14-.05-.29-.08-.44-.12L22.27 35h1.27l2.62 3.55 4.24.18.02-.39zM127.75 119h17.63l-6.26-12.82q-2.77.63-5.7 1zM117.51 33.52c3.49 0 7-.19 10.38-.51a612.12 612.12 0 01-4-4.36l-6.4-.14zM117.51 26.38l4.44.1a158.38 158.38 0 00-3.11-3.35l-1.33.08zM109.28 21.56a.45.45 0 01.11-.27V21l-6.55.21-1.31 4.79 13.79.31v-3.1c-3.45-.11-6.04-.79-6.04-1.65zM83.72 22.37a7 7 0 003.2 3.31l12.42.32 1.27-4.65-17 .58a2.46 2.46 0 00.11.44zM150 21.82l-17-.53 13.19 4.84c1.91-1.04 3.87-2.54 3.81-4.31zM135.88 32A63.5 63.5 0 00147 29.18l-18.18-.41 5.36 3.45 1.7-.22zM100.1 31.22a1.06 1.06 0 01-1.23.76 41.87 41.87 0 01-12.54-4.19h-1.52l.89 1.1a65 65 0 009.94 2.81c2.74.53 5.4.93 8.13 1.23 3.74.4 7.63.6 11.55.63v-5.1L101 28.13zM114.17 19.26c-2.47-1.6-5.45-3.46-8.53-5.39l-.79.06-1.8 6.55 6.36.17c.16-.65 2.08-1.19 4.76-1.39zM88.09 13.1l6.52-.51a66.6 66.6 0 016.85-1.33l-1.18-.74a72.45 72.45 0 00-12.19 2.58zM95 14.7a36.13 36.13 0 00-7.17 2.6 10.57 10.57 0 00-3.6 2.7l16.63.44 1.73-6.31zM65.92 22.81c1.47 4.32 9.3 8.42 21.16 11.15l-2.69-3.33a26.75 26.75 0 01-6-3.21 1.05 1.05 0 01-.36-1.2 1 1 0 011-.72h1.18l-2.76-3.42c-4 .13-8 .25-11.68.35.09.15.11.26.15.38zM83.05 25.59h.32A6.6 6.6 0 0181.7 23a5.1 5.1 0 01-.21-1h-1.32z" fill="none"/><path d="M133.42 107.16q2.93-.37 5.7-1v-.06q-2.75.61-5.64 1zM141 105.64v.06c1.75-.44 3.44-1 5.09-1.53l-.08-.09a69.01 69.01 0 01-5.01 1.56zM130.81 107.45q-2.94.28-6 .32h.07c2.03-.05 4-.15 5.93-.32z" fill="#6cb52d"/><path d="M146 104.08a29.88 29.88 0 01-4.55-6.81 64.87 64.87 0 01-19.45 3c-11 .11-26.25-3.64-34.79-9.27a53.09 53.09 0 01-18.28-20.5l-.28-.5C71.15 79.18 78 90.63 90 98.45a42.07 42.07 0 005.93 3.12l-14.24 26.15H66.47a2.59 2.59 0 00-.63.09h-.11a2.4 2.4 0 00-1 .63 1.09 1.09 0 00-.13.17 1 1 0 00-.12.17 2.53 2.53 0 00-.18.27h1.35a.71.71 0 01.73-.73h84.07a.71.71 0 01.73.73h1.67l-.06-.1a1.48 1.48 0 00-.16-.27 2.1 2.1 0 00-.92-.77h-.11a1.23 1.23 0 00-.29-.09 2.43 2.43 0 00-.55-.08h-27.21l2.4-5 1.3-2.71H168a2 2 0 00-1-.85l-.17-.07h-.18a1.83 1.83 0 00-.46-.07h-18.7L141 105.7v-.06c1.68-.45 3.36-.98 5-1.56zM117.93 119l-6.25-12.59a67 67 0 0013.12 1.34q3.06 0 6-.32L124.56 119zm4.6 3.75l-2.72 5H86l12.11-25.23a77.12 77.12 0 0010.79 3.31l6.32 13.17H97.51a2.09 2.09 0 00-.51 0h-.15a1.53 1.53 0 00-.37.16 1.39 1.39 0 00-.59.74H124zm16.59-16.57l6.26 12.82h-17.63l5.67-11.81v-.06q2.9-.39 5.64-1z" fill="#158e30"/><path d="M118.87 67.42c-.1.83-.18 1.67-.25 2.51 0-.42.08-.84.13-1.26l.12-1.25zM119.24 64.9a55.7 55.7 0 015-15.52c17.27 3.53 30.24 14 32.31 26.91A92.94 92.94 0 00171.82 72c-1.93-16-20.09-28.72-42.92-30.11a54 54 0 00-9.66 23.01zm49 5.63a65.8 65.8 0 01-8.33 3.23c-2.4-12.71-15.11-23-32.09-26.88.53-.73.94-1.46 1.46-2.08 20 1.25 36.15 11.98 38.96 25.73zM155.64 87.33c-1.9 5.56-5.89 10.54-11.36 14.56a35.14 35.14 0 01-5.59-12.8 35.21 35.21 0 002.79 8.18 29.88 29.88 0 004.55 6.81l.08.09.09.11c11.55-4.16 20.37-11.53 24-20.4a112 112 0 01-14.56 3.45zm2 2c2.5-.62 5-1.46 7.4-2.29-3.65 5.83-9.9 10.63-17.72 13.85a34.6 34.6 0 0010.3-11.61z" fill="#d4edfc"/><path d="M159.91 73.76a65.8 65.8 0 008.33-3.23c-2.81-13.75-19-24.48-39-25.73-.52.62-.93 1.35-1.46 2.08 17.02 3.85 29.73 14.17 32.13 26.88zM165 87c-2.4.83-4.9 1.67-7.4 2.29a34.6 34.6 0 01-10.32 11.56c7.84-3.23 14.09-8.03 17.72-13.85z" fill="#fff"/><path d="M118.45 74.46v-.2c0-1.11 0-2.31.1-3.42 0-.72.1-1.43.17-2.14 0 .42-.09.84-.13 1.26-.14 1.5-.24 3-.28 4.56 0 1 0 2 .1 3-.04-.97.03-2.01.04-3.06zM124.28 49.38a55.7 55.7 0 00-5 15.52c1.11-.09 2.31 0 2.81-.1 1.35-.2.84.89 1 2.48a9.91 9.91 0 011.77-.58 4.1 4.1 0 000-1.11 5.37 5.37 0 01-3-3.6c-1-2.81-1-5.28 1.61-5.07a3.67 3.67 0 012.14-.87c2.08-.21 3.43 2.29 4.47.41.33.52 1.16 2.18-.1 3 .13.27.27.57.4.89l.1.25c.73 1.88-.1 2.5-.21 3.44s.42 1.77-1 2.08a4.64 4.64 0 01-.8.12c0 .1.06.21.07.3h-.07a4.7 4.7 0 012.25 1.09c.73.62 1 6 1.36 6.66.88 1.19 2.14 2.74 3 4.05a117.64 117.64 0 0021.52-2.14c-2.08-12.77-15.05-23.29-32.32-26.82zM144.28 101.89c5.47-4 9.46-9 11.36-14.56a129.89 129.89 0 01-16.95 1.76 35.14 35.14 0 005.59 12.8z" fill="#a1daf8"/><path d="M33.05 42.9a1.06 1.06 0 00.36 1.45 1 1 0 00.55.16 1.07 1.07 0 00.91-.52 10.64 10.64 0 001.06-2.47l-2.1-.43a8.6 8.6 0 01-.78 1.81zM21 25.19a15.09 15.09 0 00-3.92.45 1.07 1.07 0 00-.71 1.36 1.06 1.06 0 001.31.74 13 13 0 013.32-.42h1.14c.08-.74.16-1.44.25-2.11L21 25.19zM34.25 38.34v.56l2.12.09v-.65c0-5.92-4.58-10.93-10.86-12.57l-.71 2c5.46 1.37 9.45 5.58 9.45 10.57z" fill="#d4edfc"/><path d="M26.77 32.19h.11a9.18 9.18 0 012.6 2.71 6.52 6.52 0 01.94 3.44v.39l2.38.11v-.5a8.59 8.59 0 00-1.25-4.48 10.78 10.78 0 00-3.34-3.54h-.1a9.12 9.12 0 00-3.34-1.57l-.3-.07-.76 2.14c.15 0 .3.07.44.12a6.08 6.08 0 012.62 1.25zM12.61 34.9a8 8 0 012.81-2.81 20.05 20.05 0 012.71-1.15 9 9 0 012.87-.42h.82l.22-2.26c-.35 0-.7-.05-1-.05a10.08 10.08 0 00-3.54.63 11.27 11.27 0 00-3.23 1.46 10.34 10.34 0 00-3.54 3.54 9.29 9.29 0 00-1 2.15l2.15.44a7.53 7.53 0 01.73-1.53zM29.48 41.88a5.11 5.11 0 01-.41.62l1.4 1.89a8.3 8.3 0 001-1.36 10.81 10.81 0 001-2.24l-2.29-.5a6 6 0 01-.7 1.59zM15.94 45.11a9.8 9.8 0 01-2.81-2.19 6.09 6.09 0 01-1.46-2.81c0-.31-.11-.52-.11-.83v-.84-.43L9.41 38v.49a4 4 0 000 1.15 4.55 4.55 0 00.2 1.14 7.9 7.9 0 00.81 2l-2.5-2.92a1.06 1.06 0 00-1.92.87 13.22 13.22 0 007.8 9.21 1.11 1.11 0 00.43.09 1 1 0 00.85-.43 1.07 1.07 0 000-1.33l-2.15-2.52a14.18 14.18 0 002.18 1.44 16.11 16.11 0 002.37.91l.82-2.17a9 9 0 01-2.36-.82z" fill="#d4edfc"/><path d="M21.45 35h.82l1.46-4.15.76-2.14.32-.9.71-2 1-3A1.49 1.49 0 0025.11 21a1.92 1.92 0 00-2.19 1.36c-.18.76-.34 1.74-.49 2.85a82.8 82.8 0 00-.25 2.11c0 .31-.07.61-.1.92l-.22 2.26-.41 4.5zM16.91 38.16l-.19-.73-4.82-1L9.75 36l-7.46-1.52A1.85 1.85 0 00.1 35.73c-.2.84.42 1.67 1.57 1.77 1.81.23 4.67.35 7.74.45l2.19.05zM18.66 45l-.36.94-.82 2.17a55.29 55.29 0 00-2 6c-.21.73.52 1.56 1.46 1.66a1.94 1.94 0 002.19-1.25l.6-5.16zM32.78 38.84l-2.38-.11-4.24-.18.75 1 3.24.72 2.29.5 1.39.3 2.1.43c1.53.3 2.9.54 4 .67a1.85 1.85 0 002.19-1.25 1.56 1.56 0 00-1.46-1.77L36.34 39l-2.12-.09z" fill="#3d3e3e"/><path d="M31.91 56.4l-6-1.51z" fill="#6cb52d"/><path d="M78.13 50.11C83.24 47.3 89 45.94 95.42 44.9c-23.75.73-49.69 1.67-67.71 2.08-2.92.11-3.33 1.67.52 1.78 17.5.52 32.61.93 49.9 1.35z" fill="#9dc970"/><path d="M69.49 65.74a17.27 17.27 0 01.1-5.21l-43.34-8-2.91-.53c-1.67-.21-3.65-4.8-5.32-9.49l2 7.71a4.91 4.91 0 001.61 3.33 3.12 3.12 0 001.1.53l3.23.82 6 1.51 6.67 1.68c10.31 2.57 20.56 5.09 30.86 7.65z" fill="#158e30"/><path d="M117.51 33.52v2.13c4.13 0 8.25-.27 12.22-.7l-1.84-1.94c-3.4.32-6.89.48-10.38.51zM117.51 28.51l6.4.14-2-2.17-4.44-.1zM103.77 32.9a99.8 99.8 0 01-8.13-1.23 65 65 0 01-9.94-2.81l-.89-1.1h1.52A41.87 41.87 0 0098.87 32a1.06 1.06 0 001.23-.76l.85-3.09 14.37.33v-2.15L101.53 26l1.31-4.78-2.23.08-1.27 4.7-12.42-.29a7 7 0 01-3.2-3.31 2.46 2.46 0 01-.1-.47l-2.13.07a5.1 5.1 0 00.21 1 6.6 6.6 0 001.67 2.56h-.32L80.17 22l-2.66.09 2.76 3.42h-1.18a1 1 0 00-1 .72 1.05 1.05 0 00.36 1.2 26.75 26.75 0 006 3.21L87.08 34c-11.86-2.73-19.69-6.83-21.16-11.15 0-.12-.06-.23-.09-.35l-2.16.06a6.94 6.94 0 00.23.95c1.87 5.5 11.23 10.31 25.69 13.2h.21a1.06 1.06 0 00.83-1.71l-2.42-3a77.16 77.16 0 0015.31 3.05c3.81.4 7.79.61 11.78.64v-2.16c-3.9-.03-7.79-.23-11.53-.63zm-5-4.82l-.45 1.62a51.92 51.92 0 01-6.53-1.78zM87.78 17.3A36.13 36.13 0 0195 14.7l7.64-.59-1.73 6.31 2.19.06 1.8-6.55.79-.06-4.18-2.61a66.6 66.6 0 00-6.85 1.33l-6.52.51a72.45 72.45 0 0112.19-2.58l-2.82-1.75c-6.75 1.08-12.57 2.81-16.65 5a1.07 1.07 0 00-.52 1.23 1.06 1.06 0 001.1.76l5.56-.44-.19.09c-3 1.52-4.4 3.08-5 4.51l2.41.06a10.57 10.57 0 013.56-2.68zM143.65 6.87a1.07 1.07 0 00-1.24.85 1.06 1.06 0 00.84 1.28c12.6 2.38 21.24 6.22 23.78 10.43l2.35-.06c-2.27-5.31-11.53-9.82-25.73-12.5zM161 29.27a1.06 1.06 0 00-.43 1.44 1 1 0 00.93.56 1.11 1.11 0 00.5-.12c5-2.69 7.68-5.62 7.94-8.74l-2.14-.06c-.32 2.33-2.59 4.65-6.8 6.92zM71.5 14.69l4.1 5.06 2.79.08-5.79-7.16a1 1 0 00-1.31-.28c-4.61 2.39-6.66 4.85-7.38 7.05l2.28.06c.94-1.96 3.13-3.59 5.31-4.81zM146.18 26.13L133 21.29l-6.71-.2 16 5.86-16.79-.39 3.41 2.21 18.18.41A63.5 63.5 0 01135.88 32c-.55.09-1.11.16-1.66.24L136.9 34a53.54 53.54 0 0015.48-4.78 1.06 1.06 0 00-.47-2l-3.22-.07c2.71-1.85 3.47-3.69 3.46-5.21l-2.15-.12c.06 1.77-1.9 3.27-3.82 4.31zM116.43 9.48c3.89 0 7.75.18 11.48.53l-4.17.32a109.43 109.43 0 00-17.08.25l5 5.12 13.33 4.9 5.72-.17-19.12-7 12.22-.95a92.59 92.59 0 0110.43 1.29c7.66 1.47 13 3.7 15 6.15l2.46-.07c-1.68-3.48-7.67-6.36-17.08-8.17h-.15l3.37-.27a1.06 1.06 0 00.12-2.1A123.26 123.26 0 00104.12 8l1.89 2c3.45-.37 6.99-.52 10.42-.52z" fill="#d4edfc"/><path d="M101.46 11.26l4.18 2.61c3.08 1.93 6.06 3.79 8.53 5.39l.82-.06-3.38-3.5-5-5.12-.61-.67L104.12 8l-5.88-6.12C97 .83 93.55 0 90.53 0s-4.38.83-3.23 1.88c2.13 1.67 5.93 4.17 10.21 6.89l2.77 1.75zM77.51 22.11l2.66-.11h1.32l2.13-.08 17-.58 2.23-.08 6.55-.21v-.3a.19.19 0 010-.08l-6.36-.17-2.19-.06L84.23 20l-2.41-.06-3.43-.09-2.79-.08-9.41-.25-2.28-.06L45.63 19c-3.65 0-5.42.83-3.86 1.88s5.73 1.77 9.28 1.87 7.81-.07 12.62-.19l2.16-.06c3.7-.14 7.64-.26 11.68-.39zM128.86 28.77l-3.41-2.21-5.51-3.56c-.35 0-.72.09-1.1.12 1 1 2 2.17 3.11 3.35l2 2.17c1.32 1.47 2.66 2.94 4 4.36l1.84 1.94a56.36 56.36 0 005.18 4.85c1.25 1 4.79 1.87 7.81 1.87s4.48-.83 3.23-1.87l-9-5.85-2.68-1.73zM191.48 20.84c-1.57-1.05-5.74-1.88-9.28-1.88l-12.82.37-2.35.06-15.37.44-2.46.07-18.54.53-5.72.17h-1.44a.46.46 0 010 .2v.2l2.73.08 6.71.2 17 .53 2.14.07c5.36.17 10.66.33 15.62.46l2.14.06c7 .18 13.17.3 17.61.3 3.82-.09 5.48-.82 4.03-1.86z" fill="#3d3e3e"/><path d="M116.47 19.17h-1.48l-.82.06c-2.68.2-4.6.76-4.76 1.39a.19.19 0 000 .08v.56c.56-.8 3.51-1.39 7-1.39s6.08.52 6.86 1.24a1.45 1.45 0 01.33.22v-.52a.46.46 0 000-.2c-.51-.81-3.46-1.44-7.13-1.44z" fill="#485156"/><path d="M123.45 21.56a.64.64 0 00-.23-.42c-.78-.72-3.52-1.24-6.86-1.24s-6.41.59-7 1.39a.45.45 0 00-.11.27c0 .86 2.59 1.54 6 1.65v-.92c0-1 2.19-1 2.19 0v.92l1.33-.08c.38 0 .75-.07 1.1-.12 2.18-.29 3.58-.82 3.58-1.45z" fill="#717e86"/><path d="M117.51 28.51v-6.22c0-1-2.19-1-2.19 0v15.59a9.79 9.79 0 011.25-.06h.94v-9.31z" fill="#485156"/><path d="M119.39 39.78a11.9 11.9 0 00-2.82-.3 11.75 11.75 0 00-2.81.3v-.3.3c-1.25.32-2 .9-2 1.79v.35c-23.86.59-56.74 2.85-80.62 3.4l-.68-.93-1.4-1.89-2.16-2.93-.75-1L23.54 35h-2.09L16 34.79l.68 2.64.19.73L18.66 45l1.11 4.33.23.89a4.91 4.91 0 001.61 3.33A4.91 4.91 0 0120 50.21l-2-7.71c1.67 4.69 3.65 9.28 5.32 9.49l2.91.52 43.34 8a17.27 17.27 0 00-.1 5.21c-10.3-2.56-20.55-5.08-30.91-7.66 9.82 2.45 19.53 4.85 29.3 7.26a32 32 0 001 5.21A53.09 53.09 0 0087.2 91.05c8.54 5.63 23.75 9.38 34.79 9.27a64.87 64.87 0 0019.45-3 35.21 35.21 0 01-2.79-8.18 129.89 129.89 0 0016.95-1.76 112 112 0 0014.53-3.45h.05a27.34 27.34 0 002.09-9.27 22.93 22.93 0 00-.21-2.71l-.28.11a92.94 92.94 0 01-15.23 4.3 117.64 117.64 0 01-21.52 2.14l.15.22h-3.86a101.57 101.57 0 01-11.59-.78l-1.32-.14a1.48 1.48 0 010-.21c-.06-1-.1-2-.1-3 0-1.55.14-3.06.28-4.56.07-.84.15-1.68.25-2.51s.19-1.68.31-2.52h.06a54 54 0 019.62-23l.07-.1c-2.14-.06-4.69-.09-7.5-.06v-.15c0-.9-.82-1.47-2.08-1.79v-.3zM27.71 47c18-.41 44-1.35 67.71-2.08-6.45 1-12.18 2.4-17.29 5.21-17.29-.42-32.4-.83-49.9-1.35-3.85-.13-3.44-1.69-.52-1.78zm44.9 19.38a7.41 7.41 0 012.19-5.21A7.24 7.24 0 0180 59a7.45 7.45 0 015.21 2.19 8.19 8.19 0 012.18 5.21 7.42 7.42 0 01-2.18 5.21A7.27 7.27 0 0180 73.76a7.43 7.43 0 01-5.21-2.19 7.2 7.2 0 01-2.18-5.21zm12.92 7.19a8.46 8.46 0 01-6.25 1.15c-.31-.11-.73-.21-1-.32a8.05 8.05 0 006.14-1.14 8.17 8.17 0 003.5-5.26 8.31 8.31 0 00-1.14-6.25 8 8 0 00-4.06-3.23 8.15 8.15 0 015.2 3.54 8.41 8.41 0 011.15 6.25 8.25 8.25 0 01-3.54 5.24zm11.25 21.34c-5.52-1.25-7.4-10.63-7.29-20.21 0-6.46.93-13 3.12-17.09 2.4-4.69 6.67-4.58 11.25-5.42 6.57-1.25 15-2.08 13.75 3.86-2.6 13.12-4.06 26.35 0 38.13 3.13 9.16-17.39 1.46-20.83.73zm75.32-20.84v.73a16 16 0 01-.11 2.29c-7.7 3.75-39.37 8.34-51.77 2.81 17.4 1.36 35.52.1 51.88-5.83zm-47.19-29.69a18 18 0 00-1.56 2.4c-18.65.2-44.59 3.54-51.16 14.48-1.66 2.81-1.66 7.91.11 13.75-2.92-7.09-3.23-13.44-1.25-16.67 6.67-11 33.54-14 51.67-14zM115.32 37.88c-.86.12-1.45.46-1.54 1.39a11.31 11.31 0 012.79-.31 11.78 11.78 0 012.79.31c-.09-1-.83-1.35-1.85-1.42h-.94a9.79 9.79 0 00-1.25.03z" fill="#6cb52d"/><path d="M116.57 39a11.31 11.31 0 00-2.79.31v.5a11.75 11.75 0 012.81-.3 11.9 11.9 0 012.82.3v-.5a11.78 11.78 0 00-2.84-.31z" fill="#158e30"/><path d="M166.27 119a1.83 1.83 0 01.46.07 1.77 1.77 0 00-.46-.07zM166.91 119.09l.17.07zM96.43 119.27a1.65 1.65 0 00-.8 1.58 1.87 1.87 0 001.88 1.87h25L124 120H95.84a1.39 1.39 0 01.59-.73zM96.85 119.08a1.73 1.73 0 00-.37.16 1.53 1.53 0 01.37-.16zM126 122.72h40.32a1.86 1.86 0 001.87-1.87 1.93 1.93 0 00-.2-.84h-40.74zM97.51 119a2.09 2.09 0 00-.51 0 2.09 2.09 0 01.51 0zM151.16 129.08a.72.72 0 01-.73.73H66.36a.72.72 0 01-.73-.73h-1.31a2.05 2.05 0 00-.15.93 2.31 2.31 0 002.3 2.29h84.27A2.32 2.32 0 00153 130a2.09 2.09 0 00-.22-.93zM152.61 128.71a1.48 1.48 0 01.16.27 2.4 2.4 0 00-.16-.27zM65.84 127.81a2.59 2.59 0 01.63-.09 2.59 2.59 0 00-.63.09zM64.71 128.47a2.4 2.4 0 011-.63 2.38 2.38 0 00-1 .63zM150.74 127.72a2.43 2.43 0 01.55.08 2 2 0 00-.55-.08zM151.58 127.89h.11zM64.46 128.81a1 1 0 01.12-.17.88.88 0 00-.12.17z" fill="#6cb52d"/><path d="M117.61 56.05c1.25-5.94-7.18-5.11-13.75-3.86-4.58.84-8.85.73-11.25 5.42-2.19 4.06-3.12 10.63-3.12 17.09-.11 9.58 1.77 19 7.29 20.21 3.44.73 24 8.43 20.83-.73-4.06-11.78-2.61-25.01 0-38.13zM96.78 94.18c-5.21-1.15-7-10.32-6.88-19.69 0-6.36.84-12.71 2.92-16.67 2.19-4.38 6.25-4.27 10.63-5.11 6.25-1.25 14.16-2 13 3.75-2.5 12.82-3.75 25.74 0 37.09 2.94 8.86-16.45 1.45-19.67.63z" fill="#158e30"/><path d="M116.47 56.46c1.14-5.73-6.77-5-13-3.75-4.38.84-8.44.73-10.63 5.11-2.08 4-2.92 10.31-2.92 16.67-.1 9.37 1.67 18.54 6.88 19.69 3.23.83 22.61 8.23 19.69-.63-3.77-11.35-2.49-24.27-.02-37.09zM95.11 82.09a1.12 1.12 0 01-2.11-.52 1.09 1.09 0 01-.32-.94 1.1 1.1 0 011.25-1c1.88.2 5.25.49 5.5 2a1.58 1.58 0 01.23.88zm17.61-20.52a118.8 118.8 0 00-1.56 12.08c-.32 4.9-11 3-15.11 3a2.53 2.53 0 01-.7-.09h-.08a2.18 2.18 0 01-.56-.25c-1.19-.74-1.7-2.53-1.77-4.74a30.61 30.61 0 011.35-9c1.15-3.85 1.77-6 6-6.87.22-.05.44-.08.67-.12a11.26 11.26 0 011.21-.3h.1a37.38 37.38 0 015.56-.43h1c6.39.36 4.83 2.24 3.89 6.72z" fill="#6cb52d"/><path d="M94 73a34.23 34.23 0 011.45-10c1.14-4 1.86-6.31 5.57-7.41-.23 0-.45.07-.67.12-4.27.83-4.89 3-6 6.87a30.61 30.61 0 00-1.35 9c.07 2.21.58 4 1.77 4.74a2.6 2.6 0 01-.32-.26A12.38 12.38 0 0194 73zM95.34 76.58h-.08zM108.86 54.9h-1 .9c6.46.31 4.9 2.19 4 6.67a118.8 118.8 0 00-1.56 12.08c-.32 4.9-11 3-15.11 3 4.06 0 14.79 1.88 15.11-3a118.8 118.8 0 011.56-12.08c.9-4.48 2.46-6.36-3.9-6.67z" fill="#a1daf8"/><path d="M99.49 81.88l-4.69-.41a1.22 1.22 0 01-1 .41 1 1 0 01-.72-.31 1.12 1.12 0 002.07.52l4.59.42a1.58 1.58 0 00-.23-.88 2 2 0 01-.02.25z" fill="#3d701c"/><path d="M94.8 81.47l4.69.41a2 2 0 000-.25c-.25-1.55-3.62-1.84-5.5-2a1.1 1.1 0 00-1.25 1 1.09 1.09 0 00.32.94 1 1 0 00.72.31 1.22 1.22 0 001.02-.41z" fill="#afca0b"/><path d="M111.16 73.65a118.8 118.8 0 011.56-12.08c.94-4.48 2.5-6.36-4-6.67h-.9a37.38 37.38 0 00-5.56.43h-.1a11.26 11.26 0 00-1.21.3c-3.71 1.1-4.43 3.43-5.57 7.41A34.23 34.23 0 0094 73a12.38 12.38 0 00.41 3 2.6 2.6 0 00.32.26 2.18 2.18 0 00.56.25h.08a2.53 2.53 0 00.7.09c4.04.07 14.77 1.95 15.09-2.95zm-.84.21a.8.8 0 01-.1.52 1.84 1.84 0 00.1-.73zm-8.44-17.4h.12a31.21 31.21 0 016.14-.41c5.94.21 4.48 2.08 3.65 6.35l-.1.63c-.11-4.48-2.5-7.19-11.36-5.84h-.1l-1.23.32a8.51 8.51 0 012.88-1.05z" fill="#d4edfc"/><path d="M110.32 73.86v-.21a1.84 1.84 0 01-.1.73.8.8 0 00.1-.52zM100.32 57.19c8.86-1.35 11.25 1.36 11.36 5.84l.1-.63c.83-4.27 2.29-6.14-3.65-6.35a31.21 31.21 0 00-6.14.41h-.11a8.51 8.51 0 00-2.91 1l1.25-.32z" fill="#fff"/><path d="M66.36 129.81h84.07a.72.72 0 00.73-.73.71.71 0 00-.73-.73H66.36a.71.71 0 00-.73.73.72.72 0 00.73.73zM71.05 58.34c-2 3.23-1.67 9.58 1.25 16.67-1.77-5.84-1.77-10.94-.11-13.75C78.76 50.32 104.7 47 123.35 46.78a18 18 0 011.56-2.4h-2.19c-18.13 0-45 2.92-51.67 13.96zM172 77.09a16 16 0 00.11-2.29v-.73c-16.36 5.94-34.48 7.19-51.88 5.83 12.39 5.53 44.06.94 51.77-2.81z" fill="#9dc970"/><path d="M50.32 162.21c-2.65 0-5.2 1.56-7.41 4.24-.89-3.75-2.45-6-4.57-6s-4.4 2.2-6.53 5.84c-1.39-6.71-3.86-11.15-6.7-11.15s-5.35 4.13-6.9 10.46a8.12 8.12 0 00-6.21-3.39c-4.69 0-9.17 5.1-12 12.7h16.78v.11h27v-.11h17c-1.78-7.6-5.67-12.7-10.46-12.7zM96.05 157.93c0-4.16-1.56-7.08-4.27-7.08-1.63 0-3.41 1.06-5 2.81-1.1-3.24-3-5.42-5.28-5.42s-4.17 2.06-5.38 5.15a8 8 0 00-4.82-1.6c-3.75 0-7.19 2.39-9.38 6.14h17.5v-.1h4.48l-.06.1zM141.05 181.58c-1.18 0-2.45.8-3.68 2.23-1-4.54-2.86-7.33-5.48-7.33-2.39 0-5 2.32-7.44 6.18-1.62-7.12-4.48-11.81-7.77-11.81s-6.08 4.4-7.89 11.15a9.52 9.52 0 00-7.12-3.54c-5.52 0-10.73 5.41-13.75 13.54h57.3c0-6.15-1.46-10.42-4.17-10.42zM170.12 170.12a8.72 8.72 0 00-4.2 1.23c.08-2.35-.76-3.94-2.37-3.94s-3.91 1.65-5.81 4.15a3.35 3.35 0 00-2.93-2.17c-2.09 0-4.17 2.19-5.52 5.42h9.37a.3.3 0 000-.1H162l-.09.1h13.33c-.43-2.81-2.31-4.69-5.12-4.69z" fill="#d4edfc"/><path d="M80 73.76a7.27 7.27 0 005.21-2.19 7.42 7.42 0 002.18-5.21 8.19 8.19 0 00-2.18-5.21A7.45 7.45 0 0080 59a7.24 7.24 0 00-5.21 2.19 7.41 7.41 0 00-2.19 5.21 7.2 7.2 0 002.19 5.21A7.43 7.43 0 0080 73.76zM77.19 62.4a.45.45 0 01.42.42.79.79 0 01-.21.42v5a2.12 2.12 0 00.6 1.56 2.09 2.09 0 001.56.62H80a2.12 2.12 0 002.18-2.18v-5a.56.56 0 01-.2-.42.87.87 0 01-.21.42v4.89a1.73 1.73 0 01-.52 1.25 1.75 1.75 0 01-1.25.52h-.32a1.75 1.75 0 01-1.25-.52 1.73 1.73 0 01-.52-1.25v-4.89a.56.56 0 01-.2-.42.44.44 0 01.41-.42.45.45 0 01.42.42.87.87 0 01-.21.42v4.89a1.2 1.2 0 00.31.84 1.23 1.23 0 00.84.31h.31a1.22 1.22 0 00.83-.31 1.2 1.2 0 00.31-.84v-4.89a.56.56 0 01-.2-.42c.31-.21.52-.42.83-.42a.45.45 0 01.42.42c.2-.21.41-.42.62-.42a.45.45 0 01.42.42.87.87 0 01-.21.42v5a2.43 2.43 0 01-.81 1.87 2.62 2.62 0 01-1.88.83h-.42a2.45 2.45 0 01-1.87-.83 2.59 2.59 0 01-.83-1.87v-5a.54.54 0 01-.21-.42.45.45 0 01.4-.42zm-1.35.42a.42.42 0 11.83 0 .79.79 0 01-.21.42v5.1a2.87 2.87 0 00.94 2.19 3.27 3.27 0 002.19.94h.63a2.84 2.84 0 002.18-.94 3.27 3.27 0 00.94-2.19v-5.1a.57.57 0 01-.21-.42.42.42 0 01.84 0c.2.21.1.31 0 .42v5.1A3.59 3.59 0 0180.32 72h-.63a3.57 3.57 0 01-3.64-3.65v-5.1a.54.54 0 01-.21-.43z" fill="#9dc970"/><path d="M76.05 68.34A3.57 3.57 0 0079.69 72h.63A3.59 3.59 0 0084 68.34v-5.1c.1-.11.2-.21 0-.42a.42.42 0 00-.84 0 .57.57 0 00.21.42v5.1a3.27 3.27 0 01-.94 2.19 2.84 2.84 0 01-2.18.94h-.63a3.27 3.27 0 01-2.19-.94 2.87 2.87 0 01-.94-2.19v-5.1a.79.79 0 00.21-.42.42.42 0 10-.83 0 .54.54 0 00.21.42z" fill="#6cb52d"/><path d="M81.57 62.4c-.31 0-.52.21-.83.42a.56.56 0 00.2.42v4.89a1.2 1.2 0 01-.31.84 1.22 1.22 0 01-.83.31h-.31a1.23 1.23 0 01-.84-.31 1.2 1.2 0 01-.31-.84v-4.89a.87.87 0 00.21-.42.45.45 0 00-.42-.42.44.44 0 00-.41.42.56.56 0 00.2.42v4.89a1.73 1.73 0 00.52 1.25 1.75 1.75 0 001.25.52H80a1.75 1.75 0 001.25-.52 1.73 1.73 0 00.52-1.25v-4.89a.87.87 0 00.21-.42.45.45 0 00-.41-.42z" fill="#6cb52d"/><path d="M77 68.24a2.59 2.59 0 00.83 1.87 2.45 2.45 0 001.87.83h.42a2.62 2.62 0 001.88-.83 2.43 2.43 0 00.83-1.87v-5a.87.87 0 00.21-.42.45.45 0 00-.42-.42c-.21 0-.42.21-.62.42a.56.56 0 00.2.42v5a2.12 2.12 0 01-2.2 2.18h-.42A2.09 2.09 0 0178 69.8a2.12 2.12 0 01-.63-1.56v-5a.79.79 0 00.21-.42.42.42 0 10-.83 0 .54.54 0 00.21.42z" fill="#6cb52d"/><path d="M89.07 68.34a8.41 8.41 0 00-1.15-6.25 8.15 8.15 0 00-5.2-3.54 8 8 0 014.06 3.23A8.31 8.31 0 0187.92 68a8.17 8.17 0 01-3.54 5.21 8.05 8.05 0 01-6.14 1.14c.31.11.73.21 1 .32a8.46 8.46 0 006.25-1.15 8.25 8.25 0 003.58-5.18z" fill="#158e30"/><path d="M118.45 74.38zM118.58 70.81a12.47 12.47 0 012.89-2.68 9.08 9.08 0 011.57-.85c-.11-1.59.4-2.68-1-2.48-.5.1-1.7 0-2.81.1h-.1c-.12.84-.22 1.68-.31 2.52l-.12 1.25c-.02.71-.08 1.42-.12 2.14zM132.2 78.65zM119.77 77.86a101.57 101.57 0 0011.59.78 122.7 122.7 0 01-11.59-.78zM131.54 78.62h-.08.71-.1z" fill="#57564a"/><path d="M130.74 67.72a4.7 4.7 0 00-2.25-1.09v.1c.55.34.8.8.57 1.19h-.31a.81.81 0 01-.17.24 4.1 4.1 0 00.89.16 10.49 10.49 0 01-2.19.29 4 4 0 01-.77 0c-1.94-.17-2.82-1.07-2.46-1.51l.73-.17v-.14a.22.22 0 000-.08 9.91 9.91 0 00-1.77.58 9.08 9.08 0 00-1.57.85 12.47 12.47 0 00-2.89 2.68c-.1 1.11-.1 2.31-.1 3.42v.2c0 1.05-.08 2.09 0 3.05a1.48 1.48 0 000 .21l1.32.14c3.71.44 7.62.69 11.59.76-1-3.51-1-3.63-.72-7.67a23 23 0 001.55 7.68h3c0-.07-.1-.15-.15-.22-.83-1.31-2.09-2.86-3-4.05-.26-.58-.57-6-1.3-6.62zm-10.63 10.1a2.1 2.1 0 01-.83-.1c.11-2.92-.1-4.38 2-7.19-1.79 3.33-1.37 3.75-1.17 7.29z" fill="#95a6b1"/><path d="M131.54 78.62h.53a1.06 1.06 0 00-.53 0z" fill="#95a6b1"/><path d="M129.49 68.34a4.1 4.1 0 01-.89-.16 2.23 2.23 0 01-1.3.45 10.49 10.49 0 002.19-.29zM128.77 67.94h.31c.23-.39 0-.85-.57-1.19l.15.57a.68.68 0 01.11.62zM124.8 66.92l-.73.17c-.36.44.52 1.34 2.46 1.51-.96-.13-1.81-.66-1.73-1.68z" fill="#6f5b6f"/><path d="M124 63.55a1.94 1.94 0 01-1.52-1c-.31-.52-.21-1.25.21-1.36a1 1 0 01.7.18c0-.09 0-.19-.08-.28-.1-1.36.63-1.67 1.25-1.56a11.33 11.33 0 004.63.28c-.15 0-.25.14-.25.24s.52.1.83.21.64.25.63.16a2.61 2.61 0 00-.61-.44.66.66 0 00-.56-.14 2.8 2.8 0 00.77-.31c1.26-.81.43-2.47.1-3-1 1.88-2.39-.62-4.47-.41a3.67 3.67 0 00-2.14.87c-2.66-.21-2.64 2.26-1.61 5.07a5.37 5.37 0 003 3.6c0-.27 0-.55-.08-.82a4.56 4.56 0 01-.8-1.29z" fill="#3c3c3b"/><path d="M124.8 66.92c-.08 1 .77 1.55 1.73 1.68a4 4 0 00.77 0 2.23 2.23 0 001.3-.45.81.81 0 00.17-.24.68.68 0 00-.11-.64l-.15-.57v-.1a3.21 3.21 0 01-.34.08h-.73A3.13 3.13 0 01125 65a4.5 4.5 0 003.51 1.27 4.64 4.64 0 00.8-.12c1.46-.31.94-1 1-2.08s.94-1.56.21-3.44c0-.09-.07-.16-.1-.25 0 .09-.27 0-.63-.16s-.83 0-.83-.21.1-.2.25-.24a11.33 11.33 0 01-4.63-.28c-.62-.11-1.35.2-1.25 1.56 0 .09 0 .19.08.28a1 1 0 00-.7-.18c-.42.11-.52.84-.21 1.36a1.94 1.94 0 001.52 1 4.56 4.56 0 00.74 1.22c0 .27 0 .55.08.82a4.1 4.1 0 010 1.11.22.22 0 010 .08zm2.2-5.66a.21.21 0 11.42 0 .21.21 0 11-.42 0zm2.61-.73a.21.21 0 11-.21.21.22.22 0 01.2-.21zm0 2.08c1 .52.11 1.15-.73.94.94.1 1.15-.52.73-.83a2 2 0 01-1-1.46c.15.52.15.93.98 1.35zm.73.83v.11a1.48 1.48 0 01-2.67 1 1.18 1.18 0 01-.27-.6v-.13-.11c1.26.78 2.72.29 2.92-.27zM126.78 60c.52-.32 1 0 1 .2s-.72.11-1 .21c-.73.43-1.25.33 0-.41zm-4.12 1.91c0-.22 0-.39.16-.45s.63.2.84.72a1 1 0 00-.84-.52c-.1 0-.15.1-.16.25a2.62 2.62 0 00.06.59 1.84 1.84 0 01-.06-.58z" fill="#fdd5a5"/><path d="M125 65a3.13 3.13 0 002.44 1.67h.73a3.21 3.21 0 00.34-.08h.07c0-.09-.05-.2-.07-.3A4.5 4.5 0 01125 65z" fill="#d7b78f"/><path d="M129.8 59.9a2.61 2.61 0 01.61.44c-.13-.32-.27-.62-.4-.89a2.8 2.8 0 01-.77.31.66.66 0 01.56.14z" fill="#fdd5a5"/><path d="M127.65 64.59a1.48 1.48 0 002.67-1c0 .25 0 .43-.1.52a4.93 4.93 0 01-2.57.48zM127.3 63.86v.13a.5.5 0 000-.12z" fill="#b03028"/><path d="M127.32 63.87a.5.5 0 010 .12 1.18 1.18 0 00.27.6 4.93 4.93 0 002.57-.52c.09-.09.1-.27.1-.52v-.11c-.2.53-1.66 1-3 .32.04.04.06.07.06.11z" fill="#fff"/><path d="M129.59 62.72c.42.31.21.93-.73.83.84.21 1.78-.42.73-.94-.83-.42-.83-.83-1-1.35a2 2 0 001 1.46zM122.82 61.67a1 1 0 01.84.52c-.21-.52-.63-.83-.84-.72s-.16.23-.16.45c.01-.15.06-.25.16-.25z" fill="#d7b78f"/><path d="M122.72 62.51a2.62 2.62 0 01-.06-.59 1.84 1.84 0 00.06.59z" fill="#d7b78f"/><path d="M129.6 60.94a.21.21 0 000-.41.21.21 0 100 .41zM126.78 60.42c.32-.1 1 0 1-.21s-.52-.52-1-.2c-1.25.73-.73.83 0 .41zM127.41 61.26a.21.21 0 10-.42 0 .21.21 0 10.42 0z" fill="#3c3c3b"/><path d="M121.26 70.53c-2.08 2.81-1.87 4.27-2 7.19a2.1 2.1 0 00.83.1c-.18-3.54-.6-3.96 1.17-7.29zM130.64 71c-.31 4-.32 4.16.72 7.67h.18a1.06 1.06 0 01.53 0h.1a23 23 0 01-1.53-7.67z" fill="#6f5b6f"/></svg>