<svg xmlns="http://www.w3.org/2000/svg" viewBox="0 0 192 191.99"><defs/><path d="M91 178.4h1a4.48 4.48 0 01-.56-.32zM145.85 177.69h.18l.86-.43c-8 .2-16.87.24-25.87.2h-24.1a4.34 4.34 0 01-1.31 1h1.2c15.88.09 30.84.45 44 1a4.36 4.36 0 011.31-.56 10 10 0 013.73-1.21z" fill="none"/><path d="M152.42 179.99l-2.35 1.77a1.37 1.37 0 010 .19 4.16 4.16 0 01-1.24 3 28.36 28.36 0 01-3.16 1.93 4.46 4.46 0 01-7-3.7 4.53 4.53 0 012.1-3.78c-13.16-.56-28.12-.92-44-1h-1.2a4 4 0 01-1.8.42 4.28 4.28 0 01-1.87-.43H91l-5.39 4.09a4.11 4.11 0 01-1.22 2.51 29.43 29.43 0 01-3.16 1.93 4.46 4.46 0 01-7-3.7 4.51 4.51 0 013.48-4.36c.3-.15.6-.29.91-.42-43.9.35-77.14 2.93-77.23 6.24-.11 3.75 42.52 7 95.19 7.3s95.3-2.51 95.4-6.26c.08-2.28-15.53-4.36-39.56-5.73z" fill="#ececec"/><path d="M122.35 59.42a57.71 57.71 0 00.93 16c1.35 3.92 3 6.81 5.29 7.94 6.2 1 13.58-1 25.94-9.73 1.16.85 2.85.83 5-.79 3.52-2.71 3.41-1.67 1.66-5.63-1.63-3.78-.88-3.45-3.95-2.07.31.13.63.24.94.4 3.32 1.25-1.34 1.56-.62 2.71.52 1.15 1.76-.1 2 .21s-1.24 1.14-1 1.87 1.34-.31 1.55 0-1.14.63-.73 1.36c.31.52 1.76-.42 1.55-.21-2 1.46-2.37.31-1.65-.42.41-.41.41-.62-.1-.41-.73.31-.94-.52-.52-1.15.62-.94-.52 0-1.14-1.15-.1-.2-.21-.31-.31-.52.31 1.67-.21 2.09-1.76 2.61 2.17-1.36 2-2.4 0-3.55-.62.84-.41.94-.21-.31.93.52 1.35 1.15 2.38.73 1.35-.52 2.18-.94.52-1.77-.31-.16-.57-.26-.86-.39l-.17.08c-3.73-1-3.11-1.77-4 2.19a7.57 7.57 0 00.23 4.43c-4.95 3.47-16.43 6.56-22.68 6.93-2.66-4.62-2.81-12.58-3.09-20a8 8 0 00-5.2.64z" fill="#fdd5a5"/><path d="M122.35 59.42a9.41 9.41 0 00-2.63 2 91.68 91.68 0 004 16.06 41.6 41.6 0 01-.43-2 57.71 57.71 0 01-.94-16.06z" fill="#d7b78f"/><path d="M92.42 38.29a7.91 7.91 0 012.94-5.3c-12.07-2.29-22.8-1.9-27.73 1.55-1.85 2-4.71 12.13-4.95 25.13-1.13.83-1.75 2.45-1.36 5.1.72 5.1-.31 4.37 4.55 4.79 3.82.33 4 .86 4.1-1.09l-.79-5.27.52 1.15.83-.21-.73.84.31 1.56c3.11-3.13 3.42-2.09.11-5.21a8.69 8.69 0 00-4.75-2.34c2.47-10.87 4.53-15.93 5.88-21.06l1.18.05c7.36-1.21 14.39-1.11 19.89.31z" fill="#fdd5a5"/><path d="M72.53 37.99l-.35.06c4.62.17 12.74.14 20.08 3a19.87 19.87 0 01.16-2.73c-5.5-1.45-12.53-1.55-19.89-.33z" fill="#d7b78f"/><path d="M146.89 177.28l-.86.43a4.17 4.17 0 014 4.06l2.35-1.77 3.43-2.58.65-.49c-3 .15-6.21.26-9.57.35z" fill="#3c3c3b"/><path d="M146 177.71h-.18a10 10 0 00-3.73 1.18 4.49 4.49 0 011-.14 4.5 4.5 0 012.53 8.18 28.36 28.36 0 003.16-1.93 4.16 4.16 0 001.24-3 1.37 1.37 0 000-.19 4.17 4.17 0 00-4.02-4.1z" fill="#158e30"/><path d="M147.61 183.21a4.43 4.43 0 00-4.45-4.48 4.49 4.49 0 00-1 .14 4.36 4.36 0 00-1.31.56 4.53 4.53 0 00-2.1 3.78 4.45 4.45 0 108.9 0zm-4.45 2.71a2.75 2.75 0 01-2.69-2.71 2.68 2.68 0 012.69-2.71 2.71 2.71 0 010 5.42z" fill="#6cb52d"/><path d="M143.16 180.5a2.68 2.68 0 00-2.69 2.71 2.69 2.69 0 102.69-2.71zm0 5.11a2.4 2.4 0 112.38-2.4 2.35 2.35 0 01-2.38 2.4z" fill="#fff"/><path d="M143.16 180.82a2.4 2.4 0 102.38 2.39 2.35 2.35 0 00-2.38-2.39z" fill="#3d3e3e"/><path d="M85.63 181.99a4.75 4.75 0 010 .53L91 178.4l.41-.32.92-.7c-2.92 0-5.74-.11-8.42-.2l-1.36.68a4.19 4.19 0 013.08 4.13z" fill="#3c3c3b"/><path d="M78.7 178.73a4.5 4.5 0 012.53 8.18 29.43 29.43 0 003.16-1.92 4.11 4.11 0 001.19-2.49 4.75 4.75 0 000-.53 4.31 4.31 0 00-4.24-4.27 8.4 8.4 0 00-2.75.74c-.31.13-.61.27-.91.42a4.37 4.37 0 011.02-.13zM91.38 178.08a4.48 4.48 0 00.56.32 4.28 4.28 0 001.87.43 4 4 0 001.8-.42 4.34 4.34 0 001.31-1c7.79.07 16.09 0 24.1 0 9 0 17.84 0 25.87-.2 3.36-.09 6.57-.2 9.61-.35l-.65.49a4.12 4.12 0 002.42.79 4.17 4.17 0 003.24-1.56 113.26 113.26 0 0013.73-1.57c5.48-1 6.41-3.44 6.41-4.79s-2.38-4.07-8.17-5.11c-7.42-1.3-19.32-1.5-33.26-1.49h.05c13.67.06 25.21.36 32.59 1.66 8 1.36 11.17 5.84 1.55 7.71-10.66 2.09-31.66 2.3-54.22 2.3-20.28 0-41.9.2-53.18-1.57s-7.87-6.15 1.86-7.71c8.77-1.4 23.27-2.09 39.25-2.31-16.12.29-30.89 1-39.66 2.29-7 1-8.9 2.92-8.9 4.37s.52 4.38 8.28 5.53a143 143 0 0016 1.26c2.68.09 5.5.16 8.42.2z" fill="#158e30"/><path d="M67 173.83c11.28 1.77 32.9 1.57 53.18 1.57 22.56 0 43.56-.21 54.22-2.3 9.62-1.87 6.42-6.35-1.55-7.71-7.38-1.3-18.92-1.6-32.59-1.66a9.61 9.61 0 011.24 1.26l.21-.1a9.54 9.54 0 01.11 1.87c2.38.47 3.7 1 3.62 1.67-.11 1.78-9.21 3.55-22 3s-23.28-2.3-23.18-4.07c.17-1.38 7.48-2.34 17.36-2.32-.07-.32-.14-.63-.18-.91h.13v-.46c-3.16 0-6.29 0-9.37.08-16 .22-30.48.91-39.25 2.31-9.81 1.62-13.22 6.1-1.95 7.77zm96.53-6.36c.52 0 .94.21.94.53s-.42.52-.94.52-.93-.21-.93-.52.4-.53.94-.53zm-3.72 2.61c0 .31-.41.52-.93.52s-.93-.21-.93-.52.41-.52.93-.52.94.21.94.52zm-1.81-2.61c.52 0 .93.21.93.53s-.41.52-.93.52-.93-.21-.93-.52.37-.53.93-.53zm-4.66 2.09c.52 0 .93.21.93.52s-.41.52-.93.52-.93-.21-.93-.52.37-.52.89-.52zm-56-2.09c.52 0 .94.21.94.53s-.42.52-.94.52-.93-.21-.93-.52.4-.53.91-.53zm-3.72 2.61c0 .31-.42.52-.93.52s-.93-.21-.93-.52.41-.52.93-.52.91.21.91.52zm-2-2.61c.52 0 .94.21.94.53s-.42.52-.94.52-.93-.21-.93-.52.53-.53.94-.53zM87 169.56c.51 0 .93.21.93.52s-.42.52-.93.52-.93-.21-.93-.52.39-.52.93-.52z" fill="#6cb52d"/><path d="M87 170.6c.51 0 .93-.21.93-.52s-.42-.52-.93-.52-.93.21-.93.52.39.52.93.52zM91.63 168.52c.52 0 .94-.21.94-.52s-.42-.53-.94-.53-.93.21-.93.53.42.52.93.52zM91.74 170.08c0 .31.41.52.93.52s.93-.21.93-.52-.42-.52-.93-.52-.93.21-.93.52zM97.32 168.52c.52 0 .94-.21.94-.52s-.42-.53-.94-.53-.93.21-.93.53.42.52.93.52zM153.3 170.6c.52 0 .93-.21.93-.52s-.41-.52-.93-.52-.93.21-.93.52.41.52.93.52zM158 168.52c.52 0 .93-.21.93-.52s-.41-.53-.93-.53-.93.21-.93.53.37.52.93.52zM158 170.08c0 .31.41.52.93.52s.93-.21.93-.52-.41-.52-.93-.52-.93.21-.93.52zM163.54 168.52c.52 0 .94-.21.94-.52s-.42-.53-.94-.53-.93.21-.93.53.39.52.93.52z" fill="#158e30"/><path d="M83.15 183.21a4.43 4.43 0 00-4.45-4.48 4.37 4.37 0 00-1 .12 4.51 4.51 0 00-3.48 4.36 4.45 4.45 0 108.9 0zm-4.45 2.71a2.75 2.75 0 01-2.7-2.71 2.68 2.68 0 012.69-2.71 2.71 2.71 0 010 5.42z" fill="#6cb52d"/><path d="M78.7 180.5a2.68 2.68 0 00-2.7 2.71 2.69 2.69 0 102.69-2.71zm0 5.11a2.35 2.35 0 01-2.38-2.4 2.41 2.41 0 012.38-2.39 2.4 2.4 0 010 4.79z" fill="#fff"/><path d="M78.7 180.82a2.41 2.41 0 00-2.38 2.39 2.38 2.38 0 102.38-2.39z" fill="#3d3e3e"/><path d="M140.45 167.48c-6.38 3.08-16.1 1.13-22.33-.73v-.09h-.08a15.51 15.51 0 01-.44-1.59c-9.88 0-17.19.94-17.36 2.32-.1 1.77 10.24 3.55 23.18 4.07s21.93-1.25 22-3c.08-.65-1.24-1.2-3.62-1.67a13.8 13.8 0 01-1.35.69z" fill="#158e30"/><path d="M40.27 87.59a5.78 5.78 0 01.83-.6l-1.1-.83a5.18 5.18 0 00-1 .47zM38.4 91.15a7.6 7.6 0 01.41-1.53l-1.73-.86a5.82 5.82 0 00-.41 2.86l1.6.5c0-.28.07-.52.11-.77l.02-.2z" fill="#d7b78f"/><path d="M37.08 88.76l1.73.86a5.57 5.57 0 011.46-2l-1.29-1a4.55 4.55 0 00-1.9 2.14z" fill="#fdd5a5"/><path d="M121.07 157.59H121v.1a6.45 6.45 0 01-2-.62c0 1.11-.08 2.24-.11 3.37a4.57 4.57 0 002.48.81zM124.12 158.06a7.91 7.91 0 01-.13-.87c.01.31.07.59.13.87z" fill="#d7b78f"/><path d="M121.07 157.59l.31 3.65a5 5 0 003.55-1.45 3.92 3.92 0 01-.81-1.73c-.06-.28-.11-.56-.15-.86a5.77 5.77 0 01-2.9.39z" fill="#fdd5a5"/><path d="M141.5 164.99a9.61 9.61 0 00-1.23-1.24h-.05c-2.48-2.11-5.77-2.92-9-3.46l-.62 2.66c0 .21-.2.31-.52.31s-.31-.21-.31-.52l.6-2.59-.77-.12-.6 2.76c0 .21-.21.31-.52.31s-.31-.21-.31-.52l.63-2.74-.62-.09-.63 2.72c0 .21-.21.32-.52.32s-.31-.21-.31-.53l.62-2.65c-.65-.11-1.27-.23-1.86-.37-.18.2-.36.38-.54.55a5 5 0 01-3.55 1.45 4.57 4.57 0 01-2.48-.81 3.3 3.3 0 01-.67-.56 10.67 10.67 0 00-.74 3.86v.46c7.29 3.06 16.72 4.28 24 .8z" fill="#b03028"/><path d="M140.45 167.48c-6.46 3-16.08 1-22.35-.82v.09c6.25 1.86 15.97 3.81 22.35.73z" fill="#b03028"/><path d="M117.53 164.19h-.13c0 .28.11.59.18.91a15.51 15.51 0 00.44 1.59h.08c6.27 1.84 15.89 3.84 22.35.82a13.8 13.8 0 001.37-.73 9.54 9.54 0 00-.11-1.87l-.21.1c-7.28 3.46-16.71 2.24-23.97-.82zM127 162.79c.31 0 .52-.11.52-.32l.63-2.72.09-.4c0-.32-.1-.52-.31-.52s-.52.1-.52.31l-.1.47-.62 2.65c.02.32.12.53.31.53zM128.47 163.1c.31 0 .52-.1.52-.31l.65-2.82.07-.31c0-.31-.1-.52-.31-.52s-.52.1-.52.31l-.09.39-.63 2.74c0 .31.1.52.31.52zM130.12 163.2c.32 0 .52-.1.52-.31l.62-2.66.11-.47c0-.31-.11-.52-.31-.52s-.52.11-.52.32l-.13.53-.6 2.59c0 .31.11.52.31.52z" fill="#fff"/><path d="M106.74 106.72c-2.79-4.38-4.76-7.72-6.21-10 6 5.73 14.9 17 21.63 24-4.35-.94-2.59-.1-.62 4-5-4.05-1.17 24.9-.53 32.94h.06a5.77 5.77 0 002.9-.39c.25-.1.5-.21.75-.34.31-6.57.73-13.14 1-19.7 1-19.18 2-17.61-5.59-35.33-1.65-4-3.36-7.93-5-11.89-18.66-2.71-14.64-8.52-26.82-15.79a10.22 10.22 0 00-3.94-.75C82 78.17 79.46 82.99 77 87.75c-9.83 19.28-5.27 19.7-22 8-4.44-3-8.79-6.14-13.24-9.17-.23.12-.45.24-.66.37a5.78 5.78 0 00-.83.62 5.57 5.57 0 00-1.46 2 7.6 7.6 0 00-.41 1.53 6.21 6.21 0 011.39-3c9.63 9.27 28.36 29.39 30.63 20 1.45 6.36 1.66 1.57 3.31-3.12.8 4 11.45-4.22 18.43-9.68 5.58-6 5.46-2.77 14.48 11.24 10.55 16.45 9.93 13.45 10.86 32.9.31 5.73.52 11.46.83 17.2h.1c-.31-5.72-.52-11.43-.83-17.15-.93-19.43-.31-16.41-10.86-32.77zm-23.59-28c4.24 2.4 6.62 3.13 10.55.42-2.7 3.4-6.52 3.4-10.55-.46zM38.27 92.12v.32c0-.38.08-.74.14-1.09-.07.25-.12.49-.14.77zM38.24 92.44l2.36 2-2.36-2z" fill="#3d3e3e"/><path d="M121 157.58c-.64-8-4.42-37 .53-32.94-2-4.06-3.73-4.9.62-4-6.73-7-15.63-18.24-21.63-24 1.45 2.29 3.42 5.63 6.21 10 10.55 16.36 9.93 13.34 10.86 32.82.31 5.72.52 11.43.83 17.15v.05c.19.12.39.22.58.32a6.45 6.45 0 002 .62zM73.73 105.05c-1.65 4.69-1.86 9.48-3.31 3.12-2.27 9.39-21-10.73-30.63-20a6.21 6.21 0 00-1.39 3v.2a12 12 0 00-.14 1.09l2.36 2 13.78 11.48c18.53 15.43 13 16.57 29.18-.73 4.56-4.89 7.35-8.33 9.42-10.42l-.82.64c-7 5.4-17.65 13.63-18.45 9.62zM83.15 78.68c4 3.86 7.86 3.86 10.55.42-3.93 2.71-6.31 1.98-10.55-.42z" fill="#3c3c3b"/><path d="M88.33 74.14c12.18 7.27 8.16 13.08 26.82 15.79h.07l-1.45-3.52c-9.77 2.65-17.29-9.13-25.44-12.27z" fill="#3c3c3b"/><path d="M35.79 81.51c-5.8 3.85-14.18 10.63-15.21 18 1.06-7.36 9.34-14.14 15.21-18z" fill="#b03028"/><path d="M37.08 88.76A4.55 4.55 0 0139 86.63a5.18 5.18 0 011-.47 4.62 4.62 0 01.92-.18 9.67 9.67 0 00-2.86-3.35c-6.95 3.75-13.95 10.13-16 18 4 0 7.29-2.46 10.24-5l-1.61-2.04c-.1-.21-.1-.42.1-.53s.42-.1.52.11l1.52 2 .68-.59-1.79-2.37c-.1-.21-.1-.42.11-.52s.41-.11.52.1l1.72 2.29.57-.49-1.57-2.11c-.1-.21-.1-.42.1-.52s.42-.1.52.1l1.51 2c.51-.43 1-.84 1.49-1.2v-.3a5.82 5.82 0 01.39-2.8z" fill="#b03028"/><path d="M38.07 82.63l.17-.09c-.62-.31-1.34-.73-2.27-1.15l-.18.12c-5.87 3.86-14.15 10.64-15.22 18a.29.29 0 000 .09 5.11 5.11 0 001.43 1.18v-.11c2.12-7.91 9.12-14.29 16.07-18.04zM33.17 90.99c-.2.1-.2.31-.1.52l1.57 2.11.29.39c.11.21.31.21.52.11s.21-.32.1-.52l-.35-.47-1.51-2c-.1-.25-.31-.25-.52-.14zM31.83 91.71c-.21.1-.21.31-.11.52l1.79 2.37.18.24c.1.2.31.2.52.1s.2-.31.1-.52l-.24-.32-1.72-2.29c-.11-.21-.35-.21-.52-.1zM30.79 93.06c-.2.11-.2.32-.1.53l1.58 2.09.38.51c.11.21.32.21.52.11s.21-.32.11-.53l-.45-.58-1.52-2c-.1-.2-.31-.2-.52-.13z" fill="#fff"/><path d="M69.8 64.93l.73-.84-.83.21-.52-1.15.82 5.27v.26a13.21 13.21 0 00.1-2.19zM157.54 67.32c-1 .42-1.45-.21-2.38-.73-.2 1.25-.41 1.15.21.31 2 1.15 2.17 2.19 0 3.55 1.55-.52 2.07-.94 1.76-2.61.1.21.21.32.31.52.62 1.15 1.76.21 1.14 1.15-.42.63-.21 1.46.52 1.15.51-.21.51 0 .1.41-.72.73-.31 1.88 1.65.42.21-.21-1.24.73-1.55.21-.41-.73.83-1.15.73-1.36s-1.24.73-1.55 0 1.24-1.56 1-1.87-1.45.94-2-.21c-.72-1.15 3.94-1.46.62-2.71-.31-.16-.63-.27-.94-.4l-.3-.12.28.13c.29.13.55.23.86.39 1.72.83.89 1.25-.46 1.77z" fill="#d7b78f"/><path d="M111.48 23.47c-2-.69-3.19-3-3.19-5.34 0-2.08 1.14-4.27 2.48-4.06a3.2 3.2 0 012 1.57c0-.28.1-.56.16-.85l6 3.45c-.73 3.75.82 6.46 3 6.77 1.55.1 4-.31 5.27-3.75.83.31.62.21 1.45.52-.9 5.38 2.47 7.11 4.81 5.33a5.53 5.53 0 001.92-3.46l.72.11.11-.94-1.66-.64-21.39-8.37.15-.78c1.69-3.24 3.69-3.19 5.23-2.04 8.08 6 13 7.4 16 6.74 4.77-1.06 4.66-7.4 4.34-9.45-5.9 4.59-6.21-5.21-12.63-7a11.92 11.92 0 00-7.1 0c-7.79-4.54-11.15 3.63-12 13.71-.49 5.74 0 10.26 3.73 15.43.32-.95.62-1.93.93-2.93a17.83 17.83 0 01-.33-4.02z" fill="#3c3c3b"/><path d="M113.77 86.42a12.29 12.29 0 002.28-.86 17.87 17.87 0 01-1.46-6.67v.42c-1.86-8-1.55-11 4.35-17.09-.19.24-.35.5-.53.76a13.85 13.85 0 011.3-1.61 9.41 9.41 0 012.63-2 8 8 0 015.1-.59h.3c1.65-8.3-2.07-14.26-8-18.43 0 .18-.05.36-.07.52 1.08 2.06 1.16 4.08-.43 4.88-2.69-1.46-2.69-.2.21 2.09-11.77-4.23-14-12-11.47-13a69.69 69.69 0 00-12-2.54l-.62.53a7.91 7.91 0 00-2.94 5.35 19.87 19.87 0 00-.16 2.81 4.22 4.22 0 001.71 1l-.37-.2c7 1.46.72 6.36-8.69 26.47A79.65 79.65 0 0189.13 58a76.74 76.74 0 00-5.77 15.37 7.15 7.15 0 011-.08 10.22 10.22 0 013.94.75c8.18 3.24 15.7 15.02 25.47 12.38zM102 55.86a7.13 7.13 0 013.62-4.28 7.35 7.35 0 015.59-.41 7.09 7.09 0 014.24 3.65 7.51 7.51 0 01.41 5.62 7.13 7.13 0 01-3.62 4.28 7.33 7.33 0 01-5.58.41 7.1 7.1 0 01-4.25-3.64 7.55 7.55 0 01-.41-5.63z" fill="#fff482"/><path d="M118.4 62.99c-.18.26-.35.52-.51.8l.51-.8z" fill="#fff482"/><path d="M93.6 41.89l.37.2a1.67 1.67 0 01.87 2.1c-1.29 5.48-3.4 9.16-5.71 13.91a79.65 79.65 0 00-4.22 10.26c9.41-20.11 15.73-25.01 8.69-26.47zM114.6 79.31v-.42a30.23 30.23 0 012.7-14c.18-.37.39-.73.6-1.08s.33-.54.51-.8.34-.52.53-.76c-5.89 6.01-6.2 9.03-4.34 17.06zM119.47 47.99c-2.9-2.29-2.9-3.55-.21-2.09 1.59-.8 1.51-2.82.43-4.88v.09c1 6.63-14.13 1.55-10.89-5.92l-.69-.23-.11.03c-2.55.93-.3 8.72 11.47 13z" fill="#dccf71"/><path d="M119.67 41.06v-.09c0-.03 0-.34.07-.52.09-.62.21-1.29.34-2a6.33 6.33 0 01-1.36-.1 18.62 18.62 0 01-2.07-.83c-2.58-1.36-5-4.28-4.86-9.59v-.19a13.9 13.9 0 008.48 10 13.28 13.28 0 003 .84c4.76.73 4.25-2.19 5.9-5.42 1-2 2.94-3.18 4.19-6-2.34 1.78-5.71.05-4.81-5.33-.83-.31-.62-.21-1.45-.52-1.24 3.44-3.72 3.85-5.27 3.75-2.18-.31-3.73-3-3-6.77l-6-3.45-.16.85a3.2 3.2 0 00-2-1.57c-1.34-.21-2.48 2-2.48 4.06 0 2.33 1.17 4.65 3.19 5.34a17.83 17.83 0 00.33 4c-.31 1-.61 2-.93 2.93a19.63 19.63 0 01-1.66 3.85 6.88 6.88 0 00-.44.85c-3.14 7.46 11.99 12.54 10.99 5.91zm9-13.55c-1.25-2.29-1.56-2.5-1-5.94 0 2-.52 3.13 1.35 5.73 2.06 2.92-1.66 3.86-3.52 2.19 2.66 1.56 4.11-.31 3.18-1.98zm-8.59.84c2.79 4.16 8 4.06 9.31 3a9 9 0 01-.83 1.67h-.06c-3.3 4.72-9.82 1.57-8.41-4.67zm-9.63-12.72c-.82-.1-1.44 1.15-1.65 2.61.1-1.78.83-3.44 1.65-3.34s1.76 1.56 1.76 3.44c-.21-1.56-1.02-2.61-1.75-2.71z" fill="#fdd5a5"/><path d="M111.86 27.74v.19c-.1 5.31 2.28 8.23 4.86 9.59a18.62 18.62 0 002.07.83 6.33 6.33 0 001.36.1h.09l.15-.73a13.9 13.9 0 01-8.53-9.98z" fill="#d7b78f"/><path d="M118.54 10.99c-1.54-1.15-3.54-1.2-5.31 2l-.15.78 21.39 8.37c.1-1.66.14-3.16.11-4.5-3.01.7-7.96-.73-16.04-6.65z" fill="#fdd5a5"/><path d="M129.4 31.37c-1.35 1-6.52 1.14-9.31-3 2.79 4.14 7.96 4.04 9.31 3z" fill="#b03028"/><path d="M128.51 33.04a14 14 0 01-8.42-1.67 7.3 7.3 0 010-3c-1.41 6.22 5.11 9.37 8.42 4.67z" fill="#b03028"/><path d="M120.09 31.37a14 14 0 008.42 1.67h.06a9 9 0 00.83-1.67c-1.35 1-6.52 1.14-9.31-3a7.3 7.3 0 000 3z" fill="#fff"/><path d="M129 27.3c-1.87-2.6-1.35-3.75-1.35-5.73-.52 3.44-.21 3.65 1 5.94.93 1.67-.52 3.54-3.21 2 1.89 1.65 5.61.71 3.56-2.21zM110.46 14.9c-.82-.1-1.55 1.56-1.65 3.34.21-1.46.83-2.71 1.65-2.61s1.56 1.15 1.76 2.71c0-1.88-1.03-3.23-1.76-3.44z" fill="#d7b78f"/><path d="M106.64 65.13a7.33 7.33 0 005.58-.41 7.13 7.13 0 003.62-4.28 7.51 7.51 0 00-.41-5.62 7.09 7.09 0 00-4.24-3.65 7.35 7.35 0 00-5.59.41 7.13 7.13 0 00-3.6 4.28 7.55 7.55 0 00.41 5.63 7.1 7.1 0 004.23 3.64zm-2.17-6.56l1.65-4.9a.64.64 0 01-.1-.42.5.5 0 01.62-.31.52.52 0 01.31.63c0 .1-.21.2-.31.31l-1.64 4.9a2.74 2.74 0 00.21 2.39 3.08 3.08 0 001.86 1.57l.62.21a2.75 2.75 0 002.38-.21 3.08 3.08 0 001.55-1.88l1.66-4.9a.63.63 0 01-.1-.41c0 .1-.21.2-.31.31l-1.56 4.79a2.53 2.53 0 01-1.31 1.57 2.41 2.41 0 01-2.07.1l-.42-.1a2.53 2.53 0 01-1.55-1.36 2.43 2.43 0 01-.1-2.08l1.55-4.8a.63.63 0 01-.1-.41.51.51 0 01.62-.32.58.58 0 01.33.45.45.45 0 01.5-.13.51.51 0 01.31.62c0 .11-.21.21-.31.31l-1.55 4.69a1 1 0 00.1.94 1.11 1.11 0 00.72.63l.21.1a1 1 0 00.93-.1 1.11 1.11 0 00.62-.73l1.55-4.69a.67.67 0 01-.1-.42.43.43 0 01.62-.31.5.5 0 01.31.62c0 .11-.21.21-.31.32l-1.55 4.69a1.85 1.85 0 01-.93 1 2 2 0 01-1.35.1l-.2-.1a1.83 1.83 0 01-1-.94 2 2 0 01-.1-1.35l1.55-4.69a.46.46 0 01-.1-.29l-.21.18-1.64 4.84a2.25 2.25 0 00.1 1.66 2.29 2.29 0 001.24 1.15l.42.1a2.22 2.22 0 001.65-.1 2.26 2.26 0 001.14-1.25l1.55-4.8a.63.63 0 01-.1-.41c0-.42.21-.52.52-.42a.52.52 0 01.31.63.51.51 0 01.62-.32.53.53 0 01.31.63c0 .1-.11.21-.31.31l-1.66 4.9a3.89 3.89 0 01-1.86 2.19 3.75 3.75 0 01-2.8.21l-.62-.21a3.88 3.88 0 01-2.17-1.88 3.73 3.73 0 01-.2-2.81z" fill="#6cb52d"/><path d="M106.84 63.26l.62.21a3.75 3.75 0 002.8-.21 3.89 3.89 0 001.86-2.19l1.66-4.9c.2-.1.31-.21.31-.31a.53.53 0 00-.31-.63.51.51 0 00-.62.32.63.63 0 00.1.41l-1.66 4.9a3.08 3.08 0 01-1.55 1.88 2.75 2.75 0 01-2.38.21l-.62-.21a3.08 3.08 0 01-1.86-1.57 2.74 2.74 0 01-.21-2.39l1.66-4.9c.1-.11.31-.21.31-.31a.52.52 0 00-.31-.63.5.5 0 00-.62.31.64.64 0 00.1.42l-1.65 4.9a3.73 3.73 0 00.2 2.81 3.88 3.88 0 002.17 1.88z" fill="#fff"/><path d="M112.85 54.92c-.31-.1-.52 0-.52.42a.63.63 0 00.1.41l-1.55 4.8a2.26 2.26 0 01-1.14 1.25 2.22 2.22 0 01-1.65.1l-.42-.1a2.29 2.29 0 01-1.24-1.15 2.25 2.25 0 01-.1-1.66l1.55-4.8.21-.18a.46.46 0 00.1.29l-1.55 4.69a2 2 0 00.1 1.35 1.83 1.83 0 001 .94l.2.1a2 2 0 001.35-.1 1.85 1.85 0 00.93-1l1.55-4.69c.1-.11.31-.21.31-.32a.5.5 0 00-.31-.62.43.43 0 00-.62.31.67.67 0 00.1.42l-1.51 4.61a1.11 1.11 0 01-.62.73 1 1 0 01-.93.1l-.21-.1a1.11 1.11 0 01-.72-.63 1 1 0 01-.1-.94l1.55-4.69c.1-.1.31-.2.31-.31a.51.51 0 00-.31-.62.45.45 0 00-.5.13.58.58 0 00-.33-.45.51.51 0 00-.62.32.63.63 0 00.1.41l-1.55 4.8a2.43 2.43 0 00.1 2.08 2.53 2.53 0 001.55 1.36l.42.1a2.41 2.41 0 002.07-.1 2.53 2.53 0 001.34-1.57l1.56-4.79c.1-.11.31-.21.31-.31a.52.52 0 00-.31-.59z" fill="#fff"/><path d="M50.72 68.89a1.41 1.41 0 00-1.41-1.42H5.55a1.42 1.42 0 000 2.83h43.76a1.41 1.41 0 001.41-1.41zM46.58 156.99a1.41 1.41 0 00-1.4-1.42H1.41a1.42 1.42 0 000 2.84h43.77a1.41 1.41 0 001.4-1.42zM1.41 139.19h68.8a1.42 1.42 0 000-2.83H1.41a1.42 1.42 0 000 2.83zM10.51 132.21h47.81a1.42 1.42 0 000-2.84H10.51a1.42 1.42 0 000 2.84zM8.75 44.14h47.81a1.42 1.42 0 000-2.83H8.75a1.42 1.42 0 000 2.83zM1.41 62.7H36a1.42 1.42 0 000-2.84H1.41a1.42 1.42 0 000 2.84z" fill="#d4edfc"/></svg>