<svg xmlns="http://www.w3.org/2000/svg" width="55" height="112" viewBox="0 0 55 112"><polygon points="29.54 110.98 29.54 49.84 28.52 49.84 25.46 49.84 25.46 110.98 29.54 110.98" fill="#d9d9d9"/><polygon points="29.54 110.98 25.46 110.98 13.24 110.98 13.24 112 25.46 112 28.52 112 29.54 112 41.76 112 41.76 110.98 29.54 110.98" fill="#9a9a9a"/><path d="m29.54,63.17h-4.08v-11.21h4.08v11.21Z" fill="#9a9a9a"/><path d="m27.5.5h0c14.91,0,27,12.09,27,27h0c0,14.91-12.09,27-27,27h0C12.59,54.5.5,42.42.5,27.5h0C.5,12.59,12.59.5,27.5.5Z" fill="#fff"/><path d="m27.5,55C12.34,55,0,42.67,0,27.5S12.34,0,27.5,0s27.5,12.34,27.5,27.5-12.34,27.5-27.5,27.5Zm0-54C12.89,1,1,12.89,1,27.5s11.89,26.5,26.5,26.5,26.5-11.89,26.5-26.5S42.11,1,27.5,1Z" fill="#9a9a9a"/><circle cx="27.5" cy="27.5" r="25.73" fill="#fff" stroke="#e7e7e7" stroke-width="1.5"/><path d="m27.5,53.23c-6.82,0-13.37-2.71-18.19-7.54-4.82-4.82-7.54-11.37-7.54-18.19s2.71-13.37,7.54-18.19C14.13,4.48,20.68,1.77,27.5,1.77" fill="none" stroke="#19ab01" stroke-width="1.5"/><path d="m13.53,15.44v13.08h-2.16v-10.52l-3.2,1.08v-1.78l5.1-1.86h.26Zm13.03,5.47v2.13c0,1.02-.1,1.89-.3,2.62-.2.72-.48,1.3-.86,1.75-.38.45-.83.78-1.35.99-.52.21-1.1.31-1.75.31-.51,0-.99-.07-1.43-.2-.44-.13-.83-.34-1.18-.62-.35-.28-.65-.64-.9-1.08-.24-.45-.44-.98-.57-1.6-.13-.62-.2-1.34-.2-2.16v-2.13c0-1.03.1-1.89.3-2.6.2-.71.49-1.29.87-1.73.38-.45.82-.77,1.34-.98.53-.2,1.11-.3,1.76-.3.52,0,1,.07,1.43.2.44.13.84.33,1.18.6.35.27.65.63.9,1.07.25.44.44.96.57,1.59.13.61.2,1.33.2,2.15Zm-2.16,2.44v-2.76c0-.52-.03-.98-.09-1.37-.06-.4-.15-.74-.27-1.01-.11-.28-.26-.51-.43-.68-.17-.18-.37-.31-.59-.39-.22-.08-.47-.13-.74-.13-.33,0-.63.07-.9.2-.26.13-.48.33-.66.61-.18.28-.32.65-.41,1.11-.09.45-.13,1.01-.13,1.66v2.76c0,.53.03.99.09,1.39.06.4.15.74.27,1.03.12.28.26.51.43.7.17.18.37.31.59.39.23.08.47.13.74.13.34,0,.64-.07.9-.2.26-.13.48-.34.66-.63.18-.29.31-.67.4-1.14.09-.47.13-1.02.13-1.67Zm12.58-2.44v2.13c0,1.02-.1,1.89-.3,2.62-.2.72-.48,1.3-.86,1.75-.38.45-.83.78-1.35.99-.52.21-1.1.31-1.75.31-.51,0-.99-.07-1.43-.2-.44-.13-.83-.34-1.18-.62-.35-.28-.65-.64-.9-1.08-.24-.45-.44-.98-.57-1.6-.13-.62-.2-1.34-.2-2.16v-2.13c0-1.03.1-1.89.3-2.6.2-.71.49-1.29.87-1.73.38-.45.82-.77,1.34-.98.53-.2,1.11-.3,1.76-.3.52,0,1,.07,1.43.2.44.13.84.33,1.18.6.35.27.65.63.9,1.07.25.44.44.96.57,1.59.13.61.2,1.33.2,2.15Zm-2.16,2.44v-2.76c0-.52-.03-.98-.09-1.37-.06-.4-.15-.74-.27-1.01-.11-.28-.26-.51-.43-.68-.17-.18-.37-.31-.59-.39-.22-.08-.47-.13-.74-.13-.33,0-.63.07-.9.2-.26.13-.48.33-.66.61-.18.28-.32.65-.41,1.11-.09.45-.13,1.01-.13,1.66v2.76c0,.53.03.99.09,1.39.06.4.15.74.27,1.03.12.28.26.51.43.7.17.18.37.31.59.39.23.08.47.13.74.13.34,0,.64-.07.9-.2.26-.13.48-.34.66-.63.18-.29.31-.67.4-1.14.09-.47.13-1.02.13-1.67Zm12.58-2.44v2.13c0,1.02-.1,1.89-.3,2.62-.2.72-.48,1.3-.86,1.75-.38.45-.83.78-1.35.99-.52.21-1.1.31-1.75.31-.51,0-.99-.07-1.43-.2-.44-.13-.83-.34-1.18-.62-.35-.28-.65-.64-.9-1.08-.24-.45-.44-.98-.57-1.6-.13-.62-.2-1.34-.2-2.16v-2.13c0-1.03.1-1.89.3-2.6.2-.71.49-1.29.87-1.73.38-.45.82-.77,1.34-.98.53-.2,1.11-.3,1.76-.3.52,0,1,.07,1.43.2.44.13.84.33,1.18.6.35.27.65.63.9,1.07.25.44.44.96.57,1.59.13.61.2,1.33.2,2.15Zm-2.16,2.44v-2.76c0-.52-.03-.98-.09-1.37-.06-.4-.15-.74-.27-1.01-.11-.28-.26-.51-.43-.68-.17-.18-.37-.31-.59-.39-.22-.08-.47-.13-.74-.13-.33,0-.63.07-.9.2-.26.13-.48.33-.66.61-.18.28-.32.65-.41,1.11-.09.45-.13,1.01-.13,1.66v2.76c0,.53.03.99.09,1.39.06.4.15.74.27,1.03.12.28.26.51.43.7.17.18.37.31.59.39.23.08.47.13.74.13.34,0,.64-.07.9-.2.26-.13.48-.34.66-.63.18-.29.31-.67.4-1.14.09-.47.13-1.02.13-1.67Z" fill="#252525"/><path d="m12.94,33.5h1.11l2.09,5.59,2.09-5.59h1.11l-2.77,7.24h-.89l-2.76-7.24Zm-.51,0h1.06l.18,4.84v2.41h-1.24v-7.24Zm6.37,0h1.06v7.24h-1.25v-2.41l.18-4.84Zm5.81-.5h.97c0,.3-.04.54-.12.73-.08.19-.2.35-.36.47-.16.12-.35.22-.58.29-.23.07-.49.14-.8.2-.28.06-.53.15-.76.28-.22.13-.41.3-.56.53-.15.23-.26.52-.32.87-.07.35-.09.79-.06,1.3v.34l-.95.08v-.34c0-.63.06-1.19.17-1.66.12-.47.28-.87.49-1.19.22-.33.47-.58.77-.78.3-.19.63-.33,1-.4.25-.05.46-.11.62-.16.17-.06.29-.13.37-.21.08-.09.12-.21.12-.36Zm-.84,2.66c.36,0,.68.06.96.19.28.12.51.3.71.52s.34.48.44.79c.1.3.15.63.15.99v.11c0,.37-.05.71-.16,1.03-.11.32-.27.59-.48.83-.21.23-.47.41-.78.55-.31.13-.66.19-1.05.19s-.74-.07-1.05-.2c-.31-.14-.57-.33-.78-.57-.21-.25-.37-.53-.48-.86-.11-.33-.16-.69-.16-1.07v-.11c0-.07.01-.14.05-.2.04-.07.09-.14.15-.21.06-.08.11-.16.16-.26.17-.34.36-.63.59-.88.23-.25.48-.45.77-.59.29-.14.62-.21.98-.21Zm-.23.95c-.3,0-.54.07-.73.21-.19.14-.32.33-.41.56-.09.23-.13.48-.13.76v.11c0,.22.02.43.07.63.05.2.12.37.22.53.1.15.24.27.4.35.17.09.36.13.59.13s.42-.04.58-.13c.16-.09.29-.2.39-.35.1-.15.18-.33.22-.53.05-.2.07-.41.07-.63v-.11c0-.21-.02-.4-.07-.58-.05-.18-.12-.34-.22-.48-.1-.14-.24-.26-.4-.34-.16-.08-.36-.12-.59-.12Zm4.71-1.25v5.38h-1.2v-5.38h1.2Zm-1.28-1.41c0-.18.06-.33.18-.45s.29-.18.51-.18.38.06.5.18c.12.12.18.27.18.45s-.06.33-.18.45c-.12.12-.29.18-.5.18s-.38-.06-.51-.18c-.12-.12-.18-.27-.18-.45Zm5.09,1.41v5.38h-1.2v-5.38h1.2Zm1.77,0v.95h-4.71v-.95h4.71Zm3.95-1.86l-2.82,7.87h-.94l2.83-7.87h.94Zm3.03,6.39c.2,0,.37-.04.53-.11.16-.08.29-.19.38-.33.1-.14.15-.3.16-.48h1.13c0,.35-.11.66-.31.95-.2.29-.46.51-.79.68-.33.17-.69.25-1.09.25s-.77-.07-1.07-.21c-.31-.14-.56-.34-.76-.59-.2-.25-.35-.54-.46-.86-.1-.33-.15-.67-.15-1.04v-.17c0-.37.05-.72.15-1.04.1-.33.26-.62.46-.87.2-.25.46-.44.76-.58.31-.14.66-.21,1.07-.21.43,0,.81.09,1.13.26.33.17.58.41.77.71.19.3.29.65.29,1.05h-1.13c0-.2-.06-.38-.15-.54-.09-.16-.21-.29-.37-.39-.16-.1-.34-.14-.56-.14-.24,0-.44.05-.6.15-.16.1-.28.23-.37.4-.09.17-.15.35-.19.56-.04.21-.05.42-.05.64v.17c0,.22.02.44.05.65.04.21.1.4.19.56.09.16.22.29.38.39.16.1.36.14.61.14Z" fill="#252525"/></svg>